<svg width="44" height="40" viewBox="0 0 44 40" fill="none" xmlns="http://www.w3.org/2000/svg">
<path fill-rule="evenodd" clip-rule="evenodd" d="M12 12C12 11.4477 12.4477 11 13 11H31C31.5523 11 32 11.4477 32 12C32 12.5523 31.5523 13 31 13H13C12.4477 13 12 12.5523 12 12Z" fill="#FF4D77"/>
<path fill-rule="evenodd" clip-rule="evenodd" d="M12 18C12 17.4477 12.4477 17 13 17H31C31.5523 17 32 17.4477 32 18C32 18.5523 31.5523 19 31 19H13C12.4477 19 12 18.5523 12 18Z" fill="#FF4D77"/>
<path fill-rule="evenodd" clip-rule="evenodd" d="M12 24C12 23.4477 12.4477 23 13 23H31C31.5523 23 32 23.4477 32 24C32 24.5523 31.5523 25 31 25H13C12.4477 25 12 24.5523 12 24Z" fill="#FF4D77"/>
</svg>
