<svg width="227" height="36" viewBox="0 0 227 36" fill="none" xmlns="http://www.w3.org/2000/svg">
<path d="M8.07502 34.31V35H0.830017V24.5H7.85002V25.19H1.59502V29.33H7.19002V30.005H1.59502V34.31H8.07502Z" fill="#FF4D77"/>
<path d="M20.1642 24.5V35H19.5342L12.3792 25.88V35H11.6142V24.5H12.2592L19.3992 33.62V24.5H20.1642Z" fill="#FF4D77"/>
<path d="M26.591 25.19H22.811V24.5H31.136V25.19H27.356V35H26.591V25.19Z" fill="#FF4D77"/>
<path d="M41.0281 34.31V35H33.7831V24.5H40.8031V25.19H34.5481V29.33H40.1431V30.005H34.5481V34.31H41.0281Z" fill="#FF4D77"/>
<path d="M51.8573 35L49.3523 31.49C48.9823 31.54 48.6423 31.565 48.3323 31.565H45.3323V35H44.5673V24.5H48.3323C49.6523 24.5 50.6873 24.815 51.4373 25.445C52.1873 26.065 52.5623 26.93 52.5623 28.04C52.5623 28.87 52.3473 29.57 51.9173 30.14C51.4973 30.7 50.8923 31.095 50.1023 31.325L52.7273 35H51.8573ZM48.3323 30.89C49.4523 30.89 50.3073 30.645 50.8973 30.155C51.4873 29.655 51.7823 28.95 51.7823 28.04C51.7823 27.13 51.4873 26.43 50.8973 25.94C50.3073 25.44 49.4523 25.19 48.3323 25.19H45.3323V30.89H48.3323Z" fill="#FF4D77"/>
<path d="M57.9767 25.19H54.1967V24.5H62.5217V25.19H58.7417V35H57.9767V25.19Z" fill="#FF4D77"/>
<path d="M71.1365 32.045H65.0465L63.7115 35H62.8865L67.7165 24.5H68.4815L73.3115 35H72.4865L71.1365 32.045ZM70.8515 31.4L68.0915 25.34L65.3465 31.4H70.8515Z" fill="#FF4D77"/>
<path d="M75.9677 24.5H76.7327V35H75.9677V24.5Z" fill="#FF4D77"/>
<path d="M89.6915 24.5V35H89.0615L81.9065 25.88V35H81.1415V24.5H81.7865L88.9265 33.62V24.5H89.6915Z" fill="#FF4D77"/>
<path d="M104.038 35L104.023 26.015L99.6283 33.605H99.2533L94.8583 26.045V35H94.1083V24.5H94.7533L99.4483 32.615L104.143 24.5H104.773L104.788 35H104.038Z" fill="#FF4D77"/>
<path d="M116.444 34.31V35H109.199V24.5H116.219V25.19H109.964V29.33H115.559V30.005H109.964V34.31H116.444Z" fill="#FF4D77"/>
<path d="M128.533 24.5V35H127.903L120.748 25.88V35H119.983V24.5H120.628L127.768 33.62V24.5H128.533Z" fill="#FF4D77"/>
<path d="M134.96 25.19H131.18V24.5H139.505V25.19H135.725V35H134.96V25.19Z" fill="#FF4D77"/>
<path d="M153.25 32.045H147.16L145.825 35H145L149.83 24.5H150.595L155.425 35H154.6L153.25 32.045ZM152.965 31.4L150.205 25.34L147.46 31.4H152.965Z" fill="#FF4D77"/>
<path d="M162.375 35.075C161.345 35.075 160.415 34.845 159.585 34.385C158.764 33.925 158.115 33.29 157.635 32.48C157.165 31.67 156.93 30.76 156.93 29.75C156.93 28.74 157.165 27.83 157.635 27.02C158.115 26.21 158.764 25.575 159.585 25.115C160.415 24.655 161.345 24.425 162.375 24.425C163.135 24.425 163.835 24.55 164.475 24.8C165.115 25.04 165.66 25.4 166.11 25.88L165.63 26.375C164.79 25.545 163.715 25.13 162.405 25.13C161.525 25.13 160.725 25.33 160.005 25.73C159.285 26.13 158.72 26.685 158.31 27.395C157.9 28.095 157.695 28.88 157.695 29.75C157.695 30.62 157.9 31.41 158.31 32.12C158.72 32.82 159.285 33.37 160.005 33.77C160.725 34.17 161.525 34.37 162.405 34.37C163.705 34.37 164.779 33.95 165.63 33.11L166.11 33.605C165.66 34.085 165.109 34.45 164.46 34.7C163.82 34.95 163.125 35.075 162.375 35.075Z" fill="#FF4D77"/>
<path d="M175.638 32.045H169.548L168.213 35H167.388L172.218 24.5H172.983L177.813 35H176.988L175.638 32.045ZM175.353 31.4L172.593 25.34L169.848 31.4H175.353Z" fill="#FF4D77"/>
<path d="M180.47 24.5H184.625C185.715 24.5 186.68 24.725 187.52 25.175C188.37 25.625 189.03 26.25 189.5 27.05C189.97 27.84 190.205 28.74 190.205 29.75C190.205 30.76 189.97 31.665 189.5 32.465C189.03 33.255 188.37 33.875 187.52 34.325C186.68 34.775 185.715 35 184.625 35H180.47V24.5ZM184.565 34.31C185.535 34.31 186.39 34.12 187.13 33.74C187.87 33.35 188.44 32.81 188.84 32.12C189.24 31.43 189.44 30.64 189.44 29.75C189.44 28.86 189.24 28.07 188.84 27.38C188.44 26.69 187.87 26.155 187.13 25.775C186.39 25.385 185.535 25.19 184.565 25.19H181.235V34.31H184.565Z" fill="#FF4D77"/>
<path d="M200.857 34.31V35H193.612V24.5H200.632V25.19H194.377V29.33H199.972V30.005H194.377V34.31H200.857Z" fill="#FF4D77"/>
<path d="M214.326 35L214.311 26.015L209.916 33.605H209.541L205.146 26.045V35H204.396V24.5H205.041L209.736 32.615L214.431 24.5H215.061L215.076 35H214.326Z" fill="#FF4D77"/>
<path d="M222.727 31.385V35H221.962V31.385L217.732 24.5H218.572L222.367 30.68L226.162 24.5H226.957L222.727 31.385Z" fill="#FF4D77"/>
<path d="M7.46403 18.24C6.16803 18.24 4.91203 18.056 3.69603 17.688C2.49603 17.32 1.54403 16.832 0.840027 16.224L1.92003 13.8C2.60803 14.344 3.44803 14.792 4.44003 15.144C5.44803 15.48 6.45603 15.648 7.46403 15.648C8.71203 15.648 9.64003 15.448 10.248 15.048C10.872 14.648 11.184 14.12 11.184 13.464C11.184 12.984 11.008 12.592 10.656 12.288C10.32 11.968 9.88803 11.72 9.36003 11.544C8.83203 11.368 8.11203 11.168 7.20003 10.944C5.92003 10.64 4.88003 10.336 4.08003 10.032C3.29603 9.72799 2.61603 9.25599 2.04003 8.61599C1.48003 7.95999 1.20003 7.07999 1.20003 5.97599C1.20003 5.04799 1.44803 4.20799 1.94403 3.45599C2.45603 2.68799 3.21603 2.07999 4.22403 1.63199C5.24803 1.18399 6.49603 0.959991 7.96803 0.959991C8.99203 0.959991 10 1.08799 10.992 1.34399C11.984 1.59999 12.84 1.96799 13.56 2.44799L12.576 4.87199C11.84 4.43999 11.072 4.11199 10.272 3.88799C9.47203 3.66399 8.69603 3.55199 7.94403 3.55199C6.71203 3.55199 5.79203 3.75999 5.18403 4.17599C4.59203 4.59199 4.29603 5.14399 4.29603 5.83199C4.29603 6.31199 4.46403 6.70399 4.80003 7.00799C5.15203 7.31199 5.59203 7.55199 6.12003 7.72799C6.64803 7.90399 7.36803 8.10399 8.28003 8.32799C9.52803 8.61599 10.552 8.91999 11.352 9.23999C12.152 9.54399 12.832 10.016 13.392 10.656C13.968 11.296 14.256 12.16 14.256 13.248C14.256 14.176 14 15.016 13.488 15.768C12.992 16.52 12.232 17.12 11.208 17.568C10.184 18.016 8.93603 18.24 7.46403 18.24Z" fill="#FF4D77"/>
<path d="M25.4618 1.19999C26.9178 1.19999 28.1818 1.43999 29.2538 1.91999C30.3418 2.39999 31.1738 3.08799 31.7498 3.98399C32.3258 4.87999 32.6138 5.94399 32.6138 7.17599C32.6138 8.39199 32.3258 9.45599 31.7498 10.368C31.1738 11.264 30.3418 11.952 29.2538 12.432C28.1818 12.912 26.9178 13.152 25.4618 13.152H21.6698V18H18.5498V1.19999H25.4618ZM25.3178 10.512C26.6778 10.512 27.7098 10.224 28.4138 9.64799C29.1178 9.07199 29.4698 8.24799 29.4698 7.17599C29.4698 6.10399 29.1178 5.27999 28.4138 4.70399C27.7098 4.12799 26.6778 3.83999 25.3178 3.83999H21.6698V10.512H25.3178Z" fill="#FF4D77"/>
<path d="M49.5295 15.384V18H36.9295V1.19999H49.1935V3.81599H40.0495V8.18399H48.1615V10.752H40.0495V15.384H49.5295Z" fill="#FF4D77"/>
<path d="M61.9133 18.24C60.2173 18.24 58.6813 17.872 57.3053 17.136C55.9453 16.384 54.8733 15.352 54.0893 14.04C53.3213 12.728 52.9373 11.248 52.9373 9.59999C52.9373 7.95199 53.3293 6.47199 54.1133 5.15999C54.8973 3.84799 55.9693 2.82399 57.3293 2.08799C58.7053 1.33599 60.2413 0.959991 61.9373 0.959991C63.3133 0.959991 64.5693 1.19999 65.7053 1.67999C66.8413 2.15999 67.8013 2.85599 68.5853 3.76799L66.5693 5.66399C65.3533 4.35199 63.8573 3.69599 62.0813 3.69599C60.9293 3.69599 59.8973 3.95199 58.9853 4.46399C58.0733 4.95999 57.3613 5.65599 56.8493 6.55199C56.3373 7.44799 56.0813 8.46399 56.0813 9.59999C56.0813 10.736 56.3373 11.752 56.8493 12.648C57.3613 13.544 58.0733 14.248 58.9853 14.76C59.8973 15.256 60.9293 15.504 62.0813 15.504C63.8573 15.504 65.3533 14.84 66.5693 13.512L68.5853 15.432C67.8013 16.344 66.8333 17.04 65.6813 17.52C64.5453 18 63.2893 18.24 61.9133 18.24Z" fill="#FF4D77"/>
<path d="M72.7748 1.19999H75.8948V18H72.7748V1.19999Z" fill="#FF4D77"/>
<path d="M92.5348 14.112H84.1348L82.4788 18H79.2628L86.8228 1.19999H89.8948L97.4788 18H94.2148L92.5348 14.112ZM91.5028 11.664L88.3348 4.31999L85.1908 11.664H91.5028Z" fill="#FF4D77"/>
<path d="M100.815 1.19999H103.935V15.36H112.719V18H100.815V1.19999Z" fill="#FF4D77"/>
<path d="M120.147 1.19999V18H117.027V3.81599H113.475V1.19999H120.147Z" fill="#FF4D77"/>
</svg>
