<svg width="161" height="46" viewBox="0 0 161 46" fill="none" xmlns="http://www.w3.org/2000/svg">
<path d="M0.224 1.652C0.364 2.576 0.364 2.576 0.364 4.536L0.252 19.656C0.252 21.28 0.196 21.784 0 22.54L1.792 24.696C2.38 24.472 2.716 24.36 3.472 24.22C8.008 23.352 10.864 22.26 13.664 20.384C16.184 18.704 17.976 16.828 19.908 13.86C18.704 12.852 18.34 12.46 17.248 11.004C15.848 13.72 14.112 15.652 11.536 17.416C9.436 18.872 6.804 19.936 3.892 20.496L4.032 4.508C4.06 3.136 4.088 2.436 4.2 1.68L0.224 1.652Z" fill="url(#paint0_linear)"/>
<path d="M27.104 8.456C28.364 10.92 28.924 12.404 29.652 15.232L32.816 14.224C31.808 11.088 31.248 9.744 30.072 7.588L27.104 8.456ZM33.096 7.28C34.272 9.576 35.112 11.732 35.644 13.86L38.752 12.88C38.052 10.444 37.52 9.212 36.036 6.44L33.096 7.28ZM42.728 7C42.728 7.868 42.588 8.848 42.224 10.22C41.02 14.7 39.144 17.556 35.868 19.936C34.216 21.14 33.068 21.756 31.108 22.512C32.284 23.632 32.62 24.052 33.348 25.284C37.492 23.184 39.816 21.364 41.888 18.536C43.68 16.1 44.94 13.02 45.752 9.212C45.92 8.344 45.976 8.204 46.144 7.784L42.728 7Z" fill="url(#paint1_linear)"/>
<path d="M75.3535 21.7C71.9655 18.424 71.9655 18.424 71.2655 17.808C69.3615 16.1 67.8495 14.924 66.0855 13.748C67.7935 11.452 69.1655 9.016 70.4535 6.02C70.7615 5.32 70.9855 4.928 71.3495 4.508L69.5015 2.604C68.8015 2.856 68.5775 2.884 67.0095 2.912L57.1535 3.052C56.8175 3.052 56.5935 3.052 56.4815 3.052C55.3335 3.052 54.8015 3.024 54.0175 2.884L54.1295 6.468C55.0815 6.328 55.8375 6.272 57.1815 6.244C66.0015 6.104 66.0015 6.104 66.4495 6.076L66.1415 6.804C64.3215 11.172 60.9615 15.232 56.7335 18.2C54.6335 19.684 53.2895 20.44 51.1335 21.28C52.2815 22.484 52.6175 22.932 53.4015 24.388C57.6855 22.288 60.9055 19.824 64.0695 16.296C67.1215 18.62 70.3415 21.756 72.6655 24.612L75.3535 21.7Z" fill="url(#paint2_linear)"/>
<path d="M80.6455 5.712C83.2495 7.168 85.5455 9.016 87.7855 11.396L90.1935 8.344C88.0375 6.3 86.3015 5.012 82.9695 2.94L80.6455 5.712ZM81.6255 24.192C82.2695 23.968 82.3535 23.94 83.4735 23.716C87.8135 22.792 91.2855 21.42 94.1415 19.516C97.9775 16.968 100.637 13.664 103.017 8.54C101.589 7.532 101.141 7.112 100.049 5.796C99.2095 8.064 98.4255 9.604 97.1935 11.396C94.9815 14.588 92.3775 16.744 88.8775 18.256C86.3295 19.376 82.9975 20.188 80.5895 20.328L81.6255 24.192Z" fill="url(#paint3_linear)"/>
<path d="M127.769 21.756C127.769 22.568 127.629 22.652 126.257 22.652C125.165 22.652 124.017 22.54 122.617 22.344C123.093 23.436 123.289 24.136 123.485 25.536C124.605 25.592 125.445 25.62 126.201 25.62C128.833 25.62 129.841 25.396 130.457 24.612C130.793 24.192 130.877 23.772 130.877 22.596V6.552C130.877 5.376 130.905 4.592 130.989 3.836C130.037 3.948 129.337 3.976 127.797 3.976H120.657C120.685 3.528 120.685 3.528 120.713 2.94C120.769 1.792 120.769 1.792 120.797 1.4C120.825 0.755999 120.853 0.503999 120.965 0H117.465C117.577 0.727999 117.633 1.344 117.633 2.464C117.633 2.94 117.633 3.332 117.605 3.976H110.745C109.289 3.976 108.505 3.948 107.497 3.836C107.581 4.62 107.609 5.404 107.609 6.552V22.512C107.609 23.856 107.553 24.948 107.413 25.9H110.857C110.745 25.144 110.717 24.304 110.717 22.568V17.136C111.501 17.948 112.117 18.732 112.509 19.488C115.029 17.892 116.513 16.52 117.829 14.532C118.389 13.692 118.781 12.908 119.173 11.872C120.601 14.504 123.009 17.052 125.921 18.984C126.481 17.892 127.069 17.08 127.769 16.352V21.756ZM127.769 6.776V16.044C125.865 14.952 124.577 14 123.373 12.768C122.113 11.48 120.993 9.856 120.209 8.12C120.293 7.616 120.321 7.476 120.405 6.776H127.769ZM110.717 6.776H117.353C116.989 9.212 116.373 11.032 115.365 12.6C114.273 14.28 112.985 15.456 110.717 16.8V6.776Z" fill="url(#paint4_linear)"/>
<path d="M145.381 2.156H138.213C137.093 2.156 136.141 2.128 135.133 2.044C135.189 2.716 135.245 3.36 135.245 4.088V6.16C135.245 7 135.217 7.532 135.105 8.26H138.157V4.984H156.385V8.26H159.409C159.325 7.56 159.297 7 159.297 6.16V4.088C159.297 3.332 159.325 2.66 159.409 2.044C158.373 2.128 157.421 2.156 156.301 2.156H148.517V1.792C148.517 1.064 148.545 0.615999 148.685 0.0279996H145.241C145.353 0.644 145.381 1.092 145.381 1.792V2.156ZM138.801 23.24C138.801 24.36 138.745 25.144 138.633 26.04H141.769V24.836H152.745V26.04H155.881C155.741 25.172 155.713 24.444 155.713 23.268V18.004C157.281 18.872 157.589 19.012 158.905 19.6C159.437 18.032 159.605 17.696 160.333 16.604C158.065 15.82 156.049 14.924 154.229 13.86C151.737 12.376 149.833 10.696 148.685 8.96H145.829C145.325 9.688 145.045 9.996 144.401 10.64C143.225 11.788 141.881 12.852 140.677 13.664C138.913 14.812 136.841 15.876 134.349 16.884C135.077 17.864 135.385 18.452 135.805 19.628C137.261 18.9 137.793 18.62 138.801 18.06V23.24ZM142.497 15.708C144.205 14.56 145.857 13.104 147.313 11.396C148.825 13.272 149.805 14.168 151.989 15.708H142.497ZM141.769 18.396H152.745V22.008H141.769V18.396ZM142.749 5.292C141.293 6.944 140.509 7.672 139.025 8.652C137.849 9.408 137.037 9.828 135.357 10.528C136.309 11.396 136.701 11.872 137.373 12.88C139.137 11.984 139.949 11.48 141.349 10.444C143.001 9.184 143.785 8.428 145.241 6.748L142.749 5.292ZM149.049 6.804C152.325 10.108 153.837 11.172 157.785 12.852C158.429 11.48 158.625 11.144 159.297 10.192C155.797 8.932 154.201 7.924 151.373 5.18L149.049 6.804Z" fill="url(#paint5_linear)"/>
<path d="M0 34.136H1.184V44.312H7.456V45.336H0V34.136Z" fill="url(#paint6_linear)"/>
<path d="M18.1419 44.312V45.336H10.2219V34.136H17.9019V35.16H11.4059V39.144H17.1979V40.152H11.4059V44.312H18.1419Z" fill="url(#paint7_linear)"/>
<path d="M24.813 45.432C23.981 45.432 23.181 45.2987 22.413 45.032C21.6557 44.7654 21.069 44.4134 20.653 43.976L21.117 43.064C21.5223 43.4694 22.061 43.8 22.733 44.056C23.405 44.3014 24.0983 44.424 24.813 44.424C25.8157 44.424 26.5677 44.2427 27.069 43.88C27.5703 43.5067 27.821 43.0267 27.821 42.44C27.821 41.992 27.6823 41.6347 27.405 41.368C27.1383 41.1014 26.8077 40.8987 26.413 40.76C26.0183 40.6107 25.469 40.4507 24.765 40.28C23.9223 40.0667 23.2503 39.864 22.749 39.672C22.2477 39.4694 21.8157 39.1654 21.453 38.76C21.101 38.3547 20.925 37.8054 20.925 37.112C20.925 36.5467 21.0743 36.0347 21.373 35.576C21.6717 35.1067 22.1303 34.7334 22.749 34.456C23.3677 34.1787 24.1357 34.04 25.053 34.04C25.693 34.04 26.317 34.1307 26.925 34.312C27.5437 34.4827 28.077 34.7227 28.525 35.032L28.125 35.976C27.6557 35.6667 27.1543 35.4374 26.621 35.288C26.0877 35.128 25.565 35.048 25.053 35.048C24.0717 35.048 23.3303 35.24 22.829 35.624C22.3383 35.9974 22.093 36.4827 22.093 37.08C22.093 37.528 22.2263 37.8907 22.493 38.168C22.7703 38.4347 23.1117 38.6427 23.517 38.792C23.933 38.9307 24.4877 39.0854 25.181 39.256C26.0023 39.4587 26.6637 39.6614 27.165 39.864C27.677 40.056 28.109 40.3547 28.461 40.76C28.813 41.1547 28.989 41.6934 28.989 42.376C28.989 42.9414 28.8343 43.4587 28.525 43.928C28.2263 44.3867 27.7623 44.7547 27.133 45.032C26.5037 45.2987 25.7303 45.432 24.813 45.432Z" fill="url(#paint8_linear)"/>
<path d="M35.4567 45.432C34.6247 45.432 33.8248 45.2987 33.0568 45.032C32.2994 44.7654 31.7128 44.4134 31.2968 43.976L31.7608 43.064C32.1661 43.4694 32.7048 43.8 33.3768 44.056C34.0488 44.3014 34.7421 44.424 35.4567 44.424C36.4594 44.424 37.2114 44.2427 37.7127 43.88C38.2141 43.5067 38.4648 43.0267 38.4648 42.44C38.4648 41.992 38.3261 41.6347 38.0488 41.368C37.7821 41.1014 37.4514 40.8987 37.0568 40.76C36.6621 40.6107 36.1127 40.4507 35.4087 40.28C34.5661 40.0667 33.8941 39.864 33.3927 39.672C32.8914 39.4694 32.4594 39.1654 32.0968 38.76C31.7448 38.3547 31.5688 37.8054 31.5688 37.112C31.5688 36.5467 31.7181 36.0347 32.0168 35.576C32.3154 35.1067 32.7741 34.7334 33.3927 34.456C34.0114 34.1787 34.7794 34.04 35.6968 34.04C36.3368 34.04 36.9608 34.1307 37.5688 34.312C38.1874 34.4827 38.7207 34.7227 39.1688 35.032L38.7687 35.976C38.2994 35.6667 37.7981 35.4374 37.2648 35.288C36.7314 35.128 36.2088 35.048 35.6968 35.048C34.7154 35.048 33.9741 35.24 33.4728 35.624C32.9821 35.9974 32.7368 36.4827 32.7368 37.08C32.7368 37.528 32.8701 37.8907 33.1367 38.168C33.4141 38.4347 33.7554 38.6427 34.1608 38.792C34.5768 38.9307 35.1314 39.0854 35.8247 39.256C36.6461 39.4587 37.3074 39.6614 37.8088 39.864C38.3208 40.056 38.7528 40.3547 39.1048 40.76C39.4568 41.1547 39.6328 41.6934 39.6328 42.376C39.6328 42.9414 39.4781 43.4587 39.1688 43.928C38.8701 44.3867 38.4061 44.7547 37.7768 45.032C37.1474 45.2987 36.3741 45.432 35.4567 45.432Z" fill="url(#paint9_linear)"/>
<path d="M47.9085 45.432C46.7992 45.432 45.7912 45.1867 44.8845 44.696C43.9885 44.1947 43.2845 43.512 42.7725 42.648C42.2712 41.784 42.0205 40.8134 42.0205 39.736C42.0205 38.6587 42.2712 37.688 42.7725 36.824C43.2845 35.96 43.9885 35.2827 44.8845 34.792C45.7912 34.2907 46.7992 34.04 47.9085 34.04C49.0178 34.04 50.0152 34.2854 50.9005 34.776C51.7965 35.2667 52.5005 35.9494 53.0125 36.824C53.5245 37.688 53.7805 38.6587 53.7805 39.736C53.7805 40.8134 53.5245 41.7894 53.0125 42.664C52.5005 43.528 51.7965 44.2054 50.9005 44.696C50.0152 45.1867 49.0178 45.432 47.9085 45.432ZM47.9085 44.376C48.7938 44.376 49.5938 44.1787 50.3085 43.784C51.0232 43.3787 51.5832 42.824 51.9885 42.12C52.3938 41.4054 52.5965 40.6107 52.5965 39.736C52.5965 38.8614 52.3938 38.072 51.9885 37.368C51.5832 36.6534 51.0232 36.0987 50.3085 35.704C49.5938 35.2987 48.7938 35.096 47.9085 35.096C47.0232 35.096 46.2178 35.2987 45.4925 35.704C44.7778 36.0987 44.2125 36.6534 43.7965 37.368C43.3912 38.072 43.1885 38.8614 43.1885 39.736C43.1885 40.6107 43.3912 41.4054 43.7965 42.12C44.2125 42.824 44.7778 43.3787 45.4925 43.784C46.2178 44.1787 47.0232 44.376 47.9085 44.376Z" fill="url(#paint10_linear)"/>
<path d="M66.5944 34.136V45.336H65.6184L58.4184 36.248V45.336H57.2344V34.136H58.2104L65.4264 43.224V34.136H66.5944Z" fill="url(#paint11_linear)"/>
<path d="M74.138 45.432C73.306 45.432 72.506 45.2987 71.738 45.032C70.9807 44.7654 70.394 44.4134 69.978 43.976L70.442 43.064C70.8473 43.4694 71.386 43.8 72.058 44.056C72.73 44.3014 73.4233 44.424 74.138 44.424C75.1407 44.424 75.8927 44.2427 76.394 43.88C76.8953 43.5067 77.146 43.0267 77.146 42.44C77.146 41.992 77.0073 41.6347 76.73 41.368C76.4633 41.1014 76.1327 40.8987 75.738 40.76C75.3433 40.6107 74.794 40.4507 74.09 40.28C73.2473 40.0667 72.5753 39.864 72.074 39.672C71.5727 39.4694 71.1407 39.1654 70.778 38.76C70.426 38.3547 70.25 37.8054 70.25 37.112C70.25 36.5467 70.3993 36.0347 70.698 35.576C70.9967 35.1067 71.4553 34.7334 72.074 34.456C72.6927 34.1787 73.4607 34.04 74.378 34.04C75.018 34.04 75.642 34.1307 76.25 34.312C76.8687 34.4827 77.402 34.7227 77.85 35.032L77.45 35.976C76.9807 35.6667 76.4793 35.4374 75.946 35.288C75.4127 35.128 74.89 35.048 74.378 35.048C73.3967 35.048 72.6553 35.24 72.154 35.624C71.6633 35.9974 71.418 36.4827 71.418 37.08C71.418 37.528 71.5513 37.8907 71.818 38.168C72.0953 38.4347 72.4367 38.6427 72.842 38.792C73.258 38.9307 73.8127 39.0854 74.506 39.256C75.3273 39.4587 75.9887 39.6614 76.49 39.864C77.002 40.056 77.434 40.3547 77.786 40.76C78.138 41.1547 78.314 41.6934 78.314 42.376C78.314 42.9414 78.1593 43.4587 77.85 43.928C77.5513 44.3867 77.0873 44.7547 76.458 45.032C75.8287 45.2987 75.0553 45.432 74.138 45.432Z" fill="url(#paint12_linear)"/>
<defs>
<linearGradient id="paint0_linear" x1="20.6112" y1="8.188" x2="161.961" y2="19.4674" gradientUnits="userSpaceOnUse">
<stop stop-color="#FF4D77"/>
<stop offset="1" stop-color="#9E00D6"/>
</linearGradient>
<linearGradient id="paint1_linear" x1="20.6112" y1="8.188" x2="161.961" y2="19.4674" gradientUnits="userSpaceOnUse">
<stop stop-color="#FF4D77"/>
<stop offset="1" stop-color="#9E00D6"/>
</linearGradient>
<linearGradient id="paint2_linear" x1="20.6112" y1="8.188" x2="161.961" y2="19.4674" gradientUnits="userSpaceOnUse">
<stop stop-color="#FF4D77"/>
<stop offset="1" stop-color="#9E00D6"/>
</linearGradient>
<linearGradient id="paint3_linear" x1="20.6112" y1="8.188" x2="161.961" y2="19.4674" gradientUnits="userSpaceOnUse">
<stop stop-color="#FF4D77"/>
<stop offset="1" stop-color="#9E00D6"/>
</linearGradient>
<linearGradient id="paint4_linear" x1="20.6112" y1="8.188" x2="161.961" y2="19.4674" gradientUnits="userSpaceOnUse">
<stop stop-color="#FF4D77"/>
<stop offset="1" stop-color="#9E00D6"/>
</linearGradient>
<linearGradient id="paint5_linear" x1="20.6112" y1="8.188" x2="161.961" y2="19.4674" gradientUnits="userSpaceOnUse">
<stop stop-color="#FF4D77"/>
<stop offset="1" stop-color="#9E00D6"/>
</linearGradient>
<linearGradient id="paint6_linear" x1="0.767995" y1="36.8359" x2="79.2877" y2="39.359" gradientUnits="userSpaceOnUse">
<stop stop-color="#FF4D77"/>
<stop offset="1" stop-color="#D14DFF"/>
</linearGradient>
<linearGradient id="paint7_linear" x1="0.767995" y1="36.8359" x2="79.2877" y2="39.359" gradientUnits="userSpaceOnUse">
<stop stop-color="#FF4D77"/>
<stop offset="1" stop-color="#D14DFF"/>
</linearGradient>
<linearGradient id="paint8_linear" x1="0.767995" y1="36.8359" x2="79.2877" y2="39.359" gradientUnits="userSpaceOnUse">
<stop stop-color="#FF4D77"/>
<stop offset="1" stop-color="#D14DFF"/>
</linearGradient>
<linearGradient id="paint9_linear" x1="0.767995" y1="36.8359" x2="79.2877" y2="39.359" gradientUnits="userSpaceOnUse">
<stop stop-color="#FF4D77"/>
<stop offset="1" stop-color="#D14DFF"/>
</linearGradient>
<linearGradient id="paint10_linear" x1="0.767995" y1="36.8359" x2="79.2877" y2="39.359" gradientUnits="userSpaceOnUse">
<stop stop-color="#FF4D77"/>
<stop offset="1" stop-color="#D14DFF"/>
</linearGradient>
<linearGradient id="paint11_linear" x1="0.767995" y1="36.8359" x2="79.2877" y2="39.359" gradientUnits="userSpaceOnUse">
<stop stop-color="#FF4D77"/>
<stop offset="1" stop-color="#D14DFF"/>
</linearGradient>
<linearGradient id="paint12_linear" x1="0.767995" y1="36.8359" x2="79.2877" y2="39.359" gradientUnits="userSpaceOnUse">
<stop stop-color="#FF4D77"/>
<stop offset="1" stop-color="#D14DFF"/>
</linearGradient>
</defs>
</svg>
