<svg width="125" height="54" viewBox="0 0 125 54" fill="none" xmlns="http://www.w3.org/2000/svg">
<path d="M1.82401 38.8001H3.00801V50.0001H1.82401V38.8001Z" fill="url(#paint0_linear)"/>
<path d="M16.8121 38.8001V50.0001H15.8361L8.63613 40.9121V50.0001H7.45213V38.8001H8.42813L15.6441 47.8881V38.8001H16.8121Z" fill="url(#paint1_linear)"/>
<path d="M24.3558 50.0961C23.5238 50.0961 22.7238 49.9628 21.9558 49.6961C21.1984 49.4294 20.6118 49.0774 20.1958 48.6401L20.6598 47.7281C21.0651 48.1334 21.6038 48.4641 22.2758 48.7201C22.9478 48.9654 23.6411 49.0881 24.3558 49.0881C25.3584 49.0881 26.1104 48.9068 26.6118 48.5441C27.1131 48.1708 27.3638 47.6908 27.3638 47.1041C27.3638 46.6561 27.2251 46.2988 26.9478 46.0321C26.6811 45.7654 26.3504 45.5628 25.9558 45.4241C25.5611 45.2748 25.0118 45.1148 24.3078 44.9441C23.4651 44.7308 22.7931 44.5281 22.2918 44.3361C21.7904 44.1334 21.3584 43.8294 20.9958 43.4241C20.6438 43.0188 20.4678 42.4694 20.4678 41.7761C20.4678 41.2108 20.6171 40.6988 20.9158 40.2401C21.2144 39.7708 21.6731 39.3974 22.2918 39.1201C22.9104 38.8428 23.6784 38.7041 24.5958 38.7041C25.2358 38.7041 25.8598 38.7948 26.4678 38.9761C27.0864 39.1468 27.6198 39.3868 28.0678 39.6961L27.6678 40.6401C27.1984 40.3308 26.6971 40.1014 26.1638 39.9521C25.6304 39.7921 25.1078 39.7121 24.5958 39.7121C23.6144 39.7121 22.8731 39.9041 22.3718 40.2881C21.8811 40.6614 21.6358 41.1468 21.6358 41.7441C21.6358 42.1921 21.7691 42.5548 22.0358 42.8321C22.3131 43.0988 22.6544 43.3068 23.0598 43.4561C23.4758 43.5948 24.0304 43.7494 24.7238 43.9201C25.5451 44.1228 26.2064 44.3254 26.7078 44.5281C27.2198 44.7201 27.6518 45.0188 28.0038 45.4241C28.3558 45.8188 28.5318 46.3574 28.5318 47.0401C28.5318 47.6054 28.3771 48.1228 28.0678 48.5921C27.7691 49.0508 27.3051 49.4188 26.6758 49.6961C26.0464 49.9628 25.2731 50.0961 24.3558 50.0961Z" fill="url(#paint2_linear)"/>
<path d="M33.9313 39.8241H29.9953V38.8001H39.0513V39.8241H35.1153V50.0001H33.9313V39.8241Z" fill="url(#paint3_linear)"/>
<path d="M49.3908 50.0001L46.8308 46.4001C46.5428 46.4321 46.2441 46.4481 45.9348 46.4481H42.9268V50.0001H41.7428V38.8001H45.9348C47.3641 38.8001 48.4841 39.1414 49.2948 39.8241C50.1054 40.5068 50.5108 41.4454 50.5108 42.6401C50.5108 43.5148 50.2868 44.2561 49.8388 44.8641C49.4014 45.4614 48.7721 45.8934 47.9508 46.1601L50.6868 50.0001H49.3908ZM45.9028 45.4401C47.0121 45.4401 47.8601 45.1948 48.4468 44.7041C49.0334 44.2134 49.3268 43.5254 49.3268 42.6401C49.3268 41.7334 49.0334 41.0401 48.4468 40.5601C47.8601 40.0694 47.0121 39.8241 45.9028 39.8241H42.9268V45.4401H45.9028Z" fill="url(#paint4_linear)"/>
<path d="M58.6173 50.0961C57.1666 50.0961 56.0359 49.6801 55.2253 48.8481C54.4146 48.0161 54.0093 46.8054 54.0093 45.2161V38.8001H55.1933V45.1681C55.1933 46.4694 55.4866 47.4401 56.0733 48.0801C56.6599 48.7201 57.5079 49.0401 58.6173 49.0401C59.7373 49.0401 60.5906 48.7201 61.1773 48.0801C61.7639 47.4401 62.0573 46.4694 62.0573 45.1681V38.8001H63.2093V45.2161C63.2093 46.8054 62.8039 48.0161 61.9933 48.8481C61.1933 49.6801 60.0679 50.0961 58.6173 50.0961Z" fill="url(#paint5_linear)"/>
<path d="M72.4411 50.0961C71.3318 50.0961 70.3291 49.8508 69.4331 49.3601C68.5478 48.8694 67.8491 48.1921 67.3371 47.3281C66.8358 46.4534 66.5851 45.4774 66.5851 44.4001C66.5851 43.3228 66.8358 42.3521 67.3371 41.4881C67.8491 40.6134 68.5531 39.9308 69.4491 39.4401C70.3451 38.9494 71.3478 38.7041 72.4571 38.7041C73.2891 38.7041 74.0571 38.8428 74.7611 39.1201C75.4651 39.3974 76.0625 39.8028 76.5531 40.3361L75.8011 41.0881C74.9265 40.2028 73.8225 39.7601 72.4891 39.7601C71.6038 39.7601 70.7985 39.9628 70.0731 40.3681C69.3478 40.7734 68.7771 41.3281 68.3611 42.0321C67.9558 42.7361 67.7531 43.5254 67.7531 44.4001C67.7531 45.2748 67.9558 46.0641 68.3611 46.7681C68.7771 47.4721 69.3478 48.0268 70.0731 48.4321C70.7985 48.8374 71.6038 49.0401 72.4891 49.0401C73.8331 49.0401 74.9371 48.5921 75.8011 47.6961L76.5531 48.4481C76.0625 48.9814 75.4598 49.3921 74.7451 49.6801C74.0411 49.9574 73.2731 50.0961 72.4411 50.0961Z" fill="url(#paint6_linear)"/>
<path d="M81.9125 39.8241H77.9765V38.8001H87.0325V39.8241H83.0965V50.0001H81.9125V39.8241Z" fill="url(#paint7_linear)"/>
<path d="M94.4638 50.0961C93.3544 50.0961 92.3464 49.8508 91.4398 49.3601C90.5438 48.8588 89.8398 48.1761 89.3278 47.3121C88.8264 46.4481 88.5758 45.4774 88.5758 44.4001C88.5758 43.3228 88.8264 42.3521 89.3278 41.4881C89.8398 40.6241 90.5438 39.9468 91.4398 39.4561C92.3464 38.9548 93.3544 38.7041 94.4638 38.7041C95.5731 38.7041 96.5704 38.9494 97.4558 39.4401C98.3518 39.9308 99.0558 40.6134 99.5678 41.4881C100.08 42.3521 100.336 43.3228 100.336 44.4001C100.336 45.4774 100.08 46.4534 99.5678 47.3281C99.0558 48.1921 98.3518 48.8694 97.4558 49.3601C96.5704 49.8508 95.5731 50.0961 94.4638 50.0961ZM94.4638 49.0401C95.3491 49.0401 96.1491 48.8428 96.8638 48.4481C97.5784 48.0428 98.1384 47.4881 98.5438 46.7841C98.9491 46.0694 99.1518 45.2748 99.1518 44.4001C99.1518 43.5254 98.9491 42.7361 98.5438 42.0321C98.1384 41.3174 97.5784 40.7628 96.8638 40.3681C96.1491 39.9628 95.3491 39.7601 94.4638 39.7601C93.5784 39.7601 92.7731 39.9628 92.0478 40.3681C91.3331 40.7628 90.7678 41.3174 90.3518 42.0321C89.9464 42.7361 89.7438 43.5254 89.7438 44.4001C89.7438 45.2748 89.9464 46.0694 90.3518 46.7841C90.7678 47.4881 91.3331 48.0428 92.0478 48.4481C92.7731 48.8428 93.5784 49.0401 94.4638 49.0401Z" fill="url(#paint8_linear)"/>
<path d="M111.438 50.0001L108.878 46.4001C108.59 46.4321 108.291 46.4481 107.982 46.4481H104.974V50.0001H103.79V38.8001H107.982C109.411 38.8001 110.531 39.1414 111.342 39.8241C112.152 40.5068 112.558 41.4454 112.558 42.6401C112.558 43.5148 112.334 44.2561 111.886 44.8641C111.448 45.4614 110.819 45.8934 109.998 46.1601L112.734 50.0001H111.438ZM107.95 45.4401C109.059 45.4401 109.907 45.1948 110.494 44.7041C111.08 44.2134 111.374 43.5254 111.374 42.6401C111.374 41.7334 111.08 41.0401 110.494 40.5601C109.907 40.0694 109.059 39.8241 107.95 39.8241H104.974V45.4401H107.95Z" fill="url(#paint9_linear)"/>
<path d="M119.24 50.0961C118.408 50.0961 117.608 49.9628 116.84 49.6961C116.083 49.4294 115.496 49.0774 115.08 48.6401L115.544 47.7281C115.949 48.1334 116.488 48.4641 117.16 48.7201C117.832 48.9654 118.525 49.0881 119.24 49.0881C120.243 49.0881 120.995 48.9068 121.496 48.5441C121.997 48.1708 122.248 47.6908 122.248 47.1041C122.248 46.6561 122.109 46.2988 121.832 46.0321C121.565 45.7654 121.235 45.5628 120.84 45.4241C120.445 45.2748 119.896 45.1148 119.192 44.9441C118.349 44.7308 117.677 44.5281 117.176 44.3361C116.675 44.1334 116.243 43.8294 115.88 43.4241C115.528 43.0188 115.352 42.4694 115.352 41.7761C115.352 41.2108 115.501 40.6988 115.8 40.2401C116.099 39.7708 116.557 39.3974 117.176 39.1201C117.795 38.8428 118.563 38.7041 119.48 38.7041C120.12 38.7041 120.744 38.7948 121.352 38.9761C121.971 39.1468 122.504 39.3868 122.952 39.6961L122.552 40.6401C122.083 40.3308 121.581 40.1014 121.048 39.9521C120.515 39.7921 119.992 39.7121 119.48 39.7121C118.499 39.7121 117.757 39.9041 117.256 40.2881C116.765 40.6614 116.52 41.1468 116.52 41.7441C116.52 42.1921 116.653 42.5548 116.92 42.8321C117.197 43.0988 117.539 43.3068 117.944 43.4561C118.36 43.5948 118.915 43.7494 119.608 43.9201C120.429 44.1228 121.091 44.3254 121.592 44.5281C122.104 44.7201 122.536 45.0188 122.888 45.4241C123.24 45.8188 123.416 46.3574 123.416 47.0401C123.416 47.6054 123.261 48.1228 122.952 48.5921C122.653 49.0508 122.189 49.4188 121.56 49.6961C120.931 49.9628 120.157 50.0961 119.24 50.0961Z" fill="url(#paint10_linear)"/>
<path d="M17.08 11.232V12.436H14.056C12.74 12.436 12.152 12.408 11.396 12.352C11.48 13.052 11.508 13.78 11.508 14.928V19.268C10.92 19.24 10.64 19.212 10.304 19.156V21.816C10.64 21.76 10.92 21.732 11.508 21.704V22.796C11.508 24.56 11.48 25.204 11.368 26.24H14.28C14.196 25.204 14.168 24.7 14.168 22.796V21.704H22.792V22.908C22.792 23.468 22.596 23.552 21.504 23.552C20.86 23.552 19.992 23.496 18.956 23.356C19.292 24.56 19.376 24.924 19.46 25.904C20.888 25.96 21.28 25.988 21.728 25.988C24.78 25.988 25.452 25.54 25.452 23.468V21.704C26.208 21.732 26.516 21.76 27.048 21.844V19.128C26.516 19.24 26.152 19.268 25.452 19.268V15.068C25.508 12.94 25.508 12.94 25.592 12.324C24.948 12.38 24.08 12.436 22.988 12.436H19.74V11.232H24.724C25.872 11.232 26.292 11.26 26.992 11.372V8.82395C26.404 8.93595 25.872 8.96395 24.752 8.96395H22.764V7.75995H23.996C24.752 7.75995 25.452 7.78795 25.956 7.87195V5.57595C25.34 5.65995 24.948 5.68795 24.024 5.68795H22.764V4.56795H24.528C25.368 4.56795 25.928 4.59595 26.572 4.67995V2.21595C26.012 2.32795 25.452 2.35595 24.528 2.35595H22.764C22.764 1.51595 22.82 1.03995 22.96 0.507951H19.964C20.076 1.01195 20.104 1.23595 20.104 2.35595H16.66C16.66 1.37595 16.688 0.983951 16.828 0.507951H13.832C13.972 1.01195 14 1.37595 14 2.35595H12.852C11.844 2.35595 11.368 2.32795 10.696 2.21595V4.67995C11.34 4.59595 11.872 4.56795 12.768 4.56795H14V5.68795H13.244C12.404 5.68795 11.732 5.65995 11.256 5.57595V7.87195C11.76 7.78795 12.432 7.75995 13.244 7.75995H14V8.96395H12.74C11.676 8.96395 11.172 8.93595 10.444 8.82395V11.372C11.144 11.26 11.704 11.232 12.74 11.232H17.08ZM17.08 19.268H14.168V17.896H17.08V19.268ZM19.74 19.268V17.896H22.792V19.268H19.74ZM17.08 15.88H14.168V14.592H17.08V15.88ZM19.74 15.88V14.592H22.792V15.88H19.74ZM16.66 8.96395V7.75995H20.104V8.96395H16.66ZM16.66 5.68795V4.56795H20.104V5.68795H16.66ZM2.07201 3.89595C2.74401 3.81195 3.38801 3.78395 4.36801 3.78395H7.39201C8.40001 3.78395 8.96001 3.81195 9.68801 3.89595V1.09595C8.96001 1.20795 8.51201 1.23595 7.39201 1.23595H4.36801C3.24801 1.23595 2.80001 1.20795 2.07201 1.09595V3.89595ZM1.20401 7.92795C1.84801 7.84395 2.43601 7.81595 3.38801 7.81595H8.03601C9.21201 7.81595 9.43601 7.81595 10.108 7.92795V5.07195C9.46401 5.15595 9.04401 5.18395 7.92401 5.18395H3.38801C2.40801 5.18395 1.84801 5.15595 1.20401 5.04395V7.92795ZM2.18401 11.82C2.71601 11.764 3.10801 11.736 3.97601 11.736H7.95201C8.76401 11.736 9.07201 11.764 9.68801 11.82V9.21595C9.21201 9.27195 8.84801 9.29995 7.95201 9.29995H3.97601C3.08001 9.29995 2.71601 9.27195 2.18401 9.21595V11.82ZM2.18401 15.74C2.71601 15.684 3.13601 15.656 3.94801 15.656H7.89601C8.84801 15.656 9.21201 15.684 9.68801 15.74V13.052C9.18401 13.108 8.84801 13.136 7.95201 13.136H3.97601C3.08001 13.136 2.71601 13.108 2.18401 13.052V15.74ZM4.59201 26.268V24.896H7.28001V25.764H9.82801C9.77201 25.344 9.74401 24.532 9.74401 23.804V19.268C9.74401 18.092 9.74401 17.784 9.82801 17.14C9.32401 17.224 8.98801 17.252 8.06401 17.252H3.89201C3.02401 17.252 2.66001 17.224 1.90401 17.168C2.01601 17.952 2.04401 18.512 2.04401 19.464V23.524C2.04401 24.504 1.98801 25.484 1.87601 26.268H4.59201ZM4.50801 19.604H7.30801V22.432H4.50801V19.604Z" fill="url(#paint11_linear)"/>
<path d="M31.836 4.06395C31.08 4.06395 30.408 4.03595 29.876 3.97995C29.932 4.37195 30.016 5.60395 30.016 6.24795V23.104C30.016 24.168 29.96 25.064 29.82 26.044H32.872V24.084H36.708V25.344H39.676C39.592 24.7 39.564 24.112 39.564 23.048V17.056C39.564 16.16 39.564 15.6 39.648 14.956C39.088 15.012 38.64 15.04 37.66 15.04H32.9V12.632H37.632C38.5 12.632 38.836 12.632 39.424 12.688C39.368 12.128 39.368 11.736 39.368 10.7V5.71595C39.368 5.09995 39.368 4.56795 39.424 3.97995C38.864 4.03595 38.304 4.06395 37.548 4.06395H35.812C36.344 2.99995 36.792 1.87995 37.184 0.64795L34.104 0.28395C33.824 1.73995 33.544 2.55195 32.816 4.06395H31.836ZM32.9 6.72395H36.568V9.97195H32.9V6.72395ZM32.9 17.728H36.708V21.396H32.9V17.728ZM45.976 4.31595V7.25595H43.26C42.084 7.25595 41.552 7.22795 40.908 7.14395C40.992 7.81595 41.02 8.29195 41.02 9.46795V20.5C41.02 22.264 40.992 22.796 40.88 23.552H43.932C43.848 22.992 43.82 22.292 43.82 20.864V9.85995H45.976V23.496C45.976 24.588 45.92 25.428 45.78 26.296H49C48.86 25.428 48.832 24.616 48.832 23.496V9.85995H51.38V19.996C51.38 20.416 51.268 20.528 50.876 20.528C50.596 20.528 50.456 20.5 49.42 20.332C49.84 21.256 49.952 21.816 50.036 23.188C50.708 23.216 50.96 23.244 51.38 23.244C52.444 23.244 53.004 23.132 53.424 22.796C53.9 22.376 54.18 21.676 54.18 20.752V9.35595C54.18 8.17995 54.18 7.73195 54.264 7.14395C53.648 7.22795 53.032 7.25595 52.024 7.25595H48.832V4.31595H52.164C53.312 4.31595 54.04 4.34395 54.936 4.45595V1.40395C54.04 1.51595 53.312 1.57195 52.052 1.57195H42.924C41.636 1.57195 40.824 1.51595 39.984 1.40395V4.45595C40.88 4.34395 41.58 4.31595 42.756 4.31595H45.976Z" fill="url(#paint12_linear)"/>
<path d="M57.624 15.152C58.072 15.04 58.324 15.04 59.584 14.956C60.452 14.9 60.872 14.872 61.656 14.816V23.412C61.656 24.812 61.628 25.512 61.488 26.38H64.68C64.54 25.54 64.512 24.868 64.512 23.44V14.564C65.52 14.48 65.52 14.48 66.416 14.368C66.556 14.816 66.612 15.04 66.78 15.712L68.88 14.704C67.9 11.652 67.9 11.652 66.668 9.01995L64.792 9.91595C65.24 10.896 65.352 11.204 65.66 12.044C64.68 12.128 64.568 12.156 62.58 12.24C63.448 11.176 64.736 9.41195 65.324 8.51595C66.808 6.19195 67.564 4.98795 67.62 4.93195L65.044 3.44795C64.652 4.59595 63.644 6.47195 62.412 8.34795C61.992 7.78795 61.768 7.53595 61.32 6.94795C62.3 5.46395 62.608 4.90395 63.7 2.85995C64.316 1.65595 64.316 1.65595 64.54 1.37595L61.74 0.199951C61.488 1.37595 60.76 2.94395 59.584 4.95995C59.22 4.56795 58.884 4.20395 58.576 3.86795L57.12 6.30395C58.828 8.06795 59.416 8.76795 60.816 10.672C60.424 11.26 60.228 11.54 59.584 12.352C59.36 12.352 59.22 12.352 59.08 12.352C58.156 12.352 57.708 12.324 57.288 12.268L57.624 15.152ZM72.52 4.09195C72.324 7.50795 71.064 9.21595 67.704 10.728C68.74 11.596 69.244 12.212 69.692 13.192C73.556 11.092 75.18 8.57195 75.516 4.09195H79.436C79.324 6.77995 79.184 8.15195 78.876 9.15995C78.736 9.66395 78.456 9.83195 77.672 9.83195C76.888 9.83195 76.048 9.74795 74.816 9.52395C75.32 10.5319 75.516 11.288 75.544 12.52C77.028 12.576 77.14 12.576 77.42 12.576C80.36 12.576 81.284 12.128 81.704 10.448C82.068 8.96395 82.292 6.72395 82.404 3.53195C82.46 2.01995 82.488 1.73995 82.544 1.29195C81.984 1.34795 81.032 1.37595 79.912 1.37595H71.092C69.972 1.37595 68.824 1.31995 67.956 1.20795V4.25995C68.712 4.14795 69.72 4.09195 70.924 4.09195H72.52ZM58.268 16.076C58.1 19.996 57.764 21.9 56.952 24.084L59.64 25.008C60.396 21.956 60.62 20.276 60.788 16.524L58.268 16.076ZM65.1 16.58C65.576 18.708 65.8 20.836 65.828 23.58L68.264 22.992C68.096 20.08 67.872 18.4 67.368 16.076L65.1 16.58ZM72.128 24.84H78.904V26.352H81.984C81.872 25.54 81.844 24.7 81.844 23.44V16.692C81.844 15.488 81.872 14.76 81.956 14.032C81.368 14.116 80.78 14.144 79.604 14.144H71.344C70.308 14.144 69.664 14.116 69.076 14.032C69.16 14.816 69.188 15.544 69.188 16.664V23.356C69.188 24.476 69.16 25.428 69.048 26.24H72.128V24.84ZM72.1 16.888H78.904V22.096H72.1V16.888Z" fill="url(#paint13_linear)"/>
<path d="M96.012 0.78795C94.808 2.80395 93.464 4.37195 91.532 6.05195C89.488 7.84395 87.584 9.01995 84.812 10.224C85.596 11.316 85.848 11.792 86.464 13.332C88.928 12.1 91.392 10.42 93.352 8.65595C95.368 6.86395 96.348 5.74395 97.944 3.50395C99.484 5.79995 100.604 7.00395 102.704 8.73995C105.112 10.7 107.24 12.1 109.76 13.332C110.18 12.212 110.712 11.092 111.356 10.056C107.548 8.45995 104.86 6.66795 102.144 3.97995C101.108 2.94395 100.604 2.29995 99.652 0.78795H96.012ZM91.644 10.336C91.784 11.092 91.84 11.708 91.84 12.38C91.84 17.392 91.14 19.576 88.872 21.564C87.92 22.404 87.192 22.852 85.4 23.664C86.492 24.7 87.024 25.372 87.696 26.492C90.468 24.98 92.232 23.384 93.408 21.2C94.584 19.044 95.032 16.832 95.116 12.66C95.116 11.456 95.144 11.036 95.228 10.336H91.644ZM100.548 10.336C100.688 11.26 100.744 12.24 100.744 13.416V22.768C100.744 24 100.688 25.036 100.548 26.072H104.132C103.992 24.952 103.936 24 103.936 22.74V13.444C103.936 12.016 103.964 11.26 104.104 10.336H100.548Z" fill="url(#paint14_linear)"/>
<defs>
<linearGradient id="paint0_linear" x1="4" y1="41.5" x2="125" y2="47.5" gradientUnits="userSpaceOnUse">
<stop stop-color="#FF4D77"/>
<stop offset="1" stop-color="#D14DFF"/>
</linearGradient>
<linearGradient id="paint1_linear" x1="4" y1="41.5" x2="125" y2="47.5" gradientUnits="userSpaceOnUse">
<stop stop-color="#FF4D77"/>
<stop offset="1" stop-color="#D14DFF"/>
</linearGradient>
<linearGradient id="paint2_linear" x1="4" y1="41.5" x2="125" y2="47.5" gradientUnits="userSpaceOnUse">
<stop stop-color="#FF4D77"/>
<stop offset="1" stop-color="#D14DFF"/>
</linearGradient>
<linearGradient id="paint3_linear" x1="4" y1="41.5" x2="125" y2="47.5" gradientUnits="userSpaceOnUse">
<stop stop-color="#FF4D77"/>
<stop offset="1" stop-color="#D14DFF"/>
</linearGradient>
<linearGradient id="paint4_linear" x1="4" y1="41.5" x2="125" y2="47.5" gradientUnits="userSpaceOnUse">
<stop stop-color="#FF4D77"/>
<stop offset="1" stop-color="#D14DFF"/>
</linearGradient>
<linearGradient id="paint5_linear" x1="4" y1="41.5" x2="125" y2="47.5" gradientUnits="userSpaceOnUse">
<stop stop-color="#FF4D77"/>
<stop offset="1" stop-color="#D14DFF"/>
</linearGradient>
<linearGradient id="paint6_linear" x1="4" y1="41.5" x2="125" y2="47.5" gradientUnits="userSpaceOnUse">
<stop stop-color="#FF4D77"/>
<stop offset="1" stop-color="#D14DFF"/>
</linearGradient>
<linearGradient id="paint7_linear" x1="4" y1="41.5" x2="125" y2="47.5" gradientUnits="userSpaceOnUse">
<stop stop-color="#FF4D77"/>
<stop offset="1" stop-color="#D14DFF"/>
</linearGradient>
<linearGradient id="paint8_linear" x1="4" y1="41.5" x2="125" y2="47.5" gradientUnits="userSpaceOnUse">
<stop stop-color="#FF4D77"/>
<stop offset="1" stop-color="#D14DFF"/>
</linearGradient>
<linearGradient id="paint9_linear" x1="4" y1="41.5" x2="125" y2="47.5" gradientUnits="userSpaceOnUse">
<stop stop-color="#FF4D77"/>
<stop offset="1" stop-color="#D14DFF"/>
</linearGradient>
<linearGradient id="paint10_linear" x1="4" y1="41.5" x2="125" y2="47.5" gradientUnits="userSpaceOnUse">
<stop stop-color="#FF4D77"/>
<stop offset="1" stop-color="#D14DFF"/>
</linearGradient>
<linearGradient id="paint11_linear" x1="17.4286" y1="8.50001" x2="112.557" y2="13.591" gradientUnits="userSpaceOnUse">
<stop stop-color="#FF4D77"/>
<stop offset="1" stop-color="#9E00D6"/>
</linearGradient>
<linearGradient id="paint12_linear" x1="17.4286" y1="8.50001" x2="112.557" y2="13.591" gradientUnits="userSpaceOnUse">
<stop stop-color="#FF4D77"/>
<stop offset="1" stop-color="#9E00D6"/>
</linearGradient>
<linearGradient id="paint13_linear" x1="17.4286" y1="8.50001" x2="112.557" y2="13.591" gradientUnits="userSpaceOnUse">
<stop stop-color="#FF4D77"/>
<stop offset="1" stop-color="#9E00D6"/>
</linearGradient>
<linearGradient id="paint14_linear" x1="17.4286" y1="8.50001" x2="112.557" y2="13.591" gradientUnits="userSpaceOnUse">
<stop stop-color="#FF4D77"/>
<stop offset="1" stop-color="#9E00D6"/>
</linearGradient>
</defs>
</svg>
