<svg width="28" height="28" viewBox="0 0 28 28" fill="none" xmlns="http://www.w3.org/2000/svg">
<path d="M14.1602 27.8418C21.666 27.8418 27.873 21.6348 27.873 14.1289C27.873 6.60938 21.666 0.416016 14.1465 0.416016C6.64062 0.416016 0.447266 6.60938 0.447266 14.1289C0.447266 21.6348 6.6543 27.8418 14.1602 27.8418ZM14.1602 26.0645C7.54297 26.0645 2.22461 20.7324 2.22461 14.1289C2.22461 7.51172 7.54297 2.17969 14.1465 2.17969C20.7637 2.17969 26.0957 7.51172 26.1094 14.1289C26.1094 20.7324 20.7773 26.0645 14.1602 26.0645ZM14.0781 20.541C16.7441 20.541 18.5625 18.8457 18.5625 16.3027C18.5625 13.9238 16.8672 12.2832 14.4609 12.2832C13.3262 12.2832 12.1777 12.7891 11.6309 13.541H11.5352L11.8906 9.35742H17.4414C17.8242 9.35742 18.0977 9.07031 18.0977 8.67383C18.0977 8.29102 17.8379 8.00391 17.4414 8.00391H11.6992C11.002 8.00391 10.5645 8.40039 10.5098 9.0293L10.1133 13.9785C10.0723 14.5938 10.4277 14.9902 11.0156 14.9902C11.4121 14.9902 11.6445 14.8945 12.0547 14.5801C12.8066 13.8555 13.4219 13.582 14.2695 13.582C15.8691 13.582 16.9492 14.6895 16.9492 16.3301C16.9492 17.9707 15.7188 19.1738 14.0918 19.1738C12.8203 19.1738 11.7402 18.5176 11.3438 17.5195C11.166 17.1504 10.9062 16.9727 10.5781 16.9727C10.1543 16.9727 9.85352 17.2734 9.85352 17.6836C9.85352 17.8613 9.89453 18.0391 9.96289 18.1895C10.4414 19.6113 11.9727 20.541 14.0781 20.541Z" fill="#FF4D77"/>
</svg>
