<svg width="28" height="28" viewBox="0 0 28 28" fill="none" xmlns="http://www.w3.org/2000/svg">
<path d="M14.1602 27.8418C21.666 27.8418 27.873 21.6348 27.873 14.1289C27.873 6.60938 21.666 0.416016 14.1465 0.416016C6.64062 0.416016 0.447266 6.60938 0.447266 14.1289C0.447266 21.6348 6.6543 27.8418 14.1602 27.8418ZM14.1602 26.0645C7.54297 26.0645 2.22461 20.7324 2.22461 14.1289C2.22461 7.51172 7.54297 2.17969 14.1465 2.17969C20.7637 2.17969 26.0957 7.51172 26.1094 14.1289C26.1094 20.7324 20.7773 26.0645 14.1602 26.0645ZM9.26562 16.6855C9.26562 17.2188 9.63477 17.5742 10.2227 17.5742H15.4727V19.4336C15.4727 20.0078 15.7598 20.3359 16.252 20.3359C16.7578 20.3359 17.0586 20.0078 17.0586 19.4336V17.5742H18.207C18.6855 17.5742 18.9863 17.2734 18.9863 16.8223C18.9863 16.4121 18.6855 16.1387 18.207 16.1387H17.0586V12.9258C17.0586 12.3516 16.7578 12.0371 16.252 12.0371C15.7598 12.0371 15.4727 12.3652 15.4727 12.9258V16.1387H11.2754C12.4648 13.8828 13.9277 11.4355 15.1855 9.11133C15.2676 8.93359 15.3223 8.76953 15.3223 8.60547C15.3223 8.19531 15.0762 7.82617 14.5703 7.82617C14.2422 7.82617 14.0098 7.99023 13.8047 8.3457C12.4238 10.752 10.8652 13.4727 9.45703 15.9883C9.32031 16.2344 9.26562 16.4668 9.26562 16.6855Z" fill="#FF4D77"/>
</svg>
