<svg width="300" height="55" viewBox="0 0 300 55" fill="none" xmlns="http://www.w3.org/2000/svg">
<path d="M13.456 39.6643V50.8643H12.32V41.9043L7.92 49.4403H7.36L2.96 41.9523V50.8643H1.824V39.6643H2.8L7.664 47.9683L12.48 39.6643H13.456ZM25.8252 49.8403V50.8643H17.9052V39.6643H25.5852V40.6883H19.0892V44.6723H24.8812V45.6803H19.0892V49.8403H25.8252ZM32.4964 50.9603C31.6644 50.9603 30.8644 50.8269 30.0964 50.5603C29.339 50.2936 28.7524 49.9416 28.3364 49.5043L28.8004 48.5923C29.2057 48.9976 29.7444 49.3283 30.4164 49.5843C31.0884 49.8296 31.7817 49.9523 32.4964 49.9523C33.499 49.9523 34.251 49.7709 34.7524 49.4083C35.2537 49.0349 35.5044 48.5549 35.5044 47.9683C35.5044 47.5203 35.3657 47.1629 35.0884 46.8963C34.8217 46.6296 34.491 46.4269 34.0964 46.2883C33.7017 46.1389 33.1524 45.9789 32.4484 45.8083C31.6057 45.5949 30.9337 45.3923 30.4324 45.2003C29.931 44.9976 29.499 44.6936 29.1364 44.2883C28.7844 43.8829 28.6084 43.3336 28.6084 42.6403C28.6084 42.0749 28.7577 41.5629 29.0564 41.1043C29.355 40.6349 29.8137 40.2616 30.4324 39.9843C31.051 39.7069 31.819 39.5683 32.7364 39.5683C33.3764 39.5683 34.0004 39.6589 34.6084 39.8403C35.227 40.0109 35.7604 40.2509 36.2084 40.5603L35.8084 41.5043C35.339 41.1949 34.8377 40.9656 34.3044 40.8163C33.771 40.6563 33.2484 40.5763 32.7364 40.5763C31.755 40.5763 31.0137 40.7683 30.5124 41.1523C30.0217 41.5256 29.7764 42.0109 29.7764 42.6083C29.7764 43.0563 29.9097 43.4189 30.1764 43.6963C30.4537 43.9629 30.795 44.1709 31.2004 44.3203C31.6164 44.4589 32.171 44.6136 32.8644 44.7843C33.6857 44.9869 34.347 45.1896 34.8484 45.3923C35.3604 45.5843 35.7924 45.8829 36.1444 46.2883C36.4964 46.6829 36.6724 47.2216 36.6724 47.9043C36.6724 48.4696 36.5177 48.9869 36.2084 49.4563C35.9097 49.9149 35.4457 50.2829 34.8164 50.5603C34.187 50.8269 33.4137 50.9603 32.4964 50.9603ZM43.1401 50.9603C42.3081 50.9603 41.5081 50.8269 40.7401 50.5603C39.9828 50.2936 39.3961 49.9416 38.9801 49.5043L39.4441 48.5923C39.8495 48.9976 40.3881 49.3283 41.0601 49.5843C41.7321 49.8296 42.4255 49.9523 43.1401 49.9523C44.1428 49.9523 44.8948 49.7709 45.3961 49.4083C45.8975 49.0349 46.1481 48.5549 46.1481 47.9683C46.1481 47.5203 46.0095 47.1629 45.7321 46.8963C45.4655 46.6296 45.1348 46.4269 44.7401 46.2883C44.3455 46.1389 43.7961 45.9789 43.0921 45.8083C42.2495 45.5949 41.5775 45.3923 41.0761 45.2003C40.5748 44.9976 40.1428 44.6936 39.7801 44.2883C39.4281 43.8829 39.2521 43.3336 39.2521 42.6403C39.2521 42.0749 39.4015 41.5629 39.7001 41.1043C39.9988 40.6349 40.4575 40.2616 41.0761 39.9843C41.6948 39.7069 42.4628 39.5683 43.3801 39.5683C44.0201 39.5683 44.6441 39.6589 45.2521 39.8403C45.8708 40.0109 46.4041 40.2509 46.8521 40.5603L46.4521 41.5043C45.9828 41.1949 45.4815 40.9656 44.9481 40.8163C44.4148 40.6563 43.8921 40.5763 43.3801 40.5763C42.3988 40.5763 41.6575 40.7683 41.1561 41.1523C40.6655 41.5256 40.4201 42.0109 40.4201 42.6083C40.4201 43.0563 40.5535 43.4189 40.8201 43.6963C41.0975 43.9629 41.4388 44.1709 41.8441 44.3203C42.2601 44.4589 42.8148 44.6136 43.5081 44.7843C44.3295 44.9869 44.9908 45.1896 45.4921 45.3923C46.0041 45.5843 46.4361 45.8829 46.7881 46.2883C47.1401 46.6829 47.3161 47.2216 47.3161 47.9043C47.3161 48.4696 47.1615 48.9869 46.8521 49.4563C46.5535 49.9149 46.0895 50.2829 45.4601 50.5603C44.8308 50.8269 44.0575 50.9603 43.1401 50.9603ZM57.7199 47.8723H51.4799L50.1359 50.8643H48.9039L54.0239 39.6643H55.1919L60.3119 50.8643H59.0639L57.7199 47.8723ZM57.2879 46.9123L54.5999 40.8963L51.9119 46.9123H57.2879ZM70.6964 45.2643H71.8324V49.5363C71.3097 49.9949 70.691 50.3469 69.9764 50.5923C69.2617 50.8376 68.5097 50.9603 67.7204 50.9603C66.6004 50.9603 65.5924 50.7149 64.6964 50.2243C63.8004 49.7336 63.0964 49.0563 62.5844 48.1923C62.0724 47.3176 61.8164 46.3416 61.8164 45.2643C61.8164 44.1869 62.0724 43.2163 62.5844 42.3523C63.0964 41.4776 63.8004 40.7949 64.6964 40.3043C65.5924 39.8136 66.6057 39.5683 67.7364 39.5683C68.5897 39.5683 69.3737 39.7069 70.0884 39.9843C70.803 40.2509 71.4057 40.6509 71.8964 41.1843L71.1604 41.9363C70.275 41.0616 69.1497 40.6243 67.7844 40.6243C66.8777 40.6243 66.0564 40.8269 65.3204 41.2323C64.595 41.6269 64.0244 42.1816 63.6084 42.8963C63.1924 43.6003 62.9844 44.3896 62.9844 45.2643C62.9844 46.1389 63.1924 46.9283 63.6084 47.6323C64.0244 48.3363 64.595 48.8909 65.3204 49.2963C66.0457 49.7016 66.8617 49.9043 67.7684 49.9043C68.9204 49.9043 69.8964 49.6163 70.6964 49.0403V45.2643ZM83.9034 49.8403V50.8643H75.9834V39.6643H83.6634V40.6883H77.1674V44.6723H82.9594V45.6803H77.1674V49.8403H83.9034ZM93.658 40.6883V45.0883H99.45V46.1123H93.658V50.8643H92.474V39.6643H100.154V40.6883H93.658ZM111.047 50.8643L108.487 47.2643C108.199 47.2963 107.9 47.3123 107.591 47.3123H104.583V50.8643H103.399V39.6643H107.591C109.02 39.6643 110.14 40.0056 110.951 40.6883C111.762 41.3709 112.167 42.3096 112.167 43.5043C112.167 44.3789 111.943 45.1203 111.495 45.7283C111.058 46.3256 110.428 46.7576 109.607 47.0243L112.343 50.8643H111.047ZM107.559 46.3043C108.668 46.3043 109.516 46.0589 110.103 45.5683C110.69 45.0776 110.983 44.3896 110.983 43.5043C110.983 42.5976 110.69 41.9043 110.103 41.4243C109.516 40.9336 108.668 40.6883 107.559 40.6883H104.583V46.3043H107.559ZM120.658 50.9603C119.548 50.9603 118.54 50.7149 117.634 50.2243C116.738 49.7229 116.034 49.0403 115.522 48.1763C115.02 47.3123 114.77 46.3416 114.77 45.2643C114.77 44.1869 115.02 43.2163 115.522 42.3523C116.034 41.4883 116.738 40.8109 117.634 40.3203C118.54 39.8189 119.548 39.5683 120.658 39.5683C121.767 39.5683 122.764 39.8136 123.65 40.3043C124.546 40.7949 125.25 41.4776 125.762 42.3523C126.274 43.2163 126.53 44.1869 126.53 45.2643C126.53 46.3416 126.274 47.3176 125.762 48.1923C125.25 49.0563 124.546 49.7336 123.65 50.2243C122.764 50.7149 121.767 50.9603 120.658 50.9603ZM120.658 49.9043C121.543 49.9043 122.343 49.7069 123.058 49.3123C123.772 48.9069 124.332 48.3523 124.738 47.6483C125.143 46.9336 125.346 46.1389 125.346 45.2643C125.346 44.3896 125.143 43.6003 124.738 42.8963C124.332 42.1816 123.772 41.6269 123.058 41.2323C122.343 40.8269 121.543 40.6243 120.658 40.6243C119.772 40.6243 118.967 40.8269 118.242 41.2323C117.527 41.6269 116.962 42.1816 116.546 42.8963C116.14 43.6003 115.938 44.3896 115.938 45.2643C115.938 46.1389 116.14 46.9336 116.546 47.6483C116.962 48.3523 117.527 48.9069 118.242 49.3123C118.967 49.7069 119.772 49.9043 120.658 49.9043ZM141.615 39.6643V50.8643H140.479V41.9043L136.079 49.4403H135.519L131.119 41.9523V50.8643H129.983V39.6643H130.959L135.823 47.9683L140.639 39.6643H141.615ZM155.916 50.9603C154.807 50.9603 153.804 50.7149 152.908 50.2243C152.023 49.7336 151.324 49.0563 150.812 48.1923C150.311 47.3176 150.06 46.3416 150.06 45.2643C150.06 44.1869 150.311 43.2163 150.812 42.3523C151.324 41.4776 152.028 40.7949 152.924 40.3043C153.82 39.8136 154.823 39.5683 155.932 39.5683C156.764 39.5683 157.532 39.7069 158.236 39.9843C158.94 40.2616 159.537 40.6669 160.028 41.2003L159.276 41.9523C158.401 41.0669 157.297 40.6243 155.964 40.6243C155.079 40.6243 154.273 40.8269 153.548 41.2323C152.823 41.6376 152.252 42.1923 151.836 42.8963C151.431 43.6003 151.228 44.3896 151.228 45.2643C151.228 46.1389 151.431 46.9283 151.836 47.6323C152.252 48.3363 152.823 48.8909 153.548 49.2963C154.273 49.7016 155.079 49.9043 155.964 49.9043C157.308 49.9043 158.412 49.4563 159.276 48.5603L160.028 49.3123C159.537 49.8456 158.935 50.2563 158.22 50.5443C157.516 50.8216 156.748 50.9603 155.916 50.9603ZM171.272 49.8403V50.8643H163.352V39.6643H171.032V40.6883H164.536V44.6723H170.328V45.6803H164.536V49.8403H171.272ZM179.689 50.9603C178.579 50.9603 177.571 50.7149 176.665 50.2243C175.769 49.7229 175.065 49.0403 174.553 48.1763C174.051 47.3123 173.801 46.3416 173.801 45.2643C173.801 44.1869 174.051 43.2163 174.553 42.3523C175.065 41.4883 175.769 40.8109 176.665 40.3203C177.571 39.8189 178.579 39.5683 179.689 39.5683C180.798 39.5683 181.795 39.8136 182.681 40.3043C183.577 40.7949 184.281 41.4776 184.793 42.3523C185.305 43.2163 185.561 44.1869 185.561 45.2643C185.561 46.3416 185.305 47.3176 184.793 48.1923C184.281 49.0563 183.577 49.7336 182.681 50.2243C181.795 50.7149 180.798 50.9603 179.689 50.9603ZM179.689 49.9043C180.574 49.9043 181.374 49.7069 182.089 49.3123C182.803 48.9069 183.363 48.3523 183.769 47.6483C184.174 46.9336 184.377 46.1389 184.377 45.2643C184.377 44.3896 184.174 43.6003 183.769 42.8963C183.363 42.1816 182.803 41.6269 182.089 41.2323C181.374 40.8269 180.574 40.6243 179.689 40.6243C178.803 40.6243 177.998 40.8269 177.273 41.2323C176.558 41.6269 175.993 42.1816 175.577 42.8963C175.171 43.6003 174.969 44.3896 174.969 45.2643C174.969 46.1389 175.171 46.9336 175.577 47.6483C175.993 48.3523 176.558 48.9069 177.273 49.3123C177.998 49.7069 178.803 49.9043 179.689 49.9043Z" fill="url(#paint0_linear)"/>
<path d="M23.828 11.2843C24.752 11.2003 25.452 11.1723 25.9 11.1723C26.068 11.1723 26.264 11.1723 26.712 11.2003L26.628 8.03626C25.844 8.20426 25.228 8.28826 23.576 8.42826L17.584 8.90426C17.36 6.66426 17.304 5.48826 17.304 3.83626C17.304 2.88426 17.332 2.32426 17.444 1.73626L14.056 1.79226C14.112 2.26826 14.196 3.30426 14.196 3.86426C14.252 6.66426 14.252 6.94426 14.448 9.18426L11.9 9.38026C11.2 9.43626 10.304 9.49226 9.772 9.49226C9.576 9.49226 9.352 9.49226 8.904 9.46426L8.988 12.6003C9.856 12.4323 10.556 12.3483 11.788 12.2643L14.756 12.0123C15.484 17.1363 16.996 21.1123 19.46 24.1923C20.944 26.0683 22.4 27.0483 23.744 27.0483C25.732 27.0483 26.712 25.2563 27.356 20.4683C26.404 19.9923 25.816 19.6003 24.696 18.6483C24.416 21.9803 24.052 23.3523 23.492 23.3523C22.988 23.3523 21.7 21.9523 20.748 20.3843C19.32 18.0603 18.452 15.4283 17.892 11.7603L23.828 11.2843ZM4.76 23.7443C4.76 25.3123 4.704 26.2363 4.564 27.1883H8.008C7.868 26.1523 7.812 25.1723 7.812 23.8003V8.28826C8.932 6.13226 9.548 4.67626 10.416 2.32426L7.224 1.23226C7.084 2.21226 6.692 3.52826 6.132 4.90026C4.788 8.14826 3.08 10.6403 0.504 13.2163C1.148 14.1683 1.428 14.7843 1.988 16.4363C3.332 15.0643 3.724 14.5883 4.844 12.9363C4.788 14.0003 4.76 14.7283 4.76 16.1563V23.7443ZM18.648 3.55626C19.432 4.28426 19.432 4.28426 20.748 5.71226C22.008 7.08426 22.148 7.22426 22.792 8.17626L25.116 6.04826C22.764 3.44426 22.4 3.08026 20.832 1.70826L18.648 3.55626ZM41.86 15.1203C42.784 17.3883 43.876 19.2923 45.164 20.8883C47.152 23.3243 49.7 25.1723 53.508 26.8243C53.956 25.7043 54.46 24.8923 55.356 23.8003C52.78 22.9323 51.212 22.1203 49.224 20.6363C50.512 19.6283 51.716 18.5363 52.528 17.7243C52.976 17.2763 52.976 17.2763 53.172 17.0803L50.372 15.3443C49.7 16.2683 48.524 17.4723 47.096 18.5643C46.06 17.3043 45.444 16.3243 44.912 15.1203H51.436C52.696 15.1203 53.704 15.1763 54.656 15.2883V12.2643C53.9 12.4043 53.032 12.4323 51.436 12.4323H43.344V10.6403H49.252C50.876 10.6403 51.548 10.6683 52.36 10.7523V7.95226C51.604 8.03626 50.932 8.06426 49.252 8.06426H43.344V6.35626H50.568C52.08 6.35626 52.948 6.38426 53.704 6.49626V3.55626C52.864 3.66826 51.912 3.72426 50.372 3.72426H43.344C43.344 2.46426 43.372 2.01626 43.512 1.31626H40.068C40.208 1.98826 40.236 2.52026 40.236 3.72426H33.656C32.228 3.72426 31.22 3.66826 30.38 3.55626V6.49626C31.136 6.38426 31.976 6.35626 33.516 6.35626H40.236V8.06426H34.776C33.152 8.06426 32.48 8.03626 31.696 7.95226V10.7523C32.508 10.6683 33.18 10.6403 34.776 10.6403H40.236V12.4323H32.564C30.912 12.4323 30.156 12.4043 29.316 12.2643V15.2883C30.268 15.1763 31.304 15.1203 32.592 15.1203H37.884C35.532 17.2203 32.592 18.7323 28.868 19.7403C29.68 20.8043 30.1 21.5323 30.604 22.7363C33.236 21.6443 34.692 20.9163 36.568 19.6563V23.4923C34.804 23.7163 33.824 23.8003 32.704 23.8283L33.376 27.1043C33.628 27.0483 34.16 26.9363 34.72 26.8243C35.364 26.7403 35.364 26.7403 36.036 26.6283C37.576 26.3763 37.688 26.3483 39.592 25.9843C42.7 25.3403 43.344 25.2003 45.444 24.6123V21.6723C42.98 22.3163 41.804 22.5963 39.648 22.9883V17.2203C40.768 16.1843 41.02 15.9323 41.692 15.1203H41.86ZM64.484 1.87626C64.484 2.10026 64.484 2.29626 64.484 2.40826C64.484 3.33226 64.26 5.04026 63.756 8.06426C62.216 8.28826 58.828 8.62426 57.792 8.62426L58.128 11.9283C59.052 11.6763 61.712 11.2003 63.14 11.0323C62.02 15.0363 61.628 16.2123 60.424 18.9563C59.472 21.0843 58.352 23.1003 57.512 24.2203L60.76 26.0123C60.9 25.7323 60.9 25.7043 60.984 25.5363C61.264 24.9763 61.264 24.9763 61.404 24.6963C63.028 21.4203 63.784 19.6283 64.764 16.8283C65.38 15.0083 65.632 14.1683 66.472 10.7523C67.116 10.6963 67.536 10.6683 68.096 10.6683C70.308 10.6683 70.952 11.4243 70.952 14.0003C70.952 16.3803 70.672 18.9283 70.224 20.3843C69.804 21.7563 69.356 22.2883 68.544 22.2883C67.564 22.2883 65.968 21.8683 64.456 21.1963C64.68 22.2883 64.736 22.8483 64.736 23.5763C64.736 23.8563 64.708 24.2483 64.68 24.8083C66.556 25.3963 67.704 25.6203 68.992 25.6203C70.476 25.6203 71.316 25.2843 72.1 24.3603C73.444 22.8203 74.256 18.9843 74.256 14.1683C74.256 11.6203 73.892 10.2763 72.94 9.21226C72.016 8.23226 70.644 7.72826 68.796 7.72826C68.264 7.72826 67.872 7.75626 67.06 7.81226C67.144 7.44826 67.144 7.39226 67.256 6.77626C67.648 4.67626 67.648 4.67626 67.732 4.08826C67.816 3.64026 67.844 3.50026 67.9 3.13626C67.956 2.82826 68.04 2.52026 68.124 2.26826L64.484 1.87626ZM74.508 7.25226C75.824 8.68026 76.72 9.96826 77.728 12.0403C78.792 14.1403 79.436 15.9883 79.968 18.3963L83.16 16.7723C81.956 12.4603 80.192 9.12826 77.392 5.85226L74.508 7.25226ZM92.036 4.84426C95.228 6.32826 98.168 7.25226 102.956 8.34426L104.104 5.12426C100.94 4.67626 95.592 3.08026 93.66 2.01626L92.036 4.84426ZM89.796 7.30826C89.768 7.92426 89.74 8.26026 89.628 8.93226C89.124 12.2363 88.676 15.3443 88.452 17.0803C88.312 18.1443 88.312 18.2563 88.228 18.7603L91.756 18.8723C92.344 18.2003 92.512 18.0323 93.016 17.6683C94.892 16.3803 97.496 15.6243 99.988 15.6243C102.956 15.6243 104.72 16.7443 104.72 18.6203C104.72 21.0003 101.976 22.6523 98.028 22.6523C95.648 22.6523 93.24 22.2043 90.496 21.2523C90.832 22.5683 90.888 23.1283 90.916 24.8643C94.108 25.6483 95.648 25.8443 98.056 25.8443C101.304 25.8443 103.628 25.2563 105.448 23.9403C107.24 22.6523 108.332 20.5803 108.332 18.5363C108.332 14.9523 105.196 12.6003 100.436 12.6003C97.048 12.6003 93.576 13.6923 91.952 15.2603L91.896 15.2043C91.98 14.7843 91.98 14.7843 92.036 14.3923C92.4 11.6483 92.876 9.04426 93.296 7.50426L89.796 7.30826ZM128.184 6.91626C129.416 7.02826 130.144 7.25226 131.012 7.75626C133.252 9.10026 134.456 11.2843 134.456 13.9723C134.456 16.9683 133 19.6283 130.564 20.9723C129.248 21.7283 127.568 22.1763 124.992 22.5123C125.888 23.6883 126.224 24.3043 126.7 25.7883C128.66 25.4523 129.752 25.1723 131.096 24.6123C135.38 22.8763 137.9 19.0123 137.9 14.1683C137.9 7.86826 133.532 3.78026 126.812 3.78026C122.836 3.78026 119.532 5.12426 117.18 7.70026C115.192 9.88426 114.1 12.7683 114.1 15.8483C114.1 20.3563 116.396 23.6043 119.588 23.6043C121.884 23.6043 123.676 21.9523 125.272 18.3403C126.672 15.1763 127.652 11.3123 128.184 6.91626ZM124.768 6.94426C124.432 10.1083 123.508 13.8883 122.444 16.4083C121.436 18.8163 120.484 19.9923 119.56 19.9923C118.328 19.9923 117.348 18.1723 117.348 15.8763C117.348 12.8803 118.804 9.99626 121.156 8.31626C122.304 7.50426 123.312 7.11226 124.768 6.94426ZM158.844 2.43626C158.48 4.45226 156.688 8.51226 154.896 11.4523C154.672 11.3123 154.672 11.3123 152.572 9.80026C151.2 8.82026 149.996 8.03626 147.952 6.83226L145.488 9.29626C147.98 10.6683 150.668 12.4883 152.908 14.3363C151.816 15.7363 150.696 16.9403 149.352 18.1443C147.14 20.1603 145.208 21.4483 142.1 22.9883C143.36 24.0523 143.808 24.5563 144.564 25.9003C147.42 24.3043 149.212 23.0443 151.228 21.2803C152.936 19.7683 154.392 18.2003 155.596 16.6043C158.144 18.8723 159.824 20.6083 161.28 22.5123L163.968 19.6283C161.532 17.0523 160.076 15.6803 157.724 13.6923C158.816 12.0683 159.908 9.94026 161.672 5.76826C162.232 4.50826 162.344 4.28426 162.652 3.75226L158.844 2.43626ZM172.48 9.63226C173.74 12.0963 174.3 13.5803 175.028 16.4083L178.192 15.4003C177.184 12.2643 176.624 10.9203 175.448 8.76426L172.48 9.63226ZM178.472 8.45626C179.648 10.7523 180.488 12.9083 181.02 15.0363L184.128 14.0563C183.428 11.6203 182.896 10.3883 181.412 7.61626L178.472 8.45626ZM188.104 8.17626C188.104 9.04426 187.964 10.0243 187.6 11.3963C186.396 15.8763 184.52 18.7323 181.244 21.1123C179.592 22.3163 178.444 22.9323 176.484 23.6883C177.66 24.8083 177.996 25.2283 178.724 26.4603C182.868 24.3603 185.192 22.5403 187.264 19.7123C189.056 17.2763 190.316 14.1963 191.128 10.3883C191.296 9.52026 191.352 9.38026 191.52 8.96026L188.104 8.17626ZM219.772 7.02826C219.128 7.30826 219.1 7.33626 217.616 7.50426L207.424 8.73626V5.20826C207.424 4.00426 207.452 3.41626 207.592 2.60426H203.728C203.868 3.55626 203.896 3.86426 203.896 5.26426V9.10026L200.928 9.46426C200.172 9.57626 198.968 9.66026 198.464 9.66026C198.324 9.66026 198.1 9.66026 197.792 9.63226L198.156 13.1043C199.08 12.8523 199.08 12.8523 201.264 12.5723L203.896 12.2363V18.6483C203.896 20.8883 203.924 21.3083 204.176 22.1763C204.484 23.3803 205.436 24.4163 206.584 24.7523C207.648 25.0603 209.3 25.2283 211.568 25.2283C213.416 25.2283 215.488 25.0883 218.512 24.7523C219.24 24.6683 219.464 24.6683 220.22 24.6403L220.052 20.8603C217.728 21.5603 214.676 21.9523 211.456 21.9523C208.6 21.9523 207.704 21.6443 207.508 20.5523C207.424 20.0763 207.424 20.0763 207.396 18.1443V11.8443C210.308 11.4243 213.192 11.0603 216.02 10.7243C216.44 10.6683 216.636 10.6403 217.084 10.5563C216.58 11.3963 216.412 11.6483 216.02 12.2083C214.788 13.8323 213.332 15.0923 211.4 16.1563C212.688 16.9123 213.108 17.2203 214.2 18.4243C217.448 16.0163 219.436 13.6643 221.06 10.2483C221.452 9.43626 221.508 9.35226 221.844 8.87626L219.772 7.02826ZM225.988 16.0723C227.108 15.9323 227.416 15.9323 230.552 15.9323H245.42C248.556 15.9323 248.864 15.9323 249.984 16.0723V12.1803C248.752 12.3483 248.22 12.3763 245.448 12.3763H230.524C227.752 12.3763 227.22 12.3483 225.988 12.1803V16.0723ZM256.844 5.71226C258.888 6.35626 262.052 8.00826 264.32 9.54826L266.112 6.46826C264.096 5.20826 261.296 3.86426 258.664 2.85626L256.844 5.71226ZM254.632 12.5163C257.208 13.4683 260.372 15.1763 262.22 16.6043L263.956 13.4403C261.856 12.0683 259.112 10.6683 256.508 9.63226L254.632 12.5163ZM271.264 3.27626C272.496 4.62026 273.28 5.74026 274.204 7.44826L276.164 6.41226C275.212 4.67626 274.456 3.61226 273.224 2.29626L271.264 3.27626ZM256.228 26.0123C256.76 25.8443 256.984 25.7883 258.188 25.5363C268.212 23.5763 274.12 18.9843 277.592 10.5003C276.304 9.63226 275.772 9.18426 274.68 8.00826C272.664 13.9723 268.464 18.5643 263.34 20.3563C260.372 21.5043 257.432 22.1483 255.248 22.1763L256.228 26.0123ZM279.496 4.59226C278.628 2.99626 277.844 1.93226 276.584 0.644256L274.708 1.62426C275.8 2.82826 276.724 4.14426 277.564 5.68426L279.496 4.59226Z" fill="url(#paint1_linear)"/>
<defs>
<linearGradient id="paint0_linear" x1="5.984" y1="42.3643" x2="186.452" y2="55.7517" gradientUnits="userSpaceOnUse">
<stop stop-color="#FF4D77"/>
<stop offset="1" stop-color="#D14DFF"/>
</linearGradient>
<linearGradient id="paint1_linear" x1="46.6837" y1="17.2104" x2="300.81" y2="36.1535" gradientUnits="userSpaceOnUse">
<stop stop-color="#FF4D77"/>
<stop offset="1" stop-color="#9E00D6"/>
</linearGradient>
</defs>
</svg>
