<svg width="233" height="100" viewBox="0 0 233 100" fill="none" xmlns="http://www.w3.org/2000/svg">
<path fill-rule="evenodd" clip-rule="evenodd" d="M9.86862 23.1286C8.13397 23.1286 6.45287 22.8823 4.8253 22.3898C3.21915 21.8972 1.94493 21.244 1.00266 20.4303L2.44819 17.1858C3.36905 17.914 4.49336 18.5136 5.82111 18.9847C7.17028 19.4344 8.51945 19.6593 9.86862 19.6593C11.539 19.6593 12.7811 19.3916 13.5949 18.8562C14.4301 18.3208 14.8477 17.6141 14.8477 16.7361C14.8477 16.0936 14.6121 15.569 14.141 15.1621C13.6913 14.7338 13.113 14.4018 12.4063 14.1663C11.6996 13.9307 10.7359 13.663 9.51526 13.3632C7.80203 12.9563 6.41004 12.5494 5.33927 12.1425C4.28992 11.7356 3.37976 11.1039 2.60881 10.2472C1.85927 9.36922 1.4845 8.19138 1.4845 6.71372C1.4845 5.47162 1.81644 4.34732 2.48032 3.3408C3.16561 2.31286 4.18284 1.49908 5.53201 0.899445C6.90259 0.299815 8.57299 0 10.5432 0C11.9138 0 13.263 0.171323 14.5907 0.513969C15.9185 0.856615 17.0642 1.34917 18.0279 1.99163L16.7108 5.23606C15.7257 4.65784 14.6978 4.21883 13.627 3.91901C12.5562 3.6192 11.5176 3.46929 10.5111 3.46929C8.86209 3.46929 7.63071 3.74769 6.81693 4.30449C6.02456 4.86129 5.62837 5.60012 5.62837 6.52098C5.62837 7.16344 5.85324 7.68812 6.30296 8.09501C6.7741 8.5019 7.36302 8.82313 8.06973 9.0587C8.77643 9.29427 9.74013 9.56196 10.9608 9.86177C12.6312 10.2472 14.0018 10.6541 15.0725 11.0825C16.1433 11.4893 17.0535 12.1211 17.803 12.9777C18.574 13.8343 18.9594 14.9908 18.9594 16.447C18.9594 17.6891 18.6168 18.8134 17.9315 19.8199C17.2676 20.8264 16.2504 21.6295 14.8798 22.2291C13.5092 22.8288 11.8388 23.1286 9.86862 23.1286ZM33.9579 0.32123C35.9067 0.32123 37.5985 0.642461 39.0333 1.28492C40.4896 1.92738 41.6032 2.84824 42.3741 4.0475C43.1451 5.24676 43.5306 6.67089 43.5306 8.31987C43.5306 9.94744 43.1451 11.3716 42.3741 12.5922C41.6032 13.7915 40.4896 14.7124 39.0333 15.3548C37.5985 15.9973 35.9067 16.3185 33.9579 16.3185H28.8824V22.8074H24.7064V0.32123H33.9579ZM33.7651 12.785C35.5855 12.785 36.9667 12.3995 37.909 11.6285C38.8513 10.8576 39.3224 9.7547 39.3224 8.31987C39.3224 6.88504 38.8513 5.78215 37.909 5.0112C36.9667 4.24024 35.5855 3.85476 33.7651 3.85476H28.8824V12.785H33.7651ZM66.1715 22.8074V19.3059H53.4829V13.1062H64.3405V9.66904H53.4829V3.82264H65.7218V0.32123H49.3069V22.8074H66.1715ZM82.7468 23.1286C80.4767 23.1286 78.4209 22.636 76.5791 21.6509C74.7588 20.6444 73.324 19.2631 72.2747 17.5071C71.2467 15.751 70.7327 13.7701 70.7327 11.5643C70.7327 9.35851 71.2574 7.37759 72.3068 5.62153C73.3561 3.86547 74.7909 2.49489 76.6113 1.50978C78.453 0.503261 80.5089 0 82.7789 0C84.6206 0 86.3017 0.32123 87.8222 0.963692C89.3427 1.60615 90.6276 2.53772 91.677 3.75839L88.9786 6.29612C87.3511 4.54006 85.3487 3.66203 82.9716 3.66203C81.4297 3.66203 80.0484 4.00467 78.8277 4.68996C77.6071 5.35384 76.6541 6.28541 75.9688 7.48467C75.2835 8.68393 74.9409 10.0438 74.9409 11.5643C74.9409 13.0848 75.2835 14.4447 75.9688 15.6439C76.6541 16.8432 77.6071 17.7855 78.8277 18.4708C80.0484 19.1346 81.4297 19.4666 82.9716 19.4666C85.3487 19.4666 87.3511 18.5778 88.9786 16.8004L91.677 19.3702C90.6276 20.5909 89.332 21.5224 87.7901 22.1649C86.2696 22.8074 84.5885 23.1286 82.7468 23.1286ZM101.46 0.32123H97.2844V22.8074H101.46V0.32123ZM112.489 17.6034L110.273 22.8074H105.968L116.087 0.32123H120.199L130.35 22.8074H125.981L123.732 17.6034H112.489ZM122.351 14.3269L118.111 4.49723L113.903 14.3269H122.351ZM138.992 0.32123H134.816V22.8074H150.749V19.2738H138.992V0.32123ZM160.69 22.8074H156.514V3.82264H151.76V0.32123H160.69V22.8074ZM14.6014 49.9173V51.0367H2.84727V34.0017H14.2363V35.1212H4.08839V41.8378H13.1656V42.9329H4.08839V49.9173H14.6014ZM34.2146 34.0017V51.0367H33.1925L21.5844 36.2406V51.0367H20.3433V34.0017H21.3897L32.9735 48.7978V34.0017H34.2146ZM38.5087 35.1212H44.6413V51.0367H45.8824V35.1212H52.0149V34.0017H38.5087V35.1212ZM68.0637 49.9173V51.0367H56.3096V34.0017H67.6987V35.1212H57.5507V41.8378H66.6279V42.9329H57.5507V49.9173H68.0637ZM81.5687 45.3422L85.6327 51.0367H87.0442L82.7855 45.0745C84.0671 44.7013 85.0487 44.0605 85.7301 43.1519C86.4277 42.2272 86.7765 41.0915 86.7765 39.745C86.7765 37.9441 86.1681 36.5408 84.9513 35.5349C83.7346 34.5128 82.0554 34.0017 79.9139 34.0017H73.8056V51.0367H75.0467V45.4638H79.9139C80.4168 45.4638 80.9684 45.4233 81.5687 45.3422ZM84.0752 43.1763C83.118 43.9712 81.7309 44.3687 79.9139 44.3687H75.0467V35.1212H79.9139C81.7309 35.1212 83.118 35.5268 84.0752 36.338C85.0324 37.1329 85.5111 38.2686 85.5111 39.745C85.5111 41.2213 85.0324 42.3651 84.0752 43.1763ZM95.5607 35.1212H89.4281V34.0017H102.934V35.1212H96.8018V51.0367H95.5607V35.1212ZM104.865 51.0367L107.031 46.2426H116.911L119.101 51.0367H120.44L112.603 34.0017H111.362L103.526 51.0367H104.865ZM111.971 35.3645L116.448 45.1961H107.517L111.971 35.3645ZM124.749 34.0017H125.99V51.0367H124.749V34.0017ZM147.014 51.0367V34.0017H145.773V48.7978L134.189 34.0017H133.143V51.0367H134.384V36.2406L145.992 51.0367H147.014ZM170.29 51.0367L170.266 36.4596L163.135 48.7735H162.527L155.397 36.5083V51.0367H154.18V34.0017H155.226L162.843 47.1673L170.46 34.0017H171.482L171.507 51.0367H170.29ZM190.417 51.0367V49.9173H179.904V42.9329H188.981V41.8378H179.904V35.1212H190.052V34.0017H178.663V51.0367H190.417ZM210.03 34.0017V51.0367H209.008L197.4 36.2406V51.0367H196.159V34.0017H197.205L208.789 48.7978V34.0017H210.03ZM214.324 35.1212H220.457V51.0367H221.698V35.1212H227.83V34.0017H214.324V35.1212ZM13.3846 75.4453H3.50433L1.33846 80.2395H0L7.83607 63.2045H9.07719L16.9133 80.2395H15.5748L13.3846 75.4453ZM12.9222 74.3989L8.44447 64.5673L3.99104 74.3989H12.9222ZM23.6618 79.2417C25.0084 79.988 26.5172 80.3611 28.1883 80.3611C29.4051 80.3611 30.5326 80.1583 31.5709 79.7527C32.6255 79.3471 33.5178 78.755 34.2478 77.9762L33.4691 77.1732C32.0901 78.536 30.346 79.2174 28.2369 79.2174C26.8093 79.2174 25.5114 78.8929 24.3432 78.2439C23.1751 77.595 22.2585 76.7027 21.5933 75.567C20.9281 74.4151 20.5956 73.1334 20.5956 71.722C20.5956 70.3105 20.9281 69.0369 21.5933 67.9013C22.2585 66.7494 23.1751 65.849 24.3432 65.2C25.5114 64.5511 26.8093 64.2266 28.2369 64.2266C30.3623 64.2266 32.1063 64.8999 33.4691 66.2465L34.2478 65.4434C33.5178 64.6646 32.6336 64.0806 31.5953 63.6912C30.5569 63.2856 29.4213 63.0828 28.1883 63.0828C26.5172 63.0828 25.0084 63.456 23.6618 64.2023C22.3315 64.9486 21.277 65.9788 20.4982 67.2929C19.7357 68.607 19.3544 70.0834 19.3544 71.722C19.3544 73.3606 19.7357 74.8369 20.4982 76.1511C21.277 77.4652 22.3315 78.4954 23.6618 79.2417ZM39.8272 75.4453L37.6613 80.2395H36.3228L44.1589 63.2045H45.4L53.2361 80.2395H51.8976L49.7074 75.4453H39.8272ZM49.2451 74.3989L44.7673 64.5673L40.3139 74.3989H49.2451ZM64.2864 63.2045H57.5454V80.2395H64.2864C66.0548 80.2395 67.6204 79.8744 68.9832 79.1443C70.3622 78.4143 71.433 77.4084 72.1955 76.1267C72.958 74.8288 73.3392 73.3606 73.3392 71.722C73.3392 70.0834 72.958 68.6232 72.1955 67.3416C71.433 66.0437 70.3622 65.0297 68.9832 64.2996C67.6204 63.5695 66.0548 63.2045 64.2864 63.2045ZM68.3504 78.1953C67.1499 78.8118 65.7627 79.12 64.189 79.12H58.7865V64.3239H64.189C65.7627 64.3239 67.1499 64.6403 68.3504 65.273C69.551 65.8895 70.4757 66.7575 71.1247 67.877C71.7737 68.9964 72.0981 70.2781 72.0981 71.722C72.0981 73.1659 71.7737 74.4476 71.1247 75.567C70.4757 76.6864 69.551 77.5625 68.3504 78.1953ZM90.6217 79.12V80.2395H78.8676V63.2045H90.2567V64.3239H80.1087V71.0406H89.1859V72.1357H80.1087V79.12H90.6217ZM112.449 65.6624L112.474 80.2395H113.691L113.666 63.2045H112.644L105.027 76.3701L97.41 63.2045H96.3636V80.2395H97.5804V65.7111L104.711 77.9762H105.319L112.449 65.6624ZM126.103 74.3746V80.2395H124.862V74.3746L117.999 63.2045H119.362L125.519 73.2308L131.676 63.2045H132.966L126.103 74.3746ZM209.317 91.8524C210.057 91.8524 210.252 91.8427 210.573 91.7843V92.9719C210.271 92.9329 210.135 92.9232 209.337 92.9232H206.436C205.638 92.9232 205.511 92.9329 205.2 92.9719V91.7843C205.531 91.8427 205.725 91.8524 206.455 91.8524H209.317ZM212.422 95.4054C212.091 95.3665 211.945 95.3568 211.186 95.3568H209.103C208.996 97.7611 208.081 99.046 205.881 99.8929C205.647 99.4062 205.482 99.1921 205.083 98.8124C206.991 98.2089 207.75 97.2452 207.818 95.3568H205.453C204.693 95.3568 204.547 95.3665 204.216 95.4054V94.2471C204.557 94.3055 204.752 94.3152 205.472 94.3152H211.167C211.887 94.3152 212.082 94.3055 212.422 94.2471V95.4054ZM212.393 90.7719C212.783 91.2878 213.016 91.6772 213.25 92.2515L212.529 92.5338C212.306 91.979 212.023 91.4825 211.692 91.025L212.393 90.7719ZM211.274 92.9621C211.001 92.3099 210.777 91.9108 210.417 91.4047L211.138 91.1516C211.507 91.6577 211.731 92.0471 212.004 92.6896L211.274 92.9621ZM104.362 92.3002C104.109 92.3878 103.905 92.4073 103.506 92.417C101.131 92.4365 101.131 92.4365 100.975 92.456L100.988 92.4322C101.036 92.3467 101.102 92.2285 101.209 91.9887L101.209 91.9883L101.209 91.9881C101.394 91.6188 101.394 91.6187 101.501 91.4436L100.235 91.1613C100.148 91.5215 99.9528 91.9984 99.6705 92.5144C99.0768 93.6046 98.298 94.4904 97.2272 95.2886C97.7334 95.5807 97.8794 95.7072 98.2007 96.0674C99.1838 95.24 99.875 94.4515 100.478 93.4488L103.506 93.4196C103.204 94.3347 102.873 95.0161 102.416 95.7169C101.686 95.1426 101.277 94.87 100.459 94.4125L99.7192 95.2789C100.449 95.678 101.033 96.0868 101.715 96.6709C101.218 97.2257 100.809 97.5762 100.118 98.0239C99.5343 98.4133 99.0476 98.6567 98.2201 98.9974C98.59 99.3089 98.7166 99.4743 99.0281 100C101.101 99.046 102.474 97.8974 103.467 96.2815C103.866 95.6293 104.401 94.4904 104.713 93.6046C104.869 93.1568 104.888 93.1179 105.015 92.9524L104.362 92.3002ZM20.8429 92.5436C21.6898 92.8356 22.5562 93.2931 23.442 93.8869L24.065 92.8161C23.2473 92.3197 22.4783 91.9498 21.4757 91.5604L20.8429 92.5436ZM20.0739 94.909C21.0668 95.2984 21.9332 95.7656 22.7119 96.3399L23.3154 95.24C22.4783 94.6948 21.7288 94.3152 20.7261 93.9161L20.0739 94.909ZM20.6288 99.6009C20.8235 99.5425 20.9597 99.5133 21.3102 99.4451C23.7048 98.9682 25.3596 98.1018 26.5959 96.6806C27.1994 95.97 27.6082 95.2984 28.056 94.2179C27.5888 93.8966 27.4428 93.7701 27.0437 93.3515C26.7419 94.2178 26.4401 94.8019 25.9145 95.5028C25.1357 96.5443 24.3083 97.1771 23.1013 97.6443C22.0889 98.0337 21.0279 98.2673 20.2881 98.277L20.6288 99.6009ZM9.0807 98.597L9.08205 98.5983L8.14756 99.6106C7.33962 98.6177 6.22018 97.5275 5.15915 96.7196C4.05918 97.9461 2.93974 98.8027 1.4504 99.5328C1.17784 99.0266 1.06103 98.8708 0.661922 98.4523C1.41146 98.1602 1.8787 97.8974 2.60877 97.3815C4.07865 96.3497 5.24676 94.9382 5.87948 93.4196L5.98656 93.1666L5.96464 93.1679C5.82372 93.1764 5.68243 93.1786 2.7717 93.2248L2.77093 93.2249H2.77047H2.7702H2.77004L2.76902 93.2249H2.76841L2.76713 93.2249L2.76452 93.225C2.29728 93.2347 2.03445 93.2542 1.70349 93.3028L1.66455 92.0568C1.93711 92.1055 2.12206 92.1153 2.52116 92.1153H2.75479L6.18124 92.0666C6.72636 92.0568 6.80424 92.0471 7.04759 91.9595L7.69005 92.6214C7.56351 92.7674 7.48563 92.9037 7.37856 93.1471C6.93078 94.1887 6.4538 95.0355 5.86001 95.8337C6.47327 96.2426 6.99892 96.6514 7.66085 97.2452C7.90407 97.4592 7.90421 97.4594 9.0801 98.5964L9.08035 98.5966L9.0807 98.597ZM10.7777 96.9629C10.622 97.1479 10.583 97.1965 10.4467 97.3717L9.61934 96.1744C9.90163 96.0187 10.4078 95.4444 11.7122 93.809C12.0432 93.3807 12.2476 93.1666 12.4423 93.04C12.6467 92.9135 12.8706 92.8551 13.1042 92.8551C13.5909 92.8551 13.8148 93.0108 14.5546 93.848C15.713 95.1329 16.6183 96.0187 17.7085 96.9532C18.2634 97.4399 18.4191 97.5567 18.6333 97.693L18.02 99.0266C16.1997 97.362 15.7032 96.8656 13.9024 94.909C13.3932 94.352 13.3002 94.2503 13.1928 94.2317C13.1688 94.2276 13.1441 94.2276 13.1139 94.2276C12.9582 94.2276 12.9193 94.2568 12.5201 94.7922C12.121 95.3276 11.3034 96.3399 10.7777 96.9629ZM15.7032 93.1763C15.7032 92.563 16.2094 92.0568 16.8227 92.0568C17.4457 92.0568 17.9519 92.563 17.9519 93.1763C17.9519 93.7993 17.4457 94.3055 16.8227 94.3055C16.2094 94.3055 15.7032 93.7993 15.7032 93.1763ZM17.4651 93.1763C17.4651 92.8259 17.1829 92.5436 16.8227 92.5436C16.4723 92.5436 16.19 92.8259 16.19 93.1763C16.19 93.5267 16.4723 93.8187 16.8227 93.8187C17.1829 93.8187 17.4651 93.5267 17.4651 93.1763ZM30.9374 94.7143L31.7453 94.578L31.5993 93.809C31.5214 93.3904 31.5019 93.2931 31.4143 93.0789L32.5727 92.9037C32.5727 93.0984 32.6019 93.3126 32.6701 93.6533L32.8161 94.4028L35.7266 93.9161C36.0089 93.8772 36.1744 93.8285 36.3691 93.7506L37.0505 94.3639C36.9629 94.4904 36.9045 94.5975 36.8071 94.8311C36.3788 95.9116 35.824 96.6417 34.8895 97.362C34.539 96.9921 34.393 96.885 33.9842 96.6709C34.7045 96.2231 35.2399 95.6585 35.639 94.9285L35.6379 94.9287C35.6001 94.9382 35.5746 94.9445 35.5489 94.9502C35.4959 94.9619 35.4422 94.9705 35.2788 94.9966L32.9913 95.3762L33.6824 98.9779L33.6824 98.9781L33.6825 98.9782L33.6825 98.9784L33.6826 98.9785L33.6826 98.9787L33.6826 98.9789L33.6827 98.9791C33.7476 99.3365 33.7691 99.4549 33.8025 99.5698C33.819 99.6267 33.8384 99.6827 33.8674 99.7664L32.6506 99.9805C32.6506 99.7274 32.6311 99.5133 32.5727 99.1921L31.9108 95.5612L31.0736 95.6975C30.7329 95.7559 30.4993 95.8143 30.217 95.9116L30.0126 94.8019C30.3241 94.8019 30.5675 94.7727 30.9374 94.7143ZM40.3305 91.6772C40.3695 91.94 40.3695 92.0276 40.3695 92.5629V92.563C40.3695 95.2886 40.1456 96.5443 39.4447 97.6638C39.1527 98.131 38.9191 98.3939 38.4421 98.7832C38.8996 99.0947 39.0456 99.2407 39.4252 99.7274C40.0677 99.0947 40.4376 98.5983 40.7686 97.9266C41.2747 96.924 41.4889 95.824 41.557 93.9258C41.6081 92.2594 41.6145 92.0485 41.6413 91.8402C41.6452 91.81 41.6495 91.7799 41.6544 91.7454L40.3305 91.6772ZM42.9101 91.6091C42.9393 91.794 42.949 92.0082 42.949 92.2515V92.5436L42.9004 98.0337C42.8906 98.5691 42.8809 98.7832 42.8128 99.0655L43.4358 99.7274L43.4774 99.7082C43.5818 99.6597 43.6646 99.6212 43.8543 99.5522C44.8667 99.1531 45.3729 98.8611 45.9277 98.3841C46.5702 97.8098 47.0764 97.0797 47.4755 96.116C47.0277 95.7656 46.9012 95.6391 46.5605 95.201C46.3366 95.9213 46.0543 96.4567 45.6065 96.9824C45.1879 97.4788 44.7986 97.7709 44.1172 98.0921L44.1658 92.5533C44.1756 92.0763 44.1853 91.9108 44.234 91.6285L42.9101 91.6091ZM54.6496 92.0861C55.3018 92.0861 55.5062 92.0666 55.8469 91.979L56.4894 92.5728C56.3921 92.8551 56.3629 92.9524 56.3239 93.2639C56.0124 95.5417 55.5549 96.6904 54.5425 97.7806C53.7833 98.5885 52.8098 99.2115 51.5249 99.708C51.2426 99.1823 51.1258 99.0168 50.7267 98.5885C51.5541 98.3452 52.07 98.1116 52.7028 97.6833C54.0948 96.739 54.8248 95.3081 55.0195 93.1958L50.386 93.2055V94.6559C50.3957 95.347 50.3958 95.347 50.425 95.5125L49.1206 95.5222C49.1498 95.2886 49.1595 95.1231 49.1595 94.6851V92.8259C49.1595 92.417 49.1595 92.3002 49.1303 92.0374C49.3931 92.0666 49.7046 92.0861 49.9382 92.0861H54.6496ZM58.7185 93.04C59.6238 93.5462 60.422 94.1887 61.2008 95.0161L62.0379 93.955C61.2884 93.2444 60.6849 92.7967 59.5265 92.0763L58.7185 93.04ZM59.0592 99.4646C59.2831 99.3867 59.3123 99.377 59.7017 99.2991C61.2105 98.9779 62.4176 98.5009 63.4104 97.839C64.744 96.9532 65.6688 95.8045 66.4962 94.0232C65.9998 93.6727 65.844 93.5267 65.4644 93.0692C65.1723 93.8577 64.8998 94.3931 64.4715 95.0161C63.7025 96.1258 62.7972 96.8753 61.5804 97.401C60.6946 97.7903 59.5362 98.0726 58.6991 98.1213L59.0592 99.4646ZM70.974 95.5904C70.974 94.9479 71.4899 94.432 72.1323 94.432C72.7748 94.432 73.2907 94.9479 73.2907 95.5904C73.2907 96.2328 72.7748 96.7488 72.1323 96.7488C71.4899 96.7488 70.974 96.2328 70.974 95.5904ZM82.4117 93.5851H84.0471C84.6993 93.5851 84.9426 93.5949 85.2931 93.6338V92.417C84.9231 92.4754 84.6895 92.4852 84.0276 92.4852H79.6958C79.0339 92.4852 78.8003 92.4754 78.4304 92.417V93.6338C78.7808 93.5949 79.0339 93.5851 79.6764 93.5851H81.1657V97.5859H78.9658C78.2844 97.5859 78.08 97.5762 77.7003 97.5178V98.7443C78.0508 98.7053 78.3039 98.6956 78.9463 98.6956H84.7869C85.4293 98.6956 85.6824 98.7053 86.0329 98.7443V97.5178C85.6532 97.5762 85.4488 97.5859 84.7674 97.5859H82.4117V93.5851ZM90.4035 95.0161C89.6248 94.1887 88.8266 93.5462 87.9213 93.04L88.7292 92.0763C89.8876 92.7967 90.4911 93.2444 91.2407 93.955L90.4035 95.0161ZM88.9045 99.2991C88.5151 99.377 88.4859 99.3867 88.262 99.4646L87.9018 98.1213C88.739 98.0726 89.8974 97.7903 90.7832 97.401C92 96.8753 92.9052 96.1258 93.6742 95.0161C94.1025 94.3931 94.3751 93.8577 94.6671 93.0692C95.0468 93.5267 95.2025 93.6727 95.699 94.0232C94.8716 95.8045 93.9468 96.9532 92.6132 97.839C91.6203 98.5009 90.4133 98.9779 88.9045 99.2991ZM108.48 96.1842C107.39 96.1842 107.283 96.1842 106.893 96.2328V94.8798C107.322 94.9382 107.507 94.9479 108.47 94.9479H113.659C114.622 94.9479 114.807 94.9382 115.236 94.8798V96.2328C114.846 96.1842 114.739 96.1842 113.649 96.1842H108.48ZM123.665 95.3178C124.327 95.3178 124.551 95.3276 124.902 95.3665V94.2081C124.532 94.2665 124.308 94.2763 123.646 94.2763H117.951C117.28 94.2763 117.066 94.2665 116.696 94.2081V95.3665C117.046 95.3276 117.27 95.3178 117.932 95.3178H120.307C120.278 96.0771 120.132 96.7098 119.879 97.1576C119.47 97.9071 118.74 98.423 117.572 98.7832C117.99 99.1921 118.117 99.3575 118.36 99.854C119.674 99.3283 120.385 98.793 120.901 97.9363C121.32 97.2452 121.534 96.4373 121.582 95.3178H123.665ZM117.679 92.9427C118 92.9037 118.234 92.894 118.915 92.894H122.692C123.373 92.894 123.607 92.9037 123.928 92.9427V91.7551C123.568 91.8135 123.373 91.8232 122.673 91.8232H118.935C118.234 91.8232 118.039 91.8135 117.679 91.7551V92.9427ZM131.297 93.2055C132.163 92.5338 132.825 91.8622 133.108 91.3852L134.227 92.1639L134.171 92.2134C134.048 92.3213 133.995 92.3681 133.867 92.5046C133.137 93.2639 132.407 93.8966 131.57 94.5099V98.6664C131.57 99.2018 131.579 99.4841 131.618 99.7469H130.256C130.304 99.4646 130.314 99.2699 130.314 98.6956V95.2691C129.175 95.9506 128.63 96.2036 126.839 96.8461C126.634 96.3399 126.527 96.1744 126.187 95.7364C128.114 95.2107 129.749 94.4028 131.297 93.2055ZM136.593 93.04C137.498 93.5462 138.296 94.1887 139.075 95.0161L139.912 93.955C139.162 93.2444 138.559 92.7967 137.401 92.0763L136.593 93.04ZM136.933 99.4646C137.157 99.3867 137.186 99.377 137.576 99.2991C139.085 98.9779 140.292 98.5009 141.284 97.839C142.618 96.9532 143.543 95.8045 144.37 94.0232C143.874 93.6727 143.718 93.5267 143.338 93.0692C143.046 93.8577 142.774 94.3931 142.346 95.0161C141.577 96.1258 140.671 96.8753 139.454 97.401C138.569 97.7903 137.41 98.0726 136.573 98.1213L136.933 99.4646ZM150.318 94.6267C150.941 93.6046 151.564 92.1931 151.69 91.4923L153.014 91.9498C152.907 92.1347 152.868 92.2126 152.674 92.6506C152.06 94.101 151.681 94.8408 151.301 95.4054C152.119 96.0966 152.625 96.5735 153.472 97.4691L152.537 98.4717C152.031 97.8098 151.447 97.2063 150.561 96.4178C150.143 96.9726 149.636 97.5178 149.043 98.0434C148.342 98.6567 147.719 99.0947 146.726 99.6496C146.463 99.1823 146.307 99.0071 145.869 98.6372C146.95 98.1018 147.621 97.654 148.391 96.9532C148.858 96.5346 149.247 96.116 149.627 95.6293C148.848 94.9869 147.914 94.3541 147.047 93.8772L147.904 93.0205C148.614 93.4391 149.033 93.7117 149.51 94.0524C150.172 94.5293 150.234 94.5735 150.298 94.6139L150.318 94.6267ZM156.061 93.04C156.966 93.5462 157.765 94.1887 158.543 95.0161L159.38 93.955C158.631 93.2444 158.027 92.7967 156.869 92.0763L156.061 93.04ZM156.402 99.4646C156.626 99.3867 156.655 99.377 157.044 99.2991C158.553 98.9779 159.76 98.5009 160.753 97.839C162.087 96.9532 163.011 95.8045 163.839 94.0232C163.342 93.6727 163.187 93.5267 162.807 93.0692C162.515 93.8577 162.242 94.3931 161.814 95.0161C161.045 96.1258 160.14 96.8753 158.923 97.401C158.037 97.7903 156.879 98.0726 156.042 98.1213L156.402 99.4646ZM168.482 98.6469C168.482 99.1531 168.492 99.4062 168.521 99.7274H167.187C167.236 99.4159 167.246 99.1531 167.246 98.6372V92.3975C167.246 91.9206 167.226 91.6675 167.187 91.4047H168.521C168.482 91.6967 168.482 91.8232 168.482 92.4268V94.2373C169.816 94.7046 171.344 95.4152 172.901 96.2913L172.22 97.4399C171.412 96.885 170.4 96.3302 168.774 95.5807C168.717 95.5535 168.673 95.5325 168.637 95.5157C168.532 95.4661 168.501 95.4515 168.443 95.4152C168.472 95.6877 168.482 95.8045 168.482 96.0771V98.6469ZM179.209 94.432C178.567 94.432 178.051 94.9479 178.051 95.5904C178.051 96.2328 178.567 96.7488 179.209 96.7488C179.852 96.7488 180.368 96.2328 180.368 95.5904C180.368 94.9479 179.852 94.432 179.209 94.432ZM191.591 91.9303C192.175 91.9303 192.263 91.9206 192.535 91.8427L193.188 92.5825C193.063 92.7341 193.052 92.755 192.857 93.147L192.856 93.1472L192.856 93.1474L192.798 93.2639C192.457 93.9842 191.893 94.7143 191.299 95.2205C190.91 95.5612 190.589 95.7753 190.131 96.0284C189.839 95.6196 189.693 95.4736 189.255 95.1426C189.907 94.8506 190.277 94.6267 190.676 94.2471C191.075 93.8772 191.377 93.4781 191.601 93.0108H186.49C185.809 93.0108 185.566 93.0205 185.167 93.0692V91.8524C185.536 91.9108 185.838 91.9303 186.51 91.9303H191.591ZM187.96 94.3931C187.96 94.101 187.951 94.0134 187.912 93.809H189.235C189.206 93.9929 189.206 94.0036 189.197 94.5868V94.5873V94.5878L189.196 94.5975C189.158 96.262 188.895 97.1965 188.233 98.0434C187.649 98.793 186.938 99.2894 185.721 99.7956C185.468 99.2699 185.342 99.0947 184.952 98.6859C185.741 98.4523 186.179 98.2381 186.656 97.8585C187.649 97.07 187.96 96.2328 187.96 94.3931ZM201.851 93.0497C201.608 93.1276 201.52 93.1374 201.082 93.1374L198.921 93.1471C198.945 92.8928 198.949 92.7877 198.955 92.6411L198.96 92.5338V92.5337C198.974 92.1737 198.978 92.0698 198.986 91.9662C198.989 91.9242 198.993 91.8822 198.999 91.8232C198.999 91.7551 199.009 91.6967 199.009 91.6383C199.018 91.502 199.028 91.4631 199.048 91.3365L197.743 91.3073C197.772 91.4825 197.772 91.5604 197.772 91.687V91.9303C197.772 92.2126 197.753 92.7772 197.724 93.1471L196.02 93.1568C195.533 93.1568 195.271 93.1374 194.94 93.0789L194.949 94.2763C195.271 94.2373 195.407 94.2276 196.001 94.2276L197.617 94.2179C197.613 94.246 197.607 94.2791 197.6 94.3178L197.6 94.3183C197.591 94.3733 197.579 94.4398 197.568 94.5196C197.48 95.201 197.334 95.678 197.072 96.2134C196.556 97.2549 195.757 98.0239 194.541 98.6664C194.949 99.0266 195.086 99.1823 195.417 99.6982C196.643 98.9195 197.51 98.0337 198.045 97.0019C198.483 96.1647 198.687 95.4346 198.824 94.2179L201.092 94.2081C201.092 95.3276 200.994 96.6514 200.878 97.3231C200.722 98.17 200.576 98.3841 200.157 98.3841C199.836 98.3841 199.447 98.316 198.872 98.1602C199.048 98.608 199.077 98.793 199.096 99.4062C199.602 99.4841 199.933 99.5133 200.303 99.5133C201.471 99.5133 201.812 99.1142 202.065 97.4302C202.163 96.7877 202.27 95.2886 202.299 94.1887C202.309 93.848 202.328 93.7117 202.406 93.5365L201.851 93.0497ZM215.44 92.6312C217.153 92.7967 219.149 93.2152 220.755 93.7506L221.144 92.5533C218.974 91.9692 217.757 91.7259 215.878 91.502L215.44 92.6312ZM215.284 95.3081C216.287 95.4346 216.92 95.5417 217.747 95.7364C218.964 96.009 219.655 96.2134 220.424 96.5151L220.804 95.3178C218.847 94.7338 217.29 94.3833 215.732 94.1887L215.284 95.3081ZM214.496 98.0434C215.557 98.1797 216.355 98.3257 217.552 98.608C219.09 98.9682 219.986 99.2505 220.998 99.6982L221.417 98.4717C219.149 97.6833 217.309 97.2452 214.953 96.9337L214.496 98.0434ZM225.291 96.1842C224.201 96.1842 224.094 96.1842 223.704 96.2328V94.8798C224.133 94.9382 224.318 94.9479 225.281 94.9479H230.47C231.433 94.9479 231.618 94.9382 232.047 94.8798V96.2328C231.657 96.1842 231.55 96.1842 230.46 96.1842H225.291Z" fill="url(#paint0_linear_207_270)"/>
<defs>
<linearGradient id="paint0_linear_207_270" x1="2.35467" y1="2.36058" x2="234.029" y2="71.9446" gradientUnits="userSpaceOnUse">
<stop stop-color="#FF4D77"/>
<stop offset="1" stop-color="#72A9F9"/>
</linearGradient>
</defs>
</svg>
