<svg width="233" height="101" viewBox="0 0 233 101" fill="none" xmlns="http://www.w3.org/2000/svg">
<path fill-rule="evenodd" clip-rule="evenodd" d="M9.86862 23.8571C8.13397 23.8571 6.45287 23.6108 4.8253 23.1183C3.21915 22.6257 1.94493 21.9726 1.00266 21.1588L2.44819 17.9143C3.36905 18.6425 4.49336 19.2421 5.82111 19.7132C7.17028 20.163 8.51945 20.3878 9.86862 20.3878C11.539 20.3878 12.7811 20.1201 13.5949 19.5847C14.4301 19.0494 14.8477 18.3427 14.8477 17.4646C14.8477 16.8222 14.6121 16.2975 14.141 15.8906C13.6913 15.4623 13.113 15.1303 12.4063 14.8948C11.6996 14.6592 10.7359 14.3915 9.51526 14.0917C7.80203 13.6848 6.41004 13.2779 5.33927 12.871C4.28991 12.4641 3.37976 11.8324 2.60881 10.9758C1.85927 10.0977 1.4845 8.91989 1.4845 7.44223C1.4845 6.20014 1.81644 5.07583 2.48032 4.06931C3.16561 3.04137 4.18284 2.22759 5.53201 1.62796C6.90259 1.02833 8.57299 0.728516 10.5432 0.728516C11.9138 0.728516 13.263 0.899839 14.5907 1.24249C15.9185 1.58513 17.0642 2.07768 18.0279 2.72015L16.7108 5.96457C15.7257 5.38636 14.6978 4.94734 13.627 4.64753C12.5562 4.34771 11.5176 4.1978 10.5111 4.1978C8.86209 4.1978 7.63071 4.4762 6.81693 5.033C6.02456 5.5898 5.62837 6.32863 5.62837 7.24949C5.62837 7.89195 5.85324 8.41663 6.30296 8.82352C6.7741 9.23042 7.36302 9.55165 8.06973 9.78721C8.77643 10.0228 9.74013 10.2905 10.9608 10.5903C12.6312 10.9758 14.0018 11.3827 15.0725 11.811C16.1433 12.2179 17.0535 12.8496 17.803 13.7062C18.574 14.5628 18.9594 15.7193 18.9594 17.1755C18.9594 18.4176 18.6168 19.5419 17.9315 20.5484C17.2676 21.555 16.2504 22.358 14.8798 22.9577C13.5092 23.5573 11.8388 23.8571 9.86862 23.8571ZM33.9579 1.04975C35.9067 1.04975 37.5985 1.37098 39.0333 2.01344C40.4896 2.6559 41.6032 3.57676 42.3741 4.77602C43.1451 5.97528 43.5306 7.3994 43.5306 9.04838C43.5306 10.676 43.1451 12.1001 42.3741 13.3207C41.6032 14.52 40.4896 15.4409 39.0333 16.0833C37.5985 16.7258 35.9067 17.047 33.9579 17.047H28.8824V23.5359H24.7064V1.04975H33.9579ZM33.7651 13.5135C35.5855 13.5135 36.9667 13.128 37.909 12.3571C38.8513 11.5861 39.3224 10.4832 39.3224 9.04838C39.3224 7.61355 38.8513 6.51066 37.909 5.73971C36.9667 4.96876 35.5855 4.58328 33.7651 4.58328H28.8824V13.5135H33.7651ZM66.1715 23.5359V20.0345H53.4829V13.8347H64.3405V10.3976H53.4829V4.55116H65.7218V1.04975H49.3069V23.5359H66.1715ZM82.7468 23.8571C80.4767 23.8571 78.4209 23.3646 76.5791 22.3794C74.7588 21.3729 73.324 19.9916 72.2747 18.2356C71.2467 16.4795 70.7327 14.4986 70.7327 12.2928C70.7327 10.087 71.2574 8.10611 72.3068 6.35005C73.3561 4.59399 74.791 3.2234 76.6113 2.2383C78.453 1.23178 80.5089 0.728516 82.7789 0.728516C84.6206 0.728516 86.3017 1.04975 87.8222 1.69221C89.3427 2.33467 90.6276 3.26624 91.677 4.48691L88.9786 7.02463C87.3511 5.26857 85.3487 4.39054 82.9716 4.39054C81.4297 4.39054 80.0484 4.73319 78.8278 5.41848C77.6071 6.08236 76.6541 7.01392 75.9688 8.21318C75.2835 9.41244 74.9409 10.7723 74.9409 12.2928C74.9409 13.8133 75.2835 15.1732 75.9688 16.3724C76.6541 17.5717 77.6071 18.514 78.8278 19.1993C80.0484 19.8631 81.4297 20.1951 82.9716 20.1951C85.3487 20.1951 87.3511 19.3063 88.9786 17.5289L91.677 20.0987C90.6276 21.3194 89.332 22.251 87.7901 22.8934C86.2696 23.5359 84.5885 23.8571 82.7468 23.8571ZM101.46 1.04975H97.2844V23.5359H101.46V1.04975ZM123.733 18.3319H112.489L110.273 23.5359H105.968L116.087 1.04975H120.199L130.35 23.5359H125.981L123.733 18.3319ZM122.351 15.0554L118.111 5.22574L113.903 15.0554H122.351ZM138.992 1.04975H134.816V23.5359H150.749V20.0023H138.992V1.04975ZM160.69 23.5359H156.514V4.55116H151.76V1.04975H160.69V23.5359ZM14.6014 50.6458V51.7652H2.84727V34.7303H14.2363V35.8497H4.08839V42.5663H13.1656V43.6614H4.08839V50.6458H14.6014ZM34.2146 34.7303V51.7652H33.1925L21.5844 36.9691V51.7652H20.3433V34.7303H21.3897L32.9735 49.5263V34.7303H34.2146ZM38.5087 35.8497H44.6413V51.7652H45.8824V35.8497H52.0149V34.7303H38.5087V35.8497ZM68.0637 50.6458V51.7652H56.3096V34.7303H67.6987V35.8497H57.5507V42.5663H66.6279V43.6614H57.5507V50.6458H68.0637ZM81.5687 46.0707L85.6327 51.7652H87.0442L82.7855 45.803C84.0671 45.4298 85.0487 44.789 85.7301 43.8805C86.4277 42.9557 86.7765 41.82 86.7765 40.4735C86.7765 38.6726 86.1681 37.2693 84.9513 36.2634C83.7346 35.2413 82.0554 34.7303 79.9139 34.7303H73.8056V51.7652H75.0467V46.1923H79.9139C80.4168 46.1923 80.9684 46.1518 81.5687 46.0707ZM84.0752 43.9048C83.118 44.6998 81.7309 45.0972 79.9139 45.0972H75.0467V35.8497H79.9139C81.7309 35.8497 83.118 36.2553 84.0752 37.0665C85.0324 37.8614 85.5111 38.9971 85.5111 40.4735C85.5111 41.9498 85.0324 43.0936 84.0752 43.9048ZM95.5607 35.8497H89.4281V34.7303H102.934V35.8497H96.8018V51.7652H95.5607V35.8497ZM104.865 51.7652L107.031 46.9711H116.911L119.101 51.7652H120.44L112.603 34.7303H111.362L103.526 51.7652H104.865ZM111.971 36.0931L116.448 45.9247H107.517L111.971 36.0931ZM124.749 34.7303H125.99V51.7652H124.749V34.7303ZM147.014 51.7652V34.7303H145.773V49.5263L134.189 34.7303H133.143V51.7652H134.384V36.9691L145.992 51.7652H147.014ZM170.29 51.7652L170.266 37.1882L163.135 49.502H162.527L155.397 37.2368V51.7652H154.18V34.7303H155.226L162.843 47.8958L170.46 34.7303H171.482L171.507 51.7652H170.29ZM190.417 51.7652V50.6458H179.904V43.6614H188.981V42.5663H179.904V35.8497H190.052V34.7303H178.663V51.7652H190.417ZM210.03 34.7303V51.7652H209.008L197.4 36.9691V51.7652H196.159V34.7303H197.205L208.789 49.5263V34.7303H210.03ZM214.324 35.8497H220.457V51.7652H221.698V35.8497H227.83V34.7303H214.324V35.8497ZM13.3846 76.1739H3.50433L1.33846 80.968H0L7.83607 63.933H9.07719L16.9133 80.968H15.5748L13.3846 76.1739ZM12.9222 75.1274L8.44447 65.2958L3.99104 75.1274H12.9222ZM23.6618 79.9702C25.0084 80.7165 26.5172 81.0896 28.1883 81.0896C29.4051 81.0896 30.5326 80.8868 31.5709 80.4813C32.6255 80.0757 33.5178 79.4835 34.2478 78.7048L33.4691 77.9017C32.0901 79.2645 30.346 79.9459 28.2369 79.9459C26.8093 79.9459 25.5114 79.6214 24.3432 78.9724C23.1751 78.3235 22.2585 77.4312 21.5933 76.2955C20.9281 75.1436 20.5956 73.862 20.5956 72.4505C20.5956 71.039 20.9281 69.7655 21.5933 68.6298C22.2585 67.4779 23.1751 66.5775 24.3432 65.9285C25.5114 65.2796 26.8093 64.9551 28.2369 64.9551C30.3623 64.9551 32.1063 65.6284 33.4691 66.975L34.2478 66.1719C33.5178 65.3932 32.6336 64.8091 31.5953 64.4197C30.5569 64.0141 29.4213 63.8113 28.1883 63.8113C26.5172 63.8113 25.0084 64.1845 23.6618 64.9308C22.3315 65.6771 21.277 66.7073 20.4982 68.0214C19.7357 69.3355 19.3544 70.8119 19.3544 72.4505C19.3544 74.0891 19.7357 75.5655 20.4982 76.8796C21.277 78.1937 22.3315 79.2239 23.6618 79.9702ZM39.8272 76.1739L37.6613 80.968H36.3228L44.1589 63.933H45.4L53.2361 80.968H51.8976L49.7074 76.1739H39.8272ZM49.2451 75.1274L44.7673 65.2958L40.3139 75.1274H49.2451ZM64.2864 63.933H57.5454V80.968H64.2864C66.0548 80.968 67.6204 80.6029 68.9832 79.8729C70.3622 79.1428 71.433 78.1369 72.1955 76.8552C72.958 75.5573 73.3392 74.0891 73.3392 72.4505C73.3392 70.8119 72.958 69.3518 72.1955 68.0701C71.433 66.7722 70.3622 65.7582 68.9832 65.0281C67.6204 64.2981 66.0548 63.933 64.2864 63.933ZM68.3504 78.9238C67.1499 79.5403 65.7627 79.8485 64.189 79.8485H58.7865V65.0525H64.189C65.7627 65.0525 67.1499 65.3688 68.3504 66.0015C69.551 66.6181 70.4757 67.486 71.1247 68.6055C71.7737 69.7249 72.0981 71.0066 72.0981 72.4505C72.0981 73.8944 71.7737 75.1761 71.1247 76.2955C70.4757 77.415 69.551 78.291 68.3504 78.9238ZM90.6217 79.8485V80.968H78.8676V63.933H90.2567V65.0525H80.1087V71.7691H89.1859V72.8642H80.1087V79.8485H90.6217ZM112.449 66.3909L112.474 80.968H113.691L113.666 63.933H112.644L105.027 77.0986L97.41 63.933H96.3636V80.968H97.5804V66.4396L104.711 78.7048H105.319L112.449 66.3909ZM126.103 75.1031V80.968H124.862V75.1031L117.999 63.933H119.362L125.519 73.9593L131.676 63.933H132.966L126.103 75.1031ZM209.317 92.5809C210.057 92.5809 210.252 92.5712 210.573 92.5128V93.7004C210.271 93.6614 210.135 93.6517 209.337 93.6517H206.436C205.638 93.6517 205.511 93.6614 205.2 93.7004V92.5128C205.531 92.5712 205.725 92.5809 206.455 92.5809H209.317ZM212.422 96.1339C212.091 96.095 211.945 96.0853 211.186 96.0853H209.103C208.996 98.4896 208.081 99.7746 205.881 100.621C205.647 100.135 205.482 99.9206 205.083 99.5409C206.991 98.9374 207.75 97.9737 207.818 96.0853H205.453C204.693 96.0853 204.547 96.095 204.216 96.1339V94.9756C204.557 95.034 204.752 95.0437 205.472 95.0437H211.167C211.887 95.0437 212.082 95.034 212.422 94.9756V96.1339ZM212.393 91.5004C212.783 92.0164 213.016 92.4057 213.25 92.98L212.529 93.2623C212.306 92.7075 212.023 92.211 211.692 91.7535L212.393 91.5004ZM211.274 93.6907C211.001 93.0385 210.777 92.6394 210.417 92.1332L211.137 91.8801C211.507 92.3863 211.731 92.7756 212.004 93.4181L211.274 93.6907ZM104.362 93.0287C104.109 93.1163 103.905 93.1358 103.506 93.1455H103.505H103.505H103.504H103.503H103.502H103.501H103.5H103.499L103.497 93.1456C101.278 93.1638 101.14 93.1649 101.003 93.1811L100.975 93.1845L100.988 93.1608L100.988 93.1607C101.036 93.0752 101.102 92.957 101.209 92.7172C101.332 92.4701 101.373 92.3881 101.419 92.3086C101.441 92.2692 101.465 92.2304 101.5 92.1723L101.501 92.1721L100.235 91.8898C100.148 92.25 99.9528 92.727 99.6705 93.2429C99.0768 94.3331 98.298 95.2189 97.2272 96.0171C97.7334 96.3092 97.8794 96.4357 98.2007 96.7959C99.1838 95.9685 99.875 95.18 100.478 94.1774L103.506 94.1482C103.204 95.0632 102.873 95.7446 102.416 96.4454C101.686 95.8711 101.277 95.5986 100.459 95.1411L99.7192 96.0074C100.449 96.4065 101.033 96.8153 101.715 97.3994C101.218 97.9543 100.809 98.3047 100.118 98.7525C99.5343 99.1418 99.0476 99.3852 98.2201 99.7259C98.59 100.037 98.7166 100.203 99.0281 100.729C101.101 99.7746 102.474 98.6259 103.467 97.01C103.866 96.3578 104.401 95.2189 104.713 94.3331C104.869 93.8853 104.888 93.8464 105.015 93.6809L104.362 93.0287ZM20.8429 93.2721C21.6898 93.5641 22.5562 94.0216 23.442 94.6154L24.065 93.5446C23.2473 93.0482 22.4783 92.6783 21.4757 92.2889L20.8429 93.2721ZM20.0739 95.6375C21.0668 96.0269 21.9332 96.4941 22.7119 97.0684L23.3154 95.9685C22.4783 95.4233 21.7288 95.0437 20.7261 94.6446L20.0739 95.6375ZM20.6288 100.329C20.8235 100.271 20.9597 100.242 21.3102 100.174C23.7048 99.6967 25.3596 98.8303 26.5959 97.4091C27.1994 96.6985 27.6082 96.0269 28.056 94.9464C27.5888 94.6251 27.4428 94.4986 27.0437 94.08C26.7419 94.9464 26.4401 95.5304 25.9145 96.2313C25.1357 97.2729 24.3083 97.9056 23.1013 98.3728C22.0889 98.7622 21.0279 98.9958 20.2881 99.0056L20.6288 100.329ZM9.08197 99.3267L9.08205 99.3268L8.14756 100.339C7.33962 99.3463 6.22018 98.256 5.15915 97.4481C4.05918 98.6746 2.93974 99.5312 1.4504 100.261C1.17784 99.7551 1.06103 99.5993 0.661922 99.1808C1.41146 98.8887 1.8787 98.6259 2.60877 98.11C4.07865 97.0782 5.24676 95.6667 5.87948 94.1482L5.98656 93.8951C5.83111 93.9048 5.83081 93.9048 2.78186 93.9532L2.77746 93.9533L2.77417 93.9533L2.76452 93.9535C2.29728 93.9632 2.03445 93.9827 1.70349 94.0313L1.66455 92.7854C1.93711 92.834 2.12206 92.8438 2.52116 92.8438H2.75479L6.18124 92.7951C6.72636 92.7854 6.80424 92.7756 7.04759 92.688L7.69005 93.35C7.56351 93.496 7.48563 93.6322 7.37856 93.8756C6.93078 94.9172 6.4538 95.764 5.86001 96.5623C6.47327 96.9711 6.99892 97.3799 7.66085 97.9737C7.90417 98.1878 7.90421 98.1879 9.08147 99.3262L9.08197 99.3267ZM10.7777 97.6914C10.622 97.8764 10.583 97.925 10.4467 98.1003L9.61934 96.903C9.90163 96.7472 10.4078 96.1729 11.7122 94.5375C12.0432 94.1092 12.2476 93.8951 12.4423 93.7685C12.6467 93.642 12.8706 93.5836 13.1042 93.5836C13.5909 93.5836 13.8148 93.7393 14.5546 94.5765C15.713 95.8614 16.6183 96.7472 17.7085 97.6817C18.2634 98.1684 18.4191 98.2852 18.6333 98.4215L18.02 99.7551C16.1997 98.0905 15.7032 97.5941 13.9024 95.6375C13.3932 95.0805 13.3002 94.9788 13.1928 94.9603C13.1688 94.9561 13.1441 94.9561 13.1139 94.9561C12.9582 94.9561 12.9192 94.9853 12.5201 95.5207C12.121 96.0561 11.3034 97.0684 10.7777 97.6914ZM15.7032 93.9048C15.7032 93.2915 16.2094 92.7854 16.8227 92.7854C17.4457 92.7854 17.9519 93.2915 17.9519 93.9048C17.9519 94.5278 17.4457 95.034 16.8227 95.034C16.2094 95.034 15.7032 94.5278 15.7032 93.9048ZM17.4651 93.9048C17.4651 93.5544 17.1829 93.2721 16.8227 93.2721C16.4723 93.2721 16.19 93.5544 16.19 93.9048C16.19 94.2552 16.4723 94.5473 16.8227 94.5473C17.1829 94.5473 17.4651 94.2552 17.4651 93.9048ZM30.9374 95.4428L31.7453 95.3065L31.5993 94.5375C31.5214 94.119 31.5019 94.0216 31.4143 93.8075L32.5727 93.6322C32.5727 93.8269 32.6019 94.0411 32.6701 94.3818L32.8161 95.1313L35.7266 94.6446C36.0089 94.6057 36.1744 94.557 36.3691 94.4791L37.0505 95.0924C36.9629 95.2189 36.9045 95.326 36.8071 95.5596C36.3788 96.6401 35.824 97.3702 34.8895 98.0905C34.539 97.7206 34.393 97.6136 33.9842 97.3994C34.7045 96.9516 35.2399 96.387 35.639 95.657L35.6379 95.6572C35.6001 95.6667 35.5746 95.6731 35.5489 95.6787C35.4959 95.6904 35.4422 95.699 35.2788 95.7251L32.9913 96.1047L33.6824 99.7064L33.6824 99.7066L33.6825 99.7067L33.6825 99.7069L33.6826 99.7071L33.6826 99.7072L33.6826 99.7074L33.6827 99.7076C33.7476 100.065 33.7691 100.183 33.8025 100.298C33.819 100.355 33.8384 100.411 33.8674 100.495L32.6506 100.709C32.6506 100.456 32.6311 100.242 32.5727 99.9206L31.9108 96.2897L31.0736 96.426C30.7329 96.4844 30.4993 96.5428 30.217 96.6401L30.0126 95.5304C30.3241 95.5304 30.5675 95.5012 30.9374 95.4428ZM40.3305 92.4057C40.3695 92.6685 40.3695 92.7561 40.3695 93.2914V93.2915C40.3695 96.0171 40.1456 97.2729 39.4447 98.3923C39.1527 98.8595 38.9191 99.1224 38.4421 99.5117C38.8996 99.8232 39.0456 99.9692 39.4252 100.456C40.0677 99.8232 40.4376 99.3268 40.7686 98.6551C41.2747 97.6525 41.4889 96.5525 41.557 94.6543C41.6081 92.9879 41.6145 92.777 41.6413 92.5687C41.6452 92.5385 41.6495 92.5084 41.6544 92.4739L40.3305 92.4057ZM42.9101 92.3376C42.9393 92.5225 42.949 92.7367 42.949 92.98V93.2721L42.9004 98.7622C42.8906 99.2976 42.8809 99.5117 42.8128 99.794L43.4358 100.456L43.4774 100.437C43.5818 100.388 43.6646 100.35 43.8543 100.281C44.8667 99.8816 45.3729 99.5896 45.9277 99.1126C46.5702 98.5383 47.0764 97.8082 47.4755 96.8446C47.0277 96.4941 46.9011 96.3676 46.5605 95.9295C46.3366 96.6499 46.0543 97.1852 45.6065 97.7109C45.1879 98.2073 44.7986 98.4994 44.1172 98.8206L44.1658 93.2818C44.1756 92.8048 44.1853 92.6394 44.234 92.3571L42.9101 92.3376ZM54.6496 92.8146C55.3018 92.8146 55.5062 92.7951 55.8469 92.7075L56.4894 93.3013C56.392 93.5836 56.3629 93.6809 56.3239 93.9924C56.0124 96.2702 55.5549 97.4189 54.5425 98.5091C53.7833 99.317 52.8098 99.94 51.5249 100.436C51.2426 99.9108 51.1258 99.7454 50.7267 99.317C51.5541 99.0737 52.07 98.8401 52.7028 98.4118C54.0948 97.4675 54.8248 96.0366 55.0195 93.9243L50.386 93.934V95.3844V95.3846V95.3848C50.3938 95.9396 50.3954 96.0488 50.4108 96.156C50.4146 96.1823 50.4192 96.2085 50.425 96.241L49.1206 96.2508C49.1498 96.0171 49.1595 95.8517 49.1595 95.4136V93.5544C49.1595 93.1455 49.1595 93.0287 49.1303 92.7659C49.3931 92.7951 49.7046 92.8146 49.9382 92.8146H54.6496ZM58.7185 93.7685C59.6238 94.2747 60.422 94.9172 61.2008 95.7446L62.0379 94.6835C61.2884 93.9729 60.6849 93.5252 59.5265 92.8048L58.7185 93.7685ZM59.0592 100.193C59.2831 100.115 59.3123 100.106 59.7017 100.028C61.2105 99.7064 62.4176 99.2294 63.4104 98.5675C64.744 97.6817 65.6688 96.5331 66.4962 94.7517C65.9998 94.4013 65.844 94.2552 65.4644 93.7977C65.1723 94.5862 64.8998 95.1216 64.4715 95.7446C63.7025 96.8543 62.7972 97.6038 61.5804 98.1295C60.6946 98.5188 59.5362 98.8011 58.6991 98.8498L59.0592 100.193ZM70.974 96.3189C70.974 95.6764 71.4899 95.1605 72.1323 95.1605C72.7748 95.1605 73.2907 95.6764 73.2907 96.3189C73.2907 96.9614 72.7748 97.4773 72.1323 97.4773C71.4899 97.4773 70.974 96.9614 70.974 96.3189ZM82.4117 94.3136H84.0471C84.6993 94.3136 84.9426 94.3234 85.2931 94.3623V93.1455C84.9232 93.2039 84.6895 93.2137 84.0276 93.2137H79.6959C79.0339 93.2137 78.8003 93.2039 78.4304 93.1455V94.3623C78.7808 94.3234 79.0339 94.3136 79.6764 94.3136H81.1657V98.3144H78.9658C78.2844 98.3144 78.08 98.3047 77.7003 98.2463V99.4728C78.0508 99.4339 78.3039 99.4241 78.9463 99.4241H84.7869C85.4293 99.4241 85.6824 99.4339 86.0329 99.4728V98.2463C85.6532 98.3047 85.4488 98.3144 84.7674 98.3144H82.4117V94.3136ZM90.4035 95.7446C89.6248 94.9172 88.8266 94.2747 87.9213 93.7685L88.7292 92.8048C89.8876 93.5252 90.4911 93.9729 91.2407 94.6835L90.4035 95.7446ZM88.9045 100.028C88.5151 100.106 88.4859 100.115 88.262 100.193L87.9018 98.8498C88.739 98.8011 89.8974 98.5188 90.7832 98.1295C92 97.6038 92.9052 96.8543 93.6742 95.7446C94.1025 95.1216 94.3751 94.5862 94.6671 93.7977C95.0468 94.2552 95.2025 94.4013 95.699 94.7517C94.8716 96.5331 93.9468 97.6817 92.6132 98.5675C91.6203 99.2294 90.4133 99.7064 88.9045 100.028ZM108.48 96.9127C107.39 96.9127 107.283 96.9127 106.893 96.9614V95.6083C107.322 95.6667 107.507 95.6764 108.47 95.6764H113.659C114.622 95.6764 114.807 95.6667 115.236 95.6083V96.9614C114.846 96.9127 114.739 96.9127 113.649 96.9127H108.48ZM123.665 96.0463C124.327 96.0463 124.551 96.0561 124.902 96.095V94.9366C124.532 94.995 124.308 95.0048 123.646 95.0048H117.951C117.28 95.0048 117.066 94.995 116.696 94.9366V96.095C117.046 96.0561 117.27 96.0463 117.932 96.0463H120.307C120.278 96.8056 120.132 97.4383 119.879 97.8861C119.47 98.6357 118.74 99.1516 117.572 99.5117C117.99 99.9206 118.117 100.086 118.36 100.583C119.674 100.057 120.385 99.5215 120.901 98.6649C121.32 97.9737 121.534 97.1658 121.582 96.0463H123.665ZM117.679 93.6712C118 93.6322 118.234 93.6225 118.915 93.6225H122.692C123.373 93.6225 123.607 93.6322 123.928 93.6712V92.4836C123.568 92.542 123.373 92.5517 122.673 92.5517H118.935C118.234 92.5517 118.039 92.542 117.679 92.4836V93.6712ZM131.297 93.934C132.163 93.2623 132.825 92.5907 133.108 92.1137L134.227 92.8924L134.171 92.9418C134.048 93.0498 133.995 93.0965 133.867 93.2331C133.137 93.9924 132.407 94.6251 131.57 95.2384V99.3949C131.57 99.9303 131.579 100.213 131.618 100.475H130.256C130.304 100.193 130.314 99.9985 130.314 99.4241V95.9977C129.175 96.6791 128.63 96.9322 126.839 97.5746C126.634 97.0684 126.527 96.903 126.187 96.4649C128.114 95.9393 129.749 95.1313 131.297 93.934ZM136.593 93.7685C137.498 94.2747 138.296 94.9172 139.075 95.7446L139.912 94.6835C139.162 93.9729 138.559 93.5252 137.401 92.8048L136.593 93.7685ZM136.933 100.193C137.157 100.115 137.186 100.106 137.576 100.028C139.085 99.7064 140.292 99.2294 141.284 98.5675C142.618 97.6817 143.543 96.5331 144.37 94.7517C143.874 94.4013 143.718 94.2552 143.338 93.7977C143.046 94.5862 142.774 95.1216 142.346 95.7446C141.577 96.8543 140.671 97.6038 139.454 98.1295C138.569 98.5188 137.41 98.8011 136.573 98.8498L136.933 100.193ZM150.318 95.3552C150.941 94.3331 151.564 92.9216 151.69 92.2208L153.014 92.6783C152.907 92.8632 152.868 92.9411 152.674 93.3792C152.06 94.8296 151.681 95.5694 151.301 96.1339C152.119 96.8251 152.625 97.3021 153.472 98.1976L152.537 99.2002C152.031 98.5383 151.447 97.9348 150.561 97.1463C150.143 97.7012 149.636 98.2463 149.043 98.7719C148.342 99.3852 147.719 99.8232 146.726 100.378C146.463 99.9108 146.307 99.7356 145.869 99.3657C146.95 98.8303 147.621 98.3826 148.39 97.6817C148.858 97.2631 149.247 96.8446 149.627 96.3578C148.848 95.7154 147.914 95.0826 147.047 94.6057L147.904 93.7491C148.614 94.1676 149.033 94.4402 149.51 94.7809L149.51 94.7811L149.512 94.7821L149.515 94.7843C150.173 95.258 150.234 95.3021 150.298 95.3425L150.318 95.3552ZM156.061 93.7685C156.966 94.2747 157.765 94.9172 158.543 95.7446L159.38 94.6835C158.631 93.9729 158.027 93.5252 156.869 92.8048L156.061 93.7685ZM156.402 100.193C156.626 100.115 156.655 100.106 157.044 100.028C158.553 99.7064 159.76 99.2294 160.753 98.5675C162.087 97.6817 163.011 96.5331 163.839 94.7517C163.342 94.4013 163.187 94.2552 162.807 93.7977C162.515 94.5862 162.242 95.1216 161.814 95.7446C161.045 96.8543 160.14 97.6038 158.923 98.1295C158.037 98.5188 156.879 98.8011 156.042 98.8498L156.402 100.193ZM168.482 99.3755C168.482 99.8816 168.492 100.135 168.521 100.456H167.187C167.236 100.144 167.246 99.8816 167.246 99.3657V93.1261C167.246 92.6491 167.226 92.396 167.187 92.1332H168.521C168.482 92.4252 168.482 92.5517 168.482 93.1553V94.9658C169.816 95.4331 171.344 96.1437 172.901 97.0198L172.22 98.1684C171.412 97.6136 170.4 97.0587 168.774 96.3092C168.717 96.282 168.673 96.261 168.637 96.2442C168.532 96.1946 168.501 96.18 168.443 96.1437C168.472 96.4162 168.482 96.5331 168.482 96.8056V99.3755ZM179.209 95.1605C178.567 95.1605 178.051 95.6764 178.051 96.3189C178.051 96.9614 178.567 97.4773 179.209 97.4773C179.852 97.4773 180.368 96.9614 180.368 96.3189C180.368 95.6764 179.852 95.1605 179.209 95.1605ZM191.591 92.6588C192.175 92.6588 192.263 92.6491 192.535 92.5712L193.188 93.311C193.063 93.4627 193.052 93.4835 192.856 93.8759L192.798 93.9924C192.457 94.7127 191.893 95.4428 191.299 95.949C190.91 96.2897 190.588 96.5039 190.131 96.7569C189.839 96.3481 189.693 96.2021 189.255 95.8711C189.907 95.5791 190.277 95.3552 190.676 94.9756C191.075 94.6057 191.377 94.2066 191.601 93.7393H186.49C185.809 93.7393 185.566 93.7491 185.167 93.7977V92.5809C185.536 92.6394 185.838 92.6588 186.51 92.6588H191.591ZM187.96 95.1216C187.96 94.8296 187.951 94.742 187.912 94.5375H189.235C189.206 94.7214 189.206 94.7321 189.197 95.3153L189.196 95.326C189.158 96.9906 188.895 97.925 188.233 98.7719C187.649 99.5215 186.938 100.018 185.721 100.524C185.468 99.9985 185.342 99.8232 184.952 99.4144C185.741 99.1808 186.179 98.9666 186.656 98.587C187.649 97.7985 187.96 96.9614 187.96 95.1216ZM201.851 93.7783C201.608 93.8561 201.52 93.8659 201.082 93.8659L198.921 93.8756C198.945 93.6212 198.949 93.5162 198.955 93.3696L198.96 93.2623V93.2622C198.974 92.9022 198.978 92.7983 198.986 92.6947C198.989 92.6527 198.993 92.6107 198.999 92.5517C198.999 92.4836 199.009 92.4252 199.009 92.3668C199.018 92.2305 199.028 92.1916 199.048 92.065L197.743 92.0358C197.772 92.211 197.772 92.2889 197.772 92.4155V92.6588C197.772 92.9411 197.753 93.5057 197.724 93.8756L196.02 93.8853C195.533 93.8853 195.271 93.8659 194.94 93.8075L194.949 95.0048C195.271 94.9658 195.407 94.9561 196.001 94.9561L197.617 94.9464C197.613 94.9745 197.607 95.0076 197.6 95.0464L197.6 95.0468C197.591 95.1018 197.579 95.1683 197.568 95.2481C197.48 95.9295 197.334 96.4065 197.072 96.9419C196.556 97.9835 195.757 98.7525 194.541 99.3949C194.949 99.7551 195.086 99.9108 195.417 100.427C196.643 99.648 197.51 98.7622 198.045 97.7304C198.483 96.8932 198.687 96.1632 198.824 94.9464L201.092 94.9366C201.092 96.0561 200.994 97.3799 200.878 98.0516C200.722 98.8985 200.576 99.1126 200.157 99.1126C199.836 99.1126 199.447 99.0445 198.872 98.8887C199.048 99.3365 199.077 99.5215 199.096 100.135C199.602 100.213 199.933 100.242 200.303 100.242C201.471 100.242 201.812 99.8427 202.065 98.1587C202.163 97.5162 202.27 96.0171 202.299 94.9172C202.309 94.5765 202.328 94.4402 202.406 94.265L201.851 93.7783ZM215.44 93.3597C217.153 93.5252 219.149 93.9437 220.755 94.4791L221.144 93.2818C218.974 92.6978 217.757 92.4544 215.878 92.2305L215.44 93.3597ZM215.284 96.0366C216.287 96.1632 216.92 96.2702 217.747 96.4649C218.964 96.7375 219.655 96.9419 220.424 97.2437L220.804 96.0463C218.847 95.4623 217.29 95.1119 215.732 94.9172L215.284 96.0366ZM214.496 98.7719C215.557 98.9082 216.355 99.0542 217.552 99.3365C219.09 99.6967 219.986 99.979 220.998 100.427L221.417 99.2002C219.149 98.4118 217.309 97.9737 214.953 97.6622L214.496 98.7719ZM225.291 96.9127C224.201 96.9127 224.094 96.9127 223.704 96.9614V95.6083C224.133 95.6667 224.318 95.6764 225.281 95.6764H230.47C231.433 95.6764 231.618 95.6667 232.047 95.6083V96.9614C231.657 96.9127 231.55 96.9127 230.46 96.9127H225.291Z" fill="url(#paint0_linear)"/>
<defs>
<linearGradient id="paint0_linear" x1="2.35467" y1="3.08909" x2="234.029" y2="72.6731" gradientUnits="userSpaceOnUse">
<stop stop-color="#FF4D77"/>
<stop offset="1" stop-color="#72A9F9"/>
</linearGradient>
</defs>
</svg>
