<svg width="106" height="56" viewBox="0 0 106 56" fill="none" xmlns="http://www.w3.org/2000/svg">
<path d="M12.632 44.096V55.296H11.496V46.336L7.096 53.872H6.536L2.136 46.384V55.296H1V44.096H1.976L6.84 52.4L11.656 44.096H12.632Z" fill="url(#paint0_linear)"/>
<path d="M21.9773 55.392C20.8679 55.392 19.8599 55.1467 18.9532 54.656C18.0572 54.1547 17.3532 53.472 16.8412 52.608C16.3399 51.744 16.0892 50.7733 16.0892 49.696C16.0892 48.6187 16.3399 47.648 16.8412 46.784C17.3532 45.92 18.0572 45.2427 18.9532 44.752C19.8599 44.2507 20.8679 44 21.9773 44C23.0866 44 24.0839 44.2453 24.9693 44.736C25.8653 45.2267 26.5693 45.9093 27.0813 46.784C27.5933 47.648 27.8493 48.6187 27.8493 49.696C27.8493 50.7733 27.5933 51.7493 27.0813 52.624C26.5693 53.488 25.8653 54.1653 24.9693 54.656C24.0839 55.1467 23.0866 55.392 21.9773 55.392ZM21.9773 54.336C22.8626 54.336 23.6626 54.1387 24.3773 53.744C25.0919 53.3387 25.6519 52.784 26.0572 52.08C26.4626 51.3653 26.6653 50.5707 26.6653 49.696C26.6653 48.8213 26.4626 48.032 26.0572 47.328C25.6519 46.6133 25.0919 46.0587 24.3773 45.664C23.6626 45.2587 22.8626 45.056 21.9773 45.056C21.0919 45.056 20.2866 45.2587 19.5613 45.664C18.8466 46.0587 18.2812 46.6133 17.8652 47.328C17.4599 48.032 17.2572 48.8213 17.2572 49.696C17.2572 50.5707 17.4599 51.3653 17.8652 52.08C18.2812 52.784 18.8466 53.3387 19.5613 53.744C20.2866 54.1387 21.0919 54.336 21.9773 54.336Z" fill="url(#paint1_linear)"/>
<path d="M40.2714 44.096L35.3114 55.296H34.1434L29.1834 44.096H30.4634L34.7514 53.824L39.0714 44.096H40.2714Z" fill="url(#paint2_linear)"/>
<path d="M42.6969 44.096H43.8809V55.296H42.6969V44.096Z" fill="url(#paint3_linear)"/>
<path d="M56.245 54.272V55.296H48.325V44.096H56.005V45.12H49.509V49.104H55.301V50.112H49.509V54.272H56.245Z" fill="url(#paint4_linear)"/>
<path d="M62.9161 55.392C62.0841 55.392 61.2841 55.2587 60.5161 54.992C59.7588 54.7253 59.1721 54.3733 58.7561 53.936L59.2201 53.024C59.6255 53.4293 60.1641 53.76 60.8361 54.016C61.5081 54.2613 62.2015 54.384 62.9161 54.384C63.9188 54.384 64.6708 54.2027 65.1721 53.84C65.6735 53.4667 65.9241 52.9867 65.9241 52.4C65.9241 51.952 65.7855 51.5947 65.5081 51.328C65.2415 51.0613 64.9108 50.8587 64.5161 50.72C64.1215 50.5707 63.5721 50.4107 62.8681 50.24C62.0255 50.0267 61.3535 49.824 60.8521 49.632C60.3508 49.4293 59.9188 49.1253 59.5561 48.72C59.2041 48.3147 59.0281 47.7653 59.0281 47.072C59.0281 46.5067 59.1775 45.9947 59.4761 45.536C59.7748 45.0667 60.2335 44.6933 60.8521 44.416C61.4708 44.1387 62.2388 44 63.1561 44C63.7961 44 64.4201 44.0907 65.0281 44.272C65.6468 44.4427 66.1801 44.6827 66.6281 44.992L66.2281 45.936C65.7588 45.6267 65.2575 45.3973 64.7241 45.248C64.1908 45.088 63.6681 45.008 63.1561 45.008C62.1748 45.008 61.4335 45.2 60.9321 45.584C60.4415 45.9573 60.1961 46.4427 60.1961 47.04C60.1961 47.488 60.3295 47.8507 60.5961 48.128C60.8735 48.3947 61.2148 48.6027 61.6201 48.752C62.0361 48.8907 62.5908 49.0453 63.2841 49.216C64.1055 49.4187 64.7668 49.6213 65.2681 49.824C65.7801 50.016 66.2121 50.3147 66.5641 50.72C66.9161 51.1147 67.0921 51.6533 67.0921 52.336C67.0921 52.9013 66.9375 53.4187 66.6281 53.888C66.3295 54.3467 65.8655 54.7147 65.2361 54.992C64.6068 55.2587 63.8335 55.392 62.9161 55.392Z" fill="url(#paint5_linear)"/>
<path d="M9.94801 2.02052C9.75201 3.67252 9.22001 5.66052 7.90401 9.77652C6.44801 14.3685 5.32801 17.5325 3.84401 21.0605C2.66801 21.1165 1.99601 21.1445 1.43601 21.1445C1.10001 21.1445 1.10001 21.1445 0.708008 21.1445L1.21201 24.9245C1.77201 24.7845 2.19201 24.7285 3.76001 24.5885C12.132 23.7765 16.78 23.1885 19.608 22.6005C20.252 22.4605 20.252 22.4605 20.616 22.3765C21.596 24.7005 21.596 24.7005 21.96 25.8485L25.348 24.0845C23.64 19.6325 21.176 14.9285 18.572 11.1205L15.408 12.3525C16.332 13.6685 16.836 14.4805 18.068 16.8045C18.74 18.0645 19.076 18.6805 19.384 19.3525C16.976 19.8565 12.132 20.4445 7.73601 20.7805C9.52801 16.4685 11.152 11.8205 13.28 4.82052C13.672 3.47652 13.7 3.42052 14.008 2.80452L9.94801 2.02052Z" fill="url(#paint6_linear)"/>
<path d="M28.1404 15.9365C29.2604 15.7965 29.5684 15.7965 32.7044 15.7965H47.5724C50.7084 15.7965 51.0164 15.7965 52.1364 15.9365V12.0445C50.9044 12.2125 50.3724 12.2405 47.6004 12.2405H32.6764C29.9044 12.2405 29.3724 12.2125 28.1404 12.0445V15.9365Z" fill="url(#paint7_linear)"/>
<path d="M62.5244 5.66052C62.5244 4.23252 62.5524 3.72852 62.6644 3.05652H58.9123C59.0243 3.75652 59.0244 4.20452 59.0244 5.63252L59.0524 18.6245C59.0524 20.2485 59.0804 20.7245 59.1364 21.2005C59.3044 22.5725 59.7243 23.4685 60.5084 24.0565C61.6003 24.8965 63.5323 25.2605 67.0603 25.2605C68.7683 25.2605 72.2963 25.0925 73.9483 24.9245C76.9164 24.6445 77.0564 24.6165 77.6444 24.6165L77.4764 20.8925C76.2444 21.2565 75.6284 21.3965 74.2844 21.5645C72.2404 21.8445 69.6644 22.0125 67.7884 22.0125C65.0723 22.0125 63.4763 21.7885 63.0004 21.2845C62.6084 20.8925 62.4964 20.2485 62.4964 18.6245C62.4964 18.5405 62.4964 18.4005 62.5244 18.2605V14.5645C66.7523 13.7805 70.6724 12.5205 74.4804 10.7005C75.9644 9.97252 76.8044 9.58052 77.0004 9.49652L74.7604 6.33252C72.9404 8.04052 66.7523 10.5325 62.5244 11.3165V5.66052ZM73.8363 2.63652C75.0124 4.00852 75.7403 5.12852 76.6084 6.92052L78.6244 5.99652C77.7003 4.14852 76.9444 3.00052 75.8244 1.74052L73.8363 2.63652ZM82.0124 4.28852C81.2564 2.72052 80.5004 1.62852 79.2683 0.228516L77.3364 1.12452C78.4004 2.41252 79.2684 3.75652 80.0244 5.29652L82.0124 4.28852Z" fill="url(#paint8_linear)"/>
<path d="M81.8982 15.9365C83.0182 15.7965 83.3262 15.7965 86.4622 15.7965H101.33C104.466 15.7965 104.774 15.7965 105.894 15.9365V12.0445C104.662 12.2125 104.13 12.2405 101.358 12.2405H86.4342C83.6622 12.2405 83.1302 12.2125 81.8982 12.0445V15.9365Z" fill="url(#paint9_linear)"/>
<defs>
<linearGradient id="paint0_linear" x1="1.38399" y1="46.7959" x2="68.2901" y2="48.6273" gradientUnits="userSpaceOnUse">
<stop stop-color="#FF4D77"/>
<stop offset="1" stop-color="#D14DFF"/>
</linearGradient>
<linearGradient id="paint1_linear" x1="1.38399" y1="46.7959" x2="68.2901" y2="48.6273" gradientUnits="userSpaceOnUse">
<stop stop-color="#FF4D77"/>
<stop offset="1" stop-color="#D14DFF"/>
</linearGradient>
<linearGradient id="paint2_linear" x1="1.38399" y1="46.7959" x2="68.2901" y2="48.6273" gradientUnits="userSpaceOnUse">
<stop stop-color="#FF4D77"/>
<stop offset="1" stop-color="#D14DFF"/>
</linearGradient>
<linearGradient id="paint3_linear" x1="1.38399" y1="46.7959" x2="68.2901" y2="48.6273" gradientUnits="userSpaceOnUse">
<stop stop-color="#FF4D77"/>
<stop offset="1" stop-color="#D14DFF"/>
</linearGradient>
<linearGradient id="paint4_linear" x1="1.38399" y1="46.7959" x2="68.2901" y2="48.6273" gradientUnits="userSpaceOnUse">
<stop stop-color="#FF4D77"/>
<stop offset="1" stop-color="#D14DFF"/>
</linearGradient>
<linearGradient id="paint5_linear" x1="1.38399" y1="46.7959" x2="68.2901" y2="48.6273" gradientUnits="userSpaceOnUse">
<stop stop-color="#FF4D77"/>
<stop offset="1" stop-color="#D14DFF"/>
</linearGradient>
<linearGradient id="paint6_linear" x1="15.9617" y1="9.22852" x2="108.556" y2="14.0512" gradientUnits="userSpaceOnUse">
<stop stop-color="#FF4D77"/>
<stop offset="1" stop-color="#9E00D6"/>
</linearGradient>
<linearGradient id="paint7_linear" x1="15.9617" y1="9.22852" x2="108.556" y2="14.0512" gradientUnits="userSpaceOnUse">
<stop stop-color="#FF4D77"/>
<stop offset="1" stop-color="#9E00D6"/>
</linearGradient>
<linearGradient id="paint8_linear" x1="15.9617" y1="9.22852" x2="108.556" y2="14.0512" gradientUnits="userSpaceOnUse">
<stop stop-color="#FF4D77"/>
<stop offset="1" stop-color="#9E00D6"/>
</linearGradient>
<linearGradient id="paint9_linear" x1="15.9617" y1="9.22852" x2="108.556" y2="14.0512" gradientUnits="userSpaceOnUse">
<stop stop-color="#FF4D77"/>
<stop offset="1" stop-color="#9E00D6"/>
</linearGradient>
</defs>
</svg>
