<svg width="28" height="28" viewBox="0 0 28 28" fill="none" xmlns="http://www.w3.org/2000/svg">
<path d="M14.1602 27.8418C21.666 27.8418 27.873 21.6348 27.873 14.1289C27.873 6.60938 21.666 0.416016 14.1465 0.416016C6.64062 0.416016 0.447266 6.60938 0.447266 14.1289C0.447266 21.6348 6.6543 27.8418 14.1602 27.8418ZM14.1602 26.0645C7.54297 26.0645 2.22461 20.7324 2.22461 14.1289C2.22461 7.51172 7.54297 2.17969 14.1465 2.17969C20.7637 2.17969 26.0957 7.51172 26.1094 14.1289C26.1094 20.7324 20.7773 26.0645 14.1602 26.0645ZM14.2422 20.5273C16.8809 20.5273 18.7402 18.9277 18.7402 16.2617C18.7402 13.8008 16.8809 12.2969 14.6934 12.2969C12.8613 12.2969 11.7402 13.2129 11.2207 14.334H11.1387V14.1836C11.1387 11.0527 12.4648 9.11133 14.4883 9.11133C15.5273 9.11133 16.2656 9.60352 16.6758 10.2461C17.0039 10.6016 17.209 10.793 17.5781 10.793C17.9473 10.793 18.2344 10.5332 18.2344 10.1504C18.2344 9.97266 18.1934 9.83594 18.1387 9.68555C17.7832 8.74219 16.375 7.73047 14.543 7.73047C11.4668 7.73047 9.56641 10.0547 9.56641 14.4707C9.56641 16.248 9.88086 17.6016 10.4004 18.4902C11.207 19.8848 12.6426 20.5273 14.2422 20.5273ZM14.1875 19.2148C12.5195 19.2148 11.3301 18.0117 11.3301 16.3301C11.3301 14.7168 12.5195 13.5547 14.2012 13.5547C15.8965 13.5547 17.0586 14.6895 17.0586 16.3438C17.0586 18.0938 15.9375 19.2148 14.1875 19.2148Z" fill="#FF4D77"/>
</svg>
