<svg width="320" height="120" viewBox="0 0 320 120" fill="none" xmlns="http://www.w3.org/2000/svg">
<path d="M27.666 5.396L25.375 3.25C24.824 3.395 23.229 3.511 22.417 3.511C20.909 3.511 8.613 3.511 6.786 3.511C5.597 3.511 4.379 3.366 3.248 3.192V7.252C4.611 7.107 5.597 7.049 6.786 7.049C8.613 7.049 20.155 7.049 21.924 7.049C21.17 8.47 18.908 11.022 16.559 12.443L19.575 14.85C22.446 12.82 25.201 9.137 26.564 6.875C26.825 6.469 27.376 5.773 27.666 5.396ZM15.863 9.282H11.658C11.803 10.239 11.832 10.993 11.832 11.921C11.832 16.677 11.136 19.722 7.482 22.274C6.409 23.086 5.365 23.579 4.408 23.898L7.801 26.653C15.689 22.39 15.863 16.474 15.863 9.282ZM48.9799 2.757L46.5439 3.743C47.6169 5.251 48.2549 6.498 49.1249 8.325L51.6189 7.223C50.9809 5.889 49.7919 3.975 48.9799 2.757ZM52.9819 1.336L50.5169 2.38C51.5899 3.83 52.2859 4.961 53.2139 6.788L55.7079 5.686C55.0119 4.41 53.8809 2.496 52.9819 1.336ZM36.3939 2.177L34.2769 5.367C36.1909 6.44 39.2359 8.412 40.8309 9.543L43.0059 6.324C41.4979 5.28 38.3079 3.221 36.3939 2.177ZM31.0289 22.767L33.2039 26.595C35.7559 26.131 39.9319 24.681 42.8609 22.999C47.6169 20.273 51.7059 16.59 54.4029 12.588L52.1699 8.644C49.8499 12.791 45.8189 16.764 40.8889 19.519C37.7279 21.259 34.2479 22.216 31.0289 22.767ZM31.9279 8.789L29.8109 12.008C31.7829 13.023 34.7699 14.995 36.4229 16.126L38.5399 12.878C37.0609 11.834 33.8709 9.833 31.9279 8.789ZM84.5049 5.396L82.2139 3.25C81.6629 3.395 80.0679 3.511 79.2559 3.511C77.7479 3.511 65.4519 3.511 63.6249 3.511C62.4359 3.511 61.2179 3.366 60.0869 3.192V7.252C61.4499 7.107 62.4359 7.049 63.6249 7.049C65.4519 7.049 76.9939 7.049 78.7629 7.049C78.0089 8.47 75.7469 11.022 73.3979 12.443L76.4139 14.85C79.2849 12.82 82.0399 9.137 83.4029 6.875C83.6639 6.469 84.2149 5.773 84.5049 5.396ZM72.7019 9.282H68.4969C68.6419 10.239 68.6709 10.993 68.6709 11.921C68.6709 16.677 67.9749 19.722 64.3209 22.274C63.2479 23.086 62.2039 23.579 61.2469 23.898L64.6399 26.653C72.5279 22.39 72.7019 16.474 72.7019 9.282ZM100.339 10.297C98.2799 10.297 96.6269 11.95 96.6269 13.98C96.6269 16.039 98.2799 17.692 100.339 17.692C102.369 17.692 104.022 16.039 104.022 13.98C104.022 11.95 102.369 10.297 100.339 10.297ZM115.883 7.368V10.732H142.853V7.368H115.883ZM121.886 22.419V25.754H141.809V22.419H121.886ZM129.049 15.314V18.562H136.502V15.314H129.049ZM120.059 1.249V27.61H123.655V1.249H120.059ZM127.599 0.639999V19.751H131.108V0.639999H127.599ZM134.994 0.929999V19.693H138.503V0.929999H134.994ZM151.495 8.847H165.183V10.964H151.495V8.847ZM151.495 4.178H165.183V6.237H151.495V4.178ZM148.015 1.365V13.748H168.808V1.365H148.015ZM162.312 11.921L159.383 12.994C161.703 16.474 165.473 19.258 169.736 20.65C170.229 19.751 171.273 18.388 172.056 17.692C167.996 16.677 164.226 14.531 162.312 11.921ZM154.395 11.892C152.481 14.502 148.682 16.793 144.767 17.895C145.521 18.591 146.565 19.896 147.087 20.766C151.205 19.287 155.12 16.445 157.469 13.081L154.395 11.892ZM152.336 17.199V19.084C152.336 20.94 151.756 23.405 146.913 24.971C147.667 25.638 148.827 26.943 149.291 27.813C155.091 25.696 155.932 21.984 155.932 19.2V17.199H152.336ZM156.57 2.786V12.356H160.079V2.786H156.57ZM161.181 17.257V27.523H164.806V17.257H161.181ZM185.802 4.729L185.831 8.441C189.456 8.789 194.734 8.789 198.272 8.441V4.7C195.169 5.077 189.369 5.222 185.802 4.729ZM188.122 17.112L184.816 16.822C184.468 18.301 184.294 19.432 184.294 20.592C184.294 23.55 186.701 25.348 191.689 25.348C194.966 25.348 197.315 25.145 199.2 24.768L199.113 20.853C196.59 21.404 194.444 21.636 191.863 21.636C188.905 21.636 187.774 20.853 187.774 19.548C187.774 18.794 187.89 18.098 188.122 17.112ZM181.336 2.786L177.276 2.467C177.247 3.395 177.102 4.497 176.986 5.28C176.667 7.542 175.797 12.414 175.797 16.793C175.797 20.737 176.348 24.275 176.928 26.247L180.263 26.044C180.234 25.638 180.234 25.145 180.205 24.826C180.205 24.536 180.292 23.898 180.379 23.463C180.669 21.926 181.626 18.794 182.467 16.358L180.669 14.937C180.234 15.923 179.77 16.909 179.335 17.895C179.248 17.315 179.219 16.59 179.219 16.01C179.219 13.11 180.234 7.31 180.64 5.396C180.756 4.874 181.133 3.395 181.336 2.786ZM204.333 5.251V27.581H207.784V8.644H226.17V5.251H204.333ZM224.923 5.251V23.521C224.923 24.043 224.749 24.188 224.198 24.188C223.618 24.217 221.646 24.217 219.935 24.101C220.428 25.029 220.95 26.653 221.095 27.639C223.705 27.639 225.561 27.552 226.808 27.001C228.026 26.45 228.432 25.464 228.432 23.579V5.251H224.923ZM213.874 0.378999C213.468 2.264 212.598 4.787 211.786 6.556L215.15 7.31C216.078 5.715 217.325 3.337 218.34 1.017L213.874 0.378999ZM210.626 11.457V23.434H213.787V11.457H210.626ZM211.989 11.457V14.502H218.804V18.359H211.989V21.404H222.023V11.457H211.989ZM253.401 1.945H249.167C249.283 2.409 249.428 3.25 249.486 3.946C249.631 5.57 249.689 10.268 249.689 12.443C249.689 17.315 249.196 19.925 246.992 22.245C246.18 23.144 244.73 24.072 243.599 24.565L246.963 27.175C252.734 23.521 253.256 19.287 253.256 12.472C253.256 10.761 253.198 5.28 253.256 3.946C253.256 3.279 253.285 2.583 253.401 1.945ZM241.946 7.629V11.283C243.396 11.37 245.165 11.457 246.441 11.457C250.356 11.457 254.822 11.225 257.577 10.906V7.136C254.735 7.658 250.095 7.919 246.354 7.919C244.788 7.919 243.367 7.832 241.946 7.629ZM238.959 2.438L234.667 2.032C234.638 2.757 234.609 3.743 234.493 4.526C234.116 6.904 233.536 11.37 233.536 16.126C233.536 19.722 234.551 23.753 235.189 25.522L238.437 25.203C238.408 24.797 238.379 24.304 238.379 23.985C238.35 23.666 238.437 23.028 238.553 22.564C238.901 20.911 239.655 18.011 240.525 15.517L238.698 14.357C238.234 15.401 237.683 16.822 237.306 17.721C236.523 14.125 237.567 8.035 238.292 4.816C238.437 4.207 238.727 3.163 238.959 2.438ZM261.898 5.077L262.275 9.05C265.639 8.296 271.555 7.687 274.281 7.397C272.309 8.876 269.96 12.153 269.96 16.329C269.96 22.622 275.702 25.899 281.792 26.276L283.126 22.303C278.225 22.042 273.759 20.331 273.759 15.546C273.759 12.124 276.398 8.354 279.878 7.426C281.444 7.078 283.938 7.049 285.504 7.049L285.475 3.308C283.416 3.395 280.255 3.569 277.268 3.83C271.932 4.294 267.176 4.7 264.74 4.932C264.189 4.99 263.029 5.048 261.898 5.077ZM294.79 27.001L297.893 24.333C296.414 22.535 293.63 19.693 291.571 18.011L288.526 20.621C290.556 22.361 293.021 24.855 294.79 27.001Z" fill="#17080B"/>
<path d="M13.4928 73C11.2442 73 9.06501 72.6806 6.95522 72.0417C4.8732 71.4028 3.22146 70.5556 2 69.5L3.87382 65.2917C5.06752 66.2361 6.52494 67.0139 8.24608 67.625C9.99498 68.2083 11.7439 68.5 13.4928 68.5C15.6581 68.5 17.2682 68.1528 18.3231 67.4583C19.4057 66.7639 19.9471 65.8472 19.9471 64.7083C19.9471 63.875 19.6417 63.1944 19.031 62.6667C18.448 62.1111 17.6985 61.6806 16.7824 61.375C15.8663 61.0694 14.6171 60.7222 13.0347 60.3333C10.8139 59.8056 9.00949 59.2778 7.62147 58.75C6.26122 58.2222 5.0814 57.4028 4.08203 56.2917C3.11041 55.1528 2.62461 53.625 2.62461 51.7083C2.62461 50.0972 3.05489 48.6389 3.91546 47.3333C4.8038 46 6.12241 44.9444 7.87132 44.1667C9.64798 43.3889 11.8133 43 14.3672 43C16.1439 43 17.8928 43.2222 19.6139 43.6667C21.3351 44.1111 22.8203 44.75 24.0695 45.5833L22.3622 49.7917C21.0852 49.0417 19.7528 48.4722 18.3647 48.0833C16.9767 47.6944 15.6303 47.5 14.3256 47.5C12.1881 47.5 10.5918 47.8611 9.53694 48.5833C8.5098 49.3056 7.99624 50.2639 7.99624 51.4583C7.99624 52.2917 8.28772 52.9722 8.87069 53.5C9.48142 54.0278 10.2448 54.4444 11.1609 54.75C12.077 55.0556 13.3262 55.4028 14.9086 55.7917C17.0739 56.2917 18.8505 56.8194 20.2386 57.375C21.6266 57.9028 22.8064 58.7222 23.778 59.8333C24.7774 60.9444 25.2771 62.4444 25.2771 64.3333C25.2771 65.9444 24.8329 67.4028 23.9446 68.7083C23.084 70.0139 21.7654 71.0556 19.9887 71.8333C18.2121 72.6111 16.0467 73 13.4928 73Z" fill="black"/>
<path d="M44.7193 43.4167C47.2455 43.4167 49.4386 43.8333 51.2985 44.6667C53.1862 45.5 54.6297 46.6944 55.6291 48.25C56.6285 49.8056 57.1282 51.6528 57.1282 53.7917C57.1282 55.9028 56.6285 57.75 55.6291 59.3333C54.6297 60.8889 53.1862 62.0833 51.2985 62.9167C49.4386 63.75 47.2455 64.1667 44.7193 64.1667H38.1401V72.5833H32.7268V43.4167H44.7193ZM44.4694 59.5833C46.8291 59.5833 48.6196 59.0833 49.8411 58.0833C51.0625 57.0833 51.6733 55.6528 51.6733 53.7917C51.6733 51.9306 51.0625 50.5 49.8411 49.5C48.6196 48.5 46.8291 48 44.4694 48H38.1401V59.5833H44.4694Z" fill="black"/>
<path d="M86.4773 68.0417V72.5833H64.616V43.4167H85.8943V47.9583H70.0293V55.5417H84.1038V60H70.0293V68.0417H86.4773Z" fill="black"/>
<path d="M107.963 73C105.021 73 102.356 72.3611 99.9685 71.0833C97.6088 69.7778 95.7489 67.9861 94.3886 65.7083C93.0562 63.4306 92.3899 60.8611 92.3899 58C92.3899 55.1389 93.07 52.5694 94.4303 50.2917C95.7905 48.0139 97.6505 46.2361 100.01 44.9583C102.397 43.6528 105.063 43 108.005 43C110.392 43 112.572 43.4167 114.543 44.25C116.514 45.0833 118.179 46.2917 119.54 47.875L116.042 51.1667C113.932 48.8889 111.336 47.75 108.255 47.75C106.256 47.75 104.466 48.1944 102.883 49.0833C101.301 49.9444 100.066 51.1528 99.1773 52.7083C98.289 54.2639 97.8448 56.0278 97.8448 58C97.8448 59.9722 98.289 61.7361 99.1773 63.2917C100.066 64.8472 101.301 66.0694 102.883 66.9583C104.466 67.8194 106.256 68.25 108.255 68.25C111.336 68.25 113.932 67.0972 116.042 64.7917L119.54 68.125C118.179 69.7083 116.5 70.9167 114.501 71.75C112.53 72.5833 110.351 73 107.963 73Z" fill="black"/>
<path d="M126.808 43.4167H132.222V72.5833H126.808V43.4167Z" fill="black"/>
<path d="M161.093 65.8333H146.518L143.645 72.5833H138.065L151.182 43.4167H156.512L169.671 72.5833H164.007L161.093 65.8333ZM159.302 61.5833L153.805 48.8333L148.351 61.5833H159.302Z" fill="black"/>
<path d="M175.46 43.4167H180.873V68H196.113V72.5833H175.46V43.4167Z" fill="black"/>
<path d="M215 43.4167V72.5833H209.587V47.9583H203.424V43.4167H215Z" fill="black"/>
<path d="M238.094 47.742L234.266 47.423C234.179 48.902 233.802 50.671 233.222 52.237C232.004 55.427 229.771 58.559 226.059 61.981L229.162 64.301C230.148 63.025 230.96 61.981 231.83 61.111C232.932 60.067 234.759 59.11 236.354 59.11C237.572 59.11 238.732 59.719 238.732 61.575C238.761 63.141 238.703 65.606 238.587 66.969H242.067C242.038 65.142 241.951 61.981 241.951 60.415C241.951 57.718 240.124 56.297 237.717 56.297C236.731 56.297 235.194 56.5 234.411 56.848C235.223 55.688 236.064 54.035 236.673 52.614C237.485 50.526 237.862 48.815 238.094 47.742ZM227.161 50.439V53.803C228.756 53.948 230.873 54.006 232.062 54.006C235.6 54.006 241.429 53.745 245.518 53.165L245.547 49.801C241.342 50.555 236.093 50.758 232.265 50.758C230.786 50.758 228.64 50.642 227.161 50.439ZM250.129 58.675L248.708 55.282C247.606 55.833 246.591 56.297 245.46 56.79C243.72 57.602 241.893 58.298 239.225 59.69C235.745 61.43 231.598 63.808 231.598 67.839C231.598 71.58 234.991 72.711 239.515 72.711C242.27 72.711 245.808 72.45 247.751 72.189L247.867 68.448C245.315 68.97 242.067 69.289 239.602 69.289C236.789 69.289 235.397 68.854 235.397 67.259C235.397 65.664 236.818 64.417 239.457 63.054C242.183 61.662 244.793 60.618 246.678 59.893C247.664 59.516 249.23 58.936 250.129 58.675ZM258.597 63.837C256.016 63.837 253.899 65.925 253.899 68.506C253.899 71.116 256.016 73.204 258.597 73.204C261.207 73.204 263.295 71.116 263.295 68.506C263.295 65.925 261.207 63.837 258.597 63.837ZM258.597 71.116C257.176 71.116 255.987 69.956 255.987 68.506C255.987 67.085 257.176 65.925 258.597 65.925C260.047 65.925 261.207 67.085 261.207 68.506C261.207 69.956 260.047 71.116 258.597 71.116Z" fill="#17080B"/>
<path d="M7.176 99.156C7.254 98.766 7.488 98.038 7.748 97.427L9.698 92.851C9.88 92.383 10.127 91.655 10.296 90.953C10.283 91.148 10.244 91.811 10.192 92.942V97.258C10.192 98.155 10.166 98.623 10.088 99.156H11.908C11.83 98.675 11.804 98.207 11.804 97.258V90.732C11.804 89.861 11.83 89.432 11.908 88.808H9.516C9.425 89.302 9.308 89.718 9.048 90.355L6.422 96.803L3.783 90.355C3.562 89.809 3.393 89.263 3.302 88.808H0.923C1.001 89.341 1.027 89.887 1.027 90.732V97.258C1.027 98.129 1.001 98.636 0.923 99.156H2.743C2.665 98.649 2.639 98.155 2.639 97.258V92.994C2.639 92.708 2.587 91.642 2.535 90.953C2.834 92.006 2.951 92.357 3.198 92.942L5.07 97.401C5.369 98.129 5.577 98.74 5.642 99.156H7.176ZM18.581 99.156H20.336C20.258 98.571 20.232 98.22 20.232 97.531V94.034C20.232 93.15 20.063 92.656 19.621 92.24C19.062 91.694 18.308 91.473 17.06 91.473C15.942 91.473 15.214 91.668 14.577 92.136C14.083 92.487 13.849 92.825 13.55 93.579L15.214 93.878C15.37 93.41 15.487 93.228 15.734 93.046C16.033 92.812 16.566 92.669 17.086 92.669C18.074 92.669 18.581 93.059 18.581 93.813V94.476C16.722 94.515 15.76 94.645 14.915 94.996C14.018 95.373 13.446 96.192 13.446 97.102C13.446 98.467 14.408 99.286 15.994 99.286C16.41 99.286 16.826 99.234 17.203 99.13C17.736 98.987 18.061 98.805 18.581 98.311V99.156ZM18.581 96.257C18.581 96.712 18.425 97.089 18.113 97.401C17.671 97.83 16.995 98.09 16.306 98.09C15.578 98.09 15.123 97.713 15.123 97.102C15.123 96.088 16.098 95.659 18.581 95.607V96.257ZM24.3632 98.636L23.9212 99.637C23.7392 100.04 23.3622 100.287 22.9072 100.287C22.6082 100.287 22.3612 100.222 21.9972 100.066L21.6982 101.548C22.2962 101.665 22.6732 101.704 23.0632 101.704C24.2722 101.704 25.0392 101.249 25.4552 100.261L28.4192 93.306C28.8092 92.396 29.0432 91.863 29.1212 91.694H27.1842C27.1062 92.11 27.0022 92.435 26.6902 93.228L25.2472 96.907L23.6612 93.215C23.4272 92.682 23.2322 92.071 23.1672 91.694H21.1912C21.3472 91.98 21.3602 92.019 21.9322 93.306L24.3632 98.636ZM35.2434 89.692C35.2954 90.16 35.3344 90.732 35.3344 91.291V91.694H34.8534C34.3074 91.694 34.0604 91.681 33.6834 91.616V93.15C34.1124 93.085 34.3594 93.072 34.8404 93.072H35.3344V97.44C35.3344 98.805 35.9324 99.338 37.4274 99.338C38.1034 99.338 38.4934 99.273 39.0524 99.065L38.8184 97.687C38.4154 97.908 38.2074 97.973 37.8694 97.973C37.2454 97.973 37.0114 97.739 37.0114 97.102V93.072H37.5964C38.1944 93.072 38.4414 93.085 38.8704 93.15V91.616C38.4544 91.681 38.1684 91.694 37.5574 91.694H37.0114V91.291C37.0114 90.706 37.0504 90.147 37.1024 89.692H35.2434ZM40.0221 88.808C40.0871 89.328 40.1131 89.731 40.1131 90.511V97.466C40.1131 98.207 40.0871 98.597 40.0091 99.156H41.8811C41.8031 98.597 41.7771 98.103 41.7771 97.466V94.84C42.3621 93.54 43.1161 92.916 44.0911 92.916C44.4421 92.916 44.7541 93.046 44.9881 93.293C45.2351 93.553 45.3651 93.982 45.3651 94.58V97.466C45.3651 98.129 45.3391 98.571 45.2741 99.156H47.1591C47.0811 98.675 47.0551 98.181 47.0551 97.466V94.19C47.0551 92.513 46.1061 91.564 44.4421 91.564C43.2591 91.564 42.5571 91.928 41.7511 92.942C41.7771 92.617 41.7771 92.552 41.7771 92.383V90.524C41.7771 89.783 41.8031 89.302 41.8681 88.808H40.0221ZM55.7502 95.854C55.7242 95.555 55.7242 95.516 55.7242 95.49C55.6852 94.606 55.5942 94.138 55.3472 93.514C54.8272 92.214 53.6312 91.46 52.1102 91.46C49.8872 91.46 48.4442 93.033 48.4442 95.438C48.4442 97.869 49.9002 99.403 52.2012 99.403C53.2932 99.403 54.2032 99.065 54.8792 98.402C55.2042 98.077 55.3732 97.83 55.6722 97.206L54.1382 96.712C54.0082 97.063 53.9172 97.206 53.7612 97.388C53.3842 97.804 52.8382 98.038 52.2012 98.038C51.5382 98.038 50.9532 97.778 50.5762 97.31C50.2772 96.933 50.1602 96.569 50.0952 95.854H55.7502ZM50.1342 94.567C50.3292 93.475 51.0702 92.799 52.0842 92.799C52.6952 92.799 53.1372 92.968 53.4882 93.319C53.8132 93.644 53.9692 93.995 54.0602 94.567H50.1342ZM61.5836 97.479C61.5836 98.259 61.5576 98.662 61.4796 99.195C62.0126 99.169 62.3376 99.156 63.1306 99.156H65.4966C67.0306 99.156 68.0706 98.805 68.9026 98.025C69.9166 97.063 70.4366 95.659 70.4366 93.891C70.4366 92.201 69.9426 90.849 68.9936 89.952C68.1616 89.146 67.1086 88.808 65.4836 88.808H63.1306C62.3116 88.808 61.9996 88.795 61.4796 88.769C61.5576 89.341 61.5836 89.731 61.5836 90.459V97.479ZM63.3126 97.622V90.342H65.3926C66.5236 90.342 67.1996 90.563 67.7326 91.122C68.3306 91.746 68.6296 92.669 68.6296 93.904C68.6296 95.126 68.3046 96.127 67.6806 96.79C67.1346 97.375 66.4456 97.622 65.3796 97.622H63.3126ZM77.2833 91.694C76.6983 91.59 76.3863 91.551 76.0743 91.551C74.9043 91.551 74.0983 91.993 73.6303 92.916V91.694H71.8623C71.9403 92.227 71.9533 92.591 71.9533 93.384V97.466C71.9533 98.142 71.9273 98.519 71.8623 99.156H73.7213C73.6563 98.545 73.6303 98.168 73.6303 97.466V95.061C73.7083 94.437 73.8383 94.138 74.1633 93.761C74.5273 93.332 75.0213 93.124 75.6713 93.124C76.0093 93.124 76.2823 93.176 76.8283 93.332L77.2833 91.694ZM85.2287 95.854C85.2027 95.555 85.2027 95.516 85.2027 95.49C85.1637 94.606 85.0727 94.138 84.8257 93.514C84.3057 92.214 83.1097 91.46 81.5887 91.46C79.3657 91.46 77.9227 93.033 77.9227 95.438C77.9227 97.869 79.3787 99.403 81.6797 99.403C82.7717 99.403 83.6817 99.065 84.3577 98.402C84.6827 98.077 84.8517 97.83 85.1507 97.206L83.6167 96.712C83.4867 97.063 83.3957 97.206 83.2397 97.388C82.8627 97.804 82.3167 98.038 81.6797 98.038C81.0167 98.038 80.4317 97.778 80.0547 97.31C79.7557 96.933 79.6387 96.569 79.5737 95.854H85.2287ZM79.6127 94.567C79.8077 93.475 80.5487 92.799 81.5627 92.799C82.1737 92.799 82.6157 92.968 82.9667 93.319C83.2917 93.644 83.4477 93.995 83.5387 94.567H79.6127ZM91.4521 99.156H93.2071C93.1291 98.571 93.1031 98.22 93.1031 97.531V94.034C93.1031 93.15 92.9341 92.656 92.4921 92.24C91.9331 91.694 91.1791 91.473 89.9311 91.473C88.8131 91.473 88.0851 91.668 87.4481 92.136C86.9541 92.487 86.7201 92.825 86.4211 93.579L88.0851 93.878C88.2411 93.41 88.3581 93.228 88.6051 93.046C88.9041 92.812 89.4371 92.669 89.9571 92.669C90.9451 92.669 91.4521 93.059 91.4521 93.813V94.476C89.5931 94.515 88.6311 94.645 87.7861 94.996C86.8891 95.373 86.3171 96.192 86.3171 97.102C86.3171 98.467 87.2791 99.286 88.8651 99.286C89.2811 99.286 89.6971 99.234 90.0741 99.13C90.6071 98.987 90.9321 98.805 91.4521 98.311V99.156ZM91.4521 96.257C91.4521 96.712 91.2961 97.089 90.9841 97.401C90.5421 97.83 89.8661 98.09 89.1771 98.09C88.4491 98.09 87.9941 97.713 87.9941 97.102C87.9941 96.088 88.9691 95.659 91.4521 95.607V96.257ZM96.5843 99.156C96.5193 98.558 96.4933 98.168 96.4933 97.466V94.892C96.6363 94.268 96.7663 93.969 97.0523 93.592C97.4033 93.137 97.8453 92.916 98.3913 92.916C99.2363 92.916 99.6523 93.462 99.6523 94.554V97.466C99.6523 98.207 99.6263 98.61 99.5483 99.156H101.42C101.355 98.623 101.329 98.181 101.329 97.466V94.892C101.485 94.086 101.693 93.67 102.148 93.28C102.46 93.007 102.785 92.89 103.214 92.89C104.085 92.89 104.488 93.41 104.488 94.554V97.466C104.488 98.233 104.462 98.623 104.384 99.156H106.282C106.204 98.623 106.178 98.194 106.178 97.466V94.255C106.178 93.332 105.996 92.747 105.567 92.279C105.125 91.798 104.449 91.538 103.617 91.538C103.032 91.538 102.59 91.642 102.161 91.876C101.758 92.084 101.511 92.318 101.069 92.903C100.913 92.5 100.809 92.331 100.575 92.123C100.172 91.733 99.6003 91.538 98.8983 91.538C97.8193 91.538 96.8573 92.045 96.4803 92.838C96.4933 92.63 96.4933 92.435 96.4933 92.357V91.694H94.7513C94.8163 92.188 94.8423 92.565 94.8423 93.384V97.466C94.8423 98.168 94.8163 98.597 94.7513 99.156H96.5843ZM113.936 99.156V98.519C113.936 98.363 113.936 98.22 113.923 98.051C114.573 98.961 115.314 99.338 116.51 99.338C117.563 99.338 118.395 99.026 119.006 98.402C119.708 97.674 120.072 96.634 120.072 95.36C120.072 92.942 118.785 91.525 116.601 91.525C115.405 91.525 114.599 91.928 113.923 92.838C113.936 92.396 113.949 92.071 113.949 91.863V90.563C113.949 89.783 113.975 89.354 114.04 88.808H112.207C112.272 89.432 112.298 89.887 112.298 90.55V97.401C112.298 98.168 112.272 98.584 112.207 99.156H113.936ZM118.382 95.36C118.382 96.933 117.537 97.947 116.224 97.947C115.743 97.947 115.236 97.765 114.859 97.466C114.339 97.05 114.001 96.231 114.001 95.412C114.001 94.736 114.248 94.034 114.638 93.605C115.067 93.137 115.678 92.89 116.406 92.89C117.602 92.89 118.382 93.865 118.382 95.36ZM128.38 95.854C128.354 95.555 128.354 95.516 128.354 95.49C128.315 94.606 128.224 94.138 127.977 93.514C127.457 92.214 126.261 91.46 124.74 91.46C122.517 91.46 121.074 93.033 121.074 95.438C121.074 97.869 122.53 99.403 124.831 99.403C125.923 99.403 126.833 99.065 127.509 98.402C127.834 98.077 128.003 97.83 128.302 97.206L126.768 96.712C126.638 97.063 126.547 97.206 126.391 97.388C126.014 97.804 125.468 98.038 124.831 98.038C124.168 98.038 123.583 97.778 123.206 97.31C122.907 96.933 122.79 96.569 122.725 95.854H128.38ZM122.764 94.567C122.959 93.475 123.7 92.799 124.714 92.799C125.325 92.799 125.767 92.968 126.118 93.319C126.443 93.644 126.599 93.995 126.69 94.567H122.764ZM141.806 99.156C141.871 98.792 141.936 98.545 142.131 97.921L143.574 93.306C143.912 92.227 143.938 92.123 144.107 91.694H142.196C142.17 92.11 142.066 92.682 141.91 93.241L141.182 95.841C141.156 95.932 141.065 96.348 141.026 96.53C140.987 96.712 140.987 96.712 140.961 96.816C140.935 96.699 140.922 96.686 140.883 96.517C140.805 96.244 140.74 95.997 140.701 95.88L139.739 92.929C139.622 92.552 139.453 91.941 139.414 91.694H138.023C137.984 91.954 137.828 92.552 137.698 92.929L136.762 95.763C136.71 95.919 136.489 96.686 136.463 96.816C136.359 96.309 136.281 95.945 136.229 95.776L135.514 93.241C135.371 92.734 135.254 92.071 135.228 91.694H133.304C133.486 92.175 133.668 92.708 133.85 93.306L135.28 97.921C135.488 98.584 135.54 98.779 135.618 99.156H137.126C137.178 98.883 137.321 98.363 137.464 97.921L138.465 94.879C138.504 94.749 138.66 94.216 138.725 93.982C138.868 94.515 138.946 94.801 138.972 94.853L139.973 97.921C140.129 98.428 140.246 98.844 140.298 99.156H141.806ZM145.037 88.808V90.459H146.948V88.808H145.037ZM145.037 91.694C145.115 92.227 145.141 92.669 145.141 93.384V97.466C145.141 98.116 145.115 98.571 145.037 99.156H146.935C146.87 98.61 146.844 98.168 146.844 97.453V93.397C146.844 92.604 146.87 92.175 146.935 91.694H145.037ZM149.438 89.692C149.49 90.16 149.529 90.732 149.529 91.291V91.694H149.048C148.502 91.694 148.255 91.681 147.878 91.616V93.15C148.307 93.085 148.554 93.072 149.035 93.072H149.529V97.44C149.529 98.805 150.127 99.338 151.622 99.338C152.298 99.338 152.688 99.273 153.247 99.065L153.013 97.687C152.61 97.908 152.402 97.973 152.064 97.973C151.44 97.973 151.206 97.739 151.206 97.102V93.072H151.791C152.389 93.072 152.636 93.085 153.065 93.15V91.616C152.649 91.681 152.363 91.694 151.752 91.694H151.206V91.291C151.206 90.706 151.245 90.147 151.297 89.692H149.438ZM154.216 88.808C154.281 89.328 154.307 89.731 154.307 90.511V97.466C154.307 98.207 154.281 98.597 154.203 99.156H156.075C155.997 98.597 155.971 98.103 155.971 97.466V94.84C156.556 93.54 157.31 92.916 158.285 92.916C158.636 92.916 158.948 93.046 159.182 93.293C159.429 93.553 159.559 93.982 159.559 94.58V97.466C159.559 98.129 159.533 98.571 159.468 99.156H161.353C161.275 98.675 161.249 98.181 161.249 97.466V94.19C161.249 92.513 160.3 91.564 158.636 91.564C157.453 91.564 156.751 91.928 155.945 92.942C155.971 92.617 155.971 92.552 155.971 92.383V90.524C155.971 89.783 155.997 89.302 156.062 88.808H154.216ZM169.763 98.636L169.321 99.637C169.139 100.04 168.762 100.287 168.307 100.287C168.008 100.287 167.761 100.222 167.397 100.066L167.098 101.548C167.696 101.665 168.073 101.704 168.463 101.704C169.672 101.704 170.439 101.249 170.855 100.261L173.819 93.306C174.209 92.396 174.443 91.863 174.521 91.694H172.584C172.506 92.11 172.402 92.435 172.09 93.228L170.647 96.907L169.061 93.215C168.827 92.682 168.632 92.071 168.567 91.694H166.591C166.747 91.98 166.76 92.019 167.332 93.306L169.763 98.636ZM179.018 99.403C181.332 99.403 182.853 97.817 182.853 95.412C182.853 93.007 181.358 91.473 179.005 91.473C176.639 91.473 175.131 93.02 175.131 95.438C175.131 97.869 176.639 99.403 179.018 99.403ZM179.005 92.825C180.383 92.825 181.176 93.787 181.176 95.464C181.176 97.05 180.344 98.025 178.992 98.025C177.64 98.025 176.808 97.037 176.808 95.438C176.808 93.813 177.64 92.825 179.005 92.825ZM189.404 91.694C189.469 92.253 189.508 92.747 189.508 93.384V96.01C188.923 97.297 188.182 97.934 187.246 97.934C186.999 97.934 186.726 97.856 186.531 97.752C186.128 97.505 185.933 97.024 185.933 96.27V93.384C185.933 92.721 185.946 92.279 186.024 91.694H184.139C184.204 92.175 184.243 92.669 184.243 93.384V96.673C184.243 97.739 184.581 98.467 185.296 98.922C185.725 99.182 186.193 99.299 186.856 99.299C188.091 99.299 188.806 98.922 189.521 97.908C189.508 98.233 189.508 98.272 189.508 98.467V99.156H191.276C191.198 98.623 191.172 98.181 191.172 97.466V93.384C191.172 92.656 191.185 92.253 191.276 91.694H189.404ZM5.096 109.888C5.447 109.888 5.798 109.901 6.136 109.94V108.562C5.785 108.601 5.512 108.614 5.07 108.614H4.29V108.146C4.29 107.6 4.29 107.431 4.355 107.106H2.886C2.938 107.392 2.964 107.678 2.964 108.107V108.614H1.937C1.352 108.614 1.04 108.601 0.741 108.562V109.94C1.04 109.901 1.391 109.888 1.911 109.888H2.574C2.327 110.434 2.067 110.85 1.716 111.292C1.196 111.942 0.897 112.228 0.338 112.631C0.676 113.047 0.897 113.398 1.118 113.84C2.002 112.982 2.509 112.293 3.016 111.318C2.99 111.76 2.99 111.76 2.99 111.903C2.977 112.176 2.977 112.176 2.964 112.683V113.372C2.964 113.892 2.938 114.217 2.886 114.503H4.342C4.303 114.178 4.29 113.931 4.29 113.372V112.657C4.29 112.319 4.264 111.786 4.225 111.253C4.693 111.955 5.044 112.332 5.759 112.917C5.941 112.423 6.123 112.085 6.422 111.669C5.551 111.201 5.083 110.772 4.524 109.888H5.096ZM5.564 114.841C6.305 115.595 6.552 115.894 7.163 116.843L8.255 116.011C7.657 115.244 7.241 114.776 6.799 114.373C7.124 114.36 7.345 114.36 7.657 114.36H10.621C11.414 114.386 11.817 114.399 11.817 114.399C11.778 114.022 11.765 113.632 11.765 113.138V108.692C11.765 108.185 11.778 107.808 11.817 107.483C11.44 107.522 11.076 107.535 10.569 107.535H7.735C7.228 107.535 6.864 107.522 6.487 107.483C6.513 107.795 6.539 108.185 6.539 108.692V113.125C6.539 113.541 6.526 113.879 6.5 114.23L5.564 114.841ZM7.865 108.718H10.426V109.459H7.865V108.718ZM7.865 110.564H10.426V111.318H7.865V110.564ZM7.865 112.423H10.426V113.19H7.865V112.423ZM1.729 118.611C2.561 117.246 2.691 116.934 3.133 115.348L1.898 114.802C1.56 116.193 1.313 116.726 0.533 117.753L1.729 118.611ZM5.187 116.05C5.187 115.387 5.2 115.114 5.252 114.815H3.705C3.757 115.231 3.783 115.465 3.783 116.05V117.571C3.783 118.234 3.939 118.507 4.446 118.676C4.888 118.819 5.343 118.858 6.5 118.858C9.62 118.858 9.75 118.767 9.945 116.453C9.334 116.375 9.061 116.297 8.554 116.076C8.541 116.804 8.476 117.194 8.333 117.337C8.151 117.519 7.761 117.558 6.383 117.558C5.902 117.558 5.642 117.532 5.447 117.48C5.239 117.428 5.187 117.337 5.187 117.09V116.05ZM12.558 117.688C11.921 116.479 11.518 115.855 10.673 114.737L9.451 115.335C10.218 116.349 10.647 117.09 11.271 118.481L12.558 117.688ZM17.251 111.682C17.251 112.098 17.238 112.358 17.212 112.644C17.537 112.618 17.875 112.605 18.252 112.605H19.461C18.525 113.151 17.563 113.489 16.25 113.749C16.627 114.295 16.653 114.347 16.835 114.737C17.849 114.464 18.681 114.126 19.474 113.71C19.643 113.879 19.721 113.957 19.903 114.178C18.642 114.893 17.719 115.257 16.224 115.634C16.445 115.92 16.64 116.245 16.809 116.648C18.603 115.972 19.201 115.699 20.436 114.958C20.579 115.205 20.618 115.296 20.722 115.517C19.422 116.427 17.992 117.09 16.224 117.623C16.497 118.013 16.692 118.377 16.796 118.728C17.94 118.286 18.096 118.221 18.863 117.818C19.084 118.312 19.175 118.585 19.253 119.053C19.695 119.066 19.968 119.066 20.124 119.066C20.904 119.066 21.385 118.988 21.684 118.806C22.074 118.546 22.282 117.987 22.282 117.103C22.282 115.699 21.619 114.269 20.436 113.112C20.657 112.969 20.696 112.93 21.125 112.605H21.632C21.84 113.749 22.1 114.555 22.581 115.491C23.192 116.687 23.829 117.441 25.155 118.546C25.376 118.052 25.545 117.714 25.857 117.207C25.298 116.869 25.064 116.7 24.778 116.427C24.336 116.011 24.024 115.634 23.712 115.114C24.115 114.893 24.804 114.386 25.441 113.84L25.61 113.697L24.544 112.774C24.089 113.294 23.803 113.541 23.153 113.97C22.971 113.476 22.919 113.268 22.789 112.605H24.024C24.544 112.605 24.752 112.618 25.051 112.644C25.025 112.358 25.012 112.163 25.012 111.591V110.642C25.012 110.174 25.025 109.914 25.051 109.615C24.765 109.641 24.505 109.654 24.024 109.654H22.503C22.594 109.55 22.62 109.524 22.711 109.42C22.828 109.277 22.932 109.16 22.997 109.082C23.14 108.926 23.218 108.822 23.257 108.783C23.582 108.354 23.582 108.354 23.673 108.263L23.075 107.717C22.763 107.743 22.451 107.756 21.983 107.756H20.306C20.501 107.47 20.501 107.47 20.67 107.197L19.149 106.963C18.733 107.86 18.304 108.419 17.446 109.199C17.004 109.602 16.783 109.758 16.029 110.265C16.432 109.368 16.432 109.368 17.199 107.288L15.691 106.95C15.626 107.405 15.496 107.886 15.223 108.614C14.716 109.953 14.04 111.123 13.234 112.059C13.481 112.566 13.598 112.891 13.806 113.619C14.157 113.177 14.456 112.722 14.716 112.293C14.677 113.255 14.677 113.502 14.677 113.957V117.506C14.677 118.182 14.664 118.52 14.599 119.066H16.094C16.042 118.572 16.029 118.169 16.029 117.493V110.356C16.354 110.668 16.562 110.954 16.757 111.318C17.004 111.136 17.056 111.097 17.251 110.954V111.682ZM18.798 109.654C19.084 109.368 19.266 109.173 19.539 108.835H21.606C21.411 109.121 21.255 109.303 20.943 109.654H18.798ZM20.969 116.557C20.982 116.713 20.982 116.791 20.982 116.856C20.982 117.727 20.852 117.896 20.111 117.896C19.734 117.896 19.422 117.87 18.915 117.792C19.955 117.246 20.384 116.986 20.969 116.557ZM18.551 110.629H20.345V111.656H18.551V110.629ZM21.632 110.629H23.66V111.656H21.632V110.629ZM32.63 109.654C32.708 107.405 32.708 107.405 32.773 107.067H31.044C31.096 107.327 31.122 107.704 31.122 108.328C31.122 109.004 31.122 109.134 31.096 109.654H28.782C28.041 109.654 27.599 109.628 27.131 109.563V111.123C27.573 111.071 28.08 111.045 28.743 111.045H31.005C30.836 112.462 30.589 113.463 30.186 114.256C29.484 115.673 28.301 116.713 26.52 117.493C26.975 117.883 27.313 118.299 27.599 118.845C29.406 117.831 30.589 116.739 31.343 115.374C31.954 114.282 32.305 112.969 32.526 111.045H36.049C36.036 113.125 35.919 115.14 35.75 116.115C35.607 116.986 35.412 117.22 34.801 117.22C34.151 117.22 33.397 117.129 32.565 116.96C32.76 117.493 32.851 117.87 32.929 118.533C33.748 118.637 34.32 118.676 34.918 118.676C35.646 118.676 36.127 118.572 36.465 118.325C36.868 118.039 37.05 117.584 37.219 116.388C37.349 115.53 37.479 113.333 37.518 111.552C37.544 110.096 37.544 110.096 37.596 109.589C37.154 109.641 36.699 109.654 35.919 109.654H32.63ZM42.874 107.587C42.939 107.782 42.952 107.808 43.082 108.432C43.407 110.031 43.628 110.902 43.953 111.955C43.108 112.384 42.692 112.644 42.185 113.073C41.444 113.697 41.028 114.529 41.028 115.4C41.028 116.336 41.444 117.142 42.159 117.571C42.991 118.065 44.122 118.286 45.929 118.286C46.839 118.286 47.567 118.234 48.971 118.091C49.673 118.013 49.738 118 50.024 118L49.881 116.219C48.906 116.557 47.307 116.752 45.682 116.752C43.589 116.752 42.705 116.349 42.705 115.4C42.705 114.464 43.654 113.632 45.552 112.93C47.008 112.397 48.711 111.903 49.842 111.682L49.283 110.044C49.088 110.135 49.023 110.161 48.789 110.239C46.267 111.071 46.267 111.071 45.422 111.383C45.006 110.057 44.616 108.185 44.564 107.314L42.874 107.587ZM60.996 112.332V117.233C60.996 117.519 60.931 117.545 60.411 117.545C60.008 117.545 59.332 117.493 58.643 117.402C58.864 117.948 58.942 118.286 59.02 118.858C59.631 118.884 60.021 118.897 60.463 118.897C62.036 118.897 62.413 118.624 62.413 117.506V112.332H62.972C63.544 112.332 64.09 112.358 64.519 112.41V110.954C64.181 111.006 63.661 111.032 62.933 111.032H58.513C57.889 111.032 57.304 111.006 56.914 110.954V112.41C57.317 112.358 57.915 112.332 58.513 112.332H60.996ZM55.51 106.989C55.341 107.314 55.172 107.561 54.886 107.899C54.249 108.601 53.586 109.121 52.559 109.68C52.897 110.083 53.118 110.395 53.378 110.902C54.6 110.122 55.523 109.316 56.368 108.302C56.615 108.016 56.615 108.016 56.758 107.86L55.51 106.989ZM57.434 109.095C57.863 109.043 58.409 109.017 58.955 109.017H62.491C63.011 109.017 63.492 109.043 63.947 109.095V107.652C63.557 107.704 63.115 107.73 62.465 107.73H58.955C58.279 107.73 57.798 107.704 57.434 107.652V109.095ZM54.34 117.402C54.34 118.078 54.314 118.65 54.249 119.053H55.861C55.796 118.624 55.77 118.104 55.77 117.415V112.293C56.108 111.877 56.225 111.708 56.524 111.279C56.706 111.006 56.823 110.85 56.953 110.707L55.731 109.901C55.237 111.019 53.898 112.449 52.533 113.333C52.819 113.801 52.988 114.139 53.183 114.724C53.638 114.399 54.028 114.022 54.366 113.619C54.34 114.503 54.34 114.581 54.34 115.127V117.402ZM68.406 109.238H66.82C66.287 109.238 65.962 109.225 65.611 109.173V110.369C65.975 110.317 66.274 110.304 66.82 110.304H68.406V110.863H67.288C66.716 110.863 66.378 110.85 66.014 110.824C66.04 111.149 66.053 111.396 66.053 112.007V113.684C66.053 114.321 66.04 114.594 66.014 114.919C66.378 114.893 66.69 114.88 67.275 114.88H68.406V115.452H67.08C66.495 115.452 66.222 115.439 65.858 115.387V116.609C66.209 116.57 66.651 116.557 67.067 116.557H68.406V117.272C67.028 117.35 66.781 117.363 66.196 117.363C65.91 117.363 65.793 117.363 65.52 117.337L65.754 118.728C66.066 118.676 66.261 118.65 66.508 118.624C68.887 118.442 69.836 118.338 71.617 118.078C72.059 118.39 72.371 118.702 72.644 119.105C73.164 118.403 73.372 118.065 73.684 117.402C73.892 117.961 73.957 118.234 73.983 118.806C74.178 118.819 74.815 118.845 75.023 118.845C75.998 118.845 76.414 118.65 76.648 118.078C76.973 117.324 77.142 115.491 77.207 112.137C77.246 110.265 77.246 110.161 77.298 109.693C76.947 109.732 76.635 109.745 76.076 109.745H74.945C74.984 107.496 74.984 107.496 75.049 107.145H73.554C73.619 107.509 73.632 107.717 73.632 108.796C73.632 109.199 73.632 109.42 73.619 109.745H73.424C72.982 109.745 72.761 109.732 72.501 109.693V111.097C72.839 111.058 73.047 111.045 73.58 111.045C73.515 112.722 73.437 113.528 73.242 114.477C72.995 115.582 72.566 116.635 72.007 117.467V116.908C70.785 117.077 70.343 117.129 69.667 117.194V116.557H71.123C71.617 116.557 71.799 116.57 72.033 116.622V115.4C71.734 115.439 71.461 115.452 70.811 115.452H69.667V114.88H70.876C71.487 114.88 71.747 114.88 72.046 114.906C72.033 114.737 72.02 114.347 72.007 113.723V111.968C72.007 111.305 72.02 111.097 72.046 110.824C71.773 110.85 71.539 110.863 70.954 110.863H69.667V110.304H71.292C71.864 110.304 72.033 110.317 72.228 110.356V109.173C71.929 109.225 71.63 109.238 71.019 109.238H69.667V108.51C70.317 108.419 70.967 108.315 71.448 108.224C71.617 108.185 72.046 108.12 72.163 108.107L71.383 107.041C70.499 107.457 68.263 107.73 65.715 107.743C65.962 108.185 66.066 108.419 66.17 108.783C67.145 108.731 67.509 108.705 68.406 108.627V109.238ZM68.406 111.838V112.384H67.275V111.838H68.406ZM69.667 111.838H70.798V112.384H69.667V111.838ZM68.406 113.333V113.905H67.275V113.333H68.406ZM69.667 113.333H70.798V113.905H69.667V113.333ZM75.907 111.045C75.894 111.474 75.894 111.552 75.881 111.955C75.868 113.008 75.868 113.008 75.855 113.463C75.803 114.906 75.764 115.465 75.673 116.154C75.517 117.363 75.426 117.519 74.841 117.519C74.555 117.519 74.36 117.493 73.697 117.389C74.49 115.647 74.789 114.139 74.919 111.045H75.907ZM84.63 109.654C84.708 107.405 84.708 107.405 84.773 107.067H83.044C83.096 107.327 83.122 107.704 83.122 108.328C83.122 109.004 83.122 109.134 83.096 109.654H80.782C80.041 109.654 79.599 109.628 79.131 109.563V111.123C79.573 111.071 80.08 111.045 80.743 111.045H83.005C82.836 112.462 82.589 113.463 82.186 114.256C81.484 115.673 80.301 116.713 78.52 117.493C78.975 117.883 79.313 118.299 79.599 118.845C81.406 117.831 82.589 116.739 83.343 115.374C83.954 114.282 84.305 112.969 84.526 111.045H88.049C88.036 113.125 87.919 115.14 87.75 116.115C87.607 116.986 87.412 117.22 86.801 117.22C86.151 117.22 85.397 117.129 84.565 116.96C84.76 117.493 84.851 117.87 84.929 118.533C85.748 118.637 86.32 118.676 86.918 118.676C87.646 118.676 88.127 118.572 88.465 118.325C88.868 118.039 89.05 117.584 89.219 116.388C89.349 115.53 89.479 113.333 89.518 111.552C89.544 110.096 89.544 110.096 89.596 109.589C89.154 109.641 88.699 109.654 87.919 109.654H84.63ZM97.2401 113.788V115.322H106.431V113.788H97.2401ZM97.2401 110.798V112.332H106.431V110.798H97.2401ZM121.16 115.66C120.575 116.154 120.12 116.427 119.366 116.778C118.833 116.401 118.417 116.167 117.689 115.829L116.714 116.505C117.273 116.752 117.65 116.973 118.053 117.259C116.818 117.623 115.791 117.766 113.945 117.844C114.361 118.312 114.543 118.624 114.725 119.17C115.96 119.014 116.337 118.962 116.883 118.845C118.17 118.572 119.223 118.234 120.146 117.779C121.186 117.272 121.992 116.687 122.954 115.764C123.097 115.621 123.136 115.595 123.253 115.504L122.421 114.568C122.148 114.607 121.888 114.62 121.394 114.62H118.508C118.716 114.399 118.807 114.282 119.028 114.009H123.513V115.244H124.891C124.852 114.984 124.839 114.763 124.839 114.295V113.723C124.839 113.255 124.852 113.112 124.891 112.839C124.436 112.878 124.176 112.891 123.461 112.891H114.933C114.231 112.891 113.971 112.878 113.529 112.839C113.568 113.125 113.581 113.268 113.581 113.723V114.295C113.581 114.737 113.568 114.971 113.529 115.244H114.907V114.009H117.338C117 114.386 116.571 114.724 116.051 115.036C115.362 115.452 114.79 115.686 113.659 115.985C114.192 116.375 114.439 116.622 114.712 117.051C115.752 116.648 116.454 116.271 117.325 115.66H121.16ZM121.797 109.68V109.108H123.578C124.228 109.108 124.618 109.134 125.034 109.186V107.86C124.592 107.912 124.176 107.938 123.578 107.938H121.797V107.795C121.797 107.522 121.81 107.379 121.849 107.132H120.406C120.445 107.353 120.458 107.548 120.458 107.795V107.938H117.793V107.795C117.793 107.522 117.806 107.366 117.832 107.132H116.402C116.441 107.366 116.454 107.522 116.454 107.795V107.938H114.803C114.205 107.938 113.789 107.912 113.373 107.86V109.186C113.776 109.121 114.153 109.108 114.803 109.108H116.454V109.68H115.687C115.063 109.68 114.764 109.667 114.439 109.628C114.478 109.966 114.491 110.2 114.491 110.577V111.513C114.491 111.89 114.478 112.111 114.439 112.423C114.712 112.384 115.024 112.371 115.583 112.371H122.824C123.37 112.371 123.695 112.384 123.968 112.423C123.929 112.137 123.916 111.916 123.916 111.539V110.525C123.916 110.135 123.929 109.901 123.968 109.628C123.643 109.667 123.344 109.68 122.72 109.68H121.797ZM120.458 109.68H117.793V109.108H120.458V109.68ZM121.095 111.37V110.668H122.577V111.37H121.095ZM119.847 111.37H118.43V110.668H119.847V111.37ZM117.208 111.37H115.817V110.668H117.208V111.37Z" fill="url(#paint0_linear_1819_52)"/>
<defs>
<linearGradient id="paint0_linear_1819_52" x1="3.19643" y1="84.8026" x2="143.827" y2="253.445" gradientUnits="userSpaceOnUse">
<stop stop-color="#FF4D77"/>
<stop offset="1" stop-color="#72A9F9"/>
</linearGradient>
</defs>
</svg>
