<svg width="251" height="55" viewBox="0 0 251 55" fill="none" xmlns="http://www.w3.org/2000/svg">
<path d="M12.32 5.68426C12.208 7.95226 11.956 9.40826 11.396 11.3403C10.5 14.3643 8.792 17.3603 6.608 19.6283C4.732 21.5883 3.36 22.6523 0.98 24.0243C2.044 24.8923 2.688 25.7323 3.276 26.9643C6.328 24.9203 8.428 22.9603 10.22 20.6363C12.096 18.1443 13.216 15.7643 14.224 12.1803C14.672 13.9163 14.924 14.6163 15.652 16.1563C16.464 17.8643 17.08 18.9283 18.116 20.3003C20.02 22.8763 22.12 24.9203 24.92 26.8803C25.704 25.4803 26.236 24.7523 27.3 23.7163C25.396 22.5963 24.584 22.0083 23.156 20.6923C21.224 18.9563 19.852 17.2763 18.676 15.3163C16.688 11.9003 15.68 8.20426 15.68 4.22826C15.68 3.52826 15.68 3.27626 15.764 2.46426C15.12 2.57626 14.364 2.60426 13.216 2.60426H8.764C7.532 2.60426 6.944 2.57626 6.132 2.46426V5.82426C7.224 5.74026 8.064 5.68426 8.82 5.68426H12.32ZM40.572 19.4603V23.6043C40.572 24.1643 40.376 24.2483 39.144 24.2483C38.276 24.2483 37.016 24.1643 35.672 23.9683C36.148 24.9763 36.288 25.4523 36.596 26.9363C38.052 27.0203 38.976 27.0483 39.34 27.0483C41.86 27.0483 42.812 26.8243 43.288 26.1243C43.568 25.7323 43.652 25.3403 43.652 24.3603V19.4603H50.932C52.388 19.4603 53.592 19.5163 54.404 19.6283V16.5203C53.564 16.6603 52.332 16.7163 50.96 16.7163H43.652V16.6883C45.836 15.3443 47.264 14.3083 49.252 12.6003C49.784 12.1523 49.784 12.1523 50.26 11.7603L48.72 10.0523C48.216 10.1363 47.684 10.1643 46.592 10.1643H37.324C36.12 10.1643 35.336 10.1363 34.496 10.0243V12.8243C35.392 12.7403 36.148 12.7123 37.296 12.7123H44.996C43.82 13.7483 42.896 14.3643 41.692 14.9803H40.488C40.544 15.4563 40.572 15.9603 40.572 16.5203V16.7163H32.956C31.64 16.7163 30.52 16.6603 29.568 16.5203V19.6283C30.436 19.5163 31.528 19.4603 32.984 19.4603H40.572ZM33.096 5.62826C31.22 5.62826 31.052 5.62826 29.792 5.51626C29.876 6.24426 29.904 6.83226 29.904 7.84026V10.4163C29.904 11.2843 29.876 11.9283 29.764 12.5723H32.816V8.23226H51.072V12.5723H54.124C54.04 11.9003 53.984 11.2003 53.984 10.4443V7.84026C53.984 6.77626 54.012 6.21626 54.096 5.51626C53.088 5.60026 52.556 5.62826 50.652 5.62826H49.392C50.036 4.76026 50.848 3.47226 51.492 2.26826L48.468 1.42826C47.992 2.74426 47.012 4.50826 46.172 5.62826H43.792C43.176 3.83626 43.008 3.44426 41.86 1.28826L38.948 2.10026C39.732 3.33226 40.18 4.31226 40.656 5.62826H37.688C36.764 3.83626 36.12 2.82826 35.14 1.62426L32.312 2.46426C33.404 3.83626 33.768 4.39626 34.412 5.62826H33.096ZM72.1 14.7843L72.184 23.1563C72.184 23.3523 72.184 23.4923 72.184 23.6603C72.184 24.8083 72.128 25.5643 72.016 26.3483H75.824C75.74 25.5643 75.684 24.5003 75.656 23.1283L75.516 10.1363H78.4C80.136 10.1363 80.78 10.1643 81.62 10.2483V6.86026C80.64 7.02826 80.192 7.05626 78.316 7.05626H75.488L75.432 4.78826V4.62026C75.432 3.47226 75.46 2.96826 75.544 2.24026H71.848C71.96 3.30426 71.96 3.30426 71.988 4.81626L72.016 7.05626H62.328C60.34 7.05626 59.864 7.05626 58.8 6.86026V10.2763C59.808 10.1643 60.144 10.1643 62.244 10.1363H69.916C68.992 11.6203 67.592 13.3563 66.164 14.7563C63.364 17.4723 60.676 19.3203 57.344 20.8323C58.576 21.9243 58.996 22.4283 59.668 23.7443C61.796 22.5403 62.72 21.9523 63.812 21.1683C65.744 19.7683 67.788 17.9763 69.328 16.2963C70.728 14.7563 71.596 13.5803 72.184 12.3763C72.156 12.8243 72.1 14.2523 72.1 14.3923V14.7843ZM85.988 16.0723C87.108 15.9323 87.416 15.9323 90.552 15.9323H105.42C108.556 15.9323 108.864 15.9323 109.984 16.0723V12.1803C108.752 12.3483 108.22 12.3763 105.448 12.3763H90.524C87.752 12.3763 87.22 12.3483 85.988 12.1803V16.0723ZM132.216 3.27626C131.292 3.44426 130.732 3.47226 128.604 3.47226H120.372C118.272 3.47226 117.712 3.44426 116.76 3.27626V6.69226C117.656 6.58026 118.02 6.55226 120.316 6.55226H128.66C130.956 6.55226 131.348 6.58026 132.216 6.69226V3.27626ZM133.98 13.5523C136.164 13.5523 136.584 13.5803 137.536 13.6923V10.3603C136.556 10.5283 135.996 10.5563 133.924 10.5563H117.544C115.472 10.5563 114.912 10.5283 113.932 10.3603V13.6923C114.884 13.5803 115.304 13.5523 117.488 13.5523H124.292C124.096 18.9843 121.912 21.7563 116.424 23.4923C117.572 24.5843 118.048 25.2003 118.72 26.6003C125.048 24.1643 127.68 20.4683 127.988 13.5523H133.98ZM139.916 4.62026C139.244 2.96826 138.572 1.84826 137.452 0.364256L135.436 1.09226C136.388 2.40826 137.2 3.83626 137.844 5.43226L139.916 4.62026ZM131.768 2.18426C132.804 3.64026 133.448 4.78826 134.232 6.66426L136.332 5.88026C135.548 4.03226 134.904 2.91226 133.84 1.45626L131.768 2.18426ZM158.815 6.77626C158.367 7.47626 158.031 7.86826 157.107 8.79226C154.755 11.0883 152.291 12.8523 149.155 14.4763C146.859 15.6523 145.151 16.2963 142.519 16.9963C143.415 18.1443 143.667 18.6203 144.255 19.9083C147.643 18.7323 149.659 17.8363 152.179 16.3523V23.8563C152.179 25.1723 152.151 25.7043 152.039 26.5163L155.651 26.5443C155.539 25.8443 155.511 25.1443 155.511 23.8563V14.3363C157.275 13.0763 159.319 11.2563 160.719 9.74426C161.279 9.12826 161.279 9.12826 161.671 8.82026L158.815 6.77626ZM172.227 5.46026C174.663 6.30026 177.155 7.61626 179.703 9.32426L181.495 6.24426C179.143 4.81626 176.931 3.75226 174.047 2.63226L172.227 5.46026ZM170.015 12.2643C172.871 13.3843 175.363 14.7283 177.603 16.3803L179.339 13.2163C176.931 11.6483 174.775 10.5563 171.891 9.40826L170.015 12.2643ZM171.611 25.7603C172.171 25.5923 172.563 25.5083 173.571 25.3123C180.459 23.9403 185.219 21.4483 188.775 17.3603C190.511 15.3163 191.687 13.3843 192.975 10.2763C191.631 9.35226 191.211 8.98826 190.063 7.78426C189.195 10.2763 188.327 11.9563 186.815 13.9723C184.575 16.9683 182.195 18.7883 178.723 20.1323C175.811 21.2523 172.759 21.9243 170.631 21.9523L171.611 25.7603ZM213.611 25.3123V26.6283H216.831C216.747 25.9843 216.719 25.5643 216.719 24.5003V11.6763C216.719 10.4443 216.747 9.74426 216.803 8.73626C215.991 8.82026 215.207 8.84826 214.199 8.84826H203.167C202.047 8.84826 201.431 8.79226 200.647 8.65226V11.7603C201.375 11.6763 201.795 11.6483 203.167 11.6483H213.639V15.5403H203.895C202.775 15.5403 202.131 15.4843 201.375 15.3443V18.3963C202.075 18.3123 202.495 18.2843 203.895 18.2843H213.639V22.5123H202.887C201.795 22.5123 201.123 22.4563 200.367 22.3163V25.4243C201.067 25.3403 201.487 25.3123 202.887 25.3123H213.611ZM226.295 6.88826C228.899 8.34426 231.195 10.1923 233.435 12.5723L235.843 9.52026C233.687 7.47626 231.951 6.18826 228.619 4.11626L226.295 6.88826ZM227.275 25.3683C227.919 25.1443 228.003 25.1163 229.123 24.8923C233.463 23.9683 236.935 22.5963 239.791 20.6923C243.627 18.1443 246.287 14.8403 248.667 9.71626C247.239 8.70826 246.791 8.28826 245.699 6.97226C244.859 9.24026 244.075 10.7803 242.843 12.5723C240.631 15.7643 238.027 17.9203 234.527 19.4323C231.979 20.5523 228.647 21.3643 226.239 21.5043L227.275 25.3683Z" fill="url(#paint0_linear)"/>
<path d="M8.848 47.8723H2.608L1.264 50.8643H0.032L5.152 39.6643H6.32L11.44 50.8643H10.192L8.848 47.8723ZM8.416 46.9123L5.728 40.8963L3.04 46.9123H8.416ZM18.3704 50.9603C16.9197 50.9603 15.789 50.5443 14.9784 49.7123C14.1677 48.8803 13.7624 47.6696 13.7624 46.0803V39.6643H14.9464V46.0323C14.9464 47.3336 15.2397 48.3043 15.8264 48.9443C16.413 49.5843 17.261 49.9043 18.3704 49.9043C19.4904 49.9043 20.3437 49.5843 20.9304 48.9443C21.517 48.3043 21.8104 47.3336 21.8104 46.0323V39.6643H22.9624V46.0803C22.9624 47.6696 22.557 48.8803 21.7464 49.7123C20.9464 50.5443 19.821 50.9603 18.3704 50.9603ZM27.3303 39.6643H31.8903C33.0743 39.6643 34.1196 39.9043 35.0263 40.3843C35.9329 40.8536 36.6369 41.5149 37.1383 42.3683C37.6396 43.2109 37.8903 44.1763 37.8903 45.2643C37.8903 46.3523 37.6396 47.3229 37.1383 48.1763C36.6369 49.0189 35.9329 49.6803 35.0263 50.1603C34.1196 50.6296 33.0743 50.8643 31.8903 50.8643H27.3303V39.6643ZM31.8263 49.8403C32.8076 49.8403 33.6663 49.6483 34.4023 49.2643C35.1383 48.8696 35.7089 48.3309 36.1143 47.6483C36.5196 46.9549 36.7223 46.1603 36.7223 45.2643C36.7223 44.3683 36.5196 43.5789 36.1143 42.8963C35.7089 42.2029 35.1383 41.6643 34.4023 41.2803C33.6663 40.8856 32.8076 40.6883 31.8263 40.6883H28.5143V49.8403H31.8263ZM41.349 39.6643H42.533V50.8643H41.349V39.6643ZM49.1531 40.6883H45.2171V39.6643H54.2731V40.6883H50.3371V50.8643H49.1531V40.6883ZM56.9646 39.6643H58.1486V50.8643H56.9646V39.6643ZM67.4887 50.9603C66.3794 50.9603 65.3714 50.7149 64.4647 50.2243C63.5687 49.7229 62.8647 49.0403 62.3527 48.1763C61.8514 47.3123 61.6007 46.3416 61.6007 45.2643C61.6007 44.1869 61.8514 43.2163 62.3527 42.3523C62.8647 41.4883 63.5687 40.8109 64.4647 40.3203C65.3714 39.8189 66.3794 39.5683 67.4887 39.5683C68.5981 39.5683 69.5954 39.8136 70.4808 40.3043C71.3767 40.7949 72.0807 41.4776 72.5927 42.3523C73.1047 43.2163 73.3608 44.1869 73.3608 45.2643C73.3608 46.3416 73.1047 47.3176 72.5927 48.1923C72.0807 49.0563 71.3767 49.7336 70.4808 50.2243C69.5954 50.7149 68.5981 50.9603 67.4887 50.9603ZM67.4887 49.9043C68.3741 49.9043 69.1741 49.7069 69.8888 49.3123C70.6034 48.9069 71.1634 48.3523 71.5687 47.6483C71.9741 46.9336 72.1768 46.1389 72.1768 45.2643C72.1768 44.3896 71.9741 43.6003 71.5687 42.8963C71.1634 42.1816 70.6034 41.6269 69.8888 41.2323C69.1741 40.8269 68.3741 40.6243 67.4887 40.6243C66.6034 40.6243 65.7981 40.8269 65.0727 41.2323C64.3581 41.6269 63.7927 42.1816 63.3767 42.8963C62.9714 43.6003 62.7687 44.3896 62.7687 45.2643C62.7687 46.1389 62.9714 46.9336 63.3767 47.6483C63.7927 48.3523 64.3581 48.9069 65.0727 49.3123C65.7981 49.7069 66.6034 49.9043 67.4887 49.9043ZM86.1746 39.6643V50.8643H85.1986L77.9986 41.7763V50.8643H76.8146V39.6643H77.7906L85.0066 48.7523V39.6643H86.1746Z" fill="url(#paint1_linear)"/>
<defs>
<linearGradient id="paint0_linear" x1="39.0587" y1="9.36427" x2="249.827" y2="34.6431" gradientUnits="userSpaceOnUse">
<stop stop-color="#FF4D77"/>
<stop offset="1" stop-color="#9E00D6"/>
</linearGradient>
<linearGradient id="paint1_linear" x1="2.848" y1="42.3643" x2="89.1043" y2="45.4096" gradientUnits="userSpaceOnUse">
<stop stop-color="#FF4D77"/>
<stop offset="1" stop-color="#D14DFF"/>
</linearGradient>
</defs>
</svg>
