<svg width="28" height="28" viewBox="0 0 28 28" fill="none" xmlns="http://www.w3.org/2000/svg">
<path d="M14.1602 27.8418C21.666 27.8418 27.873 21.6348 27.873 14.1289C27.873 6.60938 21.666 0.416016 14.1465 0.416016C6.64062 0.416016 0.447266 6.60938 0.447266 14.1289C0.447266 21.6348 6.6543 27.8418 14.1602 27.8418ZM14.1602 26.0645C7.54297 26.0645 2.22461 20.7324 2.22461 14.1289C2.22461 7.51172 7.54297 2.17969 14.1465 2.17969C20.7637 2.17969 26.0957 7.51172 26.1094 14.1289C26.1094 20.7324 20.7773 26.0645 14.1602 26.0645ZM14.8027 20.3223C15.3359 20.3223 15.6504 19.9668 15.6504 19.3926V8.87891C15.6504 8.26367 15.3086 7.92188 14.7344 7.92188C14.3516 7.92188 14.0645 8.03125 13.5996 8.3457L10.9746 10.0957C10.7285 10.2598 10.6328 10.4375 10.6328 10.7109C10.6328 11.0664 10.9062 11.3672 11.2617 11.3672C11.4121 11.3672 11.5352 11.3398 11.7539 11.1895L13.873 9.80859H13.9551V19.3926C13.9551 19.9668 14.2832 20.3223 14.8027 20.3223Z" fill="#FF4D77"/>
</svg>
