<svg width="44" height="44" viewBox="0 0 44 44" fill="none" xmlns="http://www.w3.org/2000/svg">
<path fill-rule="evenodd" clip-rule="evenodd" d="M12 16C12 15.4477 12.4477 15 13 15H31C31.5523 15 32 15.4477 32 16C32 16.5523 31.5523 17 31 17H13C12.4477 17 12 16.5523 12 16Z" fill="white"/>
<path fill-rule="evenodd" clip-rule="evenodd" d="M12 22C12 21.4477 12.4477 21 13 21H31C31.5523 21 32 21.4477 32 22C32 22.5523 31.5523 23 31 23H13C12.4477 23 12 22.5523 12 22Z" fill="white"/>
<path fill-rule="evenodd" clip-rule="evenodd" d="M12 28C12 27.4477 12.4477 27 13 27H31C31.5523 27 32 27.4477 32 28C32 28.5523 31.5523 29 31 29H13C12.4477 29 12 28.5523 12 28Z" fill="white"/>
</svg>
