<svg width="216" height="26" viewBox="0 0 216 26" fill="none" xmlns="http://www.w3.org/2000/svg">
<path d="M19.118 4.17C18.502 4.346 18.304 4.368 16.984 4.368H5.5C3.982 4.368 3.3 4.324 2.464 4.192V6.942C3.366 6.832 3.916 6.81 5.456 6.81H17.006C16.5 7.866 15.818 8.768 14.916 9.604C14.014 10.462 13.178 10.968 11.704 11.628C12.694 12.376 13.024 12.706 13.684 13.63C14.718 13.058 15.444 12.574 16.324 11.804C17.666 10.66 18.942 9.01 19.712 7.382C20.284 6.238 20.284 6.216 20.592 5.842L19.118 4.17ZM8.668 8.614C8.756 9.076 8.778 9.274 8.778 9.934C8.778 14.092 8.074 15.984 5.83 17.766C4.752 18.624 3.762 19.108 1.98 19.636C2.86 20.56 3.146 20.956 3.718 22.144C6.468 21 8.074 19.878 9.394 18.184C10.89 16.27 11.484 14.158 11.572 10.396C11.594 9.054 11.594 9.032 11.66 8.614H8.668ZM40.172 6.898C39.622 7.074 39.424 7.096 38.434 7.096L33.55 7.118C33.616 6.414 33.616 6.216 33.638 5.732C33.682 4.588 33.682 4.588 33.726 4.126C33.726 3.972 33.748 3.84 33.748 3.708C33.77 3.4 33.792 3.312 33.836 3.026L30.888 2.96C30.954 3.356 30.954 3.532 30.954 3.818V4.368C30.954 5.006 30.91 6.282 30.844 7.118L26.994 7.14C25.894 7.14 25.3 7.096 24.552 6.964L24.574 9.67C25.3 9.582 25.608 9.56 26.95 9.56L30.602 9.538C30.58 9.692 30.536 9.912 30.492 10.22C30.294 11.76 29.964 12.838 29.37 14.048C28.204 16.402 26.4 18.14 23.65 19.592C24.574 20.406 24.882 20.758 25.63 21.924C28.402 20.164 30.36 18.162 31.57 15.83C32.56 13.938 33.022 12.288 33.33 9.538L38.456 9.516C38.456 12.046 38.236 15.038 37.972 16.556C37.62 18.47 37.29 18.954 36.344 18.954C35.618 18.954 34.738 18.8 33.44 18.448C33.836 19.46 33.902 19.878 33.946 21.264C35.09 21.44 35.838 21.506 36.674 21.506C39.314 21.506 40.084 20.604 40.656 16.798C40.876 15.346 41.118 11.958 41.184 9.472C41.206 8.702 41.25 8.394 41.426 7.998L40.172 6.898ZM59.884 4.038C59.158 4.17 58.718 4.192 57.046 4.192H50.578C48.928 4.192 48.488 4.17 47.74 4.038V6.722C48.444 6.634 48.73 6.612 50.534 6.612H57.09C58.894 6.612 59.202 6.634 59.884 6.722V4.038ZM61.27 12.112C62.986 12.112 63.316 12.134 64.064 12.222V9.604C63.294 9.736 62.854 9.758 61.226 9.758H48.356C46.728 9.758 46.288 9.736 45.518 9.604V12.222C46.266 12.134 46.596 12.112 48.312 12.112H53.658C53.504 16.38 51.788 18.558 47.476 19.922C48.378 20.78 48.752 21.264 49.28 22.364C54.252 20.45 56.32 17.546 56.562 12.112H61.27ZM65.934 5.094C65.406 3.796 64.878 2.916 63.998 1.75L62.414 2.322C63.162 3.356 63.8 4.478 64.306 5.732L65.934 5.094ZM59.532 3.18C60.346 4.324 60.852 5.226 61.468 6.7L63.118 6.084C62.502 4.632 61.996 3.752 61.16 2.608L59.532 3.18ZM70.884 5.952C74.756 6.326 79.266 7.272 82.896 8.482L83.776 5.776C78.87 4.456 76.12 3.906 71.874 3.4L70.884 5.952ZM70.532 12.002C72.798 12.288 74.228 12.53 76.098 12.97C78.848 13.586 80.41 14.048 82.148 14.73L83.006 12.024C78.584 10.704 75.064 9.912 71.544 9.472L70.532 12.002ZM68.75 18.184C71.148 18.492 72.952 18.822 75.658 19.46C79.134 20.274 81.158 20.912 83.446 21.924L84.392 19.152C79.266 17.37 75.108 16.38 69.784 15.676L68.75 18.184ZM89.562 14.092C90.442 13.982 90.684 13.982 93.148 13.982H104.83C107.294 13.982 107.536 13.982 108.416 14.092V11.034C107.448 11.166 107.03 11.188 104.852 11.188H93.126C90.948 11.188 90.53 11.166 89.562 11.034V14.092ZM119.284 6.392H122.034C123.618 6.392 124.454 6.436 125.268 6.546V3.598C124.432 3.708 123.618 3.752 122.034 3.752H113.322C112.068 3.752 111.122 3.708 110.33 3.598V6.546C111.1 6.436 112.046 6.392 113.344 6.392H116.314V18.404C116.314 19.592 116.27 20.34 116.138 21.264H119.46C119.328 20.362 119.284 19.592 119.284 18.404V6.392ZM134.772 3.4C132.44 3.4 130.614 4.104 129.096 5.6C127.468 7.184 126.588 9.626 126.588 12.464C126.588 18.052 129.8 21.638 134.794 21.638C139.788 21.638 143.022 18.03 143.022 12.464C143.022 9.604 142.164 7.206 140.558 5.6C139.062 4.104 137.192 3.4 134.772 3.4ZM134.838 19.02C133.496 19.02 132.33 18.558 131.428 17.678C130.284 16.534 129.646 14.686 129.646 12.486C129.646 8.504 131.648 5.996 134.816 5.996C136.136 5.996 137.302 6.458 138.204 7.338C139.326 8.46 139.942 10.242 139.942 12.464C139.942 16.512 137.984 19.02 134.838 19.02ZM148.849 21.264C148.717 20.428 148.673 19.592 148.673 18.404V14.73H152.875C154.987 14.73 156.483 14.224 157.561 13.146C158.529 12.134 159.035 10.77 159.035 9.098C159.035 7.514 158.573 6.194 157.671 5.314C156.615 4.258 155.119 3.752 152.985 3.752H148.387C147.221 3.752 146.539 3.73 145.593 3.686C145.725 4.676 145.769 5.468 145.769 6.524V18.426C145.769 19.614 145.725 20.384 145.593 21.264H148.849ZM148.673 12.2V6.282H152.875C154.041 6.282 154.767 6.524 155.273 7.074C155.757 7.58 155.999 8.306 155.999 9.186C155.999 11.122 154.899 12.2 152.875 12.2H148.673ZM161.234 3.752C161.366 4.632 161.41 5.226 161.41 6.59V18.426C161.41 19.724 161.366 20.428 161.234 21.264H164.578C164.446 20.428 164.402 19.724 164.402 18.426V6.59C164.402 5.27 164.446 4.588 164.578 3.752H161.234ZM179.493 15.368C179.317 16.38 179.141 16.842 178.767 17.392C178.063 18.426 176.743 19.02 175.203 19.02C172.123 19.02 170.187 16.512 170.187 12.486C170.187 8.438 172.079 5.996 175.203 5.996C176.567 5.996 177.667 6.458 178.415 7.36C178.855 7.866 179.053 8.284 179.361 9.252L182.419 8.548C182.155 7.712 182.001 7.316 181.737 6.854C181.187 5.886 180.395 5.072 179.405 4.456C178.195 3.73 176.897 3.4 175.181 3.4C172.981 3.4 171.001 4.148 169.681 5.49C168.031 7.14 167.107 9.692 167.107 12.596C167.107 15.412 167.965 17.898 169.505 19.504C170.847 20.89 172.761 21.616 175.159 21.616C177.799 21.616 179.911 20.758 181.165 19.218C181.825 18.36 182.221 17.502 182.639 15.918L179.493 15.368ZM192.627 10.902L197.335 6.084C198.303 5.094 199.029 4.39 199.667 3.752H195.509C195.069 4.478 194.651 5.006 193.793 5.886L188.183 11.716V6.59C188.183 5.336 188.249 4.478 188.381 3.752H185.125C185.257 4.676 185.301 5.402 185.301 6.59V18.426C185.301 19.592 185.257 20.274 185.125 21.264H188.381C188.227 20.34 188.183 19.724 188.183 18.426V15.192L190.581 12.794L194.959 18.954C195.465 19.68 196.015 20.604 196.345 21.264H200.415C199.777 20.56 199.535 20.252 198.215 18.47L192.627 10.902ZM200.623 16.138C200.755 17.04 200.843 17.458 201.041 17.964C201.459 19.042 202.097 19.878 202.977 20.472C204.033 21.176 205.793 21.616 207.597 21.616C209.951 21.616 211.689 21.066 212.855 19.944C213.757 19.042 214.241 17.766 214.241 16.204C214.241 14.554 213.669 13.344 212.415 12.42C211.623 11.87 210.567 11.452 208.829 11.078C206.387 10.528 206.211 10.484 205.727 10.286C204.715 9.846 204.231 9.208 204.231 8.284C204.231 6.854 205.529 5.886 207.443 5.886C208.653 5.886 209.621 6.26 210.193 6.942C210.567 7.382 210.721 7.756 210.853 8.504L213.999 8.13C213.735 6.964 213.471 6.304 212.921 5.578C211.843 4.126 209.951 3.356 207.443 3.356C203.659 3.356 201.195 5.336 201.195 8.394C201.195 9.868 201.767 11.078 202.889 11.958C203.681 12.574 204.561 12.926 206.211 13.3C209.247 14.004 209.379 14.026 210.039 14.378C210.721 14.752 211.139 15.5 211.139 16.402C211.139 18.052 209.819 19.042 207.619 19.042C206.189 19.042 205.045 18.58 204.407 17.744C204.011 17.238 203.879 16.798 203.791 15.808L200.623 16.138Z" fill="url(#paint0_linear_1343_67)"/>
<defs>
<linearGradient id="paint0_linear_1343_67" x1="33.6122" y1="8.50001" x2="215.66" y2="27.2896" gradientUnits="userSpaceOnUse">
<stop stop-color="#FF4D77"/>
<stop offset="1" stop-color="#9E00D6"/>
</linearGradient>
</defs>
</svg>
