<svg width="315" height="51" viewBox="0 0 315 51" fill="none" xmlns="http://www.w3.org/2000/svg">
<path d="M0.81 16.8697C0.918 17.6077 0.99 17.9497 1.152 18.3637C1.494 19.2457 2.016 19.9297 2.736 20.4157C3.6 20.9917 5.04 21.3517 6.516 21.3517C8.442 21.3517 9.864 20.9017 10.818 19.9837C11.556 19.2457 11.952 18.2017 11.952 16.9237C11.952 15.5737 11.484 14.5837 10.458 13.8277C9.81 13.3777 8.946 13.0357 7.524 12.7297C5.526 12.2797 5.382 12.2437 4.986 12.0817C4.158 11.7217 3.762 11.1997 3.762 10.4437C3.762 9.27366 4.824 8.48166 6.39 8.48166C7.38 8.48166 8.172 8.78766 8.64 9.34566C8.946 9.70566 9.072 10.0117 9.18 10.6237L11.754 10.3177C11.538 9.36366 11.322 8.82366 10.872 8.22966C9.99 7.04166 8.442 6.41166 6.39 6.41166C3.294 6.41166 1.278 8.03166 1.278 10.5337C1.278 11.7397 1.746 12.7297 2.664 13.4497C3.312 13.9537 4.032 14.2417 5.382 14.5477C7.866 15.1237 7.974 15.1417 8.514 15.4297C9.072 15.7357 9.414 16.3477 9.414 17.0857C9.414 18.4357 8.334 19.2457 6.534 19.2457C5.364 19.2457 4.428 18.8677 3.906 18.1837C3.582 17.7697 3.474 17.4097 3.402 16.5997L0.81 16.8697ZM16.8092 21.0637C16.7012 20.3797 16.6652 19.6957 16.6652 18.7237V15.7177H20.1032C21.8312 15.7177 23.0552 15.3037 23.9372 14.4217C24.7292 13.5937 25.1432 12.4777 25.1432 11.1097C25.1432 9.81366 24.7652 8.73366 24.0272 8.01366C23.1632 7.14966 21.9392 6.73566 20.1932 6.73566H16.4312C15.4772 6.73566 14.9192 6.71766 14.1452 6.68166C14.2532 7.49166 14.2892 8.13966 14.2892 9.00366V18.7417C14.2892 19.7137 14.2532 20.3437 14.1452 21.0637H16.8092ZM16.6652 13.6477V8.80566H20.1032C21.0572 8.80566 21.6512 9.00366 22.0652 9.45366C22.4612 9.86766 22.6592 10.4617 22.6592 11.1817C22.6592 12.7657 21.7592 13.6477 20.1032 13.6477H16.6652ZM37.1661 18.7957C36.3921 18.8857 35.8701 18.9217 34.8621 18.9217H29.4621V14.6737H33.8541C34.9701 14.6737 35.4561 14.6917 36.1941 14.7997V12.4417C35.4021 12.5317 34.7901 12.5677 33.8541 12.5677H29.4801V8.85966H34.6641C35.7261 8.85966 36.3021 8.89566 36.9861 8.98566V6.60966C36.1581 6.69966 35.5641 6.73566 34.6641 6.73566H29.2281C28.1301 6.73566 27.6621 6.71766 26.9421 6.68166C27.0501 7.52766 27.0861 8.06766 27.0861 9.00366V18.7417C27.0861 19.8037 27.0501 20.3977 26.9421 21.1177C27.6621 21.0817 28.1481 21.0637 29.2281 21.0637H34.8441C35.9421 21.0637 36.5181 21.0997 37.1661 21.1897V18.7957ZM48.9303 16.2397C48.7863 17.0677 48.6423 17.4457 48.3363 17.8957C47.7603 18.7417 46.6803 19.2277 45.4203 19.2277C42.9003 19.2277 41.3163 17.1757 41.3163 13.8817C41.3163 10.5697 42.8643 8.57166 45.4203 8.57166C46.5363 8.57166 47.4363 8.94966 48.0483 9.68766C48.4083 10.1017 48.5703 10.4437 48.8223 11.2357L51.3243 10.6597C51.1083 9.97566 50.9823 9.65166 50.7663 9.27366C50.3163 8.48166 49.6683 7.81566 48.8583 7.31166C47.8683 6.71766 46.8063 6.44766 45.4023 6.44766C43.6023 6.44766 41.9823 7.05966 40.9023 8.15766C39.5523 9.50766 38.7963 11.5957 38.7963 13.9717C38.7963 16.2757 39.4983 18.3097 40.7583 19.6237C41.8563 20.7577 43.4223 21.3517 45.3843 21.3517C47.5443 21.3517 49.2723 20.6497 50.2983 19.3897C50.8383 18.6877 51.1623 17.9857 51.5043 16.6897L48.9303 16.2397ZM53.5378 6.73566C53.6458 7.45566 53.6818 7.94166 53.6818 9.05766V18.7417C53.6818 19.8037 53.6458 20.3797 53.5378 21.0637H56.2738C56.1658 20.3797 56.1298 19.8037 56.1298 18.7417V9.05766C56.1298 7.97766 56.1658 7.41966 56.2738 6.73566H53.5378ZM71.8792 21.0637C71.6272 20.5957 71.4112 20.0917 70.9612 18.9397L66.9652 8.55366C66.5512 7.45566 66.4432 7.16766 66.3532 6.73566H63.2212C63.1312 7.20366 62.9872 7.65366 62.6452 8.55366L58.6852 18.9397C58.3612 19.7677 58.0012 20.5777 57.7312 21.0637H60.6832C60.8272 20.3077 60.8992 20.0377 61.2232 19.1737L61.9432 17.2117H67.7032L68.4232 19.1737C68.6212 19.6957 68.8192 20.4697 68.9272 21.0637H71.8792ZM67.0552 15.1417H62.5912L64.4632 9.81366C64.5172 9.65166 64.5172 9.65166 64.8052 8.80566C65.0032 9.39966 65.0572 9.61566 65.1292 9.81366L67.0552 15.1417ZM83.5183 18.7597C82.7623 18.8497 82.1863 18.8857 80.9623 18.8857H75.9223V9.38166C75.9223 8.06766 75.9583 7.47366 76.0663 6.73566H73.3483C73.4563 7.50966 73.4923 8.15766 73.4923 9.39966V18.7417C73.4923 19.7857 73.4563 20.4517 73.3483 21.1177C73.9963 21.0817 74.6263 21.0637 75.6343 21.0637H80.9623C82.2403 21.0637 82.8703 21.0997 83.5183 21.1897V18.7597ZM91.7007 21.0637C91.5927 20.3257 91.5567 19.6777 91.5567 18.7237V9.61566C91.5567 8.53566 91.5927 7.70766 91.7007 6.64566C91.0527 6.71766 90.7827 6.73566 89.8647 6.73566H88.2087C87.3627 6.73566 86.9667 6.71766 86.4087 6.62766V8.91366C87.0747 8.84166 87.5967 8.80566 88.2627 8.80566H89.1267V18.7237C89.1267 19.6597 89.0907 20.3617 88.9827 21.0637H91.7007ZM113.947 18.7957C113.173 18.8857 112.651 18.9217 111.643 18.9217H106.243V14.6737H110.635C111.751 14.6737 112.237 14.6917 112.975 14.7997V12.4417C112.183 12.5317 111.571 12.5677 110.635 12.5677H106.261V8.85966H111.445C112.507 8.85966 113.083 8.89566 113.767 8.98566V6.60966C112.939 6.69966 112.345 6.73566 111.445 6.73566H106.009C104.911 6.73566 104.443 6.71766 103.723 6.68166C103.831 7.52766 103.867 8.06766 103.867 9.00366V18.7417C103.867 19.8037 103.831 20.3977 103.723 21.1177C104.443 21.0817 104.929 21.0637 106.009 21.0637H111.625C112.723 21.0637 113.299 21.0997 113.947 21.1897V18.7957ZM128.268 21.0637C128.16 20.4337 128.124 19.7497 128.124 18.7417V9.21966C128.124 8.12166 128.16 7.45566 128.268 6.73566H125.64C125.748 7.41966 125.784 8.15766 125.784 9.21966V15.2677C125.784 16.0237 125.838 17.1037 125.91 17.8057C125.514 17.0857 124.938 16.1497 124.506 15.5017L119.952 8.64366C119.34 7.72566 119.016 7.18566 118.854 6.73566H116.046C116.154 7.47366 116.19 8.12166 116.19 9.05766V18.3457C116.19 19.5697 116.136 20.4697 116.046 21.0637H118.674C118.584 20.4157 118.53 19.5697 118.53 18.3637V12.4597C118.53 12.0457 118.494 11.2357 118.476 10.8937C118.422 10.2277 118.422 10.2277 118.404 9.97566C118.836 10.8217 119.286 11.5957 119.628 12.1357L124.272 19.1377C124.794 19.9297 125.118 20.4517 125.424 21.0637H128.268ZM137.147 8.89566H139.397C140.693 8.89566 141.377 8.93166 142.043 9.02166V6.60966C141.359 6.69966 140.693 6.73566 139.397 6.73566H132.269C131.243 6.73566 130.469 6.69966 129.821 6.60966V9.02166C130.451 8.93166 131.225 8.89566 132.287 8.89566H134.717V18.7237C134.717 19.6957 134.681 20.3077 134.573 21.0637H137.291C137.183 20.3257 137.147 19.6957 137.147 18.7237V8.89566ZM153.815 18.7957C153.041 18.8857 152.519 18.9217 151.511 18.9217H146.111V14.6737H150.503C151.619 14.6737 152.105 14.6917 152.843 14.7997V12.4417C152.051 12.5317 151.439 12.5677 150.503 12.5677H146.129V8.85966H151.312C152.375 8.85966 152.951 8.89566 153.635 8.98566V6.60966C152.807 6.69966 152.213 6.73566 151.312 6.73566H145.877C144.779 6.73566 144.311 6.71766 143.591 6.68166C143.699 7.52766 143.735 8.06766 143.735 9.00366V18.7417C143.735 19.8037 143.699 20.3977 143.591 21.1177C144.311 21.0817 144.797 21.0637 145.877 21.0637H151.493C152.591 21.0637 153.167 21.0997 153.815 21.1897V18.7957ZM168.027 21.0637C167.775 20.5777 167.325 19.6057 167.181 19.2817C165.399 15.0697 165.057 14.5657 163.923 14.2057C164.949 13.9177 165.417 13.6837 165.921 13.1617C166.533 12.5317 166.839 11.6317 166.839 10.4797C166.839 8.10366 165.273 6.73566 162.537 6.73566H158.217C157.227 6.73566 156.669 6.71766 155.913 6.68166C156.021 7.52766 156.057 8.06766 156.057 9.02166V18.7237C156.057 19.8217 156.021 20.3077 155.913 21.0637H158.595C158.487 20.3617 158.451 19.7857 158.451 18.7057V15.0337H161.133C162.519 15.0337 163.149 15.6997 164.121 18.1837C164.715 19.7137 165.021 20.6317 165.057 21.0637H168.027ZM158.451 12.9817V8.78766H162.141C163.617 8.78766 164.355 9.45366 164.355 10.7497C164.355 11.4337 164.157 11.9557 163.779 12.3337C163.365 12.7477 162.735 12.9817 162.069 12.9817H158.451ZM176.153 8.89566H178.403C179.699 8.89566 180.383 8.93166 181.049 9.02166V6.60966C180.365 6.69966 179.699 6.73566 178.403 6.73566H171.275C170.249 6.73566 169.475 6.69966 168.827 6.60966V9.02166C169.457 8.93166 170.231 8.89566 171.293 8.89566H173.723V18.7237C173.723 19.6957 173.687 20.3077 173.579 21.0637H176.297C176.189 20.3257 176.153 19.6957 176.153 18.7237V8.89566ZM193.678 21.0637C193.426 20.5957 193.21 20.0917 192.76 18.9397L188.764 8.55366C188.35 7.45566 188.242 7.16766 188.152 6.73566H185.02C184.93 7.20366 184.786 7.65366 184.444 8.55366L180.484 18.9397C180.16 19.7677 179.8 20.5777 179.53 21.0637H182.482C182.626 20.3077 182.698 20.0377 183.022 19.1737L183.742 17.2117H189.502L190.222 19.1737C190.42 19.6957 190.618 20.4697 190.726 21.0637H193.678ZM188.854 15.1417H184.39L186.262 9.81366C186.316 9.65166 186.316 9.65166 186.604 8.80566C186.802 9.39966 186.856 9.61566 186.928 9.81366L188.854 15.1417ZM195.147 6.73566C195.255 7.45566 195.291 7.94166 195.291 9.05766V18.7417C195.291 19.8037 195.255 20.3797 195.147 21.0637H197.883C197.775 20.3797 197.739 19.8037 197.739 18.7417V9.05766C197.739 7.97766 197.775 7.41966 197.883 6.73566H195.147ZM212.643 21.0637C212.535 20.4337 212.499 19.7497 212.499 18.7417V9.21966C212.499 8.12166 212.535 7.45566 212.643 6.73566H210.015C210.123 7.41966 210.159 8.15766 210.159 9.21966V15.2677C210.159 16.0237 210.213 17.1037 210.285 17.8057C209.889 17.0857 209.313 16.1497 208.881 15.5017L204.327 8.64366C203.715 7.72566 203.391 7.18566 203.229 6.73566H200.421C200.529 7.47366 200.565 8.12166 200.565 9.05766V18.3457C200.565 19.5697 200.511 20.4697 200.421 21.0637H203.049C202.959 20.4157 202.905 19.5697 202.905 18.3637V12.4597C202.905 12.0457 202.869 11.2357 202.851 10.8937C202.797 10.2277 202.797 10.2277 202.779 9.97566C203.211 10.8217 203.661 11.5957 204.003 12.1357L208.647 19.1377C209.169 19.9297 209.493 20.4517 209.799 21.0637H212.643ZM223.862 21.0637C223.97 20.5237 224.294 19.5157 224.654 18.6697L227.354 12.3337C227.606 11.6857 227.948 10.6777 228.182 9.70566C228.164 9.97566 228.11 10.8937 228.038 12.4597V18.4357C228.038 19.6777 228.002 20.3257 227.894 21.0637H230.414C230.306 20.3977 230.27 19.7497 230.27 18.4357V9.39966C230.27 8.19366 230.306 7.59966 230.414 6.73566H227.102C226.976 7.41966 226.814 7.99566 226.454 8.87766L222.818 17.8057L219.164 8.87766C218.858 8.12166 218.624 7.36566 218.498 6.73566H215.204C215.312 7.47366 215.348 8.22966 215.348 9.39966V18.4357C215.348 19.6417 215.312 20.3437 215.204 21.0637H217.724C217.616 20.3617 217.58 19.6777 217.58 18.4357V12.5317C217.58 12.1357 217.508 10.6597 217.436 9.70566C217.85 11.1637 218.012 11.6497 218.354 12.4597L220.946 18.6337C221.36 19.6417 221.648 20.4877 221.738 21.0637H223.862ZM243.199 18.7957C242.425 18.8857 241.903 18.9217 240.895 18.9217H235.495V14.6737H239.887C241.003 14.6737 241.489 14.6917 242.227 14.7997V12.4417C241.435 12.5317 240.823 12.5677 239.887 12.5677H235.513V8.85966H240.697C241.759 8.85966 242.335 8.89566 243.019 8.98566V6.60966C242.191 6.69966 241.597 6.73566 240.697 6.73566H235.261C234.163 6.73566 233.695 6.71766 232.975 6.68166C233.083 7.52766 233.119 8.06766 233.119 9.00366V18.7417C233.119 19.8037 233.083 20.3977 232.975 21.1177C233.695 21.0817 234.181 21.0637 235.261 21.0637H240.877C241.975 21.0637 242.551 21.0997 243.199 21.1897V18.7957ZM257.52 21.0637C257.412 20.4337 257.376 19.7497 257.376 18.7417V9.21966C257.376 8.12166 257.412 7.45566 257.52 6.73566H254.892C255 7.41966 255.036 8.15766 255.036 9.21966V15.2677C255.036 16.0237 255.09 17.1037 255.162 17.8057C254.766 17.0857 254.19 16.1497 253.758 15.5017L249.204 8.64366C248.592 7.72566 248.268 7.18566 248.106 6.73566H245.298C245.406 7.47366 245.442 8.12166 245.442 9.05766V18.3457C245.442 19.5697 245.388 20.4697 245.298 21.0637H247.926C247.836 20.4157 247.782 19.5697 247.782 18.3637V12.4597C247.782 12.0457 247.746 11.2357 247.728 10.8937C247.674 10.2277 247.674 10.2277 247.656 9.97566C248.088 10.8217 248.538 11.5957 248.88 12.1357L253.524 19.1377C254.046 19.9297 254.37 20.4517 254.676 21.0637H257.52ZM266.399 8.89566H268.649C269.945 8.89566 270.629 8.93166 271.295 9.02166V6.60966C270.611 6.69966 269.945 6.73566 268.649 6.73566H261.521C260.495 6.73566 259.721 6.69966 259.073 6.60966V9.02166C259.703 8.93166 260.477 8.89566 261.539 8.89566H263.969V18.7237C263.969 19.6957 263.933 20.3077 263.825 21.0637H266.543C266.435 20.3257 266.399 19.6957 266.399 18.7237V8.89566ZM14.346 47.0637C14.094 46.5957 13.878 46.0917 13.428 44.9397L9.432 34.5537C9.018 33.4557 8.91 33.1677 8.82 32.7357H5.688C5.598 33.2037 5.454 33.6537 5.112 34.5537L1.152 44.9397C0.828 45.7677 0.468 46.5777 0.198 47.0637H3.15C3.294 46.3077 3.366 46.0377 3.69 45.1737L4.41 43.2117H10.17L10.89 45.1737C11.088 45.6957 11.286 46.4697 11.394 47.0637H14.346ZM9.522 41.1417H5.058L6.93 35.8137C6.984 35.6517 6.984 35.6517 7.272 34.8057C7.47 35.3997 7.524 35.6157 7.596 35.8137L9.522 41.1417ZM25.4811 42.2397C25.3371 43.0677 25.1931 43.4457 24.8871 43.8957C24.3111 44.7417 23.2311 45.2277 21.9711 45.2277C19.4511 45.2277 17.8671 43.1757 17.8671 39.8817C17.8671 36.5697 19.4151 34.5717 21.9711 34.5717C23.0871 34.5717 23.9871 34.9497 24.5991 35.6877C24.9591 36.1017 25.1211 36.4437 25.3731 37.2357L27.8751 36.6597C27.6591 35.9757 27.5331 35.6517 27.3171 35.2737C26.8671 34.4817 26.2191 33.8157 25.4091 33.3117C24.4191 32.7177 23.3571 32.4477 21.9531 32.4477C20.1531 32.4477 18.5331 33.0597 17.4531 34.1577C16.1031 35.5077 15.3471 37.5957 15.3471 39.9717C15.3471 42.2757 16.0491 44.3097 17.3091 45.6237C18.4071 46.7577 19.9731 47.3517 21.9351 47.3517C24.0951 47.3517 25.8231 46.6497 26.8491 45.3897C27.3891 44.6877 27.7131 43.9857 28.0551 42.6897L25.4811 42.2397ZM43.1565 47.0637C42.9045 46.5957 42.6885 46.0917 42.2385 44.9397L38.2425 34.5537C37.8285 33.4557 37.7205 33.1677 37.6305 32.7357H34.4985C34.4085 33.2037 34.2645 33.6537 33.9225 34.5537L29.9625 44.9397C29.6385 45.7677 29.2785 46.5777 29.0085 47.0637H31.9605C32.1045 46.3077 32.1765 46.0377 32.5005 45.1737L33.2205 43.2117H38.9805L39.7005 45.1737C39.8985 45.6957 40.0965 46.4697 40.2045 47.0637H43.1565ZM38.3325 41.1417H33.8685L35.7405 35.8137C35.7945 35.6517 35.7945 35.6517 36.0825 34.8057C36.2805 35.3997 36.3345 35.6157 36.4065 35.8137L38.3325 41.1417ZM44.7697 44.7417C44.7697 45.8217 44.7337 46.3797 44.6257 47.1177C45.3637 47.0817 45.8137 47.0637 46.9117 47.0637H50.1877C52.3117 47.0637 53.7517 46.5777 54.9037 45.4977C56.3077 44.1657 57.0277 42.2217 57.0277 39.7737C57.0277 37.4337 56.3437 35.5617 55.0297 34.3197C53.8777 33.2037 52.4197 32.7357 50.1697 32.7357H46.9117C45.7777 32.7357 45.3457 32.7177 44.6257 32.6817C44.7337 33.4737 44.7697 34.0137 44.7697 35.0217V44.7417ZM47.1637 44.9397V34.8597H50.0437C51.6097 34.8597 52.5457 35.1657 53.2837 35.9397C54.1117 36.8037 54.5257 38.0817 54.5257 39.7917C54.5257 41.4837 54.0757 42.8697 53.2117 43.7877C52.4557 44.5977 51.5017 44.9397 50.0257 44.9397H47.1637ZM69.3516 44.7957C68.5776 44.8857 68.0556 44.9217 67.0476 44.9217H61.6476V40.6737H66.0396C67.1556 40.6737 67.6416 40.6917 68.3796 40.7997V38.4417C67.5876 38.5317 66.9756 38.5677 66.0396 38.5677H61.6656V34.8597H66.8496C67.9116 34.8597 68.4876 34.8957 69.1716 34.9857V32.6097C68.3436 32.6997 67.7496 32.7357 66.8496 32.7357H61.4136C60.3156 32.7357 59.8476 32.7177 59.1276 32.6817C59.2356 33.5277 59.2716 34.0677 59.2716 35.0037V44.7417C59.2716 45.8037 59.2356 46.3977 59.1276 47.1177C59.8476 47.0817 60.3336 47.0637 61.4136 47.0637H67.0296C68.1276 47.0637 68.7036 47.0997 69.3516 47.1897V44.7957ZM80.1079 47.0637C80.2159 46.5237 80.5399 45.5157 80.8999 44.6697L83.5999 38.3337C83.8519 37.6857 84.1939 36.6777 84.4279 35.7057C84.4099 35.9757 84.3559 36.8937 84.2839 38.4597V44.4357C84.2839 45.6777 84.2479 46.3257 84.1399 47.0637H86.6599C86.5519 46.3977 86.5159 45.7497 86.5159 44.4357V35.3997C86.5159 34.1937 86.5519 33.5997 86.6599 32.7357H83.3479C83.2219 33.4197 83.0599 33.9957 82.6999 34.8777L79.0639 43.8057L75.4099 34.8777C75.1039 34.1217 74.8699 33.3657 74.7439 32.7357H71.4499C71.5579 33.4737 71.5939 34.2297 71.5939 35.3997V44.4357C71.5939 45.6417 71.5579 46.3437 71.4499 47.0637H73.9699C73.8619 46.3617 73.8259 45.6777 73.8259 44.4357V38.5317C73.8259 38.1357 73.7539 36.6597 73.6819 35.7057C74.0959 37.1637 74.2579 37.6497 74.5999 38.4597L77.1919 44.6337C77.6059 45.6417 77.8939 46.4877 77.9839 47.0637H80.1079ZM96.1334 47.0637C96.0254 46.3797 95.9894 45.6417 95.9894 44.7417V41.1957L100.147 34.5897C100.453 34.0857 101.137 33.0957 101.389 32.7357H98.2574C98.1314 33.2037 97.8614 33.7437 97.4114 34.5177L94.7654 38.9277L92.1554 34.4997C91.6694 33.7077 91.4354 33.2217 91.2914 32.7357H88.1414C88.7174 33.5637 89.1314 34.1577 89.4014 34.5897L93.5594 41.1777V44.7417C93.5594 45.6597 93.5054 46.3797 93.4154 47.0637H96.1334ZM105.22 34.9137C105.778 34.8417 106.12 34.8237 107.29 34.8237H113.644C114.814 34.8237 115.156 34.8417 115.714 34.9137V32.6997C115.12 32.8077 114.742 32.8257 113.608 32.8257H107.326C106.192 32.8257 105.814 32.8077 105.22 32.6997V34.9137ZM116.632 37.0017C116.074 37.1277 115.714 37.1637 114.598 37.1637H106.03C104.77 37.1637 104.374 37.1457 103.69 37.0377V39.2337C104.338 39.1617 104.788 39.1437 105.994 39.1437H114.76C113.968 41.1417 113.194 42.2397 111.862 43.3557C110.476 44.5077 109.054 45.1737 106.858 45.7317C107.65 46.6137 107.866 46.9197 108.262 47.8197C110.53 46.9737 111.7 46.3617 112.978 45.3717C114.85 43.9317 116.218 41.9337 117.154 39.2877C117.37 38.7297 117.478 38.4777 117.658 38.1537L116.632 37.0017ZM121.78 35.2917C123.454 36.2277 124.93 37.4157 126.37 38.9457L127.918 36.9837C126.532 35.6697 125.416 34.8417 123.274 33.5097L121.78 35.2917ZM122.41 47.1717C122.824 47.0277 122.878 47.0097 123.598 46.8657C126.388 46.2717 128.62 45.3897 130.456 44.1657C132.922 42.5277 134.632 40.4037 136.162 37.1097C135.244 36.4617 134.956 36.1917 134.254 35.3457C133.714 36.8037 133.21 37.7937 132.418 38.9457C130.996 40.9977 129.322 42.3837 127.072 43.3557C125.434 44.0757 123.292 44.5977 121.744 44.6877L122.41 47.1717ZM152.182 34.1937C151.768 34.3377 151.57 34.3737 150.868 34.3737L146.926 34.4277C146.584 34.4277 146.296 34.4457 146.062 34.4637C146.242 34.1397 146.242 34.1397 146.35 33.8877C146.53 33.5277 146.53 33.5277 146.584 33.4197C146.764 33.0057 146.764 33.0057 146.818 32.9157C147.016 32.5197 147.016 32.5197 147.124 32.3577L144.658 31.8717C144.586 32.5197 144.298 33.2217 143.74 34.2477C142.426 36.6237 141.13 38.0637 139.078 39.4677C140.014 40.0437 140.284 40.2777 140.824 41.0157C142.534 39.7017 143.938 38.1537 145.036 36.4077L150.454 36.3177C149.464 39.5397 147.772 42.0057 145.198 43.9137C144.064 44.7597 143.056 45.2997 141.256 46.0377C142.048 46.7217 142.282 47.0277 142.786 47.9277C145.558 46.6497 147.538 45.2457 149.194 43.3557C150.778 41.5737 152.056 39.1437 152.884 36.4077C153.082 35.7597 153.154 35.5977 153.334 35.3277L152.182 34.1937ZM159.022 34.3737C160.588 34.9137 162.19 35.7597 163.828 36.8577L164.98 34.8777C163.468 33.9597 162.046 33.2757 160.192 32.5557L159.022 34.3737ZM157.6 38.7477C159.436 39.4677 161.038 40.3317 162.478 41.3937L163.594 39.3597C162.046 38.3517 160.66 37.6497 158.806 36.9117L157.6 38.7477ZM158.626 47.4237C158.986 47.3157 159.238 47.2617 159.886 47.1357C164.314 46.2537 167.374 44.6517 169.66 42.0237C170.776 40.7097 171.532 39.4677 172.36 37.4697C171.496 36.8757 171.226 36.6417 170.488 35.8677C169.93 37.4697 169.372 38.5497 168.4 39.8457C166.96 41.7717 165.43 42.9417 163.198 43.8057C161.326 44.5257 159.364 44.9577 157.996 44.9757L158.626 47.4237ZM189.482 45.5697C187.304 43.4637 187.304 43.4637 186.854 43.0677C185.63 41.9697 184.658 41.2137 183.524 40.4577C184.622 38.9817 185.504 37.4157 186.332 35.4897C186.53 35.0397 186.674 34.7877 186.908 34.5177L185.72 33.2937C185.27 33.4557 185.126 33.4737 184.118 33.4917L177.782 33.5817C177.566 33.5817 177.422 33.5817 177.35 33.5817C176.612 33.5817 176.27 33.5637 175.766 33.4737L175.838 35.7777C176.45 35.6877 176.936 35.6517 177.8 35.6337C183.47 35.5437 183.47 35.5437 183.758 35.5257L183.56 35.9937C182.39 38.8017 180.23 41.4117 177.512 43.3197C176.162 44.2737 175.298 44.7597 173.912 45.2997C174.65 46.0737 174.866 46.3617 175.37 47.2977C178.124 45.9477 180.194 44.3637 182.228 42.0957C184.19 43.5897 186.26 45.6057 187.754 47.4417L189.482 45.5697ZM204.98 39.5037C206.204 39.5037 206.618 39.5217 207.266 39.5937V37.4517C206.582 37.5597 206.168 37.5777 204.944 37.5777H194.414C193.172 37.5777 192.776 37.5597 192.092 37.4517V39.5937C192.74 39.5217 193.154 39.5037 194.378 39.5037H198.77C198.716 40.9077 198.446 42.0777 197.978 42.9057C197.222 44.2917 195.872 45.2457 193.712 45.9117C194.486 46.6677 194.72 46.9737 195.17 47.8917C197.6 46.9197 198.914 45.9297 199.868 44.3457C200.642 43.0677 201.038 41.5737 201.128 39.5037H204.98ZM193.91 35.1117C194.504 35.0397 194.936 35.0217 196.196 35.0217H203.18C204.44 35.0217 204.872 35.0397 205.466 35.1117V32.9157C204.8 33.0237 204.44 33.0417 203.144 33.0417H196.232C194.936 33.0417 194.576 33.0237 193.91 32.9157V35.1117ZM214.653 32.2497C214.527 33.3117 214.185 34.5897 213.339 37.2357C212.403 40.1877 211.683 42.2217 210.729 44.4897C209.973 44.5257 209.541 44.5437 209.181 44.5437C208.965 44.5437 208.965 44.5437 208.713 44.5437L209.037 46.9737C209.397 46.8837 209.667 46.8477 210.675 46.7577C216.057 46.2357 219.045 45.8577 220.863 45.4797C221.277 45.3897 221.277 45.3897 221.511 45.3357C222.141 46.8297 222.141 46.8297 222.375 47.5677L224.553 46.4337C223.455 43.5717 221.871 40.5477 220.197 38.0997L218.163 38.8917C218.757 39.7377 219.081 40.2597 219.873 41.7537C220.305 42.5637 220.521 42.9597 220.719 43.3917C219.171 43.7157 216.057 44.0937 213.231 44.3097C214.383 41.5377 215.427 38.5497 216.795 34.0497C217.047 33.1857 217.065 33.1497 217.263 32.7537L214.653 32.2497Z" fill="url(#paint0_linear_1397_63)"/>
<defs>
<linearGradient id="paint0_linear_1397_63" x1="49.0179" y1="17.2436" x2="315.709" y2="38.0539" gradientUnits="userSpaceOnUse">
<stop stop-color="#FF4D77"/>
<stop offset="1" stop-color="#9E00D6"/>
</linearGradient>
</defs>
</svg>
