<svg width="315" height="84" viewBox="0 0 315 84" fill="none" xmlns="http://www.w3.org/2000/svg">
<path d="M0 18.6851V0.314916H8.45608C10.477 0.314916 12.2587 0.699815 13.801 1.46961C15.3433 2.22191 16.5487 3.28039 17.4174 4.64503C18.2861 6.00967 18.7204 7.62799 18.7204 9.5C18.7204 11.3545 18.2861 12.9728 17.4174 14.355C16.5487 15.7196 15.3433 16.7868 13.801 17.5566C12.2587 18.3089 10.477 18.6851 8.45608 18.6851H0ZM4.30782 15.1948H8.24335C9.48429 15.1948 10.5568 14.9673 11.4609 14.5124C12.3828 14.0401 13.0919 13.3752 13.5882 12.518C14.1023 11.6607 14.3594 10.6547 14.3594 9.5C14.3594 8.32781 14.1023 7.32182 13.5882 6.48204C13.0919 5.62477 12.3828 4.96869 11.4609 4.51381C10.5568 4.04144 9.48429 3.80525 8.24335 3.80525H4.30782V15.1948Z" fill="black"/>
<path d="M21.9222 18.6851L30.2187 0.314916H34.4733L42.7965 18.6851H38.2759L31.4685 2.46685H33.1703L26.3363 18.6851H21.9222ZM26.0704 14.7486L27.2139 11.5207H36.7868L37.9568 14.7486H26.0704Z" fill="black"/>
<path d="M47.3868 18.6851V0.314916H50.9501L61.9323 13.5414H60.2039V0.314916H64.4585V18.6851H60.9219L49.913 5.45856H51.6414V18.6851H47.3868Z" fill="black"/>
<path d="M80.4298 19C78.9939 19 77.6554 18.7726 76.4145 18.3177C75.1913 17.8453 74.1276 17.1805 73.2235 16.3232C72.3194 15.4659 71.6103 14.4599 71.0962 13.3052C70.5998 12.1506 70.3516 10.8821 70.3516 9.5C70.3516 8.11786 70.5998 6.84945 71.0962 5.69475C71.6103 4.54005 72.3194 3.53407 73.2235 2.6768C74.1454 1.81952 75.2179 1.16344 76.4411 0.708562C77.6643 0.236187 79.0027 0 80.4564 0C82.0696 0 83.5233 0.279926 84.8174 0.839779C86.1292 1.38214 87.2284 2.18692 88.1147 3.25414L85.3492 5.77348C84.711 5.05617 84.0019 4.52256 83.2219 4.17265C82.4419 3.80525 81.591 3.62155 80.6691 3.62155C79.8005 3.62155 79.0027 3.76151 78.2759 4.04144C77.5491 4.32136 76.9197 4.72376 76.3879 5.24862C75.8561 5.77348 75.4395 6.39457 75.1381 7.11188C74.8545 7.82919 74.7126 8.62523 74.7126 9.5C74.7126 10.3748 74.8545 11.1708 75.1381 11.8881C75.4395 12.6054 75.8561 13.2265 76.3879 13.7514C76.9197 14.2762 77.5491 14.6786 78.2759 14.9586C79.0027 15.2385 79.8005 15.3785 80.6691 15.3785C81.591 15.3785 82.4419 15.2035 83.2219 14.8536C84.0019 14.4862 84.711 13.9351 85.3492 13.2003L88.1147 15.7196C87.2284 16.7868 86.1292 17.6004 84.8174 18.1602C83.5233 18.7201 82.0608 19 80.4298 19Z" fill="black"/>
<path d="M97.6451 7.71547H106.606V11.0221H97.6451V7.71547ZM97.9642 15.2735H108.096V18.6851H93.6829V0.314916H107.75V3.72652H97.9642V15.2735Z" fill="black"/>
<path d="M113.837 14.0925L120.786 7.19352L122.523 8.98972L115.574 15.8887L113.837 14.0925ZM113.837 8.98972L115.574 7.19352L122.523 14.0925L120.786 15.8887L113.837 8.98972Z" fill="black"/>
<path d="M134.216 18.6851L126.185 0.314916H130.839L137.859 16.5856H135.12L142.246 0.314916H146.528L138.47 18.6851H134.216Z" fill="black"/>
<path d="M159.574 19C158.103 19 156.738 18.7638 155.479 18.2914C154.238 17.8191 153.157 17.1542 152.235 16.297C151.331 15.4397 150.622 14.4337 150.108 13.279C149.611 12.1243 149.363 10.8646 149.363 9.5C149.363 8.13536 149.611 6.87569 150.108 5.72099C150.622 4.5663 151.34 3.56031 152.262 2.70304C153.183 1.84576 154.265 1.18094 155.506 0.708562C156.747 0.236187 158.094 0 159.548 0C161.019 0 162.366 0.236187 163.59 0.708562C164.83 1.18094 165.903 1.84576 166.807 2.70304C167.729 3.56031 168.447 4.5663 168.961 5.72099C169.475 6.8582 169.732 8.11786 169.732 9.5C169.732 10.8646 169.475 12.1331 168.961 13.3052C168.447 14.4599 167.729 15.4659 166.807 16.3232C165.903 17.163 164.83 17.8191 163.59 18.2914C162.366 18.7638 161.028 19 159.574 19ZM159.548 15.3785C160.381 15.3785 161.143 15.2385 161.835 14.9586C162.544 14.6786 163.164 14.2762 163.696 13.7514C164.228 13.2265 164.635 12.6054 164.919 11.8881C165.22 11.1708 165.371 10.3748 165.371 9.5C165.371 8.62523 165.22 7.82919 164.919 7.11188C164.635 6.39457 164.228 5.77348 163.696 5.24862C163.182 4.72376 162.57 4.32136 161.861 4.04144C161.152 3.76151 160.381 3.62155 159.548 3.62155C158.714 3.62155 157.943 3.76151 157.234 4.04144C156.543 4.32136 155.931 4.72376 155.399 5.24862C154.868 5.77348 154.451 6.39457 154.15 7.11188C153.866 7.82919 153.724 8.62523 153.724 9.5C153.724 10.3573 153.866 11.1533 154.15 11.8881C154.451 12.6054 154.859 13.2265 155.373 13.7514C155.905 14.2762 156.525 14.6786 157.234 14.9586C157.943 15.2385 158.714 15.3785 159.548 15.3785Z" fill="black"/>
<path d="M184.537 19C183.101 19 181.763 18.7726 180.522 18.3177C179.298 17.8453 178.235 17.1805 177.331 16.3232C176.427 15.4659 175.717 14.4599 175.203 13.3052C174.707 12.1506 174.459 10.8821 174.459 9.5C174.459 8.11786 174.707 6.84945 175.203 5.69475C175.717 4.54005 176.427 3.53407 177.331 2.6768C178.253 1.81952 179.325 1.16344 180.548 0.708562C181.771 0.236187 183.11 0 184.564 0C186.177 0 187.63 0.279926 188.925 0.839779C190.236 1.38214 191.336 2.18692 192.222 3.25414L189.456 5.77348C188.818 5.05617 188.109 4.52256 187.329 4.17265C186.549 3.80525 185.698 3.62155 184.776 3.62155C183.908 3.62155 183.11 3.76151 182.383 4.04144C181.656 4.32136 181.027 4.72376 180.495 5.24862C179.963 5.77348 179.547 6.39457 179.245 7.11188C178.962 7.82919 178.82 8.62523 178.82 9.5C178.82 10.3748 178.962 11.1708 179.245 11.8881C179.547 12.6054 179.963 13.2265 180.495 13.7514C181.027 14.2762 181.656 14.6786 182.383 14.9586C183.11 15.2385 183.908 15.3785 184.776 15.3785C185.698 15.3785 186.549 15.2035 187.329 14.8536C188.109 14.4862 188.818 13.9351 189.456 13.2003L192.222 15.7196C191.336 16.7868 190.236 17.6004 188.925 18.1602C187.63 18.7201 186.168 19 184.537 19Z" fill="black"/>
<path d="M195.006 18.6851L203.303 0.314916H207.557L215.88 18.6851H211.36L204.552 2.46685H206.254L199.42 18.6851H195.006ZM199.154 14.7486L200.298 11.5207H209.871L211.041 14.7486H199.154Z" fill="black"/>
<path d="M220.471 18.6851V0.314916H224.779V15.221H234.112V18.6851H220.471Z" fill="black"/>
<path d="M238.833 14.0925L245.782 7.19352L247.519 8.98972L240.57 15.8887L238.833 14.0925ZM238.833 8.98972L240.57 7.19352L247.519 14.0925L245.782 15.8887L238.833 8.98972Z" fill="black"/>
<path d="M253.628 18.6851V0.314916H261.685C263.351 0.314916 264.787 0.586094 265.993 1.12845C267.198 1.65331 268.129 2.41436 268.785 3.4116C269.441 4.40884 269.769 5.59853 269.769 6.98066C269.769 8.3453 269.441 9.52624 268.785 10.5235C268.129 11.5032 267.198 12.2555 265.993 12.7804C264.787 13.3052 263.351 13.5677 261.685 13.5677H256.021L257.935 11.7044V18.6851H253.628ZM265.461 18.6851L260.807 12.0193H265.408L270.114 18.6851H265.461ZM257.935 12.1768L256.021 10.1823H261.445C262.775 10.1823 263.768 9.90239 264.424 9.34254C265.08 8.76519 265.408 7.9779 265.408 6.98066C265.408 5.96593 265.08 5.17864 264.424 4.61878C263.768 4.05893 262.775 3.77901 261.445 3.77901H256.021L257.935 1.75829V12.1768Z" fill="black"/>
<path d="M273.394 18.6851L281.691 0.314916H285.946L294.269 18.6851H289.748L282.941 2.46685H284.643L277.809 18.6851H273.394ZM277.543 14.7486L278.686 11.5207H288.259L289.429 14.7486H277.543Z" fill="black"/>
<path d="M298.859 18.6851V0.314916H306.916C308.583 0.314916 310.019 0.586094 311.224 1.12845C312.429 1.65331 313.36 2.41436 314.016 3.4116C314.672 4.40884 315 5.59853 315 6.98066C315 8.3453 314.672 9.52624 314.016 10.5235C313.36 11.5207 312.429 12.2905 311.224 12.8329C310.019 13.3577 308.583 13.6202 306.916 13.6202H301.252L303.167 11.7044V18.6851H298.859ZM303.167 12.1768L301.252 10.1561H306.677C308.006 10.1561 308.999 9.87615 309.655 9.3163C310.311 8.75645 310.639 7.9779 310.639 6.98066C310.639 5.96593 310.311 5.17864 309.655 4.61878C308.999 4.05893 308.006 3.77901 306.677 3.77901H301.252L303.167 1.75829V12.1768Z" fill="black"/>
<path d="M265.347 32C264.673 31.0678 264.389 30.6017 264.115 29.9237C263.757 29.0445 263.558 27.9852 263.558 27C263.558 26.0148 263.757 24.9555 264.115 24.0763C264.389 23.3983 264.673 22.9322 265.347 22H263.631C263.052 22.911 262.8 23.3771 262.547 24.0551C262.189 24.9873 262 26.0042 262 27C262 27.9958 262.189 29.0127 262.547 29.9449C262.8 30.6229 263.052 31.089 263.631 32H265.347Z" fill="black"/>
<path d="M271.314 30.8665C271.661 30.8242 271.966 30.803 272.44 30.803H273.944V30.9407C273.944 31.4068 273.934 31.6504 273.881 31.9682H275.26C275.218 31.6716 275.197 31.4174 275.197 30.9513V30.803H275.67C276.144 30.803 276.449 30.8136 276.817 30.8665V29.6589C276.512 29.7013 276.197 29.7225 275.691 29.7225H275.197V29.1928H275.491C276.007 29.1928 276.218 29.2034 276.502 29.2352V28.1864C276.218 28.2182 275.944 28.2288 275.491 28.2288H275.197V27.8157H275.481C275.954 27.8157 276.06 27.8157 276.344 27.8369C276.323 27.6356 276.312 27.4661 276.312 27.1271V26.3432C276.312 25.9936 276.323 25.8242 276.344 25.6123C276.133 25.6335 275.954 25.6441 275.481 25.6441H272.64C272.176 25.6441 271.977 25.6441 271.766 25.6229C271.798 25.8559 271.798 25.9195 271.798 26.3326V27.1271C271.798 27.5614 271.798 27.5932 271.766 27.8369C272.019 27.8157 272.134 27.8157 272.64 27.8157H273.944V28.2288H272.776C272.113 28.2288 271.966 28.2288 271.724 28.197C271.756 28.4936 271.766 28.6737 271.766 29.2034V29.7225C271.587 29.7225 271.577 29.7225 271.44 29.7119V29.2564C271.135 29.2987 270.893 29.3093 270.419 29.3093H269.988V28.7161H270.282C270.85 28.7161 270.977 28.7161 271.261 28.7373C271.24 28.4725 271.229 28.2818 271.229 27.6674V25.8136C271.229 25.1886 271.229 25.0191 271.261 24.7436C270.966 24.7648 270.872 24.7648 270.261 24.7648H269.988V24.214H270.482C270.924 24.214 271.135 24.2246 271.429 24.2564V22.9852C271.103 23.0381 270.861 23.0487 270.43 23.0487H269.988V22.9428C269.988 22.572 270.009 22.3602 270.051 22.0953H268.714C268.756 22.3602 268.777 22.5826 268.777 22.9322V23.0487H268.241C267.799 23.0487 267.514 23.0275 267.199 22.9852V24.2669C267.472 24.2246 267.767 24.214 268.251 24.214H268.777V24.7648H268.483C267.925 24.7648 267.693 24.7542 267.472 24.7331C267.504 25.1038 267.514 25.3898 267.514 25.9089V27.6038C267.514 28.1123 267.504 28.3877 267.472 28.7479C267.756 28.7267 267.988 28.7161 268.483 28.7161H268.777V29.3093H268.241C267.767 29.3093 267.451 29.2881 267.136 29.2458V30.5593C267.462 30.5169 267.767 30.4958 268.22 30.4958H268.777V30.8136C268.777 31.3856 268.767 31.6081 268.714 31.9682H270.051C269.998 31.6292 269.988 31.4068 269.988 30.8136V30.4958H270.43C270.766 30.4958 271.05 30.5064 271.314 30.5381V30.8665ZM272.945 29.7225V29.1928H273.944V29.7225H272.945ZM268.683 25.7288H270.072V26.2585H268.683V25.7288ZM268.683 27.2013H270.072V27.7415H268.683V27.2013ZM273.029 26.4703H275.07V26.9576H273.029V26.4703ZM272.303 24.2987C271.903 24.2987 271.671 24.2881 271.461 24.2458V25.3369C271.766 25.3051 271.945 25.2945 272.482 25.2945H275.723C276.228 25.2945 276.449 25.3051 276.796 25.3475V24.2458C276.554 24.2881 276.418 24.2987 276.028 24.2987V23.7903C276.028 23.3136 276.039 23.0911 276.07 22.7521C275.733 22.7839 275.491 22.7945 274.997 22.7945H274.218C274.323 22.3814 274.386 22.1483 274.397 22.1059L273.071 22.0212C273.039 22.2754 273.029 22.3602 272.924 22.7945H272.692C272.303 22.7945 272.103 22.7839 271.766 22.7415V23.7797C272.029 23.7585 272.176 23.7479 272.492 23.7479H272.661C272.597 23.928 272.555 24.0233 272.45 24.2987H272.303ZM273.744 24.2987C273.85 24.0021 273.86 23.9809 273.934 23.7479H274.818V24.2987H273.744Z" fill="black"/>
<path d="M282.763 25.3475V26.2161H281.964C281.5 26.2161 281.343 26.2055 281.08 26.1631V27.4025C281.343 27.3602 281.522 27.3496 281.964 27.3496H282.763V28.4089H281.648C281.174 28.4089 280.964 28.3983 280.669 28.3559V29.6165C280.943 29.5742 281.143 29.5636 281.648 29.5636H285.352C285.794 29.5636 286.036 29.5742 286.331 29.6165V28.3559C286.036 28.3983 285.836 28.4089 285.352 28.4089H285.142L285.878 28.1017C285.657 27.6568 285.636 27.6356 285.436 27.3602C285.647 27.3602 285.742 27.3708 285.92 27.4025V26.1631C285.668 26.2055 285.51 26.2161 285.047 26.2161H284.079V25.3475H285.268C285.731 25.3475 285.942 25.3581 286.226 25.4004V24.1504C285.963 24.1928 285.742 24.2034 285.257 24.2034H281.753C281.269 24.2034 281.08 24.1928 280.806 24.1504V25.4004C281.111 25.3581 281.29 25.3475 281.753 25.3475H282.763ZM284.079 27.3496H285.173L284.51 27.625C284.658 27.8369 284.805 28.0805 284.942 28.4089H284.079V27.3496ZM278.922 30.5064C278.922 31.2267 278.901 31.5975 278.859 31.9258H280.28V31.3432H286.731V31.9258H288.141C288.099 31.5763 288.078 31.1843 288.078 30.5064V23.6314C288.078 23.1017 288.088 22.7627 288.13 22.3708C287.752 22.4131 287.394 22.4237 286.899 22.4237H280.101C279.522 22.4237 279.217 22.4131 278.859 22.3814C278.901 22.8263 278.922 23.197 278.922 23.6419V30.5064ZM280.28 23.6631H286.72V30.1144H280.28V23.6631Z" fill="black"/>
<path d="M295.129 26.2903C294.603 26.2903 294.392 26.2797 294.087 26.2373V27.5191C294.403 27.4873 294.634 27.4767 295.129 27.4767H299.044C299.517 27.4767 299.738 27.4873 300.075 27.5297V26.2373C299.77 26.2797 299.643 26.2903 299.212 26.2903V24.9767C299.212 24.6165 299.222 24.4047 299.244 24.2034C299.012 24.2246 298.812 24.2352 298.444 24.2352H297.181C297.202 24.1504 297.265 23.9174 297.349 23.536H298.78C299.317 23.536 299.58 23.5466 299.928 23.5784V22.286C299.612 22.3284 299.222 22.3496 298.707 22.3496H295.539C295.066 22.3496 294.697 22.3284 294.308 22.286V23.5784C294.645 23.5466 294.908 23.536 295.434 23.536H296.034C295.95 23.9068 295.939 23.9597 295.865 24.2352H295.36C294.981 24.2352 294.781 24.2246 294.539 24.1928V25.4428C294.781 25.411 295.023 25.4004 295.318 25.4004H295.529C295.413 25.7712 295.381 25.8453 295.223 26.2903H295.129ZM296.56 26.2903C296.707 25.8665 296.728 25.8136 296.855 25.4004H297.918V26.2903H296.56ZM290.614 23.3983C290.877 23.3771 291.13 23.3665 291.53 23.3665H292.961C293.445 23.3665 293.508 23.3665 293.876 23.3983V22.2754C293.603 22.3072 293.413 22.3178 292.961 22.3178H291.53C291.077 22.3178 290.877 22.3072 290.614 22.2754V23.3983ZM290.277 25.0085C290.519 24.9767 290.751 24.9661 291.13 24.9661H293.224C293.729 24.9661 293.834 24.9661 294.076 24.9979V23.7373C293.961 23.7903 293.803 23.8008 293.192 23.8008H291.13C290.73 23.8008 290.53 23.7903 290.277 23.7479V25.0085ZM290.635 26.4915C290.856 26.4597 290.972 26.4597 291.298 26.4597H293.224C293.561 26.4597 293.624 26.4597 293.866 26.4915V25.4004C293.687 25.4322 293.582 25.4322 293.224 25.4322H291.298C290.961 25.4322 290.846 25.4322 290.635 25.4004V26.4915ZM290.635 27.9852C290.835 27.964 290.972 27.9534 291.288 27.9534H293.203C293.561 27.9534 293.634 27.9534 293.866 27.9852V26.8941C293.666 26.9258 293.55 26.9258 293.224 26.9258H291.298C290.972 26.9258 290.835 26.9153 290.635 26.8941V27.9852ZM291.814 31.4492H292.761V31.7775H293.971C293.95 31.5127 293.94 31.375 293.94 30.9725V29.1292C293.94 28.7161 293.94 28.589 293.961 28.3877C293.792 28.4195 293.676 28.4195 293.287 28.4195H291.34C291.014 28.4195 290.782 28.4089 290.54 28.3877C290.572 28.6419 290.582 28.875 290.582 29.2034V30.8877C290.582 31.2373 290.561 31.6081 290.53 31.9258H291.814V31.4492ZM291.803 29.4364H292.761V30.3581H291.803V29.4364ZM295.886 31.4809H298.254V31.9258H299.601C299.57 31.6716 299.549 31.322 299.549 30.8453V28.8008C299.549 28.4619 299.559 28.2288 299.58 27.9852C299.412 28.0064 299.233 28.0169 298.77 28.0169H295.434C295.023 28.0169 294.813 28.0064 294.56 27.9852C294.581 28.197 294.592 28.3877 294.592 28.6737V30.8347C294.592 31.2585 294.581 31.6081 294.55 31.9364H295.886V31.4809ZM295.886 29.1716H298.254V30.2627H295.886V29.1716Z" fill="black"/>
<path d="M303.369 32C303.948 31.089 304.2 30.6229 304.453 29.9449C304.811 29.0127 305 28.0064 305 27C305 25.9936 304.811 24.9873 304.453 24.0551C304.2 23.3771 303.948 22.911 303.369 22H301.653C302.327 22.9322 302.611 23.3983 302.885 24.0763C303.243 24.9555 303.442 26.0148 303.442 27C303.442 27.9852 303.243 29.0445 302.885 29.9237C302.611 30.6017 302.327 31.0678 301.653 32H303.369Z" fill="black"/>
<path d="M2.873 57.479V46.65H0.68V45.494H2.873V42.451H4.199V45.494H12.325V42.451H13.634V45.494H16.32V46.65H13.634V52.345H7.327V42.451H8.619V51.274H12.325V46.65H4.199V55.065H15.419V56.221H4.199V57.479H2.873ZM19.244 49.914V42.689H31.756V49.914H20.57V48.86H24.854V43.76H26.146V48.86H30.43V46.735H20.57V45.749H30.43V43.76H20.57V49.914H19.244ZM18.785 57.445L18.309 56.323C19.0343 56.119 19.6407 55.9037 20.128 55.677C20.6153 55.439 21.0007 55.1613 21.284 54.844C21.5673 54.5267 21.7657 54.1527 21.879 53.722C22.0037 53.28 22.066 52.7643 22.066 52.175V51.529H23.375V52.175C23.375 53.1497 23.222 53.977 22.916 54.657C22.61 55.337 22.1227 55.898 21.454 56.34C20.7853 56.7933 19.8957 57.1617 18.785 57.445ZM18.105 53.875L17.612 52.685C18.4847 52.3563 19.3007 52.005 20.06 51.631C20.8193 51.2457 21.539 50.832 22.219 50.39C22.899 49.948 23.545 49.4777 24.157 48.979L24.99 49.574C24.038 50.4693 22.9897 51.2797 21.845 52.005C20.7003 52.719 19.4537 53.3423 18.105 53.875ZM27.88 57.275V51.614H29.24V57.275H27.88ZM32.895 53.875C31.5463 53.3423 30.2997 52.719 29.155 52.005C28.0217 51.2797 26.9733 50.4693 26.01 49.574L26.843 48.979C27.4663 49.4777 28.1123 49.948 28.781 50.39C29.461 50.832 30.1807 51.2457 30.94 51.631C31.7107 52.005 32.5267 52.3563 33.388 52.685L32.895 53.875ZM44.064 53.62C44.064 52.226 43.9677 51.104 43.775 50.254C43.5823 49.3927 43.2763 48.7693 42.857 48.384C42.4377 47.9987 41.888 47.806 41.208 47.806C40.6187 47.806 40.0577 47.9533 39.525 48.248C39.0037 48.5313 38.471 48.9903 37.927 49.625C37.3943 50.2597 36.7993 51.1097 36.142 52.175L35.054 51.546C35.6207 50.6507 36.125 49.8233 36.567 49.064C37.009 48.2933 37.4113 47.5453 37.774 46.82C38.148 46.0947 38.488 45.358 38.794 44.61C39.1113 43.8507 39.4173 43.0347 39.712 42.162L40.987 42.4C40.613 43.5107 40.2107 44.5363 39.78 45.477C39.3607 46.4177 38.8847 47.3697 38.352 48.333L37.927 48.129C38.4823 47.6643 39.0603 47.3187 39.661 47.092C40.273 46.854 40.902 46.735 41.548 46.735C42.4547 46.735 43.1857 46.9673 43.741 47.432C44.3077 47.8967 44.7213 48.639 44.982 49.659C45.2427 50.6677 45.373 51.988 45.373 53.62H44.064ZM43.639 56.85C41.905 56.85 40.5507 56.6007 39.576 56.102C38.6013 55.6033 38.114 54.9177 38.114 54.045C38.114 53.4217 38.369 52.7927 38.879 52.158C39.389 51.5233 40.1143 50.9227 41.055 50.356C41.9957 49.778 43.1177 49.2397 44.421 48.741C45.7357 48.2423 47.1977 47.8117 48.807 47.449L49.011 48.554C47.583 48.8827 46.2853 49.2623 45.118 49.693C43.9507 50.1123 42.942 50.5657 42.092 51.053C41.242 51.529 40.5847 52.0163 40.12 52.515C39.6553 53.0023 39.423 53.4727 39.423 53.926C39.423 54.4927 39.7913 54.9347 40.528 55.252C41.2647 55.5693 42.3017 55.728 43.639 55.728C44.3757 55.728 45.1803 55.6827 46.053 55.592C46.9257 55.5013 47.8097 55.3653 48.705 55.184L48.892 56.306C48.3367 56.408 47.753 56.4987 47.141 56.578C46.529 56.6573 45.9227 56.7197 45.322 56.765C44.7213 56.8217 44.1603 56.85 43.639 56.85ZM35.037 45.137V44.083H48.467V45.137H35.037ZM53.295 57.309V42.859H65.705V57.309H64.379V56.391H54.621V55.286H64.379V52.209H54.621V51.087H64.379V48.061H54.621V46.956H64.379V43.981H54.621V57.309H53.295ZM70.771 57.241C70.5897 57.241 70.3573 57.2297 70.074 57.207C69.7907 57.1957 69.462 57.1787 69.088 57.156L69.054 56.068C69.4053 56.0907 69.717 56.1077 69.989 56.119C70.261 56.1303 70.4707 56.136 70.618 56.136C70.7653 56.136 70.8673 56.119 70.924 56.085C70.9807 56.0623 71.0147 55.983 71.026 55.847C71.0373 55.711 71.043 55.4787 71.043 55.15V46.395H68.918V45.273H71.043V42.281H72.352V45.273H74.307V46.395H72.352V55.099C72.352 55.5863 72.335 55.9717 72.301 56.255C72.267 56.5383 72.199 56.7537 72.097 56.901C71.995 57.0483 71.8363 57.139 71.621 57.173C71.4057 57.2183 71.1223 57.241 70.771 57.241ZM69.003 52.379L68.901 51.189C69.513 51.053 70.125 50.9 70.737 50.73C71.349 50.56 71.9497 50.3787 72.539 50.186C73.1283 49.982 73.6893 49.7667 74.222 49.54L74.443 50.662C73.8877 50.8887 73.304 51.1097 72.692 51.325C72.08 51.5403 71.4623 51.7387 70.839 51.92C70.2157 52.09 69.6037 52.243 69.003 52.379ZM75.055 57.36V49.455H83.589V57.36H82.263V56.629H76.381V55.524H82.263V53.535H76.381V52.498H82.263V50.577H76.381V57.36H75.055ZM79.169 48.299C78.8177 48.299 78.455 48.299 78.081 48.299C77.7183 48.2877 77.3613 48.2763 77.01 48.265C76.5567 48.2537 76.194 48.231 75.922 48.197C75.65 48.163 75.4403 48.1007 75.293 48.01C75.1457 47.9193 75.0437 47.789 74.987 47.619C74.9417 47.449 74.919 47.2223 74.919 46.939V42.451H76.211V46.565C76.211 46.7463 76.228 46.8823 76.262 46.973C76.296 47.0523 76.3867 47.1033 76.534 47.126C76.6927 47.1373 76.9533 47.1487 77.316 47.16C77.622 47.1713 77.9223 47.1827 78.217 47.194C78.5117 47.194 78.8063 47.194 79.101 47.194C79.407 47.194 79.696 47.194 79.968 47.194C80.2513 47.1827 80.5517 47.1713 80.869 47.16C81.311 47.1487 81.6567 47.126 81.906 47.092C82.1553 47.058 82.3367 46.973 82.45 46.837C82.5747 46.701 82.654 46.4913 82.688 46.208C82.7333 45.9133 82.7787 45.4997 82.824 44.967L84.082 45.069C84.048 45.7943 83.9913 46.3723 83.912 46.803C83.8327 47.2223 83.7023 47.5397 83.521 47.755C83.3397 47.959 83.0733 48.095 82.722 48.163C82.3707 48.2197 81.9003 48.2537 81.311 48.265C80.9483 48.2763 80.5913 48.2877 80.24 48.299C79.8887 48.299 79.5317 48.299 79.169 48.299ZM75.65 45.528L75.378 44.44C76.806 44.2247 78.166 43.9753 79.458 43.692C80.75 43.4087 82.0703 43.0743 83.419 42.689L83.827 43.777C82.4897 44.1623 81.1523 44.4967 79.815 44.78C78.489 45.0633 77.1007 45.3127 75.65 45.528ZM94.384 56.51C93.228 56.51 92.276 56.4533 91.528 56.34C90.7913 56.2267 90.219 56.0227 89.811 55.728C89.403 55.4333 89.1197 55.0197 88.961 54.487C88.8023 53.9543 88.723 53.2687 88.723 52.43V42.859H90.032V52.43C90.032 53.0533 90.083 53.5577 90.185 53.943C90.287 54.3283 90.491 54.623 90.797 54.827C91.103 55.031 91.545 55.167 92.123 55.235C92.701 55.303 93.4547 55.337 94.384 55.337C95.302 55.337 96.22 55.3143 97.138 55.269C98.056 55.2123 98.9173 55.133 99.722 55.031L99.841 56.187C99.0137 56.3003 98.124 56.3797 97.172 56.425C96.2313 56.4817 95.302 56.51 94.384 56.51ZM85.561 47.024V45.885L101.439 45.545V46.684L85.561 47.024ZM96.611 52.277C96.305 52.277 95.948 52.2487 95.54 52.192C95.132 52.124 94.7013 52.0277 94.248 51.903C93.806 51.7783 93.3413 51.631 92.854 51.461L93.211 50.322C93.7777 50.492 94.248 50.628 94.622 50.73C95.0073 50.832 95.3303 50.9057 95.591 50.951C95.863 50.9963 96.1123 51.019 96.339 51.019C96.5883 51.019 96.7527 50.9623 96.832 50.849C96.9113 50.7357 96.951 50.4637 96.951 50.033V42.519H98.277V50.407C98.277 50.8603 98.2203 51.2287 98.107 51.512C98.005 51.784 97.835 51.9823 97.597 52.107C97.359 52.2203 97.0303 52.277 96.611 52.277ZM110.058 56.901C108.426 56.901 107.162 56.646 106.267 56.136C105.372 55.6373 104.924 54.9233 104.924 53.994C104.924 53.2007 105.253 52.583 105.91 52.141C106.567 51.6877 107.474 51.461 108.63 51.461C109.763 51.461 110.619 51.6763 111.197 52.107C111.775 52.5377 112.064 53.1667 112.064 53.994C112.064 54.3113 112.019 54.6457 111.928 54.997C111.837 55.3483 111.69 55.7393 111.486 56.17L110.228 55.983C110.432 55.5523 110.574 55.1897 110.653 54.895C110.744 54.6003 110.789 54.334 110.789 54.096C110.789 53.0647 110.041 52.549 108.545 52.549C107.808 52.549 107.236 52.6737 106.828 52.923C106.431 53.1723 106.233 53.5237 106.233 53.977C106.233 54.5663 106.556 55.0253 107.202 55.354C107.859 55.6827 108.766 55.847 109.922 55.847C111.905 55.847 113.396 55.541 114.393 54.929C115.39 54.3057 115.889 53.382 115.889 52.158C115.889 51.104 115.504 50.3163 114.733 49.795C113.962 49.2737 112.789 49.013 111.214 49.013C110.353 49.013 109.548 49.1093 108.8 49.302C108.052 49.4947 107.366 49.7837 106.743 50.169L104.38 51.614L103.836 50.594L114.291 44.355V44.661H104.805V43.539H116.059V44.661L108.205 49.285L107.525 48.758C107.842 48.6333 108.182 48.5257 108.545 48.435C108.919 48.333 109.299 48.248 109.684 48.18C110.069 48.112 110.443 48.061 110.806 48.027C111.169 47.9817 111.509 47.959 111.826 47.959C113.56 47.959 114.892 48.316 115.821 49.03C116.75 49.744 117.215 50.764 117.215 52.09C117.215 53.6313 116.597 54.8213 115.362 55.66C114.127 56.4873 112.359 56.901 110.058 56.901ZM131.359 56.289C131.019 56.289 130.611 56.272 130.135 56.238C129.659 56.2153 129.166 56.1757 128.656 56.119C128.157 56.0737 127.693 56.0227 127.262 55.966L127.381 54.742C127.721 54.7987 128.118 54.8497 128.571 54.895C129.024 54.929 129.472 54.963 129.914 54.997C130.367 55.0197 130.736 55.031 131.019 55.031C131.348 55.031 131.614 54.98 131.818 54.878C132.033 54.776 132.209 54.5607 132.345 54.232C132.481 53.892 132.583 53.382 132.651 52.702C132.719 52.0107 132.77 51.087 132.804 49.931C132.838 48.7637 132.855 47.2903 132.855 45.511L133.535 46.191H120.428V45.001H134.164V45.63C134.164 47.5113 134.147 49.0867 134.113 50.356C134.079 51.6253 134.005 52.6567 133.892 53.45C133.79 54.232 133.631 54.8327 133.416 55.252C133.212 55.66 132.94 55.932 132.6 56.068C132.271 56.2153 131.858 56.289 131.359 56.289ZM120.496 55.66C121.233 55.1387 121.862 54.5947 122.383 54.028C122.916 53.4613 123.358 52.8267 123.709 52.124C124.072 51.4213 124.355 50.6053 124.559 49.676C124.763 48.7467 124.905 47.6643 124.984 46.429C125.075 45.1937 125.12 43.7543 125.12 42.111H126.395C126.395 43.811 126.344 45.3183 126.242 46.633C126.14 47.9363 125.97 49.0923 125.732 50.101C125.505 51.1097 125.199 51.9993 124.814 52.77C124.429 53.5407 123.947 54.2377 123.369 54.861C122.802 55.4843 122.128 56.068 121.346 56.612L120.496 55.66ZM139.774 55.456C141.44 55.4107 142.845 55.2463 143.99 54.963C145.146 54.6797 146.075 54.2547 146.778 53.688C147.481 53.11 147.991 52.3677 148.308 51.461C148.625 50.5543 148.784 49.4493 148.784 48.146V42.961H150.178V48.129C150.178 49.625 149.985 50.9057 149.6 51.971C149.226 53.0363 148.631 53.909 147.815 54.589C146.999 55.269 145.939 55.7733 144.636 56.102C143.344 56.442 141.769 56.6347 139.91 56.68L139.774 55.456ZM138.958 50.73V42.961H140.335V50.73H138.958ZM161.398 57.411L160.242 42.468L161.602 42.349L162.758 57.292L161.398 57.411ZM154.088 52.838L154.054 51.648L168.912 51.036L168.946 52.226L154.088 52.838ZM154.768 46.667L154.734 45.477L168.232 44.984L168.266 46.174L154.768 46.667ZM180.319 55.524L180.965 47.092L181.424 47.619H173.791V46.429H182.359L181.679 55.541L180.319 55.524ZM172.567 56.051V54.861H184.433V56.051H172.567ZM190.672 55.405C192.973 55.2917 194.877 54.963 196.384 54.419C197.903 53.8637 199.036 53.093 199.784 52.107C200.543 51.1097 200.923 49.897 200.923 48.469L201.535 49.081H188.615V47.891H202.249V48.469C202.249 50.951 201.286 52.8833 199.359 54.266C197.432 55.6373 194.605 56.4137 190.876 56.595L190.672 55.405ZM189.805 44.746V43.556H201.195V44.746H189.805ZM206.601 55.286C207.338 53.4613 208.029 51.512 208.675 49.438C209.321 47.364 209.893 45.2617 210.392 43.131L211.718 43.369C211.219 45.5223 210.641 47.653 209.984 49.761C209.327 51.869 208.613 53.8693 207.842 55.762L206.601 55.286ZM204.765 55.031C206.896 54.9403 209.1 54.7817 211.378 54.555C213.656 54.3283 216.019 54.0223 218.467 53.637L218.654 54.827C216.172 55.2123 213.781 55.524 211.48 55.762C209.179 55.9887 206.952 56.1417 204.799 56.221L204.765 55.031ZM218.858 56.714C218.529 55.864 218.155 55.0027 217.736 54.13C217.328 53.2573 216.909 52.413 216.478 51.597C216.047 50.781 215.628 50.0443 215.22 49.387L216.393 48.826C216.812 49.506 217.243 50.2597 217.685 51.087C218.127 51.9143 218.552 52.77 218.96 53.654C219.379 54.538 219.753 55.3937 220.082 56.221L218.858 56.714ZM222.173 56.323C222.615 55.3143 223.006 54.3623 223.346 53.467C223.697 52.5717 224.015 51.699 224.298 50.849C224.593 49.999 224.853 49.132 225.08 48.248C225.318 47.364 225.539 46.4347 225.743 45.46C225.958 44.4853 226.162 43.4257 226.355 42.281L227.613 42.451C227.432 43.573 227.239 44.627 227.035 45.613C226.831 46.5877 226.604 47.5283 226.355 48.435C226.117 49.3303 225.851 50.22 225.556 51.104C225.261 51.988 224.933 52.8947 224.57 53.824C224.219 54.742 223.822 55.711 223.38 56.731L222.173 56.323ZM236.147 54.147C236.034 53.4557 235.875 52.719 235.671 51.937C235.478 51.1437 235.257 50.3503 235.008 49.557C234.759 48.7523 234.492 47.9817 234.209 47.245L235.416 46.837C235.699 47.5963 235.971 48.384 236.232 49.2C236.493 50.016 236.719 50.8263 236.912 51.631C237.116 52.4357 237.28 53.2007 237.405 53.926L236.147 54.147ZM234.158 46.191C233.863 45.5677 233.574 45.0123 233.291 44.525C233.008 44.0377 232.696 43.5673 232.356 43.114L233.325 42.536C233.688 43.012 234.011 43.5107 234.294 44.032C234.589 44.542 234.878 45.0973 235.161 45.698L234.158 46.191ZM236.453 45.273C236.17 44.6383 235.886 44.0773 235.603 43.59C235.331 43.0913 235.025 42.621 234.685 42.179L235.654 41.635C236.017 42.1223 236.34 42.6267 236.623 43.148C236.918 43.658 237.201 44.2133 237.473 44.814L236.453 45.273ZM229.976 56.391C229.704 56.391 229.347 56.3457 228.905 56.255C228.463 56.1757 227.993 56.0623 227.494 55.915C227.007 55.7677 226.542 55.609 226.1 55.439L226.423 54.317C226.808 54.453 227.211 54.589 227.63 54.725C228.061 54.8497 228.457 54.9517 228.82 55.031C229.183 55.1103 229.46 55.15 229.653 55.15C230.084 55.15 230.446 54.9403 230.741 54.521C231.047 54.0903 231.279 53.4613 231.438 52.634C231.608 51.8067 231.693 50.798 231.693 49.608C231.693 48.8827 231.665 48.299 231.608 47.857C231.551 47.415 231.438 47.0863 231.268 46.871C231.109 46.6557 230.854 46.514 230.503 46.446C230.152 46.378 229.681 46.344 229.092 46.344H221.901V45.188H228.99C229.715 45.188 230.316 45.2163 230.792 45.273C231.279 45.3297 231.665 45.443 231.948 45.613C232.243 45.783 232.464 46.038 232.611 46.378C232.77 46.7067 232.872 47.1487 232.917 47.704C232.962 48.248 232.985 48.928 232.985 49.744C232.985 51.172 232.872 52.379 232.645 53.365C232.418 54.351 232.078 55.1047 231.625 55.626C231.183 56.136 230.633 56.391 229.976 56.391ZM8.67 82.476C7.378 82.476 6.24467 82.3343 5.27 82.051C4.30667 81.7677 3.553 81.3653 3.009 80.844C2.47633 80.3227 2.21 79.7163 2.21 79.025C2.21 78.447 2.40267 77.8237 2.788 77.155C3.17333 76.475 3.76267 75.727 4.556 74.911L5.627 75.591C4.947 76.271 4.437 76.8887 4.097 77.444C3.757 77.9993 3.587 78.4867 3.587 78.906C3.587 79.3707 3.79667 79.7843 4.216 80.147C4.64667 80.5097 5.24167 80.793 6.001 80.997C6.77167 81.1897 7.66133 81.286 8.67 81.286C9.27067 81.286 9.91667 81.2577 10.608 81.201C11.3107 81.133 11.985 81.0423 12.631 80.929C13.277 80.8157 13.821 80.691 14.263 80.555L14.552 81.728C14.0987 81.8753 13.5377 82.0057 12.869 82.119C12.2003 82.2323 11.4977 82.3173 10.761 82.374C10.0243 82.442 9.32733 82.476 8.67 82.476ZM3.06 70.984V69.794H14.11V70.984H3.06ZM25.67 82.476C24.378 82.476 23.2447 82.3343 22.27 82.051C21.3067 81.7677 20.553 81.3653 20.009 80.844C19.4763 80.3227 19.21 79.7163 19.21 79.025C19.21 78.447 19.4027 77.8237 19.788 77.155C20.1733 76.475 20.7627 75.727 21.556 74.911L22.627 75.591C21.947 76.271 21.437 76.8887 21.097 77.444C20.757 77.9993 20.587 78.4867 20.587 78.906C20.587 79.3707 20.7967 79.7843 21.216 80.147C21.6467 80.5097 22.2417 80.793 23.001 80.997C23.7717 81.1897 24.6613 81.286 25.67 81.286C26.2707 81.286 26.9167 81.2577 27.608 81.201C28.3107 81.133 28.985 81.0423 29.631 80.929C30.277 80.8157 30.821 80.691 31.263 80.555L31.552 81.728C31.0987 81.8753 30.5377 82.0057 29.869 82.119C29.2003 82.2323 28.4977 82.3173 27.761 82.374C27.0243 82.442 26.3273 82.476 25.67 82.476ZM20.06 70.984V69.794H31.11V70.984H20.06ZM45.186 82C44.1433 82 43.2253 81.8697 42.432 81.609C41.6387 81.337 41.0153 80.963 40.562 80.487C40.12 80.011 39.899 79.467 39.899 78.855C39.899 77.733 40.681 76.594 42.245 75.438L43.146 76.186C42.4773 76.6733 41.9843 77.1267 41.667 77.546C41.3497 77.9653 41.191 78.3733 41.191 78.77C41.191 79.178 41.3553 79.535 41.684 79.841C42.0127 80.147 42.4773 80.385 43.078 80.555C43.6787 80.725 44.3813 80.81 45.186 80.81C45.7867 80.81 46.4383 80.7647 47.141 80.674C47.8437 80.5833 48.535 80.4643 49.215 80.317L49.419 81.49C48.7163 81.6487 48.0023 81.7733 47.277 81.864C46.5517 81.9547 45.8547 82 45.186 82ZM40.647 71.46V70.27H49.334V71.46H40.647ZM36.839 82.85C36.5443 81.694 36.329 80.5607 36.193 79.45C36.057 78.3393 35.989 77.1493 35.989 75.88C35.989 74.6333 36.057 73.4547 36.193 72.344C36.329 71.2333 36.5443 70.0943 36.839 68.927L38.131 69.114C37.8477 70.236 37.638 71.3467 37.502 72.446C37.3773 73.534 37.315 74.6787 37.315 75.88C37.315 77.0927 37.3773 78.2487 37.502 79.348C37.638 80.436 37.8477 81.5297 38.131 82.629L36.839 82.85ZM57.052 80.538V74.163V68.264H58.31V74.163V80.538H57.052ZM52.751 71.494V70.406H66.249V71.494H52.751ZM61.166 81.694C61.948 81.5807 62.6337 81.3483 63.223 80.997C63.8123 80.6343 64.2657 80.1867 64.583 79.654C64.9117 79.11 65.076 78.515 65.076 77.869C65.076 77.1437 64.8663 76.5147 64.447 75.982C64.039 75.438 63.4553 75.0187 62.696 74.724C61.948 74.4293 61.0583 74.282 60.027 74.282C59.1657 74.282 58.361 74.4067 57.613 74.656C56.8763 74.9053 56.2247 75.251 55.658 75.693C55.1027 76.135 54.672 76.6507 54.366 77.24C54.06 77.8293 53.907 78.4697 53.907 79.161C53.907 79.7163 54.009 80.1697 54.213 80.521C54.4283 80.8723 54.7117 81.048 55.063 81.048C55.369 81.048 55.76 80.9233 56.236 80.674C56.7233 80.4133 57.2503 80.062 57.817 79.62C58.395 79.1667 58.99 78.651 59.602 78.073C60.214 77.495 60.8033 76.8773 61.37 76.22C61.9367 75.5513 62.4523 74.8827 62.917 74.214L63.92 74.843C63.376 75.6477 62.781 76.4183 62.135 77.155C61.5003 77.8917 60.8487 78.5717 60.18 79.195C59.5227 79.807 58.871 80.3453 58.225 80.81C57.579 81.2633 56.9727 81.6203 56.406 81.881C55.8393 82.1303 55.335 82.255 54.893 82.255C54.213 82.2437 53.669 81.9603 53.261 81.405C52.853 80.8383 52.649 80.1017 52.649 79.195C52.649 78.3337 52.8303 77.5403 53.193 76.815C53.5557 76.0897 54.06 75.455 54.706 74.911C55.3633 74.367 56.1283 73.9477 57.001 73.653C57.8737 73.347 58.82 73.194 59.84 73.194C61.1887 73.194 62.3447 73.381 63.308 73.755C64.2827 74.129 65.0307 74.6673 65.552 75.37C66.0847 76.0727 66.351 76.9057 66.351 77.869C66.351 78.6963 66.147 79.4613 65.739 80.164C65.331 80.8667 64.7587 81.456 64.022 81.932C63.2967 82.3967 62.4637 82.697 61.523 82.833L61.166 81.694ZM76.058 82.901C74.426 82.901 73.1623 82.646 72.267 82.136C71.3717 81.6373 70.924 80.9233 70.924 79.994C70.924 79.2007 71.2527 78.583 71.91 78.141C72.5673 77.6877 73.474 77.461 74.63 77.461C75.7633 77.461 76.619 77.6763 77.197 78.107C77.775 78.5377 78.064 79.1667 78.064 79.994C78.064 80.3113 78.0187 80.6457 77.928 80.997C77.8373 81.3483 77.69 81.7393 77.486 82.17L76.228 81.983C76.432 81.5523 76.5737 81.1897 76.653 80.895C76.7437 80.6003 76.789 80.334 76.789 80.096C76.789 79.0647 76.041 78.549 74.545 78.549C73.8083 78.549 73.236 78.6737 72.828 78.923C72.4313 79.1723 72.233 79.5237 72.233 79.977C72.233 80.5663 72.556 81.0253 73.202 81.354C73.8593 81.6827 74.766 81.847 75.922 81.847C77.9053 81.847 79.3957 81.541 80.393 80.929C81.3903 80.3057 81.889 79.382 81.889 78.158C81.889 77.104 81.5037 76.3163 80.733 75.795C79.9623 75.2737 78.7893 75.013 77.214 75.013C76.3527 75.013 75.548 75.1093 74.8 75.302C74.052 75.4947 73.3663 75.7837 72.743 76.169L70.38 77.614L69.836 76.594L80.291 70.355V70.661H70.805V69.539H82.059V70.661L74.205 75.285L73.525 74.758C73.8423 74.6333 74.1823 74.5257 74.545 74.435C74.919 74.333 75.2987 74.248 75.684 74.18C76.0693 74.112 76.4433 74.061 76.806 74.027C77.1687 73.9817 77.5087 73.959 77.826 73.959C79.56 73.959 80.8917 74.316 81.821 75.03C82.7503 75.744 83.215 76.764 83.215 78.09C83.215 79.6313 82.5973 80.8213 81.362 81.66C80.1267 82.4873 78.3587 82.901 76.058 82.901ZM88.74 83.36C88.196 83.36 87.72 83.2467 87.312 83.02C86.904 82.7933 86.5867 82.476 86.36 82.068C86.1333 81.66 86.02 81.184 86.02 80.64C86.02 80.096 86.1333 79.62 86.36 79.212C86.5867 78.804 86.904 78.4867 87.312 78.26C87.72 78.0333 88.196 77.92 88.74 77.92C89.284 77.92 89.76 78.0333 90.168 78.26C90.576 78.4867 90.8933 78.804 91.12 79.212C91.3467 79.62 91.46 80.096 91.46 80.64C91.46 81.184 91.3467 81.66 91.12 82.068C90.8933 82.476 90.576 82.7933 90.168 83.02C89.76 83.2467 89.284 83.36 88.74 83.36ZM88.74 82.255C89.2273 82.255 89.6183 82.1077 89.913 81.813C90.2077 81.5183 90.355 81.1273 90.355 80.64C90.355 80.1527 90.2077 79.7617 89.913 79.467C89.6183 79.1723 89.2273 79.025 88.74 79.025C88.2527 79.025 87.8617 79.1723 87.567 79.467C87.2723 79.7617 87.125 80.1527 87.125 80.64C87.125 81.1273 87.2723 81.5183 87.567 81.813C87.8617 82.1077 88.2527 82.255 88.74 82.255Z" fill="url(#paint0_linear_1822_53)"/>
<defs>
<linearGradient id="paint0_linear_1822_53" x1="49.0179" y1="50.3846" x2="315.227" y2="74.0619" gradientUnits="userSpaceOnUse">
<stop stop-color="#FF4D77"/>
<stop offset="1" stop-color="#9E00D6"/>
</linearGradient>
</defs>
</svg>
