<svg width="315" height="55" viewBox="0 0 315 55" fill="none" xmlns="http://www.w3.org/2000/svg">
<path d="M16.072 18.196C14.336 20.492 12.544 21.892 9.212 23.6C10.052 24.468 10.528 25.168 11.032 26.232C12.18 25.532 12.908 24.972 14.196 23.824C15.764 22.424 16.352 21.752 17.22 20.352C17.192 20.996 17.164 21.556 17.164 22.48V24.832C17.164 25.924 17.136 26.54 16.996 27.324H20.132C19.992 26.484 19.964 25.98 19.964 24.804V22.424C19.964 21.724 19.964 21.696 19.88 20.268C20.804 21.64 21.392 22.34 22.652 23.516C23.744 24.524 24.528 25.14 26.208 26.204C26.656 24.776 26.936 24.188 27.552 23.152C25.984 22.452 24.948 21.864 23.688 20.884C22.484 19.932 21.476 18.98 20.832 18.196H23.184C24.36 18.196 25.116 18.224 25.844 18.308C25.788 17.72 25.76 16.964 25.76 15.592V10.748C25.76 9.404 25.788 8.676 25.844 8.06C25.368 8.144 24.696 8.172 23.52 8.172H19.964V6.632H24.416C25.592 6.632 26.32 6.66 27.048 6.772V3.832C26.236 3.944 25.424 4 24.136 4H19.964V3.748C19.964 2.796 20.02 2.124 20.132 1.508H16.996C17.108 2.264 17.164 2.936 17.164 3.748V4H14.056C12.74 4 11.956 3.944 11.144 3.832V6.772C11.9 6.66 12.404 6.632 13.776 6.632H17.164V8.172H14.14C12.936 8.172 12.208 8.144 11.648 8.06C11.704 8.788 11.732 9.516 11.732 10.664V15.2C11.312 13.408 10.696 11.7 9.968 10.076L7.952 10.86C8.344 11.728 8.456 12.008 8.792 13.016C7.952 13.1 7.392 13.156 6.02 13.24C7.504 11.252 9.24 8.62 10.444 6.548C10.668 6.128 10.808 5.904 10.976 5.736L8.4 4.42C8.12 5.316 7.784 5.932 5.936 9.18C5.544 8.592 5.404 8.424 4.928 7.78C5.516 6.884 5.964 6.1 6.916 4.28C7.728 2.712 7.728 2.712 8.008 2.32L5.32 1.2C5.096 2.264 4.228 4.28 3.332 5.82C3.052 5.484 2.884 5.26 2.464 4.756L0.952 7.136C2.296 8.592 3.276 9.88 4.34 11.56C3.556 12.736 3.388 12.988 3.08 13.38C2.548 13.38 2.408 13.38 2.128 13.38C1.568 13.38 1.316 13.352 0.924 13.296L1.232 16.18C1.792 16.068 1.792 16.068 3.864 15.928C4.396 15.9 4.788 15.872 5.04 15.844V24.468C5.04 25.756 4.984 26.54 4.872 27.408H7.868C7.728 26.568 7.7 25.868 7.7 24.468V15.592C8.4 15.536 8.652 15.48 9.464 15.368C9.604 15.872 9.632 16.068 9.744 16.74L11.732 16.012C11.732 17.132 11.704 17.692 11.648 18.308C12.292 18.224 13.104 18.196 14.168 18.196H16.072ZM17.164 10.636V12.064H14.336V10.636H17.164ZM19.964 10.636H23.044V12.064H19.964V10.636ZM17.164 14.332V15.732H14.336V14.332H17.164ZM19.964 14.332H23.072V15.732H19.964V14.332ZM1.96 16.964C1.792 20.716 1.568 22.2 0.924 24.58L3.332 25.756C3.892 23.516 4.144 21.584 4.396 17.468L1.96 16.964ZM8.316 17.552C8.736 19.428 8.904 20.436 9.072 22.732L11.312 22.004C11.116 20.212 10.864 18.924 10.472 17.076L8.316 17.552ZM53.704 4.952C53.704 3.58 53.732 2.768 53.816 2.068C53.256 2.152 52.528 2.18 51.156 2.18H45.304C44.016 2.18 43.064 2.152 42.14 2.012V4.924C42.896 4.812 43.372 4.784 44.38 4.784L42.644 6.436C44.24 7.332 44.996 7.864 46.424 9.096L48.328 7.276C46.872 6.128 46.368 5.792 44.492 4.756H50.848V10.86C50.848 11.504 50.764 11.532 49.56 11.532C49.196 11.532 48.552 11.504 47.992 11.42C48.58 11.168 48.916 11 49.812 10.496L49.756 7.948C46.648 9.488 44.268 10.356 42.196 10.664L42.952 12.96L41.244 12.624C41.356 12.204 41.384 11.84 41.384 11.252V4.896C41.384 3.328 41.412 2.712 41.496 2.068C40.768 2.152 40.152 2.18 38.668 2.18H32.788C31.5 2.18 30.576 2.124 29.68 2.012V4.896C30.436 4.784 31.024 4.756 32.228 4.756H32.536L30.66 6.408C32.368 7.388 33.152 7.948 34.328 9.068L36.344 7.22C34.972 6.128 34.076 5.568 32.592 4.756H38.584V10.86C38.584 11.476 38.5 11.504 37.184 11.504C36.876 11.504 36.568 11.476 35.7 11.42C36.512 11.056 36.708 10.944 37.548 10.496L37.464 7.892C34.3 9.516 31.5 10.608 29.484 10.944L30.436 13.744C30.884 13.492 31.08 13.436 31.696 13.184C33.04 12.652 34.048 12.204 35.392 11.588C35.756 12.4 35.924 13.044 35.98 14.024C36.596 14.052 37.436 14.052 37.772 14.052C38.976 14.052 39.676 13.968 40.264 13.744C39.732 14.724 39.676 14.78 39.424 15.2H35.672C34.104 15.2 33.488 15.172 32.592 15.088C32.676 16.04 32.704 16.544 32.704 18.308V24.076C32.704 25.7 32.676 26.428 32.536 27.296H35.7V26.148H48.3V27.296H51.492C51.352 26.512 51.324 25.7 51.324 24.076V18.252C51.324 16.516 51.352 16.04 51.436 15.088C50.512 15.172 49.98 15.2 48.356 15.2H42.588C43.092 14.444 43.204 14.276 43.82 13.156C44.1 13.044 44.184 13.016 44.548 12.876C45.808 12.4 46.172 12.26 47.376 11.728C47.656 12.456 47.796 13.156 47.824 14.024C49.112 14.08 49.448 14.08 49.98 14.08C51.744 14.08 52.556 13.94 53.06 13.548C53.564 13.156 53.704 12.708 53.704 11.308V4.952ZM35.7 17.524H48.3V19.372H35.7V17.524ZM35.7 21.668H48.3V23.656H35.7V21.668ZM68.74 9.768V14.92H64.4C62.86 14.92 61.936 14.864 61.04 14.752V17.832C61.992 17.72 63.112 17.664 64.428 17.664H68.74V23.6H61.544C60.06 23.6 58.856 23.544 57.652 23.404V26.596C58.968 26.456 60.172 26.4 61.628 26.4H78.764C80.248 26.4 81.256 26.456 82.572 26.596V23.404C81.452 23.544 80.276 23.6 78.68 23.6H71.96V17.664H76.804C78.12 17.664 79.24 17.72 80.248 17.832V14.752C79.324 14.864 78.204 14.92 76.804 14.92H71.96V9.768H77.868C79.212 9.768 80.36 9.824 81.564 9.936V6.856C80.416 6.968 79.212 7.024 77.784 7.024H71.96V4.868C71.96 3.384 72.016 2.46 72.128 1.536H68.544C68.684 2.572 68.74 3.44 68.74 4.896V7.024H64.176C64.54 6.044 64.792 5.344 64.932 4.924C65.128 4.224 65.128 4.196 65.212 4C65.408 3.496 65.408 3.496 65.464 3.272L62.272 2.488C62.16 3.3 62.02 3.888 61.656 5.092C60.704 8.2 59.024 11.14 56.924 13.268C57.848 13.912 58.492 14.584 59.22 15.648C60.76 13.856 61.88 12.176 63.028 9.768H68.74ZM105.392 2.264C104.58 3.636 102.676 5.568 100.184 7.5C95.732 10.944 91.028 13.268 85.484 14.78C86.464 16.04 86.772 16.516 87.36 17.972C92.512 16.124 94.08 15.396 97.356 13.436V23.292C97.356 24.944 97.328 25.504 97.188 26.316H101.108C100.996 25.56 100.968 24.748 100.968 23.208V11.252C103.376 9.488 105.476 7.668 107.576 5.484C107.996 5.036 108.136 4.924 108.612 4.504L105.392 2.264ZM115.416 7.024C118.02 8.48 120.316 10.328 122.556 12.708L124.964 9.656C122.808 7.612 121.072 6.324 117.74 4.252L115.416 7.024ZM116.396 25.504C117.04 25.28 117.124 25.252 118.244 25.028C122.584 24.104 126.056 22.732 128.912 20.828C132.748 18.28 135.408 14.976 137.788 9.852C136.36 8.844 135.912 8.424 134.82 7.108C133.98 9.376 133.196 10.916 131.964 12.708C129.752 15.9 127.148 18.056 123.648 19.568C121.1 20.688 117.768 21.5 115.36 21.64L116.396 25.504ZM162.708 4.896C161.98 5.148 161.392 5.204 160.244 5.232C153.412 5.288 153.412 5.288 152.964 5.344C153.104 5.092 153.3 4.756 153.636 4C154.168 2.936 154.168 2.936 154.476 2.432L150.836 1.62C150.584 2.656 150.024 4.028 149.212 5.512C147.504 8.648 145.264 11.196 142.184 13.492C143.64 14.332 144.06 14.696 144.984 15.732C147.812 13.352 149.8 11.084 151.536 8.2L160.244 8.116C159.376 10.748 158.424 12.708 157.108 14.724C155.008 13.072 153.832 12.288 151.48 10.972L149.352 13.464C151.452 14.612 153.132 15.788 155.092 17.468C153.664 19.064 152.488 20.072 150.5 21.36C148.82 22.48 147.42 23.18 145.04 24.16C146.104 25.056 146.468 25.532 147.364 27.044C153.328 24.3 157.276 20.996 160.132 16.348C161.28 14.472 162.82 11.196 163.716 8.648C164.164 7.36 164.22 7.248 164.584 6.772L162.708 4.896ZM176.372 5.932C176.372 4.504 176.4 4 176.512 3.328H172.76C172.872 4.028 172.872 4.476 172.872 5.904L172.9 18.896C172.9 20.52 172.928 20.996 172.984 21.472C173.152 22.844 173.572 23.74 174.356 24.328C175.448 25.168 177.38 25.532 180.908 25.532C182.616 25.532 186.144 25.364 187.796 25.196C190.764 24.916 190.904 24.888 191.492 24.888L191.324 21.164C190.092 21.528 189.476 21.668 188.132 21.836C186.088 22.116 183.512 22.284 181.636 22.284C178.92 22.284 177.324 22.06 176.848 21.556C176.456 21.164 176.344 20.52 176.344 18.896C176.344 18.812 176.344 18.672 176.372 18.532V14.836C180.6 14.052 184.52 12.792 188.328 10.972C189.812 10.244 190.652 9.852 190.848 9.768L188.608 6.604C186.788 8.312 180.6 10.804 176.372 11.588V5.932ZM187.684 2.908C188.86 4.28 189.588 5.4 190.456 7.192L192.472 6.268C191.548 4.42 190.792 3.272 189.672 2.012L187.684 2.908ZM195.86 4.56C195.104 2.992 194.348 1.9 193.116 0.499998L191.184 1.396C192.248 2.684 193.116 4.028 193.872 5.568L195.86 4.56ZM213.464 22.536C213.94 20.016 214.248 18.028 214.668 14.948C214.976 12.624 214.976 12.624 215.312 11.756L213.772 10.412C213.1 10.608 212.68 10.664 211.7 10.664H204.616C203.524 10.664 202.74 10.608 202.04 10.496V13.66C202.768 13.576 203.188 13.548 204.532 13.548H211.476C211.196 16.096 210.608 20.044 210.132 22.536H201.872C200.584 22.536 200.08 22.508 199.296 22.368V25.56C200.052 25.476 200.64 25.448 201.872 25.448H216.404C217.58 25.448 218.224 25.476 218.98 25.56V22.368C218.224 22.508 217.692 22.536 216.404 22.536H213.464ZM225.14 16.208C226.26 16.068 226.568 16.068 229.704 16.068H244.572C247.708 16.068 248.016 16.068 249.136 16.208V12.316C247.904 12.484 247.372 12.512 244.6 12.512H229.676C226.904 12.512 226.372 12.484 225.14 12.316V16.208Z" fill="url(#paint0_linear)"/>
<path d="M1.824 39.8H3.008V51H1.824V39.8ZM16.8121 39.8V51H15.8361L8.63613 41.912V51H7.45213V39.8H8.42813L15.6441 48.888V39.8H16.8121ZM23.4438 40.824H19.5078V39.8H28.5638V40.824H24.6278V51H23.4438V40.824ZM39.1753 49.976V51H31.2552V39.8H38.9353V40.824H32.4392V44.808H38.2312V45.816H32.4392V49.976H39.1753ZM50.4064 51L47.8464 47.4C47.5584 47.432 47.2597 47.448 46.9504 47.448H43.9424V51H42.7584V39.8H46.9504C48.3797 39.8 49.4997 40.1413 50.3104 40.824C51.121 41.5067 51.5264 42.4453 51.5264 43.64C51.5264 44.5147 51.3024 45.256 50.8544 45.864C50.417 46.4613 49.7877 46.8933 48.9664 47.16L51.7024 51H50.4064ZM46.9184 46.44C48.0277 46.44 48.8757 46.1947 49.4624 45.704C50.049 45.2133 50.3424 44.5253 50.3424 43.64C50.3424 42.7333 50.049 42.04 49.4624 41.56C48.8757 41.0693 48.0277 40.824 46.9184 40.824H43.9424V46.44H46.9184ZM64.4329 39.8L59.4729 51H58.3049L53.3449 39.8H54.6249L58.9129 49.528L63.2329 39.8H64.4329ZM66.8584 39.8H68.0424V51H66.8584V39.8ZM80.4065 49.976V51H72.4865V39.8H80.1665V40.824H73.6705V44.808H79.4625V45.816H73.6705V49.976H80.4065ZM99.2094 39.8L95.4334 51H94.1854L90.9054 41.448L87.6094 51H86.3774L82.6014 39.8H83.8174L87.0494 49.432L90.3934 39.8H91.4974L94.7934 49.48L98.0734 39.8H99.2094ZM105.268 51.096C104.436 51.096 103.636 50.9627 102.868 50.696C102.111 50.4293 101.524 50.0773 101.108 49.64L101.572 48.728C101.978 49.1333 102.516 49.464 103.188 49.72C103.86 49.9653 104.554 50.088 105.268 50.088C106.271 50.088 107.023 49.9067 107.524 49.544C108.026 49.1707 108.276 48.6907 108.276 48.104C108.276 47.656 108.138 47.2987 107.86 47.032C107.594 46.7653 107.263 46.5627 106.868 46.424C106.474 46.2747 105.924 46.1147 105.22 45.944C104.378 45.7307 103.706 45.528 103.204 45.336C102.703 45.1333 102.271 44.8293 101.908 44.424C101.556 44.0187 101.38 43.4693 101.38 42.776C101.38 42.2107 101.53 41.6987 101.828 41.24C102.127 40.7707 102.586 40.3973 103.204 40.12C103.823 39.8427 104.591 39.704 105.508 39.704C106.148 39.704 106.772 39.7947 107.38 39.976C107.999 40.1467 108.532 40.3867 108.98 40.696L108.58 41.64C108.111 41.3307 107.61 41.1013 107.076 40.952C106.543 40.792 106.02 40.712 105.508 40.712C104.527 40.712 103.786 40.904 103.284 41.288C102.794 41.6613 102.548 42.1467 102.548 42.744C102.548 43.192 102.682 43.5547 102.948 43.832C103.226 44.0987 103.567 44.3067 103.972 44.456C104.388 44.5947 104.943 44.7493 105.636 44.92C106.458 45.1227 107.119 45.3253 107.62 45.528C108.132 45.72 108.564 46.0187 108.916 46.424C109.268 46.8187 109.444 47.3573 109.444 48.04C109.444 48.6053 109.29 49.1227 108.98 49.592C108.682 50.0507 108.218 50.4187 107.588 50.696C106.959 50.9627 106.186 51.096 105.268 51.096Z" fill="url(#paint1_linear)"/>
<defs>
<linearGradient id="paint0_linear" x1="49.0179" y1="9.50001" x2="311.389" y2="48.9915" gradientUnits="userSpaceOnUse">
<stop stop-color="#FF4D77"/>
<stop offset="1" stop-color="#9E00D6"/>
</linearGradient>
<linearGradient id="paint1_linear" x1="8.064" y1="42.5" x2="250.18" y2="66.7037" gradientUnits="userSpaceOnUse">
<stop stop-color="#FF4D77"/>
<stop offset="1" stop-color="#D14DFF"/>
</linearGradient>
</defs>
</svg>
