<svg width="111" height="55" viewBox="0 0 111 55" fill="none" xmlns="http://www.w3.org/2000/svg">
<path d="M8.848 47.8723H2.608L1.264 50.8643H0.032L5.152 39.6643H6.32L11.44 50.8643H10.192L8.848 47.8723ZM8.416 46.9123L5.728 40.8963L3.04 46.9123H8.416ZM18.8005 50.9603C17.6912 50.9603 16.6885 50.7149 15.7925 50.2243C14.9072 49.7336 14.2085 49.0563 13.6965 48.1923C13.1952 47.3176 12.9445 46.3416 12.9445 45.2643C12.9445 44.1869 13.1952 43.2163 13.6965 42.3523C14.2085 41.4776 14.9125 40.7949 15.8085 40.3043C16.7045 39.8136 17.7072 39.5683 18.8165 39.5683C19.6485 39.5683 20.4165 39.7069 21.1205 39.9843C21.8245 40.2616 22.4218 40.6669 22.9125 41.2003L22.1605 41.9523C21.2858 41.0669 20.1818 40.6243 18.8485 40.6243C17.9632 40.6243 17.1578 40.8269 16.4325 41.2323C15.7072 41.6376 15.1365 42.1923 14.7205 42.8963C14.3152 43.6003 14.1125 44.3896 14.1125 45.2643C14.1125 46.1389 14.3152 46.9283 14.7205 47.6323C15.1365 48.3363 15.7072 48.8909 16.4325 49.2963C17.1578 49.7016 17.9632 49.9043 18.8485 49.9043C20.1925 49.9043 21.2965 49.4563 22.1605 48.5603L22.9125 49.3123C22.4218 49.8456 21.8192 50.2563 21.1045 50.5443C20.4005 50.8216 19.6325 50.9603 18.8005 50.9603ZM30.8661 50.9603C29.7568 50.9603 28.7541 50.7149 27.8581 50.2243C26.9728 49.7336 26.2741 49.0563 25.7621 48.1923C25.2608 47.3176 25.0101 46.3416 25.0101 45.2643C25.0101 44.1869 25.2608 43.2163 25.7621 42.3523C26.2741 41.4776 26.9781 40.7949 27.8741 40.3043C28.7701 39.8136 29.7728 39.5683 30.8821 39.5683C31.7141 39.5683 32.4821 39.7069 33.1861 39.9843C33.8901 40.2616 34.4875 40.6669 34.9781 41.2003L34.2261 41.9523C33.3515 41.0669 32.2475 40.6243 30.9141 40.6243C30.0288 40.6243 29.2235 40.8269 28.4981 41.2323C27.7728 41.6376 27.2021 42.1923 26.7861 42.8963C26.3808 43.6003 26.1781 44.3896 26.1781 45.2643C26.1781 46.1389 26.3808 46.9283 26.7861 47.6323C27.2021 48.3363 27.7728 48.8909 28.4981 49.2963C29.2235 49.7016 30.0288 49.9043 30.9141 49.9043C32.2581 49.9043 33.3621 49.4563 34.2261 48.5603L34.9781 49.3123C34.4875 49.8456 33.8848 50.2563 33.1701 50.5443C32.4661 50.8216 31.6981 50.9603 30.8661 50.9603ZM46.2221 49.8403V50.8643H38.3021V39.6643H45.9821V40.6883H39.4861V44.6723H45.2781V45.6803H39.4861V49.8403H46.2221ZM52.8933 50.9603C52.0613 50.9603 51.2613 50.8269 50.4933 50.5603C49.7359 50.2936 49.1493 49.9416 48.7333 49.5043L49.1973 48.5923C49.6026 48.9976 50.1413 49.3283 50.8133 49.5843C51.4853 49.8296 52.1786 49.9523 52.8933 49.9523C53.8959 49.9523 54.6479 49.7709 55.1493 49.4083C55.6506 49.0349 55.9013 48.5549 55.9013 47.9683C55.9013 47.5203 55.7626 47.1629 55.4853 46.8963C55.2186 46.6296 54.8879 46.4269 54.4933 46.2883C54.0986 46.1389 53.5493 45.9789 52.8453 45.8083C52.0026 45.5949 51.3306 45.3923 50.8293 45.2003C50.3279 44.9976 49.8959 44.6936 49.5333 44.2883C49.1813 43.8829 49.0053 43.3336 49.0053 42.6403C49.0053 42.0749 49.1546 41.5629 49.4533 41.1043C49.7519 40.6349 50.2106 40.2616 50.8293 39.9843C51.4479 39.7069 52.2159 39.5683 53.1333 39.5683C53.7733 39.5683 54.3973 39.6589 55.0053 39.8403C55.6239 40.0109 56.1573 40.2509 56.6053 40.5603L56.2053 41.5043C55.7359 41.1949 55.2346 40.9656 54.7013 40.8163C54.1679 40.6563 53.6453 40.5763 53.1333 40.5763C52.1519 40.5763 51.4106 40.7683 50.9093 41.1523C50.4186 41.5256 50.1733 42.0109 50.1733 42.6083C50.1733 43.0563 50.3066 43.4189 50.5733 43.6963C50.8506 43.9629 51.1919 44.1709 51.5973 44.3203C52.0133 44.4589 52.5679 44.6136 53.2613 44.7843C54.0826 44.9869 54.7439 45.1896 55.2453 45.3923C55.7573 45.5843 56.1893 45.8829 56.5413 46.2883C56.8933 46.6829 57.0693 47.2216 57.0693 47.9043C57.0693 48.4696 56.9146 48.9869 56.6053 49.4563C56.3066 49.9149 55.8426 50.2829 55.2133 50.5603C54.5839 50.8269 53.8106 50.9603 52.8933 50.9603ZM63.537 50.9603C62.705 50.9603 61.905 50.8269 61.137 50.5603C60.3797 50.2936 59.793 49.9416 59.377 49.5043L59.841 48.5923C60.2463 48.9976 60.785 49.3283 61.457 49.5843C62.129 49.8296 62.8223 49.9523 63.537 49.9523C64.5397 49.9523 65.2917 49.7709 65.793 49.4083C66.2943 49.0349 66.545 48.5549 66.545 47.9683C66.545 47.5203 66.4063 47.1629 66.129 46.8963C65.8623 46.6296 65.5317 46.4269 65.137 46.2883C64.7423 46.1389 64.193 45.9789 63.489 45.8083C62.6463 45.5949 61.9743 45.3923 61.473 45.2003C60.9717 44.9976 60.5397 44.6936 60.177 44.2883C59.825 43.8829 59.649 43.3336 59.649 42.6403C59.649 42.0749 59.7983 41.5629 60.097 41.1043C60.3957 40.6349 60.8543 40.2616 61.473 39.9843C62.0917 39.7069 62.8597 39.5683 63.777 39.5683C64.417 39.5683 65.041 39.6589 65.649 39.8403C66.2677 40.0109 66.801 40.2509 67.249 40.5603L66.849 41.5043C66.3797 41.1949 65.8783 40.9656 65.345 40.8163C64.8117 40.6563 64.289 40.5763 63.777 40.5763C62.7957 40.5763 62.0543 40.7683 61.553 41.1523C61.0623 41.5256 60.817 42.0109 60.817 42.6083C60.817 43.0563 60.9503 43.4189 61.217 43.6963C61.4943 43.9629 61.8357 44.1709 62.241 44.3203C62.657 44.4589 63.2117 44.6136 63.905 44.7843C64.7263 44.9869 65.3877 45.1896 65.889 45.3923C66.401 45.5843 66.833 45.8829 67.185 46.2883C67.537 46.6829 67.713 47.2216 67.713 47.9043C67.713 48.4696 67.5583 48.9869 67.249 49.4563C66.9503 49.9149 66.4863 50.2829 65.857 50.5603C65.2277 50.8269 64.4543 50.9603 63.537 50.9603Z" fill="url(#paint0_linear)"/>
<path d="M24.332 3.44426C23.548 3.66826 23.296 3.69626 21.616 3.69626H7C5.068 3.69626 4.2 3.64026 3.136 3.47226V6.97226C4.284 6.83226 4.984 6.80426 6.944 6.80426H21.644C21 8.14826 20.132 9.29626 18.984 10.3603C17.836 11.4523 16.772 12.0963 14.896 12.9363C16.156 13.8883 16.576 14.3083 17.416 15.4843C18.732 14.7563 19.656 14.1403 20.776 13.1603C22.484 11.7043 24.108 9.60426 25.088 7.53226C25.816 6.07626 25.816 6.04826 26.208 5.57226L24.332 3.44426ZM11.032 9.10026C11.144 9.68826 11.172 9.94026 11.172 10.7803C11.172 16.0723 10.276 18.4803 7.42 20.7483C6.048 21.8403 4.788 22.4563 2.52 23.1283C3.64 24.3043 4.004 24.8083 4.732 26.3203C8.232 24.8643 10.276 23.4363 11.956 21.2803C13.86 18.8443 14.616 16.1563 14.728 11.3683C14.756 9.66026 14.756 9.63226 14.84 9.10026H11.032ZM49.5869 5.18026C48.9429 5.40426 48.6349 5.46026 47.5429 5.46026L41.4109 5.54426C40.8789 5.54426 40.4309 5.57226 40.0669 5.60026C40.3469 5.09626 40.3469 5.09626 40.5149 4.70426C40.7949 4.14426 40.7949 4.14426 40.8789 3.97626C41.1589 3.33226 41.1589 3.33226 41.2429 3.19226C41.5509 2.57626 41.5509 2.57626 41.7189 2.32426L37.8829 1.56826C37.7709 2.57626 37.3229 3.66826 36.4549 5.26426C34.4109 8.96026 32.3949 11.2003 29.2029 13.3843C30.6589 14.2803 31.0789 14.6443 31.9189 15.7923C34.5789 13.7483 36.7629 11.3403 38.4709 8.62426L46.8989 8.48426C45.3589 13.4963 42.7269 17.3323 38.7229 20.3003C36.9589 21.6163 35.3909 22.4563 32.5909 23.6043C33.8229 24.6683 34.1869 25.1443 34.9709 26.5443C39.2829 24.5563 42.3629 22.3723 44.9389 19.4323C47.4029 16.6603 49.3909 12.8803 50.6789 8.62426C50.9869 7.61626 51.0989 7.36426 51.3789 6.94426L49.5869 5.18026ZM78.6509 7.02826C78.0069 7.30826 77.9789 7.33626 76.4949 7.50426L66.3029 8.73626V5.20826C66.3029 4.00426 66.3309 3.41626 66.4709 2.60426H62.6069C62.7469 3.55626 62.7749 3.86426 62.7749 5.26426V9.10026L59.8069 9.46426C59.0509 9.57626 57.8469 9.66026 57.3429 9.66026C57.2029 9.66026 56.9789 9.66026 56.6709 9.63226L57.0349 13.1043C57.9589 12.8523 57.9589 12.8523 60.1429 12.5723L62.7749 12.2363V18.6483C62.7749 20.8883 62.8029 21.3083 63.0549 22.1763C63.3629 23.3803 64.3149 24.4163 65.4629 24.7523C66.5269 25.0603 68.1789 25.2283 70.4469 25.2283C72.2949 25.2283 74.3669 25.0883 77.3909 24.7523C78.1189 24.6683 78.3429 24.6683 79.0989 24.6403L78.9309 20.8603C76.6069 21.5603 73.5549 21.9523 70.3349 21.9523C67.4789 21.9523 66.5829 21.6443 66.3869 20.5523C66.3029 20.0763 66.3029 20.0763 66.2749 18.1443V11.8443C69.1869 11.4243 72.0709 11.0603 74.8989 10.7243C75.3189 10.6683 75.5149 10.6403 75.9629 10.5563C75.4589 11.3963 75.2909 11.6483 74.8989 12.2083C73.6669 13.8323 72.2109 15.0923 70.2789 16.1563C71.5669 16.9123 71.9869 17.2203 73.0789 18.4243C76.3269 16.0163 78.3149 13.6643 79.9389 10.2483C80.3309 9.43626 80.3869 9.35226 80.7229 8.87626L78.6509 7.02826ZM109.003 22.8763C105.615 19.6003 105.615 19.6003 104.915 18.9843C103.011 17.2763 101.499 16.1003 99.7349 14.9243C101.443 12.6283 102.815 10.1923 104.103 7.19626C104.411 6.49626 104.635 6.10426 104.999 5.68426L103.151 3.78026C102.451 4.03226 102.227 4.06026 100.659 4.08826L90.8029 4.22826C90.4669 4.22826 90.2429 4.22826 90.1309 4.22826C88.9829 4.22826 88.4509 4.20026 87.6669 4.06026L87.7789 7.64426C88.7309 7.50426 89.4869 7.44826 90.8309 7.42026C99.6509 7.28026 99.6509 7.28026 100.099 7.25226L99.7909 7.98026C97.9709 12.3483 94.6109 16.4083 90.3829 19.3763C88.2829 20.8603 86.9389 21.6163 84.7829 22.4563C85.9309 23.6603 86.2669 24.1083 87.0509 25.5643C91.3349 23.4643 94.5549 21.0003 97.7189 17.4723C100.771 19.7963 103.991 22.9323 106.315 25.7883L109.003 22.8763Z" fill="url(#paint1_linear)"/>
<defs>
<linearGradient id="paint0_linear" x1="2.208" y1="42.3643" x2="69.1141" y2="44.1956" gradientUnits="userSpaceOnUse">
<stop stop-color="#FF4D77"/>
<stop offset="1" stop-color="#D14DFF"/>
</linearGradient>
<linearGradient id="paint1_linear" x1="17.273" y1="9.36427" x2="111.557" y2="14.365" gradientUnits="userSpaceOnUse">
<stop stop-color="#FF4D77"/>
<stop offset="1" stop-color="#9E00D6"/>
</linearGradient>
</defs>
</svg>
