<svg width="28" height="28" viewBox="0 0 28 28" fill="none" xmlns="http://www.w3.org/2000/svg">
<path d="M14.1602 27.8418C21.666 27.8418 27.873 21.6348 27.873 14.1289C27.873 6.60938 21.666 0.416016 14.1465 0.416016C6.64062 0.416016 0.447266 6.60938 0.447266 14.1289C0.447266 21.6348 6.6543 27.8418 14.1602 27.8418ZM14.1602 26.0645C7.54297 26.0645 2.22461 20.7324 2.22461 14.1289C2.22461 7.51172 7.54297 2.17969 14.1465 2.17969C20.7637 2.17969 26.0957 7.51172 26.1094 14.1289C26.1094 20.7324 20.7773 26.0645 14.1602 26.0645ZM11.084 20.2812H18.0703C18.4941 20.2812 18.7949 19.9941 18.7949 19.5703C18.7949 19.1328 18.4941 18.8594 18.0703 18.8594H12.6426V18.7773L16.1973 14.9355C17.4824 13.541 18.2207 12.4883 18.2207 11.1074C18.2207 9.08398 16.6348 7.74414 14.2422 7.74414C12.3145 7.74414 10.6328 8.90625 10.2773 10.4648C10.2227 10.6426 10.209 10.793 10.209 10.957C10.209 11.3809 10.4961 11.668 10.9199 11.668C11.3301 11.668 11.5352 11.4219 11.6855 11.0938C11.9727 10.0547 12.8477 9.125 14.3105 9.125C15.7461 9.125 16.6758 9.94531 16.6758 11.2031C16.6758 12.2012 15.9785 13.0488 15.1035 14.0059L10.5918 18.9004C10.3867 19.1055 10.3047 19.3105 10.3047 19.5566C10.3047 19.9941 10.5918 20.2812 11.084 20.2812Z" fill="#FF4D77"/>
</svg>
