<svg width="323" height="75" viewBox="0 0 323 75" fill="none" xmlns="http://www.w3.org/2000/svg">
<path d="M1.408 26V3.60001H11.104C13.1093 3.60001 14.8373 3.93068 16.288 4.59201C17.7387 5.23201 18.8587 6.16001 19.648 7.37601C20.4373 8.59201 20.832 10.0427 20.832 11.728C20.832 13.392 20.4373 14.832 19.648 16.048C18.8587 17.2427 17.7387 18.16 16.288 18.8C14.8373 19.44 13.1093 19.76 11.104 19.76H4.288L6.592 17.488V26H1.408ZM15.648 26L10.048 17.872H15.584L21.248 26H15.648ZM6.592 18.064L4.288 15.632H10.816C12.416 15.632 13.6107 15.2907 14.4 14.608C15.1893 13.904 15.584 12.944 15.584 11.728C15.584 10.4907 15.1893 9.53068 14.4 8.84801C13.6107 8.16534 12.416 7.82401 10.816 7.82401H4.288L6.592 5.36001V18.064Z" fill="white"/>
<path d="M33.1312 26.256C31.1686 26.256 29.4406 25.872 27.9473 25.104C26.4753 24.336 25.3339 23.2907 24.5233 21.968C23.7126 20.624 23.3073 19.0987 23.3073 17.392C23.3073 15.664 23.7019 14.1387 24.4913 12.816C25.3019 11.472 26.4006 10.4267 27.7873 9.68001C29.1739 8.91201 30.7419 8.52801 32.4912 8.52801C34.1766 8.52801 35.6912 8.89068 37.0352 9.61601C38.4006 10.32 39.4779 11.344 40.2673 12.688C41.0566 14.0107 41.4512 15.6 41.4512 17.456C41.4512 17.648 41.4406 17.872 41.4193 18.128C41.3979 18.3627 41.3766 18.5867 41.3552 18.8H27.3713V15.888H38.7312L36.8112 16.752C36.8112 15.856 36.6299 15.0773 36.2673 14.416C35.9046 13.7547 35.4032 13.2427 34.7632 12.88C34.1232 12.496 33.3766 12.304 32.5233 12.304C31.6699 12.304 30.9126 12.496 30.2513 12.88C29.6113 13.2427 29.1099 13.7653 28.7473 14.448C28.3846 15.1093 28.2033 15.8987 28.2033 16.816V17.584C28.2033 18.5227 28.4059 19.3547 28.8113 20.08C29.2379 20.784 29.8246 21.328 30.5713 21.712C31.3393 22.0747 32.2353 22.256 33.2593 22.256C34.1766 22.256 34.9766 22.1173 35.6592 21.84C36.3632 21.5627 37.0033 21.1467 37.5793 20.592L40.2353 23.472C39.4459 24.368 38.4539 25.0613 37.2593 25.552C36.0646 26.0213 34.6886 26.256 33.1312 26.256Z" fill="white"/>
<path d="M55.2388 8.52801C56.6041 8.52801 57.8201 8.80534 58.8867 9.36001C59.9747 9.89334 60.8281 10.7253 61.4468 11.856C62.0654 12.9653 62.3747 14.3947 62.3747 16.144V26H57.3828V16.912C57.3828 15.5253 57.0734 14.5013 56.4548 13.84C55.8574 13.1787 55.0041 12.848 53.8947 12.848C53.1054 12.848 52.3907 13.0187 51.7507 13.36C51.1321 13.68 50.6414 14.1813 50.2787 14.864C49.9374 15.5467 49.7668 16.4213 49.7668 17.488V26H44.7747V8.78401H49.5427V13.552L48.6467 12.112C49.2654 10.96 50.1507 10.0747 51.3027 9.45601C52.4547 8.83734 53.7668 8.52801 55.2388 8.52801Z" fill="white"/>
<path d="M75.5687 26.256C73.6061 26.256 71.8781 25.872 70.3848 25.104C68.9128 24.336 67.7714 23.2907 66.9607 21.968C66.1501 20.624 65.7448 19.0987 65.7448 17.392C65.7448 15.664 66.1394 14.1387 66.9287 12.816C67.7394 11.472 68.8381 10.4267 70.2247 9.68001C71.6114 8.91201 73.1794 8.52801 74.9287 8.52801C76.6141 8.52801 78.1287 8.89068 79.4727 9.61601C80.8381 10.32 81.9154 11.344 82.7048 12.688C83.4941 14.0107 83.8887 15.6 83.8887 17.456C83.8887 17.648 83.8781 17.872 83.8568 18.128C83.8354 18.3627 83.8141 18.5867 83.7927 18.8H69.8087V15.888H81.1687L79.2487 16.752C79.2487 15.856 79.0674 15.0773 78.7048 14.416C78.3421 13.7547 77.8408 13.2427 77.2008 12.88C76.5608 12.496 75.8141 12.304 74.9607 12.304C74.1074 12.304 73.3501 12.496 72.6888 12.88C72.0488 13.2427 71.5474 13.7653 71.1847 14.448C70.8221 15.1093 70.6407 15.8987 70.6407 16.816V17.584C70.6407 18.5227 70.8434 19.3547 71.2487 20.08C71.6754 20.784 72.2621 21.328 73.0088 21.712C73.7768 22.0747 74.6727 22.256 75.6967 22.256C76.6141 22.256 77.4141 22.1173 78.0967 21.84C78.8007 21.5627 79.4407 21.1467 80.0167 20.592L82.6728 23.472C81.8834 24.368 80.8914 25.0613 79.6967 25.552C78.5021 26.0213 77.1261 26.256 75.5687 26.256Z" fill="white"/>
<path d="M90.8357 26L84.6277 8.78401H89.3317L94.4837 23.6H92.2438L97.6198 8.78401H101.844L107.06 23.6H104.82L110.132 8.78401H114.548L108.308 26H103.476L98.8997 13.296H100.372L95.6357 26H90.8357Z" fill="white"/>
<path d="M126.866 26V22.64L126.546 21.904V15.888C126.546 14.8213 126.215 13.9893 125.554 13.392C124.914 12.7947 123.922 12.496 122.578 12.496C121.661 12.496 120.754 12.6453 119.858 12.944C118.983 13.2213 118.237 13.6053 117.618 14.096L115.826 10.608C116.765 9.94668 117.895 9.43468 119.218 9.07201C120.541 8.70934 121.885 8.52801 123.25 8.52801C125.874 8.52801 127.911 9.14668 129.362 10.384C130.813 11.6213 131.538 13.552 131.538 16.176V26H126.866ZM121.618 26.256C120.274 26.256 119.122 26.032 118.162 25.584C117.202 25.1147 116.466 24.4853 115.954 23.696C115.442 22.9067 115.186 22.0213 115.186 21.04C115.186 20.016 115.431 19.12 115.922 18.352C116.434 17.584 117.234 16.9867 118.322 16.56C119.41 16.112 120.829 15.888 122.578 15.888H127.154V18.8H123.122C121.949 18.8 121.138 18.992 120.69 19.376C120.263 19.76 120.05 20.24 120.05 20.816C120.05 21.456 120.295 21.968 120.786 22.352C121.298 22.7147 121.991 22.896 122.866 22.896C123.698 22.896 124.445 22.704 125.106 22.32C125.767 21.9147 126.247 21.328 126.546 20.56L127.314 22.864C126.951 23.9733 126.29 24.816 125.33 25.392C124.37 25.968 123.133 26.256 121.618 26.256Z" fill="white"/>
<path d="M136.056 26V2.25601H141.048V26H136.056Z" fill="white"/>
<path d="M154.743 26V8.78401H159.512V13.648L158.839 12.24C159.351 11.024 160.173 10.1067 161.303 9.48801C162.434 8.84801 163.81 8.52801 165.432 8.52801V13.136C165.218 13.1147 165.026 13.104 164.855 13.104C164.685 13.0827 164.503 13.072 164.311 13.072C162.946 13.072 161.837 13.4667 160.984 14.256C160.152 15.024 159.736 16.2293 159.736 17.872V26H154.743Z" fill="white"/>
<path d="M168.431 26V8.78401H173.423V26H168.431ZM170.927 6.38401C170.01 6.38401 169.263 6.11734 168.687 5.58401C168.111 5.05068 167.823 4.38934 167.823 3.60001C167.823 2.81068 168.111 2.14934 168.687 1.61601C169.263 1.08268 170.01 0.81601 170.927 0.81601C171.844 0.81601 172.591 1.07201 173.167 1.58401C173.743 2.07468 174.031 2.71468 174.031 3.50401C174.031 4.33601 173.743 5.02934 173.167 5.58401C172.612 6.11734 171.866 6.38401 170.927 6.38401Z" fill="white"/>
<path d="M186.152 32.464C184.531 32.464 182.963 32.2613 181.448 31.856C179.955 31.472 178.707 30.8853 177.704 30.096L179.688 26.512C180.413 27.1093 181.331 27.5787 182.44 27.92C183.571 28.2827 184.68 28.464 185.768 28.464C187.539 28.464 188.819 28.0693 189.608 27.28C190.419 26.4907 190.824 25.3173 190.824 23.76V21.168L191.144 16.848L191.08 12.496V8.78401H195.816V23.12C195.816 26.32 194.984 28.6773 193.32 30.192C191.656 31.7067 189.267 32.464 186.152 32.464ZM185.384 25.168C183.784 25.168 182.333 24.8267 181.032 24.144C179.752 23.44 178.717 22.4693 177.928 21.232C177.16 19.9733 176.776 18.512 176.776 16.848C176.776 15.1627 177.16 13.7013 177.928 12.464C178.717 11.2053 179.752 10.2347 181.032 9.55201C182.333 8.86934 183.784 8.52801 185.384 8.52801C186.835 8.52801 188.115 8.82668 189.224 9.42401C190.333 10 191.197 10.9067 191.816 12.144C192.435 13.36 192.744 14.928 192.744 16.848C192.744 18.7467 192.435 20.3147 191.816 21.552C191.197 22.768 190.333 23.6747 189.224 24.272C188.115 24.8693 186.835 25.168 185.384 25.168ZM186.376 21.072C187.251 21.072 188.029 20.9013 188.712 20.56C189.395 20.1973 189.928 19.696 190.312 19.056C190.696 18.416 190.888 17.68 190.888 16.848C190.888 15.9947 190.696 15.2587 190.312 14.64C189.928 14 189.395 13.5093 188.712 13.168C188.029 12.8053 187.251 12.624 186.376 12.624C185.501 12.624 184.723 12.8053 184.04 13.168C183.357 13.5093 182.813 14 182.408 14.64C182.024 15.2587 181.832 15.9947 181.832 16.848C181.832 17.68 182.024 18.416 182.408 19.056C182.813 19.696 183.357 20.1973 184.04 20.56C184.723 20.9013 185.501 21.072 186.376 21.072Z" fill="white"/>
<path d="M210.926 8.52801C212.292 8.52801 213.508 8.80534 214.574 9.36001C215.662 9.89334 216.516 10.7253 217.134 11.856C217.753 12.9653 218.062 14.3947 218.062 16.144V26H213.07V16.912C213.07 15.5253 212.761 14.5013 212.142 13.84C211.545 13.1787 210.692 12.848 209.582 12.848C208.793 12.848 208.078 13.0187 207.438 13.36C206.82 13.68 206.329 14.1813 205.966 14.864C205.625 15.5467 205.454 16.4213 205.454 17.488V26H200.462V2.25601H205.454V13.552L204.334 12.112C204.953 10.96 205.838 10.0747 206.99 9.45601C208.142 8.83734 209.454 8.52801 210.926 8.52801Z" fill="white"/>
<path d="M229.627 26.256C227.601 26.256 226.022 25.744 224.891 24.72C223.761 23.6747 223.195 22.128 223.195 20.08V4.97601H228.187V20.016C228.187 20.7413 228.379 21.3067 228.763 21.712C229.147 22.096 229.67 22.288 230.331 22.288C231.121 22.288 231.793 22.0747 232.347 21.648L233.691 25.168C233.179 25.5307 232.561 25.808 231.835 26C231.131 26.1707 230.395 26.256 229.627 26.256ZM220.539 13.008V9.16801H232.475V13.008H220.539Z" fill="white"/>
<path d="M256.02 8.52801C257.385 8.52801 258.601 8.80534 259.668 9.36001C260.756 9.89334 261.609 10.7253 262.228 11.856C262.847 12.9653 263.156 14.3947 263.156 16.144V26H258.164V16.912C258.164 15.5253 257.855 14.5013 257.236 13.84C256.639 13.1787 255.785 12.848 254.676 12.848C253.887 12.848 253.172 13.0187 252.532 13.36C251.913 13.68 251.423 14.1813 251.06 14.864C250.719 15.5467 250.548 16.4213 250.548 17.488V26H245.556V8.78401H250.324V13.552L249.428 12.112C250.047 10.96 250.932 10.0747 252.084 9.45601C253.236 8.83734 254.548 8.52801 256.02 8.52801Z" fill="white"/>
<path d="M275.998 26.256C274.163 26.256 272.531 25.872 271.102 25.104C269.694 24.336 268.574 23.2907 267.742 21.968C266.931 20.624 266.526 19.0987 266.526 17.392C266.526 15.664 266.931 14.1387 267.742 12.816C268.574 11.472 269.694 10.4267 271.102 9.68001C272.531 8.91201 274.163 8.52801 275.998 8.52801C277.811 8.52801 279.433 8.91201 280.862 9.68001C282.291 10.4267 283.411 11.4613 284.222 12.784C285.033 14.1067 285.438 15.6427 285.438 17.392C285.438 19.0987 285.033 20.624 284.222 21.968C283.411 23.2907 282.291 24.336 280.862 25.104C279.433 25.872 277.811 26.256 275.998 26.256ZM275.998 22.16C276.83 22.16 277.577 21.968 278.238 21.584C278.899 21.2 279.422 20.656 279.806 19.952C280.19 19.2267 280.382 18.3733 280.382 17.392C280.382 16.3893 280.19 15.536 279.806 14.832C279.422 14.128 278.899 13.584 278.238 13.2C277.577 12.816 276.83 12.624 275.998 12.624C275.166 12.624 274.419 12.816 273.758 13.2C273.097 13.584 272.563 14.128 272.158 14.832C271.774 15.536 271.582 16.3893 271.582 17.392C271.582 18.3733 271.774 19.2267 272.158 19.952C272.563 20.656 273.097 21.2 273.758 21.584C274.419 21.968 275.166 22.16 275.998 22.16Z" fill="white"/>
<path d="M292.242 26L286.034 8.78401H290.738L295.89 23.6H293.65L299.026 8.78401H303.25L308.466 23.6H306.226L311.538 8.78401H315.954L309.714 26H304.882L300.306 13.296H301.778L297.042 26H292.242Z" fill="white"/>
<path d="M319.132 26.256C318.278 26.256 317.542 25.968 316.924 25.392C316.326 24.7947 316.028 24.0373 316.028 23.12C316.028 22.2027 316.326 21.4667 316.924 20.912C317.542 20.336 318.278 20.048 319.132 20.048C320.006 20.048 320.742 20.336 321.34 20.912C321.937 21.4667 322.236 22.2027 322.236 23.12C322.236 24.0373 321.937 24.7947 321.34 25.392C320.742 25.968 320.006 26.256 319.132 26.256Z" fill="white"/>
<path d="M12.128 68.384C10.4 68.384 8.78933 68.1067 7.296 67.552C5.824 66.976 4.544 66.1653 3.456 65.12C2.368 64.0747 1.51467 62.848 0.896 61.44C0.298667 60.032 0 58.4853 0 56.8C0 55.1147 0.298667 53.568 0.896 52.16C1.51467 50.752 2.368 49.5253 3.456 48.48C4.56533 47.4347 5.856 46.6347 7.328 46.08C8.8 45.504 10.4107 45.216 12.16 45.216C14.1013 45.216 15.8507 45.5573 17.408 46.24C18.9867 46.9013 20.3093 47.8827 21.376 49.184L18.048 52.256C17.28 51.3813 16.4267 50.7307 15.488 50.304C14.5493 49.856 13.5253 49.632 12.416 49.632C11.3707 49.632 10.4107 49.8027 9.536 50.144C8.66133 50.4853 7.904 50.976 7.264 51.616C6.624 52.256 6.12267 53.0133 5.76 53.888C5.41867 54.7627 5.248 55.7333 5.248 56.8C5.248 57.8667 5.41867 58.8373 5.76 59.712C6.12267 60.5867 6.624 61.344 7.264 61.984C7.904 62.624 8.66133 63.1147 9.536 63.456C10.4107 63.7973 11.3707 63.968 12.416 63.968C13.5253 63.968 14.5493 63.7547 15.488 63.328C16.4267 62.88 17.28 62.208 18.048 61.312L21.376 64.384C20.3093 65.6853 18.9867 66.6773 17.408 67.36C15.8507 68.0427 14.0907 68.384 12.128 68.384Z" fill="white"/>
<path d="M32.123 68.256C30.2883 68.256 28.6563 67.872 27.227 67.104C25.819 66.336 24.699 65.2907 23.867 63.968C23.0563 62.624 22.651 61.0987 22.651 59.392C22.651 57.664 23.0563 56.1387 23.867 54.816C24.699 53.472 25.819 52.4267 27.227 51.68C28.6563 50.912 30.2883 50.528 32.123 50.528C33.9363 50.528 35.5577 50.912 36.987 51.68C38.4163 52.4267 39.5363 53.4613 40.347 54.784C41.1577 56.1067 41.563 57.6427 41.563 59.392C41.563 61.0987 41.1577 62.624 40.347 63.968C39.5363 65.2907 38.4163 66.336 36.987 67.104C35.5577 67.872 33.9363 68.256 32.123 68.256ZM32.123 64.16C32.955 64.16 33.7017 63.968 34.363 63.584C35.0243 63.2 35.547 62.656 35.931 61.952C36.315 61.2267 36.507 60.3733 36.507 59.392C36.507 58.3893 36.315 57.536 35.931 56.832C35.547 56.128 35.0243 55.584 34.363 55.2C33.7017 54.816 32.955 54.624 32.123 54.624C31.291 54.624 30.5443 54.816 29.883 55.2C29.2217 55.584 28.6883 56.128 28.283 56.832C27.899 57.536 27.707 58.3893 27.707 59.392C27.707 60.3733 27.899 61.2267 28.283 61.952C28.6883 62.656 29.2217 63.2 29.883 63.584C30.5443 63.968 31.291 64.16 32.123 64.16Z" fill="white"/>
<path d="M66.9478 50.528C68.3131 50.528 69.5184 50.8053 70.5638 51.36C71.6304 51.8933 72.4624 52.7253 73.0598 53.856C73.6784 54.9653 73.9877 56.3947 73.9877 58.144V68H68.9958V58.912C68.9958 57.5253 68.7078 56.5013 68.1318 55.84C67.5558 55.1787 66.7451 54.848 65.6998 54.848C64.9744 54.848 64.3237 55.0187 63.7477 55.36C63.1717 55.68 62.7237 56.1707 62.4037 56.832C62.0837 57.4933 61.9238 58.336 61.9238 59.36V68H56.9317V58.912C56.9317 57.5253 56.6437 56.5013 56.0677 55.84C55.5131 55.1787 54.7131 54.848 53.6677 54.848C52.9424 54.848 52.2918 55.0187 51.7158 55.36C51.1398 55.68 50.6917 56.1707 50.3717 56.832C50.0517 57.4933 49.8918 58.336 49.8918 59.36V68H44.8997V50.784H49.6677V55.488L48.7717 54.112C49.3691 52.9387 50.2118 52.0533 51.2998 51.456C52.4091 50.8373 53.6677 50.528 55.0757 50.528C56.6544 50.528 58.0304 50.9333 59.2038 51.744C60.3984 52.5333 61.1878 53.7493 61.5718 55.392L59.8118 54.912C60.3878 53.568 61.3051 52.5013 62.5638 51.712C63.8438 50.9227 65.3051 50.528 66.9478 50.528Z" fill="white"/>
<path d="M78.4622 68V50.784H83.4542V68H78.4622ZM80.9583 48.384C80.0409 48.384 79.2942 48.1173 78.7182 47.584C78.1422 47.0507 77.8542 46.3893 77.8542 45.6C77.8542 44.8107 78.1422 44.1493 78.7182 43.616C79.2942 43.0827 80.0409 42.816 80.9583 42.816C81.8756 42.816 82.6222 43.072 83.1982 43.584C83.7742 44.0747 84.0622 44.7147 84.0622 45.504C84.0622 46.336 83.7742 47.0293 83.1982 47.584C82.6436 48.1173 81.8969 48.384 80.9583 48.384Z" fill="white"/>
<path d="M98.5512 50.528C99.9166 50.528 101.133 50.8053 102.199 51.36C103.287 51.8933 104.141 52.7253 104.759 53.856C105.378 54.9653 105.687 56.3947 105.687 58.144V68H100.695V58.912C100.695 57.5253 100.386 56.5013 99.7673 55.84C99.1699 55.1787 98.3166 54.848 97.2073 54.848C96.4179 54.848 95.7032 55.0187 95.0632 55.36C94.4446 55.68 93.9539 56.1813 93.5912 56.864C93.2499 57.5467 93.0792 58.4213 93.0792 59.488V68H88.0872V50.784H92.8552V55.552L91.9593 54.112C92.5779 52.96 93.4632 52.0747 94.6152 51.456C95.7672 50.8373 97.0792 50.528 98.5512 50.528Z" fill="white"/>
<path d="M118.433 74.464C116.812 74.464 115.244 74.2614 113.729 73.856C112.236 73.472 110.988 72.8853 109.985 72.096L111.969 68.512C112.695 69.1093 113.612 69.5787 114.721 69.92C115.852 70.2827 116.961 70.464 118.049 70.464C119.82 70.464 121.1 70.0693 121.889 69.28C122.7 68.4907 123.105 67.3173 123.105 65.76V63.168L123.425 58.848L123.361 54.496V50.784H128.097V65.12C128.097 68.32 127.265 70.6773 125.601 72.192C123.937 73.7067 121.548 74.464 118.433 74.464ZM117.665 67.168C116.065 67.168 114.615 66.8267 113.313 66.144C112.033 65.44 110.999 64.4693 110.209 63.232C109.441 61.9733 109.057 60.512 109.057 58.848C109.057 57.1627 109.441 55.7013 110.209 54.464C110.999 53.2053 112.033 52.2347 113.313 51.552C114.615 50.8693 116.065 50.528 117.665 50.528C119.116 50.528 120.396 50.8267 121.505 51.424C122.615 52 123.479 52.9067 124.097 54.144C124.716 55.36 125.025 56.928 125.025 58.848C125.025 60.7467 124.716 62.3147 124.097 63.552C123.479 64.768 122.615 65.6747 121.505 66.272C120.396 66.8694 119.116 67.168 117.665 67.168ZM118.657 63.072C119.532 63.072 120.311 62.9013 120.993 62.56C121.676 62.1973 122.209 61.696 122.593 61.056C122.977 60.416 123.169 59.68 123.169 58.848C123.169 57.9947 122.977 57.2587 122.593 56.64C122.209 56 121.676 55.5093 120.993 55.168C120.311 54.8053 119.532 54.624 118.657 54.624C117.783 54.624 117.004 54.8053 116.321 55.168C115.639 55.5093 115.095 56 114.689 56.64C114.305 57.2587 114.113 57.9947 114.113 58.848C114.113 59.68 114.305 60.416 114.689 61.056C115.095 61.696 115.639 62.1973 116.321 62.56C117.004 62.9013 117.783 63.072 118.657 63.072Z" fill="white"/>
<path d="M147.598 68.256C146.126 68.256 144.707 68.0854 143.342 67.744C141.998 67.3814 140.931 66.9333 140.142 66.4L141.806 62.816C142.595 63.3067 143.523 63.712 144.59 64.032C145.678 64.3307 146.745 64.48 147.79 64.48C148.942 64.48 149.753 64.3413 150.222 64.064C150.713 63.7867 150.958 63.4027 150.958 62.912C150.958 62.5067 150.766 62.208 150.382 62.016C150.019 61.8027 149.529 61.6427 148.91 61.536C148.291 61.4293 147.609 61.3227 146.862 61.216C146.137 61.1093 145.401 60.9707 144.654 60.8C143.907 60.608 143.225 60.3307 142.606 59.968C141.987 59.6053 141.486 59.1147 141.102 58.496C140.739 57.8773 140.558 57.0773 140.558 56.096C140.558 55.008 140.867 54.048 141.486 53.216C142.126 52.384 143.043 51.7333 144.238 51.264C145.433 50.7733 146.862 50.528 148.526 50.528C149.699 50.528 150.894 50.656 152.11 50.912C153.326 51.168 154.339 51.5413 155.15 52.032L153.486 55.584C152.654 55.0933 151.811 54.7627 150.958 54.592C150.126 54.4 149.315 54.304 148.526 54.304C147.417 54.304 146.606 54.4533 146.094 54.752C145.582 55.0507 145.326 55.4347 145.326 55.904C145.326 56.3307 145.507 56.6507 145.87 56.864C146.254 57.0773 146.755 57.248 147.374 57.376C147.993 57.504 148.665 57.6213 149.39 57.728C150.137 57.8133 150.883 57.952 151.63 58.144C152.377 58.336 153.049 58.6133 153.646 58.976C154.265 59.3173 154.766 59.7973 155.15 60.416C155.534 61.0133 155.726 61.8027 155.726 62.784C155.726 63.8507 155.406 64.8 154.766 65.632C154.126 66.4427 153.198 67.0827 151.982 67.552C150.787 68.0214 149.326 68.256 147.598 68.256Z" fill="white"/>
<path d="M166.998 68.256C165.163 68.256 163.531 67.872 162.102 67.104C160.694 66.336 159.574 65.2907 158.742 63.968C157.931 62.624 157.526 61.0987 157.526 59.392C157.526 57.664 157.931 56.1387 158.742 54.816C159.574 53.472 160.694 52.4267 162.102 51.68C163.531 50.912 165.163 50.528 166.998 50.528C168.811 50.528 170.433 50.912 171.862 51.68C173.291 52.4267 174.411 53.4613 175.222 54.784C176.033 56.1067 176.438 57.6427 176.438 59.392C176.438 61.0987 176.033 62.624 175.222 63.968C174.411 65.2907 173.291 66.336 171.862 67.104C170.433 67.872 168.811 68.256 166.998 68.256ZM166.998 64.16C167.83 64.16 168.577 63.968 169.238 63.584C169.899 63.2 170.422 62.656 170.806 61.952C171.19 61.2267 171.382 60.3733 171.382 59.392C171.382 58.3893 171.19 57.536 170.806 56.832C170.422 56.128 169.899 55.584 169.238 55.2C168.577 54.816 167.83 54.624 166.998 54.624C166.166 54.624 165.419 54.816 164.758 55.2C164.097 55.584 163.563 56.128 163.158 56.832C162.774 57.536 162.582 58.3893 162.582 59.392C162.582 60.3733 162.774 61.2267 163.158 61.952C163.563 62.656 164.097 63.2 164.758 63.584C165.419 63.968 166.166 64.16 166.998 64.16Z" fill="white"/>
<path d="M187.967 68.256C186.132 68.256 184.5 67.872 183.071 67.104C181.663 66.336 180.543 65.2907 179.711 63.968C178.9 62.624 178.495 61.0987 178.495 59.392C178.495 57.664 178.9 56.1387 179.711 54.816C180.543 53.472 181.663 52.4267 183.071 51.68C184.5 50.912 186.132 50.528 187.967 50.528C189.78 50.528 191.401 50.912 192.831 51.68C194.26 52.4267 195.38 53.4613 196.191 54.784C197.001 56.1067 197.407 57.6427 197.407 59.392C197.407 61.0987 197.001 62.624 196.191 63.968C195.38 65.2907 194.26 66.336 192.831 67.104C191.401 67.872 189.78 68.256 187.967 68.256ZM187.967 64.16C188.799 64.16 189.545 63.968 190.207 63.584C190.868 63.2 191.391 62.656 191.775 61.952C192.159 61.2267 192.351 60.3733 192.351 59.392C192.351 58.3893 192.159 57.536 191.775 56.832C191.391 56.128 190.868 55.584 190.207 55.2C189.545 54.816 188.799 54.624 187.967 54.624C187.135 54.624 186.388 54.816 185.727 55.2C185.065 55.584 184.532 56.128 184.127 56.832C183.743 57.536 183.551 58.3893 183.551 59.392C183.551 60.3733 183.743 61.2267 184.127 61.952C184.532 62.656 185.065 63.2 185.727 63.584C186.388 63.968 187.135 64.16 187.967 64.16Z" fill="white"/>
<path d="M211.208 50.528C212.573 50.528 213.789 50.8053 214.855 51.36C215.943 51.8933 216.797 52.7253 217.415 53.856C218.034 54.9653 218.344 56.3947 218.344 58.144V68H213.352V58.912C213.352 57.5253 213.042 56.5013 212.423 55.84C211.826 55.1787 210.973 54.848 209.863 54.848C209.074 54.848 208.359 55.0187 207.719 55.36C207.101 55.68 206.61 56.1813 206.247 56.864C205.906 57.5467 205.736 58.4213 205.736 59.488V68H200.743V50.784H205.512V55.552L204.615 54.112C205.234 52.96 206.119 52.0747 207.271 51.456C208.423 50.8373 209.736 50.528 211.208 50.528Z" fill="white"/>
<path d="M224.757 68.256C223.903 68.256 223.167 67.968 222.548 67.392C221.951 66.7947 221.652 66.0373 221.652 65.12C221.652 64.2027 221.951 63.4667 222.548 62.912C223.167 62.336 223.903 62.048 224.757 62.048C225.631 62.048 226.367 62.336 226.964 62.912C227.562 63.4667 227.861 64.2027 227.861 65.12C227.861 66.0373 227.562 66.7947 226.964 67.392C226.367 67.968 225.631 68.256 224.757 68.256Z" fill="white"/>
<path d="M233.132 68.256C232.278 68.256 231.542 67.968 230.923 67.392C230.326 66.7947 230.027 66.0373 230.027 65.12C230.027 64.2027 230.326 63.4667 230.923 62.912C231.542 62.336 232.278 62.048 233.132 62.048C234.006 62.048 234.742 62.336 235.339 62.912C235.937 63.4667 236.236 64.2027 236.236 65.12C236.236 66.0373 235.937 66.7947 235.339 67.392C234.742 67.968 234.006 68.256 233.132 68.256Z" fill="white"/>
<path d="M241.507 68.256C240.653 68.256 239.917 67.968 239.298 67.392C238.701 66.7947 238.402 66.0373 238.402 65.12C238.402 64.2027 238.701 63.4667 239.298 62.912C239.917 62.336 240.653 62.048 241.507 62.048C242.381 62.048 243.117 62.336 243.714 62.912C244.312 63.4667 244.611 64.2027 244.611 65.12C244.611 66.0373 244.312 66.7947 243.714 67.392C243.117 67.968 242.381 68.256 241.507 68.256Z" fill="white"/>
<path d="M248.471 60.224L247.479 45.6H253.43L252.438 60.224H248.471ZM250.454 68.256C249.558 68.256 248.823 67.968 248.247 67.392C247.671 66.816 247.382 66.1333 247.382 65.344C247.382 64.5333 247.671 63.8613 248.247 63.328C248.823 62.7733 249.558 62.496 250.454 62.496C251.372 62.496 252.108 62.7733 252.663 63.328C253.239 63.8613 253.527 64.5333 253.527 65.344C253.527 66.1333 253.239 66.816 252.663 67.392C252.108 67.968 251.372 68.256 250.454 68.256Z" fill="white"/>
<path d="M257.721 60.224L256.729 45.6H262.681L261.689 60.224H257.721ZM259.705 68.256C258.809 68.256 258.073 67.968 257.497 67.392C256.921 66.816 256.633 66.1333 256.633 65.344C256.633 64.5333 256.921 63.8613 257.497 63.328C258.073 62.7733 258.809 62.496 259.705 62.496C260.622 62.496 261.358 62.7733 261.913 63.328C262.489 63.8613 262.777 64.5333 262.777 65.344C262.777 66.1333 262.489 66.816 261.913 67.392C261.358 67.968 260.622 68.256 259.705 68.256Z" fill="white"/>
</svg>
