<svg width="28" height="28" viewBox="0 0 28 28" fill="none" xmlns="http://www.w3.org/2000/svg">
<path d="M14.1602 27.8418C21.666 27.8418 27.873 21.6348 27.873 14.1289C27.873 6.60938 21.666 0.416016 14.1465 0.416016C6.64062 0.416016 0.447266 6.60938 0.447266 14.1289C0.447266 21.6348 6.6543 27.8418 14.1602 27.8418ZM14.1602 26.0645C7.54297 26.0645 2.22461 20.7324 2.22461 14.1289C2.22461 7.51172 7.54297 2.17969 14.1465 2.17969C20.7637 2.17969 26.0957 7.51172 26.1094 14.1289C26.1094 20.7324 20.7773 26.0645 14.1602 26.0645ZM14.1191 20.541C16.8535 20.541 18.6309 19.0371 18.6309 16.9316C18.6309 15.3594 17.4004 14.0742 15.7598 13.9102V13.8281C17.1406 13.6094 18.1934 12.3516 18.1934 10.9297C18.1934 9.07031 16.5254 7.74414 14.1875 7.74414C12.1094 7.74414 10.4688 8.76953 10.168 10.3145C10.127 10.4922 10.1133 10.6152 10.1133 10.793C10.1133 11.2305 10.4141 11.5176 10.8516 11.5176C11.248 11.5176 11.4941 11.3262 11.6035 10.9434C11.8496 9.83594 12.8203 9.11133 14.1602 9.11133C15.6504 9.11133 16.5938 9.89062 16.5938 11.1074C16.5938 12.3379 15.5547 13.2676 14.1602 13.2676H13.1895C12.793 13.2676 12.5059 13.541 12.5059 13.9375C12.5059 14.334 12.793 14.6211 13.1895 14.6211H14.2422C15.8691 14.6211 17.0176 15.5645 17.0176 16.877C17.0176 18.2578 15.8691 19.1738 14.1465 19.1738C12.6426 19.1738 11.6582 18.3945 11.3438 17.3555C11.207 16.9453 10.9746 16.7676 10.5918 16.7676C10.1543 16.7676 9.83984 17.082 9.83984 17.5059C9.83984 17.6836 9.86719 17.8066 9.9082 17.9707C10.3184 19.502 12.0137 20.541 14.1191 20.541Z" fill="#FF4D77"/>
</svg>
