<svg width="315" height="303" viewBox="0 0 315 303" fill="none" xmlns="http://www.w3.org/2000/svg">
<path d="M149.241 203.654C149.241 204.393 149.839 204.99 150.577 204.99H155.455V209.868C155.455 210.598 156.044 211.204 156.782 211.204C157.521 211.204 158.118 210.598 158.118 209.868V204.99H162.996C163.726 204.99 164.323 204.393 164.323 203.654C164.323 202.925 163.726 202.327 162.996 202.327H158.118V197.449C158.118 196.72 157.521 196.113 156.782 196.113C156.044 196.113 155.455 196.72 155.455 197.449V202.327H150.577C149.839 202.327 149.241 202.925 149.241 203.654Z" fill="#FF4D77"/>
<path d="M0 220.848C0 218.639 1.79086 216.848 4 216.848H311C313.209 216.848 315 218.639 315 220.848V264.848H0V220.848Z" fill="#898989"/>
<path d="M34.848 233.502C34.92 233.988 34.956 234.672 34.956 235.536C34.956 235.626 34.956 235.698 34.938 235.788L34.866 245.418C34.866 246.39 34.83 246.66 34.686 247.074L36.054 248.694C36.378 248.55 36.576 248.496 37.134 248.388C42.372 247.434 45.468 245.49 48.024 241.548C47.052 240.756 46.764 240.45 45.972 239.352C45.09 241.062 44.01 242.322 42.48 243.42C41.076 244.428 39.6 245.058 37.674 245.454L37.782 235.77C37.782 234.78 37.818 234.222 37.908 233.538L34.848 233.502ZM61.2 236.292C61.884 237.156 62.352 237.894 62.82 238.902L64.368 238.146C63.9 237.156 63.432 236.418 62.748 235.608L61.2 236.292ZM63.342 235.32C63.99 236.166 64.458 236.904 64.926 237.84L66.456 237.084C65.97 236.13 65.502 235.41 64.836 234.654L63.342 235.32ZM51.822 244.626C52.092 244.302 52.2 244.158 52.47 243.834C53.82 242.214 54.864 240.9 55.692 239.802C56.43 238.83 56.448 238.812 56.718 238.812C56.934 238.812 57.114 238.92 57.402 239.244C61.416 243.69 62.964 245.292 65.682 247.776L67.032 244.824C66.51 244.5 66.186 244.23 65.214 243.348C63.054 241.422 61.344 239.712 59.544 237.678C58.122 236.058 57.654 235.752 56.682 235.752C56.214 235.752 55.782 235.86 55.386 236.094C55.008 236.328 54.594 236.724 53.964 237.552C52.92 238.884 51.228 240.882 50.706 241.422C50.436 241.692 50.292 241.818 50.004 241.998L51.822 244.626ZM71.37 233.592C71.424 234.06 71.442 234.402 71.442 235.41C71.442 236.382 71.406 237.606 71.37 238.488C71.262 240.396 71.1 241.44 70.722 242.628C70.182 244.374 69.408 245.526 68.022 246.75C68.994 247.434 69.336 247.758 70.2 248.856C71.37 247.668 72.036 246.732 72.666 245.418C73.62 243.456 73.962 241.584 74.088 237.84C74.214 234.294 74.214 234.294 74.286 233.754L71.37 233.592ZM76.302 233.466C76.356 233.916 76.374 234.33 76.374 235.122C76.374 235.284 76.374 235.446 76.374 235.626L76.302 245.742C76.284 246.606 76.248 246.966 76.122 247.47L77.454 248.892C77.688 248.748 77.832 248.694 78.282 248.532C80.118 247.848 81.036 247.326 82.08 246.426C83.358 245.31 84.312 243.924 85.068 242.052C84.078 241.26 83.79 240.972 83.052 240.036C82.674 241.314 82.188 242.286 81.45 243.222C80.766 244.086 80.1 244.626 78.984 245.238L79.074 235.662C79.092 234.438 79.11 234.222 79.218 233.484L76.302 233.466ZM99.126 233.034C98.478 233.394 97.92 233.592 96.894 233.88C94.59 234.492 91.566 234.888 89.118 234.888C88.848 234.888 88.542 234.87 87.966 234.852C88.452 235.896 88.56 236.22 88.758 237.174C91.458 237.048 92.196 236.994 93.636 236.814V237.12C93.636 237.786 93.618 238.704 93.6 239.172H89.46C88.11 239.172 87.606 239.154 86.868 239.046V241.584C87.57 241.512 88.218 241.494 89.424 241.494H93.366C93.132 243.276 92.52 244.338 91.116 245.418C90.252 246.066 89.604 246.408 88.344 246.858C89.316 247.704 89.622 248.082 90.234 249.144C91.062 248.766 91.422 248.568 91.944 248.244C93.204 247.434 94.266 246.408 94.896 245.364C95.526 244.338 95.904 243.132 96.102 241.494H99.666C100.818 241.494 101.466 241.512 102.168 241.584V239.046C101.448 239.154 100.908 239.172 99.612 239.172H96.264C96.282 238.578 96.3 237.984 96.318 236.436C97.848 236.148 98.37 236.004 99.846 235.536C100.44 235.338 100.44 235.338 100.836 235.23L99.126 233.034ZM113.67 240.414H115.452C116.568 240.414 117.126 240.432 117.81 240.504V238.128C117 238.236 116.568 238.254 115.452 238.254H109.422C108.306 238.254 107.766 238.218 107.154 238.146V240.504C107.748 240.45 108.396 240.414 109.44 240.414H111.204V245.994H108.306C107.028 245.994 106.632 245.976 106.038 245.886V248.28C106.902 248.19 106.938 248.19 108.324 248.19H116.46C117.594 248.19 118.314 248.226 118.944 248.28V245.886C118.224 245.976 117.684 245.994 116.478 245.994H113.67V240.414ZM124.146 237.93C124.938 239.532 125.28 240.468 125.766 242.43L128.178 241.692C127.548 239.658 127.188 238.758 126.396 237.282L124.146 237.93ZM128.07 237.156C128.772 238.56 129.348 240.108 129.69 241.53L132.048 240.81C131.598 239.172 131.256 238.362 130.302 236.544L128.07 237.156ZM134.262 236.904C134.244 237.498 134.154 238.092 133.938 238.974C133.2 241.854 132.012 243.708 129.924 245.22C128.898 245.94 128.124 246.354 126.756 246.876C127.656 247.74 127.908 248.064 128.466 249.018C131.31 247.578 132.912 246.3 134.19 244.464C135.252 242.916 136.026 240.936 136.548 238.506C136.692 237.858 136.71 237.804 136.818 237.498L134.262 236.904ZM146.304 232.782C146.214 233.412 145.962 234.096 145.44 235.068C144.252 237.336 142.83 238.956 140.724 240.414C141.786 241.062 142.11 241.332 142.866 242.25C144.522 240.954 145.926 239.406 147.024 237.66L152.136 237.606C150.66 242.142 147.852 244.968 142.992 246.858C143.946 247.722 144.252 248.082 144.846 249.18C147.708 247.866 149.76 246.408 151.38 244.554C152.946 242.772 154.206 240.342 155.07 237.534C155.286 236.814 155.358 236.652 155.538 236.364L154.224 235.068C153.882 235.194 153.522 235.248 152.928 235.266L148.248 235.32C148.446 234.924 148.518 234.762 148.68 234.402C148.932 233.826 149.112 233.466 149.202 233.34L146.304 232.782Z" fill="white"/>
<path d="M170.006 246.901C168.914 245.796 168.485 245.211 168.03 244.21C167.562 243.17 167.328 242.091 167.328 240.908C167.328 239.725 167.562 238.646 168.03 237.606C168.485 236.605 168.914 236.02 170.006 234.915H168.849C167.874 236.033 167.471 236.657 167.042 237.71C166.613 238.75 166.418 239.777 166.418 240.908C166.418 242.039 166.613 243.066 167.042 244.106C167.471 245.159 167.874 245.783 168.849 246.901H170.006ZM179.6 245.029C179.496 245.497 179.483 245.549 179.431 245.679C179.327 245.887 179.145 245.978 178.82 245.978C178.43 245.978 178.04 245.939 177.312 245.822C177.429 246.16 177.468 246.368 177.481 246.706C178.053 246.758 178.417 246.784 178.768 246.784C179.431 246.784 179.717 246.706 179.964 246.446C180.172 246.212 180.276 245.926 180.458 245.029H180.978C181.563 245.029 181.836 245.042 182.187 245.094V244.223C181.888 244.275 181.589 244.288 180.991 244.288H180.588C180.692 243.625 180.796 242.793 180.861 241.948H181.628C182.2 241.948 182.512 241.961 182.863 242.013V241.129C182.551 241.181 182.226 241.194 181.641 241.194H180.926C180.978 240.479 181.004 239.985 181.056 239.127C181.082 238.607 181.082 238.49 181.134 238.191C180.822 238.23 180.51 238.243 180.068 238.243H174.452C173.802 238.23 173.802 238.23 173.607 238.204C173.568 238.204 173.529 238.191 173.464 238.191C173.477 238.334 173.49 238.386 173.49 238.503C173.49 239.114 173.386 240.024 173.204 241.194H172.385C171.748 241.194 171.436 241.181 171.111 241.116V242.026C171.423 241.961 171.735 241.948 172.346 241.948H173.087C172.801 243.495 172.541 244.431 172.021 245.757L172.918 245.861C173.061 245.419 173.1 245.328 173.191 245.029H179.6ZM177.325 241.194C177.442 240.336 177.442 240.336 177.559 238.984H180.211C180.172 239.829 180.133 240.57 180.094 241.194H177.325ZM180.029 241.948C179.938 242.871 179.847 243.651 179.743 244.288H176.844C177.091 242.936 177.091 242.936 177.234 241.948H180.029ZM173.399 244.288C173.607 243.495 173.75 242.832 173.906 241.948H176.428C176.272 242.975 176.272 242.975 176.012 244.288H173.399ZM174.036 241.194C174.166 240.271 174.218 239.933 174.309 238.984H176.753C176.636 240.414 176.636 240.414 176.532 241.194H174.036ZM180.809 237.047C181.511 237.047 181.927 237.073 182.447 237.125V236.202C181.979 236.267 181.55 236.293 180.809 236.293H174.335C174.452 236.072 174.465 236.059 174.699 235.578C174.79 235.396 174.829 235.318 174.998 235.019L174.088 234.798C174.036 235.006 173.932 235.266 173.724 235.708C173.1 237.034 172.281 238.035 171.098 238.919C171.345 239.127 171.488 239.309 171.683 239.608C172.632 238.776 173.282 238.035 173.906 237.047H180.809ZM193.146 242.533V245.406C193.146 245.731 193.042 245.809 192.665 245.809C192.041 245.809 191.456 245.77 190.806 245.679C190.923 246.017 190.975 246.225 191.014 246.563C191.599 246.602 192.145 246.615 192.574 246.615C193.159 246.615 193.406 246.576 193.614 246.446C193.861 246.277 193.978 246.004 193.978 245.536V236.982C193.978 236.319 193.991 235.994 194.03 235.643C193.588 235.695 193.25 235.708 192.678 235.708H187.79C187.231 235.708 186.893 235.695 186.425 235.643C186.464 236.137 186.477 236.657 186.477 237.853C186.477 240.739 186.334 242.338 185.97 243.573C185.658 244.626 185.242 245.315 184.436 246.121C184.735 246.329 184.917 246.511 185.151 246.81C185.879 245.978 186.243 245.406 186.581 244.548C186.828 243.937 186.997 243.287 187.114 242.533H193.146ZM187.205 241.753C187.309 240.648 187.335 240.154 187.348 239.439H193.146V241.753H187.205ZM187.348 238.659V238.347L187.361 236.501H193.146V238.659H187.348ZM198.593 236.852C198.97 236.8 199.308 236.774 199.724 236.774H200.426V244.301C200.426 244.899 200.4 245.315 200.322 245.77H201.557C201.479 245.289 201.453 244.912 201.453 244.301V237.983C201.453 237.281 201.492 236.618 201.57 235.825C201.141 235.877 200.933 235.89 200.491 235.89H199.672C199.178 235.89 198.931 235.877 198.593 235.825V236.852ZM210.374 238.477C209.724 238.477 209.36 238.464 209.022 238.425C209.061 238.75 209.074 238.997 209.074 239.426V242.26C209.074 242.676 209.061 242.962 209.022 243.261C209.399 243.222 209.62 243.209 210.374 243.209H212.662C213.26 243.209 213.611 243.222 214.014 243.261C213.975 242.949 213.962 242.728 213.962 242.26V239.426C213.962 238.958 213.975 238.698 214.014 238.425C213.676 238.464 213.312 238.477 212.662 238.477H210.374ZM209.88 239.192H213.156V242.494H209.88V239.192ZM216.913 246.836C216.861 246.511 216.835 246.056 216.835 245.302V237.229C216.835 236.553 216.861 236.124 216.913 235.63C216.432 235.682 216.055 235.695 215.366 235.695H207.709C207.033 235.695 206.656 235.682 206.188 235.63C206.24 236.124 206.266 236.579 206.266 237.229V245.276C206.266 246.043 206.24 246.446 206.188 246.836H207.111V246.069H215.99V246.836H216.913ZM207.111 236.449H215.99V245.315H207.111V236.449ZM224.544 239.842C223.959 239.842 223.478 240.323 223.478 240.908C223.478 241.493 223.959 241.974 224.544 241.974C225.129 241.974 225.61 241.493 225.61 240.908C225.61 240.323 225.129 239.842 224.544 239.842ZM233.124 240.713V245.133C232.578 245.185 232.136 245.211 231.915 245.211C231.889 245.211 231.889 245.211 231.694 245.211L231.902 246.069C232.279 245.978 232.526 245.939 232.864 245.887C234.866 245.614 234.866 245.614 236.517 245.315V245.64C236.517 246.212 236.491 246.537 236.439 246.849H237.336C237.271 246.524 237.258 246.225 237.258 245.64V240.713H242.224C242.731 240.713 243.017 240.726 243.42 240.791V239.946C243.082 240.011 242.796 240.024 242.211 240.024H232.877C232.305 240.024 232.006 240.011 231.694 239.946V240.791C232.097 240.726 232.37 240.713 232.864 240.713H233.124ZM233.891 240.713H236.517V241.636H233.891V240.713ZM233.891 242.247H236.517V243.209H233.891V242.247ZM233.891 243.82H236.517V244.652C235.386 244.86 234.996 244.925 233.891 245.042V243.82ZM242.211 241.571C242.016 241.61 241.704 241.623 241.223 241.623H238.805C238.285 241.623 237.999 241.61 237.7 241.571V242.338C237.973 242.312 238.129 242.299 238.337 242.286C238.766 243.391 239.104 243.937 239.767 244.665C239.104 245.211 238.571 245.51 237.531 245.939C237.778 246.173 237.869 246.29 238.038 246.602C239.065 246.108 239.52 245.822 240.287 245.172C240.989 245.783 241.743 246.238 242.848 246.706C242.991 246.446 243.173 246.173 243.342 245.991C242.289 245.627 241.535 245.237 240.833 244.665C241.418 244.08 241.808 243.534 242.432 242.429C242.536 242.247 242.575 242.182 242.666 242.052L242.211 241.571ZM241.652 242.286C241.145 243.196 240.833 243.625 240.287 244.184C239.728 243.586 239.468 243.183 239.065 242.286H241.652ZM241.886 236.501C241.886 236.033 241.899 235.773 241.938 235.461C241.496 235.5 241.132 235.513 240.534 235.513H234.658C234.06 235.513 233.683 235.5 233.241 235.461C233.28 235.76 233.293 236.072 233.293 236.501V238.269C233.293 238.685 233.28 238.997 233.241 239.296C233.709 239.257 234.073 239.244 234.645 239.244H240.599C241.106 239.244 241.522 239.257 241.938 239.296C241.899 238.971 241.886 238.737 241.886 238.269V236.501ZM234.06 236.176H241.119V237.086H234.06V236.176ZM234.06 237.71H241.119V238.62H234.06V237.71ZM244.837 241.532C245.032 241.493 245.149 241.48 245.396 241.467C246.436 241.389 246.436 241.389 246.982 241.337V245.549C246.982 246.082 246.956 246.459 246.904 246.862H247.827C247.762 246.485 247.749 246.121 247.749 245.562V241.272C248.321 241.207 248.36 241.207 248.893 241.129C249.01 241.454 249.023 241.532 249.153 241.922L249.621 241.675C249.777 241.857 249.855 242 249.985 242.247C251.35 241.571 251.974 241.142 252.975 240.258C253.859 241.09 254.73 241.675 256.277 242.429C256.42 242.091 256.537 241.883 256.771 241.623C255.211 240.986 254.47 240.544 253.547 239.712C254.327 238.906 254.795 238.269 255.419 237.19C255.588 236.904 255.614 236.852 255.718 236.709L255.25 236.202C255.003 236.254 254.691 236.267 254.028 236.267H252.13C252.169 236.189 252.247 236.02 252.676 235.214L251.857 234.954C251.532 236.215 250.453 237.697 249.153 238.698C249.387 238.841 249.517 238.971 249.699 239.244C250.31 238.711 250.674 238.347 251.116 237.788C251.48 238.503 251.883 239.088 252.455 239.725C251.597 240.479 250.882 240.934 249.764 241.454C249.439 240.505 249.192 239.92 248.724 239.023L248.126 239.335C248.386 239.803 248.464 239.998 248.672 240.492C247.892 240.596 247.71 240.609 246.566 240.687C247.138 239.972 247.957 238.854 248.321 238.282C249.036 237.138 249.036 237.138 249.205 236.904L248.451 236.488C248.308 236.904 247.879 237.658 247.086 238.867C246.787 238.49 246.657 238.334 246.319 237.931C246.774 237.242 247.138 236.592 247.554 235.773C247.684 235.539 247.723 235.461 247.814 235.331L246.995 234.98C246.878 235.513 246.501 236.293 245.838 237.398C245.63 237.177 245.565 237.112 245.292 236.826L244.811 237.411C245.396 237.97 246.072 238.724 246.67 239.478C246.293 239.998 246.293 239.998 245.734 240.726C245.422 240.726 245.383 240.726 245.266 240.726C245.045 240.726 244.928 240.726 244.707 240.7L244.837 241.532ZM251.701 236.956H254.652C254.145 237.918 253.82 238.36 253.001 239.192C252.338 238.49 251.948 237.931 251.584 237.138L251.701 236.956ZM245.461 242.234C245.318 243.976 245.162 244.652 244.72 245.731L245.422 246.095C245.864 244.951 245.994 244.353 246.202 242.39L245.461 242.234ZM248.256 242.299C248.555 243.144 248.776 244.093 248.945 245.25L249.66 245.016C249.452 243.911 249.205 242.975 248.893 242.078L248.256 242.299ZM254.925 243.391C253.937 242.676 253.456 242.39 252.117 241.675L251.662 242.325C252.975 243.014 253.586 243.404 254.431 244.093L254.925 243.391ZM255.614 246.069C253.677 245.094 252.598 244.652 250.739 244.106L250.388 244.847C252.494 245.458 253.495 245.874 255.237 246.862L255.614 246.069ZM264.818 239.231H263.96C263.388 239.231 263.102 239.218 262.79 239.166V239.933C263.193 239.881 263.544 239.868 263.96 239.868H266.586C267.028 239.868 267.34 239.881 267.73 239.933V239.166C267.418 239.218 267.171 239.231 266.573 239.231H265.533V238.074H266.222C266.716 238.074 267.054 238.087 267.353 238.126V237.385C267.015 237.424 266.651 237.45 266.222 237.45H265.533C265.533 236.956 265.546 236.709 265.598 236.475H264.753C264.805 236.761 264.818 236.956 264.818 237.45H264.272C263.843 237.45 263.44 237.424 263.102 237.385V238.126C263.427 238.087 263.778 238.074 264.259 238.074H264.818V239.231ZM262.517 236.176H268.029V243.781C268.029 244.08 267.951 244.158 267.6 244.158C267.08 244.158 266.625 244.119 266.144 244.054C266.261 244.353 266.287 244.496 266.313 244.86C266.677 244.873 267.067 244.886 267.431 244.886C268.497 244.886 268.809 244.678 268.809 243.937V236.657C268.809 236.046 268.822 235.76 268.861 235.422C268.536 235.461 268.25 235.474 267.6 235.474H262.907C262.283 235.474 262.023 235.461 261.659 235.422C261.711 235.812 261.737 236.241 261.737 236.904C261.737 239.14 261.698 240.518 261.581 241.519C261.451 242.78 261.295 243.404 260.892 244.275C261.204 244.431 261.386 244.548 261.607 244.769C261.984 243.872 262.14 243.313 262.27 242.403C262.439 241.259 262.517 239.478 262.517 236.8V236.176ZM258.006 235.838C258.903 236.683 259.293 237.138 260.034 238.204L260.697 237.619C259.969 236.67 259.501 236.163 258.604 235.318L258.006 235.838ZM264.025 244.015V243.365H266.261C266.599 243.365 266.846 243.378 267.093 243.404C267.067 243.183 267.054 243.014 267.054 242.702V241.402C267.054 241.116 267.067 240.908 267.093 240.622C266.872 240.648 266.586 240.661 266.183 240.661H264.155C263.843 240.661 263.518 240.648 263.284 240.622C263.31 240.921 263.323 241.155 263.323 241.454V243.066C263.323 243.495 263.31 243.794 263.271 244.015H264.025ZM264.025 241.298H266.365V242.715H264.025V241.298ZM257.746 241.064C258.071 241.012 258.266 240.999 258.708 240.999H259.566V244.132C258.838 244.847 258.058 245.432 257.486 245.705L257.941 246.524C258.214 246.29 258.227 246.29 258.409 246.147C259.033 245.653 259.423 245.315 259.93 244.795C260.333 245.406 260.736 245.77 261.295 246.03C262.062 246.394 262.816 246.485 265.039 246.485C266.573 246.485 267.99 246.459 269.394 246.394C269.472 245.978 269.511 245.861 269.693 245.458C268.354 245.64 266.612 245.718 264.038 245.718C262.465 245.718 261.685 245.536 260.996 244.99C260.684 244.743 260.554 244.548 260.372 244.145V241.584C260.372 240.947 260.385 240.583 260.437 240.206C260.099 240.258 259.813 240.271 259.436 240.271H258.76C258.266 240.271 258.058 240.258 257.746 240.206V241.064ZM271.695 246.901C272.67 245.783 273.073 245.159 273.502 244.106C273.931 243.066 274.126 242.039 274.126 240.908C274.126 239.777 273.931 238.75 273.502 237.71C273.073 236.657 272.67 236.033 271.695 234.915H270.538C271.63 236.007 272.059 236.605 272.514 237.606C272.982 238.646 273.216 239.725 273.216 240.908C273.216 242.091 272.982 243.17 272.514 244.21C272.059 245.211 271.63 245.809 270.538 246.901H271.695Z" fill="white"/>
<path d="M0 254.848H315V298.848C315 301.057 313.209 302.848 311 302.848H4C1.79086 302.848 0 301.057 0 298.848V254.848Z" fill="#898989"/>
<path d="M60.388 281.852V284.606C60.388 284.948 60.262 285.038 59.74 285.038C59.02 285.038 57.994 284.966 57.022 284.822C57.382 285.686 57.508 286.208 57.652 287.216C58.534 287.252 59.164 287.27 59.722 287.27C61.036 287.27 61.63 287.162 62.08 286.874C62.602 286.514 62.8 285.974 62.8 284.93V273.374C62.8 272.24 62.818 271.718 62.872 271.232C62.296 271.304 61.774 271.322 60.712 271.322H52.918C51.946 271.322 51.388 271.304 50.704 271.232C50.776 271.88 50.812 272.636 50.812 274.022C50.812 281.42 50.38 283.31 48.256 285.524C49.066 286.154 49.588 286.676 50.236 287.504C51.712 285.794 52.468 284.138 52.846 281.852H60.388ZM53.098 279.692C53.152 278.9 53.188 278.252 53.224 277.64H60.388V279.692H53.098ZM53.242 275.48V273.59H60.388V275.48H53.242ZM75.526 272.87V271.826C75.526 271.25 75.544 270.998 75.616 270.62H73.078C73.15 270.98 73.168 271.286 73.168 271.808V272.87H68.776C67.66 272.87 67.12 272.834 66.544 272.762V275.156C67.174 275.084 67.696 275.066 68.794 275.066H73.168V277.19H69.568C68.47 277.19 67.966 277.172 67.354 277.082V279.44C68.038 279.368 68.614 279.332 69.586 279.332H72.178C71.386 280.43 70.774 281.114 69.91 281.87C68.65 282.968 67.552 283.688 65.896 284.48C66.472 285.146 66.886 285.776 67.3 286.694C68.578 285.974 69.622 285.236 70.63 284.318C71.746 283.31 72.142 282.86 73.24 281.258C73.222 281.456 73.204 282.014 73.168 282.878V285.434C73.168 286.244 73.132 286.838 73.042 287.432H75.652C75.562 286.82 75.526 286.136 75.526 285.434V282.914C75.526 282.626 75.49 281.744 75.454 281.258C77.2 283.742 79.108 285.416 81.664 286.748C82.096 285.83 82.42 285.29 83.068 284.408C81.43 283.688 80.224 282.95 79.018 281.96C77.92 281.06 77.308 280.412 76.498 279.332H79.414C80.368 279.332 81.034 279.368 81.664 279.44V277.082C81.196 277.154 80.602 277.19 79.414 277.19H75.526V275.066H80.278C81.376 275.066 81.898 275.084 82.492 275.156V272.762C82.006 272.834 81.448 272.87 80.26 272.87H75.526ZM94.66 273.338V279.53H92.86C91.888 279.53 91.384 279.512 90.952 279.44V281.78C91.51 281.708 92.032 281.69 92.878 281.69H94.66V284.984C94.66 286.064 94.624 286.658 94.552 287.342H97.108C97.018 286.658 96.982 286.118 96.982 285.002V281.69H98.998C99.79 281.69 100.384 281.726 100.978 281.798V279.44C100.438 279.512 99.952 279.53 99.052 279.53H96.982V273.338H98.764C99.376 273.338 100.078 273.374 100.708 273.428V271.106C100.222 271.16 99.52 271.196 98.692 271.196H93.22C92.356 271.196 91.672 271.16 91.168 271.106V273.428C91.798 273.374 92.482 273.338 93.112 273.338H94.66ZM84.778 272.888C85.21 272.852 85.624 272.834 86.344 272.834H88.972C89.728 272.834 90.034 272.852 90.538 272.888V270.998C90.052 271.052 89.746 271.07 88.972 271.07H86.344C85.57 271.07 85.246 271.052 84.778 270.998V272.888ZM84.148 275.66C84.562 275.606 84.958 275.588 85.606 275.588H89.332C90.124 275.588 90.358 275.606 90.718 275.642V273.554C90.322 273.608 89.998 273.626 89.26 273.626H85.606C84.922 273.626 84.58 273.608 84.148 273.536V275.66ZM84.832 278.234C85.174 278.198 85.39 278.18 85.966 278.18H89.44C89.98 278.18 90.16 278.18 90.538 278.234V276.362C90.232 276.416 90.034 276.416 89.44 276.416H85.966C85.39 276.416 85.192 276.416 84.832 276.362V278.234ZM84.832 280.772C85.174 280.736 85.408 280.718 85.948 280.718H89.404C89.98 280.718 90.178 280.718 90.538 280.772V278.9C90.232 278.936 90.016 278.954 89.44 278.954H85.966C85.39 278.954 85.192 278.954 84.832 278.9V280.772ZM86.866 287.396V286.604H88.522V287.144H90.646C90.592 286.622 90.574 286.226 90.574 285.434V282.734C90.574 282.086 90.574 281.834 90.61 281.474C90.322 281.528 90.124 281.528 89.458 281.528H86.074C85.516 281.528 85.138 281.51 84.706 281.474C84.76 281.942 84.778 282.302 84.778 282.86V285.668C84.778 286.244 84.742 286.874 84.688 287.396H86.866ZM86.848 283.274H88.522V284.768H86.848V283.274ZM90.952 274.67C91.582 276.128 91.906 277.154 92.356 279.116L94.264 278.432C93.85 276.668 93.616 275.966 92.806 273.896L90.952 274.67ZM98.818 273.914C98.476 275.498 98.044 276.812 97.306 278.45L99.142 279.116C99.916 277.388 100.312 276.362 100.834 274.67L98.818 273.914ZM109.798 273.644V275.786H108.25C107.512 275.786 107.098 275.768 106.594 275.696C106.648 276.29 106.666 276.812 106.666 277.496V285.344C106.666 285.992 106.63 286.766 106.576 287.36H108.916V286.46H116.044V287.36H118.42C118.348 286.604 118.312 285.956 118.312 284.966V277.46C118.312 276.704 118.33 276.272 118.384 275.696C117.934 275.75 117.394 275.786 116.728 275.786H115.144V273.644H116.62C117.556 273.644 118.366 273.68 118.87 273.734V271.43C118.348 271.502 117.61 271.538 116.548 271.538H109.24C108.322 271.538 107.584 271.502 107.116 271.448L107.152 271.376L104.848 270.422C104.74 271.196 104.578 271.808 104.2 272.852C103.516 274.706 102.706 276.128 101.644 277.262C102.04 278.252 102.22 278.882 102.454 279.944C102.796 279.512 103.192 278.918 103.462 278.45C103.426 279.368 103.426 279.746 103.426 280.322V285.344C103.426 286.208 103.39 286.73 103.318 287.45H105.712C105.658 286.964 105.64 286.406 105.64 285.362V275.282C106.378 273.626 106.432 273.518 106.792 272.384C106.9 272.078 106.936 271.952 107.008 271.772V273.734C107.602 273.68 108.304 273.644 109.24 273.644H109.798ZM109.96 277.856V284.372H108.826V277.856H109.96ZM111.922 284.372V277.856H113.038V284.372H111.922ZM111.922 275.786V273.644H113.038V275.786H111.922ZM115 284.372V277.856H116.134V284.372H115Z" fill="white"/>
<path d="M132.006 284.901C130.914 283.796 130.485 283.211 130.03 282.21C129.562 281.17 129.328 280.091 129.328 278.908C129.328 277.725 129.562 276.646 130.03 275.606C130.485 274.605 130.914 274.02 132.006 272.915H130.849C129.874 274.033 129.471 274.657 129.042 275.71C128.613 276.75 128.418 277.777 128.418 278.908C128.418 280.039 128.613 281.066 129.042 282.106C129.471 283.159 129.874 283.783 130.849 284.901H132.006ZM133.085 281.638C133.319 282.301 133.475 282.587 133.748 282.899C134.372 283.601 135.347 283.965 136.66 283.965C138.831 283.965 140.183 282.873 140.183 281.118C140.183 280.286 139.884 279.597 139.312 279.155C138.87 278.817 138.467 278.674 137.713 278.596C138.311 278.479 138.597 278.375 138.935 278.128C139.507 277.725 139.845 277.023 139.845 276.23C139.845 274.67 138.649 273.682 136.764 273.682C135.633 273.682 134.749 274.007 134.177 274.631C133.852 274.969 133.696 275.268 133.475 275.931L134.554 276.165C134.697 275.684 134.788 275.476 134.97 275.242C135.334 274.774 135.906 274.553 136.699 274.553C138.012 274.553 138.792 275.203 138.792 276.321C138.792 276.789 138.597 277.27 138.272 277.582C137.869 277.985 137.232 278.18 136.374 278.18C136.023 278.18 135.711 278.154 135.412 278.102V279.129C135.763 279.09 136.088 279.064 136.452 279.064C138.181 279.064 139.104 279.766 139.104 281.053C139.104 282.288 138.155 283.068 136.647 283.068C135.984 283.068 135.412 282.912 134.97 282.6C134.567 282.314 134.385 282.041 134.177 281.365L133.085 281.638ZM150.742 278.401C151.483 278.401 151.483 278.401 151.821 278.453V277.569C151.535 277.621 151.262 277.647 150.768 277.647H146.075C145.932 277.647 145.828 277.66 145.789 277.66C145.932 277.452 146.075 277.14 146.387 276.386C146.517 276.074 146.517 276.074 146.595 275.931L145.685 275.684C145.62 276.074 145.425 276.62 145.139 277.205C144.541 278.401 143.839 279.311 142.916 280.039C143.228 280.221 143.332 280.299 143.592 280.572C144.424 279.818 144.879 279.272 145.425 278.401H148.168C148.116 279.467 147.908 280.416 147.596 281.066C147.037 282.236 145.984 283.107 144.489 283.653C144.788 283.9 144.879 284.03 145.061 284.381C146.608 283.731 147.791 282.691 148.376 281.469C148.74 280.689 148.961 279.662 149.026 278.401H150.742ZM163.69 280.533V283.406C163.69 283.731 163.586 283.809 163.209 283.809C162.585 283.809 162 283.77 161.35 283.679C161.467 284.017 161.519 284.225 161.558 284.563C162.143 284.602 162.689 284.615 163.118 284.615C163.703 284.615 163.95 284.576 164.158 284.446C164.405 284.277 164.522 284.004 164.522 283.536V274.982C164.522 274.319 164.535 273.994 164.574 273.643C164.132 273.695 163.794 273.708 163.222 273.708H158.334C157.775 273.708 157.437 273.695 156.969 273.643C157.008 274.137 157.021 274.657 157.021 275.853C157.021 278.739 156.878 280.338 156.514 281.573C156.202 282.626 155.786 283.315 154.98 284.121C155.279 284.329 155.461 284.511 155.695 284.81C156.423 283.978 156.787 283.406 157.125 282.548C157.372 281.937 157.541 281.287 157.658 280.533H163.69ZM157.749 279.753C157.853 278.648 157.879 278.154 157.892 277.439H163.69V279.753H157.749ZM157.892 276.659V276.347L157.905 274.501H163.69V276.659H157.892ZM169.566 273.708C169.54 274.007 169.514 274.137 169.384 274.748C168.955 276.672 168.799 278.05 168.799 279.896C168.799 281.261 168.89 282.197 169.137 283.575C169.176 283.822 169.189 283.887 169.215 284.095L170.151 284.017C170.151 283.926 170.151 283.861 170.151 283.822C170.151 283.094 170.619 281.534 171.204 280.247L170.58 279.948C170.164 280.897 169.917 281.612 169.735 282.483C169.683 281.794 169.657 281.027 169.657 280.013C169.657 278.453 169.774 277.309 170.047 275.944C170.242 275.06 170.398 274.423 170.593 273.864L169.566 273.708ZM172.244 276.165C173.089 276.256 173.596 276.295 174.324 276.295C175.325 276.295 176.365 276.23 177.119 276.126C177.691 276.048 177.99 276.009 178.016 276.009L177.951 275.086C177.08 275.32 175.91 275.437 174.467 275.437C173.453 275.437 172.816 275.385 172.257 275.242L172.244 276.165ZM173.193 278.7C172.387 279.623 172.062 280.325 172.062 281.118C172.062 281.599 172.192 281.989 172.452 282.314C173.011 282.99 173.947 283.302 175.429 283.302C176.313 283.302 177.184 283.224 178.094 283.042C178.354 283.003 178.38 282.99 178.549 282.977L178.419 281.976C177.717 282.262 176.612 282.431 175.429 282.431C173.752 282.431 172.933 281.963 172.933 281.001C172.933 280.429 173.258 279.805 173.908 279.09L173.193 278.7ZM182.137 274.852C182.514 274.8 182.852 274.774 183.268 274.774H183.97V282.301C183.97 282.899 183.944 283.315 183.866 283.77H185.101C185.023 283.289 184.997 282.912 184.997 282.301V275.983C184.997 275.281 185.036 274.618 185.114 273.825C184.685 273.877 184.477 273.89 184.035 273.89H183.216C182.722 273.89 182.475 273.877 182.137 273.825V274.852ZM193.918 276.477C193.268 276.477 192.904 276.464 192.566 276.425C192.605 276.75 192.618 276.997 192.618 277.426V280.26C192.618 280.676 192.605 280.962 192.566 281.261C192.943 281.222 193.164 281.209 193.918 281.209H196.206C196.804 281.209 197.155 281.222 197.558 281.261C197.519 280.949 197.506 280.728 197.506 280.26V277.426C197.506 276.958 197.519 276.698 197.558 276.425C197.22 276.464 196.856 276.477 196.206 276.477H193.918ZM193.424 277.192H196.7V280.494H193.424V277.192ZM200.457 284.836C200.405 284.511 200.379 284.056 200.379 283.302V275.229C200.379 274.553 200.405 274.124 200.457 273.63C199.976 273.682 199.599 273.695 198.91 273.695H191.253C190.577 273.695 190.2 273.682 189.732 273.63C189.784 274.124 189.81 274.579 189.81 275.229V283.276C189.81 284.043 189.784 284.446 189.732 284.836H190.655V284.069H199.534V284.836H200.457ZM190.655 274.449H199.534V283.315H190.655V274.449ZM208.088 277.842C207.503 277.842 207.022 278.323 207.022 278.908C207.022 279.493 207.503 279.974 208.088 279.974C208.673 279.974 209.154 279.493 209.154 278.908C209.154 278.323 208.673 277.842 208.088 277.842ZM216.668 278.713V283.133C216.122 283.185 215.68 283.211 215.459 283.211C215.433 283.211 215.433 283.211 215.238 283.211L215.446 284.069C215.823 283.978 216.07 283.939 216.408 283.887C218.41 283.614 218.41 283.614 220.061 283.315V283.64C220.061 284.212 220.035 284.537 219.983 284.849H220.88C220.815 284.524 220.802 284.225 220.802 283.64V278.713H225.768C226.275 278.713 226.561 278.726 226.964 278.791V277.946C226.626 278.011 226.34 278.024 225.755 278.024H216.421C215.849 278.024 215.55 278.011 215.238 277.946V278.791C215.641 278.726 215.914 278.713 216.408 278.713H216.668ZM217.435 278.713H220.061V279.636H217.435V278.713ZM217.435 280.247H220.061V281.209H217.435V280.247ZM217.435 281.82H220.061V282.652C218.93 282.86 218.54 282.925 217.435 283.042V281.82ZM225.755 279.571C225.56 279.61 225.248 279.623 224.767 279.623H222.349C221.829 279.623 221.543 279.61 221.244 279.571V280.338C221.517 280.312 221.673 280.299 221.881 280.286C222.31 281.391 222.648 281.937 223.311 282.665C222.648 283.211 222.115 283.51 221.075 283.939C221.322 284.173 221.413 284.29 221.582 284.602C222.609 284.108 223.064 283.822 223.831 283.172C224.533 283.783 225.287 284.238 226.392 284.706C226.535 284.446 226.717 284.173 226.886 283.991C225.833 283.627 225.079 283.237 224.377 282.665C224.962 282.08 225.352 281.534 225.976 280.429C226.08 280.247 226.119 280.182 226.21 280.052L225.755 279.571ZM225.196 280.286C224.689 281.196 224.377 281.625 223.831 282.184C223.272 281.586 223.012 281.183 222.609 280.286H225.196ZM225.43 274.501C225.43 274.033 225.443 273.773 225.482 273.461C225.04 273.5 224.676 273.513 224.078 273.513H218.202C217.604 273.513 217.227 273.5 216.785 273.461C216.824 273.76 216.837 274.072 216.837 274.501V276.269C216.837 276.685 216.824 276.997 216.785 277.296C217.253 277.257 217.617 277.244 218.189 277.244H224.143C224.65 277.244 225.066 277.257 225.482 277.296C225.443 276.971 225.43 276.737 225.43 276.269V274.501ZM217.604 274.176H224.663V275.086H217.604V274.176ZM217.604 275.71H224.663V276.62H217.604V275.71ZM228.381 279.532C228.576 279.493 228.693 279.48 228.94 279.467C229.98 279.389 229.98 279.389 230.526 279.337V283.549C230.526 284.082 230.5 284.459 230.448 284.862H231.371C231.306 284.485 231.293 284.121 231.293 283.562V279.272C231.865 279.207 231.904 279.207 232.437 279.129C232.554 279.454 232.567 279.532 232.697 279.922L233.165 279.675C233.321 279.857 233.399 280 233.529 280.247C234.894 279.571 235.518 279.142 236.519 278.258C237.403 279.09 238.274 279.675 239.821 280.429C239.964 280.091 240.081 279.883 240.315 279.623C238.755 278.986 238.014 278.544 237.091 277.712C237.871 276.906 238.339 276.269 238.963 275.19C239.132 274.904 239.158 274.852 239.262 274.709L238.794 274.202C238.547 274.254 238.235 274.267 237.572 274.267H235.674C235.713 274.189 235.791 274.02 236.22 273.214L235.401 272.954C235.076 274.215 233.997 275.697 232.697 276.698C232.931 276.841 233.061 276.971 233.243 277.244C233.854 276.711 234.218 276.347 234.66 275.788C235.024 276.503 235.427 277.088 235.999 277.725C235.141 278.479 234.426 278.934 233.308 279.454C232.983 278.505 232.736 277.92 232.268 277.023L231.67 277.335C231.93 277.803 232.008 277.998 232.216 278.492C231.436 278.596 231.254 278.609 230.11 278.687C230.682 277.972 231.501 276.854 231.865 276.282C232.58 275.138 232.58 275.138 232.749 274.904L231.995 274.488C231.852 274.904 231.423 275.658 230.63 276.867C230.331 276.49 230.201 276.334 229.863 275.931C230.318 275.242 230.682 274.592 231.098 273.773C231.228 273.539 231.267 273.461 231.358 273.331L230.539 272.98C230.422 273.513 230.045 274.293 229.382 275.398C229.174 275.177 229.109 275.112 228.836 274.826L228.355 275.411C228.94 275.97 229.616 276.724 230.214 277.478C229.837 277.998 229.837 277.998 229.278 278.726C228.966 278.726 228.927 278.726 228.81 278.726C228.589 278.726 228.472 278.726 228.251 278.7L228.381 279.532ZM235.245 274.956H238.196C237.689 275.918 237.364 276.36 236.545 277.192C235.882 276.49 235.492 275.931 235.128 275.138L235.245 274.956ZM229.005 280.234C228.862 281.976 228.706 282.652 228.264 283.731L228.966 284.095C229.408 282.951 229.538 282.353 229.746 280.39L229.005 280.234ZM231.8 280.299C232.099 281.144 232.32 282.093 232.489 283.25L233.204 283.016C232.996 281.911 232.749 280.975 232.437 280.078L231.8 280.299ZM238.469 281.391C237.481 280.676 237 280.39 235.661 279.675L235.206 280.325C236.519 281.014 237.13 281.404 237.975 282.093L238.469 281.391ZM239.158 284.069C237.221 283.094 236.142 282.652 234.283 282.106L233.932 282.847C236.038 283.458 237.039 283.874 238.781 284.862L239.158 284.069ZM248.362 277.231H247.504C246.932 277.231 246.646 277.218 246.334 277.166V277.933C246.737 277.881 247.088 277.868 247.504 277.868H250.13C250.572 277.868 250.884 277.881 251.274 277.933V277.166C250.962 277.218 250.715 277.231 250.117 277.231H249.077V276.074H249.766C250.26 276.074 250.598 276.087 250.897 276.126V275.385C250.559 275.424 250.195 275.45 249.766 275.45H249.077C249.077 274.956 249.09 274.709 249.142 274.475H248.297C248.349 274.761 248.362 274.956 248.362 275.45H247.816C247.387 275.45 246.984 275.424 246.646 275.385V276.126C246.971 276.087 247.322 276.074 247.803 276.074H248.362V277.231ZM246.061 274.176H251.573V281.781C251.573 282.08 251.495 282.158 251.144 282.158C250.624 282.158 250.169 282.119 249.688 282.054C249.805 282.353 249.831 282.496 249.857 282.86C250.221 282.873 250.611 282.886 250.975 282.886C252.041 282.886 252.353 282.678 252.353 281.937V274.657C252.353 274.046 252.366 273.76 252.405 273.422C252.08 273.461 251.794 273.474 251.144 273.474H246.451C245.827 273.474 245.567 273.461 245.203 273.422C245.255 273.812 245.281 274.241 245.281 274.904C245.281 277.14 245.242 278.518 245.125 279.519C244.995 280.78 244.839 281.404 244.436 282.275C244.748 282.431 244.93 282.548 245.151 282.769C245.528 281.872 245.684 281.313 245.814 280.403C245.983 279.259 246.061 277.478 246.061 274.8V274.176ZM241.55 273.838C242.447 274.683 242.837 275.138 243.578 276.204L244.241 275.619C243.513 274.67 243.045 274.163 242.148 273.318L241.55 273.838ZM247.569 282.015V281.365H249.805C250.143 281.365 250.39 281.378 250.637 281.404C250.611 281.183 250.598 281.014 250.598 280.702V279.402C250.598 279.116 250.611 278.908 250.637 278.622C250.416 278.648 250.13 278.661 249.727 278.661H247.699C247.387 278.661 247.062 278.648 246.828 278.622C246.854 278.921 246.867 279.155 246.867 279.454V281.066C246.867 281.495 246.854 281.794 246.815 282.015H247.569ZM247.569 279.298H249.909V280.715H247.569V279.298ZM241.29 279.064C241.615 279.012 241.81 278.999 242.252 278.999H243.11V282.132C242.382 282.847 241.602 283.432 241.03 283.705L241.485 284.524C241.758 284.29 241.771 284.29 241.953 284.147C242.577 283.653 242.967 283.315 243.474 282.795C243.877 283.406 244.28 283.77 244.839 284.03C245.606 284.394 246.36 284.485 248.583 284.485C250.117 284.485 251.534 284.459 252.938 284.394C253.016 283.978 253.055 283.861 253.237 283.458C251.898 283.64 250.156 283.718 247.582 283.718C246.009 283.718 245.229 283.536 244.54 282.99C244.228 282.743 244.098 282.548 243.916 282.145V279.584C243.916 278.947 243.929 278.583 243.981 278.206C243.643 278.258 243.357 278.271 242.98 278.271H242.304C241.81 278.271 241.602 278.258 241.29 278.206V279.064ZM255.239 284.901C256.214 283.783 256.617 283.159 257.046 282.106C257.475 281.066 257.67 280.039 257.67 278.908C257.67 277.777 257.475 276.75 257.046 275.71C256.617 274.657 256.214 274.033 255.239 272.915H254.082C255.174 274.007 255.603 274.605 256.058 275.606C256.526 276.646 256.76 277.725 256.76 278.908C256.76 280.091 256.526 281.17 256.058 282.21C255.603 283.211 255.174 283.809 254.082 284.901H255.239Z" fill="white"/>
<rect width="211" height="186" rx="4" fill="#FF4D77"/>
<path d="M27.546 20.492C28.122 21.32 28.392 21.842 28.788 22.832L30.39 22.274C29.958 21.248 29.76 20.888 29.112 19.97L27.546 20.492ZM29.778 19.844C30.354 20.69 30.642 21.23 31.056 22.22L32.586 21.644C32.262 20.834 31.902 20.204 31.272 19.34L29.778 19.844ZM22.578 23.066H18.996C17.556 23.066 17.232 23.048 16.404 22.94V25.55C17.214 25.478 17.556 25.46 18.996 25.46H22.578V33.668C22.578 34.766 22.542 35.45 22.47 36.134H25.368C25.314 35.522 25.278 34.622 25.278 33.668V25.46H29.04C30.552 25.46 30.894 25.478 31.632 25.568V22.94C30.804 23.048 30.48 23.066 29.004 23.066H25.278V22.346C25.278 21.482 25.314 20.852 25.386 20.258H22.47C22.542 20.888 22.578 21.482 22.578 22.364V23.066ZM18.492 26.594C18.42 27.26 18.312 27.8 18.06 28.646C17.466 30.608 16.8 31.94 15.558 33.56C16.602 33.956 16.962 34.154 18.042 34.856C18.78 33.794 19.14 33.146 19.626 32.048C20.112 30.914 20.58 29.564 20.796 28.538C21.03 27.476 21.048 27.422 21.102 27.206L18.492 26.594ZM26.736 27.206C26.844 27.458 26.88 27.566 26.934 27.782C27.798 30.914 28.428 32.48 29.832 34.874C30.732 34.28 31.002 34.118 32.298 33.434C31.308 32.066 30.642 30.752 29.85 28.574C29.526 27.656 29.382 27.188 29.256 26.558L26.736 27.206ZM34.152 29.618C34.854 29.546 35.88 29.51 37.446 29.51H46.536C47.94 29.51 49.128 29.546 49.848 29.6V26.648C49.02 26.756 48.372 26.774 46.554 26.774H37.446C35.61 26.774 34.962 26.738 34.152 26.63V29.618ZM55.446 23.516C54.06 23.516 53.61 23.498 52.926 23.372L52.944 26C53.592 25.892 53.628 25.892 55.41 25.892H57.75L57.66 26.414C57.498 27.53 57.246 28.376 56.796 29.294C55.878 31.148 54.456 32.516 52.116 33.74C53.034 34.55 53.322 34.874 54.078 36.026C56.418 34.514 58.038 32.858 59.028 30.968C59.802 29.438 60.162 28.16 60.432 25.892L64.266 25.874C64.266 27.584 64.122 29.816 63.924 31.112C63.654 32.84 63.42 33.2 62.574 33.2C61.98 33.2 61.188 33.074 60.216 32.804C60.612 33.812 60.684 34.19 60.738 35.504C61.872 35.666 62.304 35.702 63.006 35.702C64.824 35.702 65.616 35.18 66.102 33.704C66.516 32.498 66.822 29.33 66.93 25.622C66.948 24.902 66.984 24.722 67.146 24.38L65.94 23.318C65.49 23.462 65.292 23.498 64.626 23.498H60.666C60.702 22.922 60.72 22.814 60.738 22.436C60.81 20.87 60.81 20.87 60.9 20.276L58.038 20.204C58.074 20.528 58.074 20.69 58.074 20.96C58.074 21.806 58.038 22.742 57.984 23.516H55.446ZM72.87 20.744C72.924 21.212 72.942 21.554 72.942 22.562C72.942 23.534 72.906 24.758 72.87 25.64C72.762 27.548 72.6 28.592 72.222 29.78C71.682 31.526 70.908 32.678 69.522 33.902C70.494 34.586 70.836 34.91 71.7 36.008C72.87 34.82 73.536 33.884 74.166 32.57C75.12 30.608 75.462 28.736 75.588 24.992C75.714 21.446 75.714 21.446 75.786 20.906L72.87 20.744ZM77.802 20.618C77.856 21.068 77.874 21.482 77.874 22.274C77.874 22.436 77.874 22.598 77.874 22.778L77.802 32.894C77.784 33.758 77.748 34.118 77.622 34.622L78.954 36.044C79.188 35.9 79.332 35.846 79.782 35.684C81.618 35 82.536 34.478 83.58 33.578C84.858 32.462 85.812 31.076 86.568 29.204C85.578 28.412 85.29 28.124 84.552 27.188C84.174 28.466 83.688 29.438 82.95 30.374C82.266 31.238 81.6 31.778 80.484 32.39L80.574 22.814C80.592 21.59 80.61 21.374 80.718 20.636L77.802 20.618ZM90.348 20.654C90.42 21.14 90.456 21.824 90.456 22.688C90.456 22.778 90.456 22.85 90.438 22.94L90.366 32.57C90.366 33.542 90.33 33.812 90.186 34.226L91.554 35.846C91.878 35.702 92.076 35.648 92.634 35.54C97.872 34.586 100.968 32.642 103.524 28.7C102.552 27.908 102.264 27.602 101.472 26.504C100.59 28.214 99.51 29.474 97.98 30.572C96.576 31.58 95.1 32.21 93.174 32.606L93.282 22.922C93.282 21.932 93.318 21.374 93.408 20.69L90.348 20.654ZM107.646 25.082C108.438 26.684 108.78 27.62 109.266 29.582L111.678 28.844C111.048 26.81 110.688 25.91 109.896 24.434L107.646 25.082ZM111.57 24.308C112.272 25.712 112.848 27.26 113.19 28.682L115.548 27.962C115.098 26.324 114.756 25.514 113.802 23.696L111.57 24.308ZM117.762 24.056C117.744 24.65 117.654 25.244 117.438 26.126C116.7 29.006 115.512 30.86 113.424 32.372C112.398 33.092 111.624 33.506 110.256 34.028C111.156 34.892 111.408 35.216 111.966 36.17C114.81 34.73 116.412 33.452 117.69 31.616C118.752 30.068 119.526 28.088 120.048 25.658C120.192 25.01 120.21 24.956 120.318 24.65L117.762 24.056ZM139.992 33.614C136.914 30.68 136.464 30.284 134.142 28.628C135.186 27.206 135.996 25.748 136.86 23.732C137.076 23.21 137.22 22.976 137.454 22.724L136.068 21.284C135.636 21.482 135.546 21.5 134.556 21.5L128.418 21.608C128.292 21.608 128.148 21.608 128.076 21.608C126.96 21.608 126.456 21.59 125.88 21.5L125.916 24.236C126.6 24.128 126.942 24.11 128.436 24.074L133.692 23.984C133.278 24.902 132.972 25.55 132.738 25.946C131.586 27.962 130.002 29.708 128.022 31.148C126.672 32.138 125.61 32.714 124.026 33.344C124.908 34.262 125.16 34.604 125.754 35.738C128.49 34.406 130.866 32.624 132.468 30.716C134.484 32.282 136.284 34.046 137.814 35.954L139.992 33.614ZM142.908 23.516C144.636 24.47 146.148 25.658 147.642 27.242L149.46 24.884C148.02 23.552 146.994 22.796 144.672 21.392L142.908 23.516ZM143.772 35.504C144.15 35.378 144.258 35.342 144.672 35.252C145.014 35.18 145.014 35.18 145.464 35.09C147.192 34.712 149.262 33.974 150.702 33.218C153.834 31.562 155.958 29.186 157.74 25.334C156.624 24.542 156.3 24.236 155.454 23.246C154.932 24.65 154.446 25.622 153.636 26.828C152.232 28.934 150.63 30.284 148.344 31.238C146.688 31.958 144.636 32.444 142.98 32.552L143.772 35.504Z" fill="white"/>
<path d="M172.45 22.743C171.982 22.795 171.644 22.808 170.669 22.808H166.535C165.768 22.808 165.352 22.782 164.754 22.717V24.433C165.287 24.368 165.69 24.342 166.457 24.342H170.474C169.33 25.954 168.797 26.838 168.199 28.125C167.445 29.737 167.055 30.985 166.626 33.156H168.68C169.031 30.413 169.72 28.424 171.098 26.123C171.657 25.187 172.034 24.654 172.45 24.251V22.743ZM174.022 30.842C174.308 31.57 174.49 31.882 174.841 32.259C175.556 33.026 176.518 33.39 177.805 33.39C180.223 33.39 181.718 31.973 181.718 29.685C181.718 28.645 181.432 27.865 180.795 27.241C180.158 26.578 179.313 26.266 178.26 26.266C177.363 26.266 176.674 26.513 176.037 27.059C176.076 26.799 176.102 26.617 176.115 26.513L176.323 24.238H179.378C180.093 24.238 180.6 24.264 181.172 24.342V22.704C180.587 22.795 180.262 22.808 179.365 22.808H176.167C175.478 22.808 175.179 22.795 174.789 22.769C174.776 23.419 174.75 23.861 174.737 24.095L174.438 27.319C174.412 27.683 174.399 27.748 174.269 28.671L175.894 28.827C176.011 28.541 176.102 28.424 176.284 28.242C176.687 27.852 177.259 27.644 177.896 27.644C179.131 27.644 179.937 28.463 179.937 29.737C179.937 31.024 179.092 31.882 177.805 31.882C177.116 31.882 176.57 31.661 176.206 31.219C176.024 31.011 175.933 30.842 175.816 30.465L174.022 30.842ZM187.216 27.852C187.19 28.229 187.177 28.385 187.138 28.606C186.917 29.789 186.345 30.79 185.435 31.57C184.759 32.142 184.226 32.467 183.42 32.766C183.914 33.273 184.122 33.559 184.369 34.04C185.903 33.273 186.956 32.376 187.671 31.18C188.295 30.153 188.581 29.204 188.685 27.852H191.181C191.181 27.956 191.181 28.047 191.181 28.125C191.181 28.203 191.181 28.268 191.181 28.32V28.606C191.181 29.958 190.973 31.674 190.778 32.064C190.661 32.259 190.518 32.311 190.037 32.311C189.66 32.311 189.088 32.246 188.464 32.142C188.698 32.779 188.789 33.091 188.854 33.663C189.725 33.702 189.933 33.715 190.193 33.715C191.35 33.715 191.818 33.533 192.104 32.961C192.429 32.272 192.65 30.218 192.65 27.527C192.65 27.306 192.65 27.267 192.65 27.085C193.222 27.644 193.547 27.917 194.262 28.45C194.6 27.826 194.704 27.683 195.25 27.046C193.625 26.006 192.507 24.836 191.649 23.276C191.363 22.756 191.233 22.483 191.142 22.145L189.699 22.704C189.79 22.86 189.92 23.12 189.972 23.25C190.531 24.459 191.207 25.486 192.117 26.513C191.805 26.526 191.623 26.526 191.311 26.526H186.527C186.267 26.526 186.202 26.526 185.851 26.5C186.696 25.525 187.463 24.368 187.944 23.341C188.1 22.99 188.165 22.873 188.295 22.678L186.735 22.119C186.67 22.509 186.527 22.86 186.215 23.432C185.383 24.979 184.408 26.045 182.796 27.163C183.264 27.605 183.576 27.995 183.797 28.437C184.473 27.917 184.798 27.631 185.422 26.994V27.917C185.76 27.878 186.085 27.852 186.527 27.852H187.216Z" fill="white"/>
<path d="M30.03 77.49L30.714 77.238C30.354 76.32 30.084 75.852 29.364 74.898L27.798 75.42C28.266 76.068 28.482 76.446 28.806 77.094C28.554 77.13 28.356 77.148 28.104 77.148L23.352 77.184C23.532 76.86 23.586 76.734 23.748 76.41C23.982 75.888 24.036 75.798 24.216 75.474L21.462 74.898C21.282 75.636 20.94 76.464 20.418 77.418C19.302 79.47 17.97 80.982 15.918 82.566C16.998 83.196 17.358 83.466 18.096 84.294C19.896 82.746 21.156 81.27 22.254 79.47L27.528 79.416C27.078 80.82 26.538 81.972 25.764 83.16C24.738 82.35 23.892 81.81 22.308 80.928L20.67 82.854C22.02 83.574 22.974 84.24 24.198 85.266C23.298 86.238 22.56 86.832 21.354 87.588C20.292 88.254 19.41 88.686 17.916 89.28C18.78 90.09 19.086 90.468 19.698 91.53C22.254 90.36 24.216 89.046 25.8 87.408C27.708 85.428 29.094 82.998 30.282 79.524C30.588 78.624 30.606 78.588 30.858 78.3L30.03 77.49ZM30.084 74.826C30.642 75.618 31.074 76.392 31.38 77.202L32.928 76.572C32.604 75.762 32.172 75.024 31.614 74.304L30.084 74.826ZM34.908 78.516C36.636 79.47 38.148 80.658 39.642 82.242L41.46 79.884C40.02 78.552 38.994 77.796 36.672 76.392L34.908 78.516ZM35.772 90.504C36.15 90.378 36.258 90.342 36.672 90.252C37.014 90.18 37.014 90.18 37.464 90.09C39.192 89.712 41.262 88.974 42.702 88.218C45.834 86.562 47.958 84.186 49.74 80.334C48.624 79.542 48.3 79.236 47.454 78.246C46.932 79.65 46.446 80.622 45.636 81.828C44.232 83.934 42.63 85.284 40.344 86.238C38.688 86.958 36.636 87.444 34.98 87.552L35.772 90.504ZM67.4471 88.614C64.3691 85.68 63.9191 85.284 61.5971 83.628C62.6411 82.206 63.4511 80.748 64.3151 78.732C64.5311 78.21 64.6751 77.976 64.9091 77.724L63.5231 76.284C63.0911 76.482 63.0011 76.5 62.0111 76.5L55.8731 76.608C55.7471 76.608 55.6031 76.608 55.5311 76.608C54.4151 76.608 53.9111 76.59 53.3351 76.5L53.3711 79.236C54.0551 79.128 54.3971 79.11 55.8911 79.074L61.1471 78.984C60.7331 79.902 60.4271 80.55 60.1931 80.946C59.0411 82.962 57.4571 84.708 55.4771 86.148C54.1271 87.138 53.0651 87.714 51.4811 88.344C52.3631 89.262 52.6151 89.604 53.2091 90.738C55.9451 89.406 58.3211 87.624 59.9231 85.716C61.9391 87.282 63.7391 89.046 65.2691 90.954L67.4471 88.614ZM71.8031 75.654C71.8751 76.14 71.9111 76.824 71.9111 77.688C71.9111 77.778 71.9111 77.85 71.8931 77.94L71.8211 87.57C71.8211 88.542 71.7851 88.812 71.6411 89.226L73.0091 90.846C73.3331 90.702 73.5311 90.648 74.0891 90.54C79.3271 89.586 82.4231 87.642 84.9791 83.7C84.0071 82.908 83.7191 82.602 82.9271 81.504C82.0451 83.214 80.9651 84.474 79.4351 85.572C78.0311 86.58 76.5551 87.21 74.6291 87.606L74.7371 77.922C74.7371 76.932 74.7731 76.374 74.8631 75.69L71.8031 75.654ZM89.1011 80.082C89.8931 81.684 90.2351 82.62 90.7211 84.582L93.1331 83.844C92.5031 81.81 92.1431 80.91 91.3511 79.434L89.1011 80.082ZM93.0251 79.308C93.7271 80.712 94.3031 82.26 94.6451 83.682L97.0031 82.962C96.5531 81.324 96.2111 80.514 95.2571 78.696L93.0251 79.308ZM99.2171 79.056C99.1991 79.65 99.1091 80.244 98.8931 81.126C98.1551 84.006 96.9671 85.86 94.8791 87.372C93.8531 88.092 93.0791 88.506 91.7111 89.028C92.6111 89.892 92.8631 90.216 93.4211 91.17C96.2651 89.73 97.8671 88.452 99.1451 86.616C100.207 85.068 100.981 83.088 101.503 80.658C101.647 80.01 101.665 79.956 101.773 79.65L99.2171 79.056ZM121.447 88.614C118.369 85.68 117.919 85.284 115.597 83.628C116.641 82.206 117.451 80.748 118.315 78.732C118.531 78.21 118.675 77.976 118.909 77.724L117.523 76.284C117.091 76.482 117.001 76.5 116.011 76.5L109.873 76.608C109.747 76.608 109.603 76.608 109.531 76.608C108.415 76.608 107.911 76.59 107.335 76.5L107.371 79.236C108.055 79.128 108.397 79.11 109.891 79.074L115.147 78.984C114.733 79.902 114.427 80.55 114.193 80.946C113.041 82.962 111.457 84.708 109.477 86.148C108.127 87.138 107.065 87.714 105.481 88.344C106.363 89.262 106.615 89.604 107.209 90.738C109.945 89.406 112.321 87.624 113.923 85.716C115.939 87.282 117.739 89.046 119.269 90.954L121.447 88.614ZM124.363 78.516C126.091 79.47 127.603 80.658 129.097 82.242L130.915 79.884C129.475 78.552 128.449 77.796 126.127 76.392L124.363 78.516ZM125.227 90.504C125.605 90.378 125.713 90.342 126.127 90.252C126.469 90.18 126.469 90.18 126.919 90.09C128.647 89.712 130.717 88.974 132.157 88.218C135.289 86.562 137.413 84.186 139.195 80.334C138.079 79.542 137.755 79.236 136.909 78.246C136.387 79.65 135.901 80.622 135.091 81.828C133.687 83.934 132.085 85.284 129.799 86.238C128.143 86.958 126.091 87.444 124.435 87.552L125.227 90.504Z" fill="white"/>
<path d="M22.956 144.73C23.55 144.658 24.072 144.622 24.882 144.622H27.456V144.856C27.456 145.648 27.438 146.062 27.348 146.602H29.706C29.634 146.098 29.598 145.666 29.598 144.874V144.622H30.408C31.218 144.622 31.74 144.64 32.37 144.73V142.678C31.848 142.75 31.308 142.786 30.444 142.786H29.598V141.886H30.102C30.984 141.886 31.344 141.904 31.83 141.958V140.176C31.344 140.23 30.876 140.248 30.102 140.248H29.598V139.546H30.084C30.894 139.546 31.074 139.546 31.56 139.582C31.524 139.24 31.506 138.952 31.506 138.376V137.044C31.506 136.45 31.524 136.162 31.56 135.802C31.2 135.838 30.894 135.856 30.084 135.856H25.224C24.432 135.856 24.09 135.856 23.73 135.82C23.784 136.216 23.784 136.324 23.784 137.026V138.376C23.784 139.114 23.784 139.168 23.73 139.582C24.162 139.546 24.36 139.546 25.224 139.546H27.456V140.248H25.458C24.324 140.248 24.072 140.248 23.658 140.194C23.712 140.698 23.73 141.004 23.73 141.904V142.786C23.424 142.786 23.406 142.786 23.172 142.768V141.994C22.65 142.066 22.236 142.084 21.426 142.084H20.688V141.076H21.192C22.164 141.076 22.38 141.076 22.866 141.112C22.83 140.662 22.812 140.338 22.812 139.294V136.144C22.812 135.082 22.812 134.794 22.866 134.326C22.362 134.362 22.2 134.362 21.156 134.362H20.688V133.426H21.534C22.29 133.426 22.65 133.444 23.154 133.498V131.338C22.596 131.428 22.182 131.446 21.444 131.446H20.688V131.266C20.688 130.636 20.724 130.276 20.796 129.826H18.51C18.582 130.276 18.618 130.654 18.618 131.248V131.446H17.7C16.944 131.446 16.458 131.41 15.918 131.338V133.516C16.386 133.444 16.89 133.426 17.718 133.426H18.618V134.362H18.114C17.16 134.362 16.764 134.344 16.386 134.308C16.44 134.938 16.458 135.424 16.458 136.306V139.186C16.458 140.05 16.44 140.518 16.386 141.13C16.872 141.094 17.268 141.076 18.114 141.076H18.618V142.084H17.7C16.89 142.084 16.35 142.048 15.81 141.976V144.208C16.368 144.136 16.89 144.1 17.664 144.1H18.618V144.64C18.618 145.612 18.6 145.99 18.51 146.602H20.796C20.706 146.026 20.688 145.648 20.688 144.64V144.1H21.444C22.02 144.1 22.506 144.118 22.956 144.172V144.73ZM25.746 142.786V141.886H27.456V142.786H25.746ZM18.456 136H20.832V136.9H18.456V136ZM18.456 138.502H20.832V139.42H18.456V138.502ZM25.89 137.26H29.382V138.088H25.89V137.26ZM24.648 133.57C23.964 133.57 23.568 133.552 23.208 133.48V135.334C23.73 135.28 24.036 135.262 24.954 135.262H30.498C31.362 135.262 31.74 135.28 32.334 135.352V133.48C31.92 133.552 31.686 133.57 31.02 133.57V132.706C31.02 131.896 31.038 131.518 31.092 130.942C30.516 130.996 30.102 131.014 29.256 131.014H27.924C28.104 130.312 28.212 129.916 28.23 129.844L25.962 129.7C25.908 130.132 25.89 130.276 25.71 131.014H25.314C24.648 131.014 24.306 130.996 23.73 130.924V132.688C24.18 132.652 24.432 132.634 24.972 132.634H25.26C25.152 132.94 25.08 133.102 24.9 133.57H24.648ZM27.114 133.57C27.294 133.066 27.312 133.03 27.438 132.634H28.95V133.57H27.114ZM40.74 135.352V136.828H39.372C38.58 136.828 38.31 136.81 37.86 136.738V138.844C38.31 138.772 38.616 138.754 39.372 138.754H40.74V140.554H38.832C38.022 140.554 37.662 140.536 37.158 140.464V142.606C37.626 142.534 37.968 142.516 38.832 142.516H45.168C45.924 142.516 46.338 142.534 46.842 142.606V140.464C46.338 140.536 45.996 140.554 45.168 140.554H44.808L46.068 140.032C45.69 139.276 45.654 139.24 45.312 138.772C45.672 138.772 45.834 138.79 46.14 138.844V136.738C45.708 136.81 45.438 136.828 44.646 136.828H42.99V135.352H45.024C45.816 135.352 46.176 135.37 46.662 135.442V133.318C46.212 133.39 45.834 133.408 45.006 133.408H39.012C38.184 133.408 37.86 133.39 37.392 133.318V135.442C37.914 135.37 38.22 135.352 39.012 135.352H40.74ZM42.99 138.754H44.862L43.728 139.222C43.98 139.582 44.232 139.996 44.466 140.554H42.99V138.754ZM34.17 144.118C34.17 145.342 34.134 145.972 34.062 146.53H36.492V145.54H47.526V146.53H49.938C49.866 145.936 49.83 145.27 49.83 144.118V132.436C49.83 131.536 49.848 130.96 49.92 130.294C49.272 130.366 48.66 130.384 47.814 130.384H36.186C35.196 130.384 34.674 130.366 34.062 130.312C34.134 131.068 34.17 131.698 34.17 132.454V144.118ZM36.492 132.49H47.508V143.452H36.492V132.49ZM60.09 136.954C59.19 136.954 58.83 136.936 58.308 136.864V139.042C58.848 138.988 59.244 138.97 60.09 138.97H66.786C67.596 138.97 67.974 138.988 68.55 139.06V136.864C68.028 136.936 67.812 136.954 67.074 136.954V134.722C67.074 134.11 67.092 133.75 67.128 133.408C66.732 133.444 66.39 133.462 65.76 133.462H63.6C63.636 133.318 63.744 132.922 63.888 132.274H66.336C67.254 132.274 67.704 132.292 68.298 132.346V130.15C67.758 130.222 67.092 130.258 66.21 130.258H60.792C59.982 130.258 59.352 130.222 58.686 130.15V132.346C59.262 132.292 59.712 132.274 60.612 132.274H61.638C61.494 132.904 61.476 132.994 61.35 133.462H60.486C59.838 133.462 59.496 133.444 59.082 133.39V135.514C59.496 135.46 59.91 135.442 60.414 135.442H60.774C60.576 136.072 60.522 136.198 60.252 136.954H60.09ZM62.538 136.954C62.79 136.234 62.826 136.144 63.042 135.442H64.86V136.954H62.538ZM52.368 132.04C52.818 132.004 53.25 131.986 53.934 131.986H56.382C57.21 131.986 57.318 131.986 57.948 132.04V130.132C57.48 130.186 57.156 130.204 56.382 130.204H53.934C53.16 130.204 52.818 130.186 52.368 130.132V132.04ZM51.792 134.776C52.206 134.722 52.602 134.704 53.25 134.704H56.832C57.696 134.704 57.876 134.704 58.29 134.758V132.616C58.092 132.706 57.822 132.724 56.778 132.724H53.25C52.566 132.724 52.224 132.706 51.792 132.634V134.776ZM52.404 137.296C52.782 137.242 52.98 137.242 53.538 137.242H56.832C57.408 137.242 57.516 137.242 57.93 137.296V135.442C57.624 135.496 57.444 135.496 56.832 135.496H53.538C52.962 135.496 52.764 135.496 52.404 135.442V137.296ZM52.404 139.834C52.746 139.798 52.98 139.78 53.52 139.78H56.796C57.408 139.78 57.534 139.78 57.93 139.834V137.98C57.588 138.034 57.39 138.034 56.832 138.034H53.538C52.98 138.034 52.746 138.016 52.404 137.98V139.834ZM54.42 145.72H56.04V146.278H58.11C58.074 145.828 58.056 145.594 58.056 144.91V141.778C58.056 141.076 58.056 140.86 58.092 140.518C57.804 140.572 57.606 140.572 56.94 140.572H53.61C53.052 140.572 52.656 140.554 52.242 140.518C52.296 140.95 52.314 141.346 52.314 141.904V144.766C52.314 145.36 52.278 145.99 52.224 146.53H54.42V145.72ZM54.402 142.3H56.04V143.866H54.402V142.3ZM61.386 145.774H65.436V146.53H67.74C67.686 146.098 67.65 145.504 67.65 144.694V141.22C67.65 140.644 67.668 140.248 67.704 139.834C67.416 139.87 67.11 139.888 66.318 139.888H60.612C59.91 139.888 59.55 139.87 59.118 139.834C59.154 140.194 59.172 140.518 59.172 141.004V144.676C59.172 145.396 59.154 145.99 59.1 146.548H61.386V145.774ZM61.386 141.85H65.436V143.704H61.386V141.85ZM72.438 133.282C72.996 133.228 73.716 133.192 74.868 133.192H80.862C82.392 133.192 82.662 133.21 83.274 133.282V130.672C82.626 130.798 82.284 130.816 80.826 130.816H74.922C73.68 130.816 73.086 130.78 72.438 130.672V133.282ZM70.926 137.71C71.592 137.638 72.132 137.62 73.608 137.62H81.798C81.078 139.366 80.268 140.482 78.954 141.526C77.622 142.57 76.254 143.2 74.076 143.758C75.03 144.82 75.282 145.198 75.768 146.26C78.234 145.288 79.458 144.658 80.682 143.668C82.464 142.228 83.85 140.158 84.768 137.512C85.002 136.882 85.074 136.702 85.272 136.378L84.066 135.046C83.544 135.208 83.364 135.226 82.32 135.226H73.644C72.042 135.226 71.7 135.208 70.926 135.1V137.71ZM89.646 135.082C90.438 136.684 90.78 137.62 91.266 139.582L93.678 138.844C93.048 136.81 92.688 135.91 91.896 134.434L89.646 135.082ZM93.57 134.308C94.272 135.712 94.848 137.26 95.19 138.682L97.548 137.962C97.098 136.324 96.756 135.514 95.802 133.696L93.57 134.308ZM99.762 134.056C99.744 134.65 99.654 135.244 99.438 136.126C98.7 139.006 97.512 140.86 95.424 142.372C94.398 143.092 93.624 143.506 92.256 144.028C93.156 144.892 93.408 145.216 93.966 146.17C96.81 144.73 98.412 143.452 99.69 141.616C100.752 140.068 101.526 138.088 102.048 135.658C102.192 135.01 102.21 134.956 102.318 134.65L99.762 134.056ZM109.608 131.77C108.114 131.77 107.556 131.752 106.782 131.644V134.398C107.52 134.308 108.096 134.29 109.572 134.29H117.456C116.628 137.566 114.864 140.032 112.092 141.796C110.778 142.624 109.788 143.092 108.222 143.578C109.248 144.604 109.536 145 110.13 146.152C113.226 144.766 115.26 143.362 116.916 141.418C118.572 139.492 119.724 137.152 120.48 134.128L120.552 133.876C120.57 133.876 120.606 133.876 120.624 133.876C121.722 133.876 122.604 132.976 122.604 131.878C122.604 130.78 121.722 129.88 120.606 129.88C119.562 129.88 118.698 130.69 118.626 131.734C118.284 131.77 118.068 131.77 117.852 131.77H109.608ZM120.606 130.996C121.092 130.996 121.488 131.392 121.488 131.878C121.488 132.364 121.092 132.76 120.606 132.76C120.12 132.76 119.724 132.364 119.724 131.878C119.724 131.392 120.12 130.996 120.606 130.996ZM129.804 130.744L123.306 148.006H126.006L132.486 130.744H129.804ZM22.956 164.73C23.55 164.658 24.072 164.622 24.882 164.622H27.456V164.856C27.456 165.648 27.438 166.062 27.348 166.602H29.706C29.634 166.098 29.598 165.666 29.598 164.874V164.622H30.408C31.218 164.622 31.74 164.64 32.37 164.73V162.678C31.848 162.75 31.308 162.786 30.444 162.786H29.598V161.886H30.102C30.984 161.886 31.344 161.904 31.83 161.958V160.176C31.344 160.23 30.876 160.248 30.102 160.248H29.598V159.546H30.084C30.894 159.546 31.074 159.546 31.56 159.582C31.524 159.24 31.506 158.952 31.506 158.376V157.044C31.506 156.45 31.524 156.162 31.56 155.802C31.2 155.838 30.894 155.856 30.084 155.856H25.224C24.432 155.856 24.09 155.856 23.73 155.82C23.784 156.216 23.784 156.324 23.784 157.026V158.376C23.784 159.114 23.784 159.168 23.73 159.582C24.162 159.546 24.36 159.546 25.224 159.546H27.456V160.248H25.458C24.324 160.248 24.072 160.248 23.658 160.194C23.712 160.698 23.73 161.004 23.73 161.904V162.786C23.424 162.786 23.406 162.786 23.172 162.768V161.994C22.65 162.066 22.236 162.084 21.426 162.084H20.688V161.076H21.192C22.164 161.076 22.38 161.076 22.866 161.112C22.83 160.662 22.812 160.338 22.812 159.294V156.144C22.812 155.082 22.812 154.794 22.866 154.326C22.362 154.362 22.2 154.362 21.156 154.362H20.688V153.426H21.534C22.29 153.426 22.65 153.444 23.154 153.498V151.338C22.596 151.428 22.182 151.446 21.444 151.446H20.688V151.266C20.688 150.636 20.724 150.276 20.796 149.826H18.51C18.582 150.276 18.618 150.654 18.618 151.248V151.446H17.7C16.944 151.446 16.458 151.41 15.918 151.338V153.516C16.386 153.444 16.89 153.426 17.718 153.426H18.618V154.362H18.114C17.16 154.362 16.764 154.344 16.386 154.308C16.44 154.938 16.458 155.424 16.458 156.306V159.186C16.458 160.05 16.44 160.518 16.386 161.13C16.872 161.094 17.268 161.076 18.114 161.076H18.618V162.084H17.7C16.89 162.084 16.35 162.048 15.81 161.976V164.208C16.368 164.136 16.89 164.1 17.664 164.1H18.618V164.64C18.618 165.612 18.6 165.99 18.51 166.602H20.796C20.706 166.026 20.688 165.648 20.688 164.64V164.1H21.444C22.02 164.1 22.506 164.118 22.956 164.172V164.73ZM25.746 162.786V161.886H27.456V162.786H25.746ZM18.456 156H20.832V156.9H18.456V156ZM18.456 158.502H20.832V159.42H18.456V158.502ZM25.89 157.26H29.382V158.088H25.89V157.26ZM24.648 153.57C23.964 153.57 23.568 153.552 23.208 153.48V155.334C23.73 155.28 24.036 155.262 24.954 155.262H30.498C31.362 155.262 31.74 155.28 32.334 155.352V153.48C31.92 153.552 31.686 153.57 31.02 153.57V152.706C31.02 151.896 31.038 151.518 31.092 150.942C30.516 150.996 30.102 151.014 29.256 151.014H27.924C28.104 150.312 28.212 149.916 28.23 149.844L25.962 149.7C25.908 150.132 25.89 150.276 25.71 151.014H25.314C24.648 151.014 24.306 150.996 23.73 150.924V152.688C24.18 152.652 24.432 152.634 24.972 152.634H25.26C25.152 152.94 25.08 153.102 24.9 153.57H24.648ZM27.114 153.57C27.294 153.066 27.312 153.03 27.438 152.634H28.95V153.57H27.114ZM40.74 155.352V156.828H39.372C38.58 156.828 38.31 156.81 37.86 156.738V158.844C38.31 158.772 38.616 158.754 39.372 158.754H40.74V160.554H38.832C38.022 160.554 37.662 160.536 37.158 160.464V162.606C37.626 162.534 37.968 162.516 38.832 162.516H45.168C45.924 162.516 46.338 162.534 46.842 162.606V160.464C46.338 160.536 45.996 160.554 45.168 160.554H44.808L46.068 160.032C45.69 159.276 45.654 159.24 45.312 158.772C45.672 158.772 45.834 158.79 46.14 158.844V156.738C45.708 156.81 45.438 156.828 44.646 156.828H42.99V155.352H45.024C45.816 155.352 46.176 155.37 46.662 155.442V153.318C46.212 153.39 45.834 153.408 45.006 153.408H39.012C38.184 153.408 37.86 153.39 37.392 153.318V155.442C37.914 155.37 38.22 155.352 39.012 155.352H40.74ZM42.99 158.754H44.862L43.728 159.222C43.98 159.582 44.232 159.996 44.466 160.554H42.99V158.754ZM34.17 164.118C34.17 165.342 34.134 165.972 34.062 166.53H36.492V165.54H47.526V166.53H49.938C49.866 165.936 49.83 165.27 49.83 164.118V152.436C49.83 151.536 49.848 150.96 49.92 150.294C49.272 150.366 48.66 150.384 47.814 150.384H36.186C35.196 150.384 34.674 150.366 34.062 150.312C34.134 151.068 34.17 151.698 34.17 152.454V164.118ZM36.492 152.49H47.508V163.452H36.492V152.49ZM60.09 156.954C59.19 156.954 58.83 156.936 58.308 156.864V159.042C58.848 158.988 59.244 158.97 60.09 158.97H66.786C67.596 158.97 67.974 158.988 68.55 159.06V156.864C68.028 156.936 67.812 156.954 67.074 156.954V154.722C67.074 154.11 67.092 153.75 67.128 153.408C66.732 153.444 66.39 153.462 65.76 153.462H63.6C63.636 153.318 63.744 152.922 63.888 152.274H66.336C67.254 152.274 67.704 152.292 68.298 152.346V150.15C67.758 150.222 67.092 150.258 66.21 150.258H60.792C59.982 150.258 59.352 150.222 58.686 150.15V152.346C59.262 152.292 59.712 152.274 60.612 152.274H61.638C61.494 152.904 61.476 152.994 61.35 153.462H60.486C59.838 153.462 59.496 153.444 59.082 153.39V155.514C59.496 155.46 59.91 155.442 60.414 155.442H60.774C60.576 156.072 60.522 156.198 60.252 156.954H60.09ZM62.538 156.954C62.79 156.234 62.826 156.144 63.042 155.442H64.86V156.954H62.538ZM52.368 152.04C52.818 152.004 53.25 151.986 53.934 151.986H56.382C57.21 151.986 57.318 151.986 57.948 152.04V150.132C57.48 150.186 57.156 150.204 56.382 150.204H53.934C53.16 150.204 52.818 150.186 52.368 150.132V152.04ZM51.792 154.776C52.206 154.722 52.602 154.704 53.25 154.704H56.832C57.696 154.704 57.876 154.704 58.29 154.758V152.616C58.092 152.706 57.822 152.724 56.778 152.724H53.25C52.566 152.724 52.224 152.706 51.792 152.634V154.776ZM52.404 157.296C52.782 157.242 52.98 157.242 53.538 157.242H56.832C57.408 157.242 57.516 157.242 57.93 157.296V155.442C57.624 155.496 57.444 155.496 56.832 155.496H53.538C52.962 155.496 52.764 155.496 52.404 155.442V157.296ZM52.404 159.834C52.746 159.798 52.98 159.78 53.52 159.78H56.796C57.408 159.78 57.534 159.78 57.93 159.834V157.98C57.588 158.034 57.39 158.034 56.832 158.034H53.538C52.98 158.034 52.746 158.016 52.404 157.98V159.834ZM54.42 165.72H56.04V166.278H58.11C58.074 165.828 58.056 165.594 58.056 164.91V161.778C58.056 161.076 58.056 160.86 58.092 160.518C57.804 160.572 57.606 160.572 56.94 160.572H53.61C53.052 160.572 52.656 160.554 52.242 160.518C52.296 160.95 52.314 161.346 52.314 161.904V164.766C52.314 165.36 52.278 165.99 52.224 166.53H54.42V165.72ZM54.402 162.3H56.04V163.866H54.402V162.3ZM61.386 165.774H65.436V166.53H67.74C67.686 166.098 67.65 165.504 67.65 164.694V161.22C67.65 160.644 67.668 160.248 67.704 159.834C67.416 159.87 67.11 159.888 66.318 159.888H60.612C59.91 159.888 59.55 159.87 59.118 159.834C59.154 160.194 59.172 160.518 59.172 161.004V164.676C59.172 165.396 59.154 165.99 59.1 166.548H61.386V165.774ZM61.386 161.85H65.436V163.704H61.386V161.85ZM72.348 150.654C72.42 151.14 72.456 151.824 72.456 152.688C72.456 152.778 72.456 152.85 72.438 152.94L72.366 162.57C72.366 163.542 72.33 163.812 72.186 164.226L73.554 165.846C73.878 165.702 74.076 165.648 74.634 165.54C79.872 164.586 82.968 162.642 85.524 158.7C84.552 157.908 84.264 157.602 83.472 156.504C82.59 158.214 81.51 159.474 79.98 160.572C78.576 161.58 77.1 162.21 75.174 162.606L75.282 152.922C75.282 151.932 75.318 151.374 75.408 150.69L72.348 150.654ZM89.646 155.082C90.438 156.684 90.78 157.62 91.266 159.582L93.678 158.844C93.048 156.81 92.688 155.91 91.896 154.434L89.646 155.082ZM93.57 154.308C94.272 155.712 94.848 157.26 95.19 158.682L97.548 157.962C97.098 156.324 96.756 155.514 95.802 153.696L93.57 154.308ZM99.762 154.056C99.744 154.65 99.654 155.244 99.438 156.126C98.7 159.006 97.512 160.86 95.424 162.372C94.398 163.092 93.624 163.506 92.256 164.028C93.156 164.892 93.408 165.216 93.966 166.17C96.81 164.73 98.412 163.452 99.69 161.616C100.752 160.068 101.526 158.088 102.048 155.658C102.192 155.01 102.21 154.956 102.318 154.65L99.762 154.056ZM121.992 163.614C118.914 160.68 118.464 160.284 116.142 158.628C117.186 157.206 117.996 155.748 118.86 153.732C119.076 153.21 119.22 152.976 119.454 152.724L118.068 151.284C117.636 151.482 117.546 151.5 116.556 151.5L110.418 151.608C110.292 151.608 110.148 151.608 110.076 151.608C108.96 151.608 108.456 151.59 107.88 151.5L107.916 154.236C108.6 154.128 108.942 154.11 110.436 154.074L115.692 153.984C115.278 154.902 114.972 155.55 114.738 155.946C113.586 157.962 112.002 159.708 110.022 161.148C108.672 162.138 107.61 162.714 106.026 163.344C106.908 164.262 107.16 164.604 107.754 165.738C110.49 164.406 112.866 162.624 114.468 160.716C116.484 162.282 118.284 164.046 119.814 165.954L121.992 163.614ZM124.908 153.516C126.636 154.47 128.148 155.658 129.642 157.242L131.46 154.884C130.02 153.552 128.994 152.796 126.672 151.392L124.908 153.516ZM125.772 165.504C126.15 165.378 126.258 165.342 126.672 165.252C127.014 165.18 127.014 165.18 127.464 165.09C129.192 164.712 131.262 163.974 132.702 163.218C135.834 161.562 137.958 159.186 139.74 155.334C138.624 154.542 138.3 154.236 137.454 153.246C136.932 154.65 136.446 155.622 135.636 156.828C134.232 158.934 132.63 160.284 130.344 161.238C128.688 161.958 126.636 162.444 124.98 162.552L125.772 165.504Z" fill="white"/>
<path d="M172.944 150.178C172.463 150.243 172.151 150.269 171.631 150.269H171.176V146.005C171.176 145.017 171.189 144.562 171.267 143.808H169.512C169.213 144.276 169.005 144.549 168.433 145.238L165.352 149.008C164.897 149.554 164.754 149.723 164.312 150.204V151.803C164.754 151.764 165.17 151.751 165.937 151.751H169.538V152.648C169.538 153.298 169.512 153.701 169.434 154.156H171.28C171.202 153.675 171.176 153.337 171.176 152.674V151.751H171.644C172.19 151.764 172.463 151.777 172.944 151.842V150.178ZM169.551 150.282H166.236L168.732 147.188C169.2 146.616 169.356 146.408 169.616 146.031C169.564 146.564 169.551 146.98 169.551 147.591V150.282ZM174.022 151.842C174.308 152.57 174.49 152.882 174.841 153.259C175.556 154.026 176.518 154.39 177.805 154.39C180.223 154.39 181.718 152.973 181.718 150.685C181.718 149.645 181.432 148.865 180.795 148.241C180.158 147.578 179.313 147.266 178.26 147.266C177.363 147.266 176.674 147.513 176.037 148.059C176.076 147.799 176.102 147.617 176.115 147.513L176.323 145.238H179.378C180.093 145.238 180.6 145.264 181.172 145.342V143.704C180.587 143.795 180.262 143.808 179.365 143.808H176.167C175.478 143.808 175.179 143.795 174.789 143.769C174.776 144.419 174.75 144.861 174.737 145.095L174.438 148.319C174.412 148.683 174.399 148.748 174.269 149.671L175.894 149.827C176.011 149.541 176.102 149.424 176.284 149.242C176.687 148.852 177.259 148.644 177.896 148.644C179.131 148.644 179.937 149.463 179.937 150.737C179.937 152.024 179.092 152.882 177.805 152.882C177.116 152.882 176.57 152.661 176.206 152.219C176.024 152.011 175.933 151.842 175.816 151.465L174.022 151.842ZM187.216 148.852C187.19 149.229 187.177 149.385 187.138 149.606C186.917 150.789 186.345 151.79 185.435 152.57C184.759 153.142 184.226 153.467 183.42 153.766C183.914 154.273 184.122 154.559 184.369 155.04C185.903 154.273 186.956 153.376 187.671 152.18C188.295 151.153 188.581 150.204 188.685 148.852H191.181C191.181 148.956 191.181 149.047 191.181 149.125C191.181 149.203 191.181 149.268 191.181 149.32V149.606C191.181 150.958 190.973 152.674 190.778 153.064C190.661 153.259 190.518 153.311 190.037 153.311C189.66 153.311 189.088 153.246 188.464 153.142C188.698 153.779 188.789 154.091 188.854 154.663C189.725 154.702 189.933 154.715 190.193 154.715C191.35 154.715 191.818 154.533 192.104 153.961C192.429 153.272 192.65 151.218 192.65 148.527C192.65 148.306 192.65 148.267 192.65 148.085C193.222 148.644 193.547 148.917 194.262 149.45C194.6 148.826 194.704 148.683 195.25 148.046C193.625 147.006 192.507 145.836 191.649 144.276C191.363 143.756 191.233 143.483 191.142 143.145L189.699 143.704C189.79 143.86 189.92 144.12 189.972 144.25C190.531 145.459 191.207 146.486 192.117 147.513C191.805 147.526 191.623 147.526 191.311 147.526H186.527C186.267 147.526 186.202 147.526 185.851 147.5C186.696 146.525 187.463 145.368 187.944 144.341C188.1 143.99 188.165 143.873 188.295 143.678L186.735 143.119C186.67 143.509 186.527 143.86 186.215 144.432C185.383 145.979 184.408 147.045 182.796 148.163C183.264 148.605 183.576 148.995 183.797 149.437C184.473 148.917 184.798 148.631 185.422 147.994V148.917C185.76 148.878 186.085 148.852 186.527 148.852H187.216Z" fill="white"/>
<path d="M172.45 77.743C171.982 77.795 171.644 77.808 170.669 77.808H166.535C165.768 77.808 165.352 77.782 164.754 77.717V79.433C165.287 79.368 165.69 79.342 166.457 79.342H170.474C169.33 80.954 168.797 81.838 168.199 83.125C167.445 84.737 167.055 85.985 166.626 88.156H168.68C169.031 85.413 169.72 83.424 171.098 81.123C171.657 80.187 172.034 79.654 172.45 79.251V77.743ZM174.022 85.842C174.308 86.57 174.49 86.882 174.841 87.259C175.556 88.026 176.518 88.39 177.805 88.39C180.223 88.39 181.718 86.973 181.718 84.685C181.718 83.645 181.432 82.865 180.795 82.241C180.158 81.578 179.313 81.266 178.26 81.266C177.363 81.266 176.674 81.513 176.037 82.059C176.076 81.799 176.102 81.617 176.115 81.513L176.323 79.238H179.378C180.093 79.238 180.6 79.264 181.172 79.342V77.704C180.587 77.795 180.262 77.808 179.365 77.808H176.167C175.478 77.808 175.179 77.795 174.789 77.769C174.776 78.419 174.75 78.861 174.737 79.095L174.438 82.319C174.412 82.683 174.399 82.748 174.269 83.671L175.894 83.827C176.011 83.541 176.102 83.424 176.284 83.242C176.687 82.852 177.259 82.644 177.896 82.644C179.131 82.644 179.937 83.463 179.937 84.737C179.937 86.024 179.092 86.882 177.805 86.882C177.116 86.882 176.57 86.661 176.206 86.219C176.024 86.011 175.933 85.842 175.816 85.465L174.022 85.842ZM187.216 82.852C187.19 83.229 187.177 83.385 187.138 83.606C186.917 84.789 186.345 85.79 185.435 86.57C184.759 87.142 184.226 87.467 183.42 87.766C183.914 88.273 184.122 88.559 184.369 89.04C185.903 88.273 186.956 87.376 187.671 86.18C188.295 85.153 188.581 84.204 188.685 82.852H191.181C191.181 82.956 191.181 83.047 191.181 83.125C191.181 83.203 191.181 83.268 191.181 83.32V83.606C191.181 84.958 190.973 86.674 190.778 87.064C190.661 87.259 190.518 87.311 190.037 87.311C189.66 87.311 189.088 87.246 188.464 87.142C188.698 87.779 188.789 88.091 188.854 88.663C189.725 88.702 189.933 88.715 190.193 88.715C191.35 88.715 191.818 88.533 192.104 87.961C192.429 87.272 192.65 85.218 192.65 82.527C192.65 82.306 192.65 82.267 192.65 82.085C193.222 82.644 193.547 82.917 194.262 83.45C194.6 82.826 194.704 82.683 195.25 82.046C193.625 81.006 192.507 79.836 191.649 78.276C191.363 77.756 191.233 77.483 191.142 77.145L189.699 77.704C189.79 77.86 189.92 78.12 189.972 78.25C190.531 79.459 191.207 80.486 192.117 81.513C191.805 81.526 191.623 81.526 191.311 81.526H186.527C186.267 81.526 186.202 81.526 185.851 81.5C186.696 80.525 187.463 79.368 187.944 78.341C188.1 77.99 188.165 77.873 188.295 77.678L186.735 77.119C186.67 77.509 186.527 77.86 186.215 78.432C185.383 79.979 184.408 81.045 182.796 82.163C183.264 82.605 183.576 82.995 183.797 83.437C184.473 82.917 184.798 82.631 185.422 81.994V82.917C185.76 82.878 186.085 82.852 186.527 82.852H187.216Z" fill="white"/>
<path d="M98.2412 53.6543C98.2412 54.3926 98.8389 54.9902 99.5771 54.9902H104.455V59.8682C104.455 60.5977 105.044 61.2041 105.782 61.2041C106.521 61.2041 107.118 60.5977 107.118 59.8682V54.9902H111.996C112.726 54.9902 113.323 54.3926 113.323 53.6543C113.323 52.9248 112.726 52.3271 111.996 52.3271H107.118V47.4492C107.118 46.7197 106.521 46.1133 105.782 46.1133C105.044 46.1133 104.455 46.7197 104.455 47.4492V52.3271H99.5771C98.8389 52.3271 98.2412 52.9248 98.2412 53.6543Z" fill="white"/>
<path d="M99.6299 112.043H104.42V116.842C104.42 117.606 105.044 118.23 105.809 118.23C106.582 118.23 107.197 117.606 107.197 116.842V112.043H111.996C112.752 112.043 113.385 111.428 113.385 110.663C113.385 109.89 112.752 109.274 111.996 109.274H107.197V104.476C107.197 103.711 106.582 103.087 105.809 103.087C105.044 103.087 104.42 103.711 104.42 104.476V109.274H99.6299C98.8652 109.274 98.2412 109.89 98.2412 110.663C98.2412 111.428 98.8652 112.043 99.6299 112.043Z" fill="white"/>
<path d="M218.9 87.4114C218.378 87.9334 218.378 88.7787 218.9 89.3007L222.35 92.7499L218.9 96.1991C218.384 96.715 218.372 97.5602 218.894 98.0822C219.416 98.6043 220.268 98.598 220.783 98.0822L224.233 94.633L227.682 98.0822C228.198 98.598 229.043 98.598 229.565 98.076C230.081 97.5602 230.081 96.715 229.565 96.1991L226.116 92.7499L229.565 89.3007C230.081 88.7849 230.087 87.9334 229.565 87.4114C229.043 86.8894 228.198 86.9018 227.682 87.4176L224.233 90.8668L220.783 87.4176C220.261 86.8956 219.416 86.8956 218.9 87.4114Z" fill="#FF4D77"/>
<circle cx="277.5" cy="89.5" r="37.5" fill="#FF4D77"/>
<path d="M271.952 87.474C270.879 87.619 270.183 87.677 269.023 87.677H268.008V78.165C268.008 75.961 268.037 74.946 268.211 73.264H264.296C263.629 74.308 263.165 74.917 261.889 76.454L255.016 84.864C254.001 86.082 253.682 86.459 252.696 87.532V91.099C253.682 91.012 254.61 90.983 256.321 90.983H264.354V92.984C264.354 94.434 264.296 95.333 264.122 96.348H268.24C268.066 95.275 268.008 94.521 268.008 93.042V90.983H269.052C270.27 91.012 270.879 91.041 271.952 91.186V87.474ZM264.383 87.706H256.988L262.556 80.804C263.6 79.528 263.948 79.064 264.528 78.223C264.412 79.412 264.383 80.34 264.383 81.703V87.706ZM284.072 79.151C282.796 79.151 281.984 79.122 281.259 79.035C281.346 79.789 281.375 80.514 281.375 81.355V88.286C281.375 89.156 281.346 89.823 281.259 90.606C282.129 90.519 282.622 90.49 284.072 90.49H290.249C291.467 90.49 292.221 90.519 293.062 90.606C292.975 89.852 292.946 89.214 292.946 88.286V81.355C292.946 80.456 292.975 79.731 293.062 79.035C292.308 79.122 291.525 79.151 290.249 79.151H284.072ZM284.42 81.877H289.872V87.764H284.42V81.877ZM299.616 98.407C299.5 97.682 299.442 96.232 299.442 94.666V76.28C299.442 74.83 299.5 73.873 299.616 72.8C298.514 72.916 297.615 72.945 296.165 72.945H278.185C276.764 72.945 275.865 72.916 274.792 72.8C274.908 73.873 274.966 74.917 274.966 76.28V94.637C274.966 96.232 274.908 97.479 274.792 98.407H278.156V96.812H296.223V98.407H299.616ZM278.156 75.845H296.223V93.941H278.156V75.845Z" fill="white"/>
<path d="M286.94 102.977L282.247 114.989H283.404L288.084 102.977H286.94ZM297.942 109.724V112.415C297.942 112.727 297.851 112.792 297.409 112.792C296.85 112.792 296.252 112.753 295.589 112.649C295.732 113.052 295.797 113.286 295.849 113.702C296.499 113.741 296.902 113.754 297.279 113.754C298.02 113.754 298.319 113.702 298.566 113.559C298.839 113.377 298.956 113.078 298.956 112.519V104.043C298.956 103.328 298.969 103.042 299.008 102.665C298.566 102.717 298.228 102.73 297.617 102.73H292.573C292.001 102.73 291.65 102.717 291.169 102.665C291.221 103.133 291.234 103.705 291.234 104.823C291.234 107.839 291.091 109.399 290.727 110.634C290.415 111.674 290.012 112.324 289.219 113.104C289.596 113.377 289.817 113.598 290.064 113.936C290.792 113.117 291.182 112.493 291.52 111.596C291.741 111.024 291.897 110.426 292.014 109.724H297.942ZM292.131 108.775C292.209 107.761 292.248 107.163 292.248 106.63H297.942V108.775H292.131ZM292.261 105.681V103.679H297.942V105.681H292.261Z" fill="white"/>
</svg>
