<svg width="221" height="47" viewBox="0 0 221 47" fill="none" xmlns="http://www.w3.org/2000/svg">
<path d="M21.812 3.08C21.028 3.304 20.776 3.332 19.096 3.332H4.48C2.548 3.332 1.68 3.276 0.616 3.108V6.608C1.764 6.468 2.464 6.44 4.424 6.44H19.124C18.48 7.784 17.612 8.932 16.464 9.996C15.316 11.088 14.252 11.732 12.376 12.572C13.636 13.524 14.056 13.944 14.896 15.12C16.212 14.392 17.136 13.776 18.256 12.796C19.964 11.34 21.588 9.24 22.568 7.168C23.296 5.712 23.296 5.684 23.688 5.208L21.812 3.08ZM8.512 8.736C8.624 9.324 8.652 9.576 8.652 10.416C8.652 15.708 7.756 18.116 4.9 20.384C3.528 21.476 2.268 22.092 0 22.764C1.12 23.94 1.484 24.444 2.212 25.956C5.712 24.5 7.756 23.072 9.436 20.916C11.34 18.48 12.096 15.792 12.208 11.004C12.236 9.296 12.236 9.268 12.32 8.736H8.512Z" fill="url(#paint0_linear)"/>
<path d="M48.608 6.552C47.908 6.776 47.656 6.804 46.396 6.804L40.18 6.832C40.264 5.936 40.264 5.684 40.292 5.068C40.348 3.612 40.348 3.612 40.404 3.024C40.404 2.828 40.432 2.66 40.432 2.492C40.46 2.1 40.488 1.988 40.544 1.624L36.792 1.54C36.876 2.044 36.876 2.268 36.876 2.632V3.332C36.876 4.144 36.82 5.768 36.736 6.832L31.836 6.86C30.436 6.86 29.68 6.804 28.728 6.636L28.756 10.08C29.68 9.968 30.072 9.94 31.78 9.94L36.428 9.912C36.4 10.108 36.344 10.388 36.288 10.78C36.036 12.74 35.616 14.112 34.86 15.652C33.376 18.648 31.08 20.86 27.58 22.708C28.756 23.744 29.148 24.192 30.1 25.676C33.628 23.436 36.12 20.888 37.66 17.92C38.92 15.512 39.508 13.412 39.9 9.912L46.424 9.884C46.424 13.104 46.144 16.912 45.808 18.844C45.36 21.28 44.94 21.896 43.736 21.896C42.812 21.896 41.692 21.7 40.04 21.252C40.544 22.54 40.628 23.072 40.684 24.836C42.14 25.06 43.092 25.144 44.156 25.144C47.516 25.144 48.496 23.996 49.224 19.152C49.504 17.304 49.812 12.992 49.896 9.828C49.924 8.848 49.98 8.456 50.204 7.952L48.608 6.552Z" fill="url(#paint1_linear)"/>
<path d="M73.696 2.912C72.772 3.08 72.212 3.108 70.084 3.108H61.852C59.752 3.108 59.192 3.08 58.24 2.912V6.328C59.136 6.216 59.5 6.188 61.796 6.188H70.14C72.436 6.188 72.828 6.216 73.696 6.328V2.912ZM75.46 13.188C77.644 13.188 78.064 13.216 79.016 13.328V9.996C78.036 10.164 77.476 10.192 75.404 10.192H59.024C56.952 10.192 56.392 10.164 55.412 9.996V13.328C56.364 13.216 56.784 13.188 58.968 13.188H65.772C65.576 18.62 63.392 21.392 57.904 23.128C59.052 24.22 59.528 24.836 60.2 26.236C66.528 23.8 69.16 20.104 69.468 13.188H75.46ZM81.396 4.256C80.724 2.604 80.052 1.484 78.932 0L76.916 0.728001C77.868 2.044 78.68 3.472 79.324 5.068L81.396 4.256ZM73.248 1.82C74.284 3.276 74.928 4.424 75.712 6.3L77.812 5.516C77.028 3.668 76.384 2.548 75.32 1.092L73.248 1.82Z" fill="url(#paint2_linear)"/>
<path d="M87.696 5.348C92.624 5.824 98.364 7.028 102.984 8.568L104.104 5.124C97.86 3.444 94.36 2.744 88.956 2.1L87.696 5.348ZM87.248 13.048C90.132 13.412 91.952 13.72 94.332 14.28C97.832 15.064 99.82 15.652 102.032 16.52L103.124 13.076C97.496 11.396 93.016 10.388 88.536 9.828L87.248 13.048ZM84.98 20.916C88.032 21.308 90.328 21.728 93.772 22.54C98.196 23.576 100.772 24.388 103.684 25.676L104.888 22.148C98.364 19.88 93.072 18.62 86.296 17.724L84.98 20.916Z" fill="url(#paint3_linear)"/>
<path d="M111.468 15.708C112.588 15.568 112.896 15.568 116.032 15.568H130.9C134.036 15.568 134.344 15.568 135.464 15.708V11.816C134.232 11.984 133.7 12.012 130.928 12.012H116.004C113.232 12.012 112.7 11.984 111.468 11.816V15.708Z" fill="url(#paint4_linear)"/>
<path d="M153.664 6.552C154.896 6.664 155.624 6.888 156.492 7.392C158.732 8.736 159.936 10.92 159.936 13.608C159.936 16.604 158.48 19.264 156.044 20.608C154.728 21.364 153.048 21.812 150.472 22.148C151.368 23.324 151.704 23.94 152.18 25.424C154.14 25.088 155.232 24.808 156.576 24.248C160.86 22.512 163.38 18.648 163.38 13.804C163.38 7.504 159.012 3.416 152.292 3.416C148.316 3.416 145.012 4.76 142.66 7.336C140.672 9.52 139.58 12.404 139.58 15.484C139.58 19.992 141.876 23.24 145.068 23.24C147.364 23.24 149.156 21.588 150.752 17.976C152.152 14.812 153.132 10.948 153.664 6.552ZM150.248 6.58C149.912 9.744 148.988 13.524 147.924 16.044C146.916 18.452 145.964 19.628 145.04 19.628C143.808 19.628 142.828 17.808 142.828 15.512C142.828 12.516 144.284 9.632 146.636 7.952C147.784 7.14 148.792 6.748 150.248 6.58Z" fill="url(#paint5_linear)"/>
<path d="M171.248 9.352V15.12C168.672 15.96 167.552 16.268 166.544 16.38L167.244 19.572C167.552 19.432 167.888 19.292 169.372 18.76C169.96 18.564 170.576 18.34 171.248 18.088V23.66C171.248 24.92 171.164 26.264 171.052 26.908H174.356C174.244 25.956 174.188 24.892 174.188 23.66V16.996C174.916 16.688 175.42 16.464 176.204 16.1V17.388C177.1 17.248 177.772 17.22 178.948 17.22H186.284V22.876C186.284 23.576 186.116 23.716 185.22 23.716C184.464 23.716 183.54 23.632 181.944 23.408C182.364 24.36 182.588 25.2 182.672 26.488C183.54 26.544 184.576 26.572 185.052 26.572C188.3 26.572 189.196 26.012 189.196 23.912V17.22H189.448C190.568 17.22 191.324 17.276 192.192 17.388V14.308C191.492 14.42 190.792 14.448 189.448 14.448H189.196V12.096H189.364C190.4 12.096 191.436 12.152 192.304 12.264V9.24C191.576 9.324 190.54 9.38 189.14 9.38H185.36V6.664H188.384C189.588 6.664 190.484 6.72 191.324 6.804V3.752C190.484 3.864 189.644 3.92 188.384 3.92H185.36V3.024C185.36 2.184 185.388 1.596 185.5 0.952001H182.252C182.364 1.652 182.42 2.24 182.42 3.052V3.92H180.068C178.808 3.92 177.996 3.864 177.184 3.752V6.804C178.024 6.72 178.92 6.664 180.068 6.664H182.42V9.38H179.228C178.22 9.38 177.52 9.352 176.652 9.296V6.356C176.036 6.468 175.42 6.524 174.412 6.524H174.188V3.22C174.188 2.296 174.244 1.652 174.356 0.924H171.052C171.192 1.68 171.248 2.38 171.248 3.22V6.524H169.96L170.044 5.376L170.1 4.956C170.156 4.088 170.156 4.032 170.268 3.528L167.524 3.192C167.552 3.528 167.58 3.724 167.58 3.892C167.58 6.664 167.02 9.94 166.152 12.208C167.132 12.544 167.776 12.852 168.588 13.468C169.064 12.012 169.344 10.864 169.596 9.352H171.248ZM174.188 9.352H174.636C175.084 9.352 175.448 9.352 176.064 9.38V12.264C176.904 12.124 177.744 12.096 179.228 12.096H186.284V14.448H179.312C178.08 14.448 177.268 14.42 176.624 14.364L176.596 13.132C175.644 13.552 175.28 13.692 174.188 14.112V9.352ZM177.408 18.9C179.032 20.552 179.844 21.616 180.964 23.492L183.4 21.644C182.224 19.908 181.16 18.676 179.732 17.36L177.408 18.9Z" fill="url(#paint6_linear)"/>
<path d="M214.9 16.156H217.532C218.512 16.156 219.352 16.212 220.052 16.324V13.3C219.296 13.412 218.54 13.468 217.28 13.468H202.356V11.984H214.228C215.376 11.984 216.02 12.012 216.804 12.124V9.548C216.272 9.632 215.348 9.688 214.228 9.688H202.356V8.316H214.228C214.928 8.316 216.244 8.372 216.804 8.456V5.908C216.216 5.992 215.348 6.048 214.228 6.048H202.356V4.648H214.648C216.328 4.648 216.972 4.676 217.868 4.788V1.82C217.028 1.96 216.244 1.988 214.62 1.988H202.076C200.704 1.988 199.864 1.96 199.024 1.848C199.108 2.632 199.136 3.108 199.136 4.62V13.468H197.68C196.392 13.468 195.356 13.412 194.768 13.3V16.324C195.692 16.184 196.448 16.156 197.624 16.156H199.136V23.128C197.288 23.464 196.056 23.604 195.16 23.632L195.748 26.768C196.252 26.628 196.336 26.628 197.008 26.488C201.964 25.536 204.932 24.808 207.956 23.8L207.928 21C205.968 21.644 204.736 21.98 202.3 22.512V16.156H204.736C205.884 18.564 207.004 19.992 209.02 21.7C211.764 23.996 214.9 25.508 219.1 26.572C219.576 25.172 219.912 24.444 220.584 23.352C217.924 22.876 215.6 22.092 213.248 20.86C214.312 20.216 215.208 19.572 215.936 18.928C216.972 18.004 217.308 17.696 217.532 17.528L214.9 16.156ZM214.592 16.156C213.808 17.108 212.24 18.452 210.84 19.404C209.412 18.368 208.712 17.612 207.9 16.156H214.592Z" fill="url(#paint7_linear)"/>
<path d="M8.816 43.212H2.576L1.232 46.204H0L5.12 35.004H6.288L11.408 46.204H10.16L8.816 43.212ZM8.384 42.252L5.696 36.236L3.008 42.252H8.384Z" fill="url(#paint8_linear)"/>
<path d="M21.1168 40.428C21.8528 40.588 22.4181 40.908 22.8127 41.388C23.2181 41.8573 23.4208 42.4653 23.4208 43.212C23.4208 44.172 23.0634 44.9133 22.3488 45.436C21.6448 45.948 20.5994 46.204 19.2128 46.204H14.0608V35.004H18.8928C20.1408 35.004 21.1061 35.2546 21.7888 35.756C22.4821 36.2573 22.8288 36.9666 22.8288 37.884C22.8288 38.5026 22.6741 39.0306 22.3648 39.468C22.0661 39.8946 21.6501 40.2146 21.1168 40.428ZM15.2448 35.98V40.044H18.8127C19.7194 40.044 20.4181 39.8733 20.9088 39.532C21.3994 39.18 21.6448 38.6733 21.6448 38.012C21.6448 37.3506 21.3994 36.8493 20.9088 36.508C20.4181 36.156 19.7194 35.98 18.8127 35.98H15.2448ZM19.1968 45.228C20.1994 45.228 20.9568 45.0573 21.4688 44.716C21.9808 44.3746 22.2367 43.8413 22.2367 43.116C22.2367 41.7186 21.2234 41.02 19.1968 41.02H15.2448V45.228H19.1968Z" fill="url(#paint9_linear)"/>
<path d="M31.8193 46.3C30.7099 46.3 29.7019 46.0546 28.7953 45.564C27.8993 45.0626 27.1952 44.38 26.6833 43.516C26.1819 42.652 25.9313 41.6813 25.9313 40.604C25.9313 39.5266 26.1819 38.556 26.6833 37.692C27.1952 36.828 27.8993 36.1506 28.7953 35.66C29.7019 35.1586 30.7099 34.908 31.8193 34.908C32.9286 34.908 33.9259 35.1533 34.8112 35.644C35.7072 36.1346 36.4112 36.8173 36.9232 37.692C37.4352 38.556 37.6912 39.5266 37.6912 40.604C37.6912 41.6813 37.4352 42.6573 36.9232 43.532C36.4112 44.396 35.7072 45.0733 34.8112 45.564C33.9259 46.0546 32.9286 46.3 31.8193 46.3ZM31.8193 45.244C32.7046 45.244 33.5046 45.0466 34.2192 44.652C34.9339 44.2466 35.4939 43.692 35.8993 42.988C36.3046 42.2733 36.5073 41.4786 36.5073 40.604C36.5073 39.7293 36.3046 38.94 35.8993 38.236C35.4939 37.5213 34.9339 36.9666 34.2192 36.572C33.5046 36.1666 32.7046 35.964 31.8193 35.964C30.9339 35.964 30.1286 36.1666 29.4033 36.572C28.6886 36.9666 28.1233 37.5213 27.7073 38.236C27.3019 38.94 27.0993 39.7293 27.0993 40.604C27.0993 41.4786 27.3019 42.2733 27.7073 42.988C28.1233 43.692 28.6886 44.2466 29.4033 44.652C30.1286 45.0466 30.9339 45.244 31.8193 45.244Z" fill="url(#paint10_linear)"/>
<path d="M45.6571 46.3C44.2065 46.3 43.0758 45.884 42.2651 45.052C41.4545 44.22 41.0491 43.0093 41.0491 41.42V35.004H42.2331V41.372C42.2331 42.6733 42.5265 43.644 43.1131 44.284C43.6998 44.924 44.5478 45.244 45.6571 45.244C46.7771 45.244 47.6305 44.924 48.2171 44.284C48.8038 43.644 49.0971 42.6733 49.0971 41.372V35.004H50.2491V41.42C50.2491 43.0093 49.8438 44.22 49.0331 45.052C48.2331 45.884 47.1078 46.3 45.6571 46.3Z" fill="url(#paint11_linear)"/>
<path d="M56.5742 36.028H52.6382V35.004H61.6942V36.028H57.7583V46.204H56.5742V36.028Z" fill="url(#paint12_linear)"/>
<defs>
<linearGradient id="paint0_linear" x1="32.3372" y1="9" x2="220.978" y2="29.1911" gradientUnits="userSpaceOnUse">
<stop stop-color="#FF4D77"/>
<stop offset="1" stop-color="#9E00D6"/>
</linearGradient>
<linearGradient id="paint1_linear" x1="32.3372" y1="9" x2="220.978" y2="29.1911" gradientUnits="userSpaceOnUse">
<stop stop-color="#FF4D77"/>
<stop offset="1" stop-color="#9E00D6"/>
</linearGradient>
<linearGradient id="paint2_linear" x1="32.3372" y1="9" x2="220.978" y2="29.1911" gradientUnits="userSpaceOnUse">
<stop stop-color="#FF4D77"/>
<stop offset="1" stop-color="#9E00D6"/>
</linearGradient>
<linearGradient id="paint3_linear" x1="32.3372" y1="9" x2="220.978" y2="29.1911" gradientUnits="userSpaceOnUse">
<stop stop-color="#FF4D77"/>
<stop offset="1" stop-color="#9E00D6"/>
</linearGradient>
<linearGradient id="paint4_linear" x1="32.3372" y1="9" x2="220.978" y2="29.1911" gradientUnits="userSpaceOnUse">
<stop stop-color="#FF4D77"/>
<stop offset="1" stop-color="#9E00D6"/>
</linearGradient>
<linearGradient id="paint5_linear" x1="32.3372" y1="9" x2="220.978" y2="29.1911" gradientUnits="userSpaceOnUse">
<stop stop-color="#FF4D77"/>
<stop offset="1" stop-color="#9E00D6"/>
</linearGradient>
<linearGradient id="paint6_linear" x1="32.3372" y1="9" x2="220.978" y2="29.1911" gradientUnits="userSpaceOnUse">
<stop stop-color="#FF4D77"/>
<stop offset="1" stop-color="#9E00D6"/>
</linearGradient>
<linearGradient id="paint7_linear" x1="32.3372" y1="9" x2="220.978" y2="29.1911" gradientUnits="userSpaceOnUse">
<stop stop-color="#FF4D77"/>
<stop offset="1" stop-color="#9E00D6"/>
</linearGradient>
<linearGradient id="paint8_linear" x1="1.95199" y1="37.7039" x2="219.378" y2="29.8549" gradientUnits="userSpaceOnUse">
<stop stop-color="#FF4D77"/>
<stop offset="1" stop-color="#D14DFF"/>
</linearGradient>
<linearGradient id="paint9_linear" x1="1.95199" y1="37.7039" x2="219.378" y2="29.8549" gradientUnits="userSpaceOnUse">
<stop stop-color="#FF4D77"/>
<stop offset="1" stop-color="#D14DFF"/>
</linearGradient>
<linearGradient id="paint10_linear" x1="1.95199" y1="37.7039" x2="219.378" y2="29.8549" gradientUnits="userSpaceOnUse">
<stop stop-color="#FF4D77"/>
<stop offset="1" stop-color="#D14DFF"/>
</linearGradient>
<linearGradient id="paint11_linear" x1="1.95199" y1="37.7039" x2="219.378" y2="29.8549" gradientUnits="userSpaceOnUse">
<stop stop-color="#FF4D77"/>
<stop offset="1" stop-color="#D14DFF"/>
</linearGradient>
<linearGradient id="paint12_linear" x1="1.95199" y1="37.7039" x2="219.378" y2="29.8549" gradientUnits="userSpaceOnUse">
<stop stop-color="#FF4D77"/>
<stop offset="1" stop-color="#D14DFF"/>
</linearGradient>
</defs>
</svg>
